G04 #@! TF.GenerationSoftware,KiCad,Pcbnew,7.0.7*
G04 #@! TF.CreationDate,2023-09-04T20:14:06-04:00*
G04 #@! TF.ProjectId,MainBoard,4d61696e-426f-4617-9264-2e6b69636164,rev?*
G04 #@! TF.SameCoordinates,Original*
G04 #@! TF.FileFunction,Paste,Bot*
G04 #@! TF.FilePolarity,Positive*
%FSLAX46Y46*%
G04 Gerber Fmt 4.6, Leading zero omitted, Abs format (unit mm)*
G04 Created by KiCad (PCBNEW 7.0.7) date 2023-09-04 20:14:06*
%MOMM*%
%LPD*%
G01*
G04 APERTURE LIST*
G04 Aperture macros list*
%AMRoundRect*
0 Rectangle with rounded corners*
0 $1 Rounding radius*
0 $2 $3 $4 $5 $6 $7 $8 $9 X,Y pos of 4 corners*
0 Add a 4 corners polygon primitive as box body*
4,1,4,$2,$3,$4,$5,$6,$7,$8,$9,$2,$3,0*
0 Add four circle primitives for the rounded corners*
1,1,$1+$1,$2,$3*
1,1,$1+$1,$4,$5*
1,1,$1+$1,$6,$7*
1,1,$1+$1,$8,$9*
0 Add four rect primitives between the rounded corners*
20,1,$1+$1,$2,$3,$4,$5,0*
20,1,$1+$1,$4,$5,$6,$7,0*
20,1,$1+$1,$6,$7,$8,$9,0*
20,1,$1+$1,$8,$9,$2,$3,0*%
G04 Aperture macros list end*
%ADD10RoundRect,0.250000X0.412500X0.650000X-0.412500X0.650000X-0.412500X-0.650000X0.412500X-0.650000X0*%
%ADD11RoundRect,0.140000X0.140000X0.170000X-0.140000X0.170000X-0.140000X-0.170000X0.140000X-0.170000X0*%
%ADD12RoundRect,0.250000X1.025000X1.000000X-1.025000X1.000000X-1.025000X-1.000000X1.025000X-1.000000X0*%
G04 APERTURE END LIST*
D10*
X42964500Y-27330400D03*
D11*
X41882000Y-27330400D03*
X40922000Y-27330400D03*
D10*
X39839500Y-27330400D03*
X42964500Y-23980400D03*
D11*
X41882000Y-23980400D03*
X40922000Y-23980400D03*
D10*
X39839500Y-23980400D03*
D12*
X133027500Y-85085000D03*
X145954500Y-82545000D03*
X90165000Y-66035000D03*
X103092000Y-63495000D03*
X144933750Y-123184999D03*
X157860750Y-120644999D03*
X171127500Y-85085000D03*
X184054500Y-82545000D03*
X4440000Y-104134999D03*
X17367000Y-101594999D03*
X209227500Y-85085000D03*
X222154500Y-82545000D03*
X213990000Y-46985000D03*
X226917000Y-44445000D03*
X128265000Y-66035000D03*
X141192000Y-63495000D03*
X228277500Y-85085000D03*
X241204500Y-82545000D03*
X185415000Y-66035000D03*
X198342000Y-63495000D03*
X199702500Y-104134999D03*
X212629500Y-101594999D03*
X71115000Y-66035000D03*
X84042000Y-63495000D03*
X109215000Y-66035000D03*
X122142000Y-63495000D03*
X85402500Y-104134999D03*
X98329500Y-101594999D03*
X252090000Y-46985000D03*
X265017000Y-44445000D03*
X261615000Y-66035000D03*
X274542000Y-63495000D03*
X278283750Y-85085000D03*
X291210750Y-82545000D03*
X73496250Y-123184999D03*
X86423250Y-120644999D03*
X213990000Y-123184999D03*
X226917000Y-120644999D03*
X49683750Y-123184999D03*
X62610750Y-120644999D03*
X23490000Y-46985000D03*
X36417000Y-44445000D03*
X252090000Y-123184999D03*
X265017000Y-120644999D03*
X30633750Y-85085000D03*
X43560750Y-82545000D03*
X247327500Y-85085000D03*
X260254500Y-82545000D03*
X271140000Y-123184999D03*
X284067000Y-120644999D03*
X25871249Y-123184999D03*
X38798249Y-120644999D03*
X161602500Y-104134999D03*
X174529500Y-101594999D03*
X118739999Y-46985000D03*
X131666999Y-44445000D03*
X123502500Y-104134999D03*
X136429500Y-101594999D03*
X233040000Y-46985000D03*
X245967000Y-44445000D03*
X52065000Y-66035000D03*
X64992000Y-63495000D03*
X42540000Y-46985000D03*
X55467000Y-44445000D03*
X175890000Y-46985000D03*
X188817000Y-44445000D03*
X237802500Y-104134999D03*
X250729500Y-101594999D03*
X273521250Y-104134999D03*
X286448250Y-101594999D03*
X4440000Y-123184999D03*
X17367000Y-120644999D03*
X4440000Y-85085000D03*
X17367000Y-82545000D03*
X218752500Y-104134999D03*
X231679500Y-101594999D03*
X156840000Y-46985000D03*
X169767000Y-44445000D03*
X285427500Y-66035000D03*
X298354500Y-63495000D03*
X94927500Y-85085000D03*
X107854500Y-82545000D03*
X190177500Y-85085000D03*
X203104500Y-82545000D03*
X233040000Y-123184999D03*
X245967000Y-120644999D03*
X4440000Y-66035000D03*
X17367000Y-63495000D03*
X166365000Y-66035000D03*
X179292000Y-63495000D03*
X290190000Y-123184999D03*
X303117000Y-120644999D03*
X280665000Y-46985000D03*
X293592000Y-44445000D03*
X242565000Y-66035000D03*
X255492000Y-63495000D03*
X56827500Y-85085000D03*
X69754500Y-82545000D03*
X75877500Y-85085000D03*
X88804500Y-82545000D03*
X147315000Y-66035000D03*
X160242000Y-63495000D03*
X61590000Y-46985000D03*
X74517000Y-44445000D03*
X80640000Y-46985000D03*
X93567000Y-44445000D03*
X28252500Y-66035000D03*
X41179500Y-63495000D03*
X99689999Y-46985000D03*
X112616999Y-44445000D03*
X194940000Y-46985000D03*
X207867000Y-44445000D03*
X66352500Y-104134999D03*
X79279500Y-101594999D03*
X35396250Y-104134999D03*
X48323250Y-101594999D03*
X113977500Y-85085000D03*
X126904500Y-82545000D03*
X223515000Y-66035000D03*
X236442000Y-63495000D03*
X137790000Y-46985000D03*
X150717000Y-44445000D03*
X104452500Y-104134999D03*
X117379500Y-101594999D03*
X204465000Y-66035000D03*
X217392000Y-63495000D03*
X180652500Y-104134999D03*
X193579500Y-101594999D03*
X142552500Y-104134999D03*
X155479500Y-101594999D03*
X152077500Y-85085000D03*
X165004500Y-82545000D03*
M02*
