M48
; DRILL file {KiCad 7.0.7} date Mon 04 Sep 2023 01:56:22 PM EDT
; FORMAT={-:-/ absolute / metric / decimal}
; #@! TF.CreationDate,2023-09-04T13:56:22-04:00
; #@! TF.GenerationSoftware,Kicad,Pcbnew,7.0.7
; #@! TF.FileFunction,NonPlated,1,2,NPTH
FMAT,2
METRIC
; #@! TA.AperFunction,NonPlated,NPTH,ComponentDrill
T1C1.500
; #@! TA.AperFunction,NonPlated,NPTH,ComponentDrill
T2C1.750
; #@! TA.AperFunction,NonPlated,NPTH,ComponentDrill
T3C1.800
; #@! TA.AperFunction,NonPlated,NPTH,ComponentDrill
T4C2.750
; #@! TA.AperFunction,NonPlated,NPTH,ComponentDrill
T5C3.048
; #@! TA.AperFunction,NonPlated,NPTH,ComponentDrill
T6C3.050
; #@! TA.AperFunction,NonPlated,NPTH,ComponentDrill
T7C3.200
; #@! TA.AperFunction,NonPlated,NPTH,ComponentDrill
T8C3.988
; #@! TA.AperFunction,NonPlated,NPTH,ComponentDrill
T9C4.000
%
G90
G05
T1
X5.03Y-23.575
X5.03Y-28.425
T2
X6.445Y-68.575
X6.445Y-87.625
X6.445Y-106.675
X6.445Y-125.725
X16.605Y-68.575
X16.605Y-87.625
X16.605Y-106.675
X16.605Y-125.725
X25.495Y-49.525
X27.876Y-125.725
X30.258Y-68.575
X32.639Y-87.625
X35.655Y-49.525
X37.401Y-106.675
X38.036Y-125.725
X40.417Y-68.575
X42.799Y-87.625
X44.545Y-49.525
X47.561Y-106.675
X51.689Y-125.725
X54.07Y-68.575
X54.705Y-49.525
X58.832Y-87.625
X61.849Y-125.725
X63.595Y-49.525
X64.23Y-68.575
X68.358Y-106.675
X68.992Y-87.625
X73.12Y-68.575
X73.755Y-49.525
X75.501Y-125.725
X77.882Y-87.625
X78.517Y-106.675
X82.645Y-49.525
X83.28Y-68.575
X85.661Y-125.725
X87.407Y-106.675
X88.042Y-87.625
X92.17Y-68.575
X92.805Y-49.525
X96.932Y-87.625
X97.567Y-106.675
X101.695Y-49.525
X102.33Y-68.575
X106.457Y-106.675
X107.093Y-87.625
X111.22Y-68.575
X111.855Y-49.525
X115.983Y-87.625
X116.617Y-106.675
X120.745Y-49.525
X121.38Y-68.575
X125.507Y-106.675
X126.142Y-87.625
X130.27Y-68.575
X130.905Y-49.525
X135.032Y-87.625
X135.667Y-106.675
X139.795Y-49.525
X140.43Y-68.575
X144.558Y-106.675
X145.192Y-87.625
X146.939Y-125.725
X149.32Y-68.575
X149.955Y-49.525
X154.082Y-87.625
X154.718Y-106.675
X157.099Y-125.725
X158.845Y-49.525
X159.48Y-68.575
X163.607Y-106.675
X164.242Y-87.625
X168.37Y-68.575
X169.005Y-49.525
X173.132Y-87.625
X173.767Y-106.675
X177.895Y-49.525
X178.53Y-68.575
X182.657Y-106.675
X183.292Y-87.625
X187.42Y-68.575
X188.055Y-49.525
X192.183Y-87.625
X192.817Y-106.675
X196.945Y-49.525
X197.58Y-68.575
X201.707Y-106.675
X202.343Y-87.625
X206.47Y-68.575
X207.105Y-49.525
X211.232Y-87.625
X211.867Y-106.675
X215.995Y-49.525
X215.995Y-125.725
X216.63Y-68.575
X220.757Y-106.675
X221.392Y-87.625
X225.52Y-68.575
X226.155Y-49.525
X226.155Y-125.725
X230.282Y-87.625
X230.917Y-106.675
X235.045Y-49.525
X235.045Y-125.725
X235.68Y-68.575
X239.807Y-106.675
X240.442Y-87.625
X244.57Y-68.575
X245.205Y-49.525
X245.205Y-125.725
X249.332Y-87.625
X249.968Y-106.675
X254.095Y-49.525
X254.095Y-125.725
X254.73Y-68.575
X259.493Y-87.625
X263.62Y-68.575
X264.255Y-49.525
X264.255Y-125.725
X273.145Y-125.725
X273.78Y-68.575
X275.526Y-106.675
X280.289Y-87.625
X282.67Y-49.525
X283.305Y-125.725
X285.686Y-106.675
X287.433Y-68.575
X290.449Y-87.625
X292.195Y-125.725
X292.83Y-49.525
X297.592Y-68.575
X302.355Y-125.725
T3
X2.0Y-23.275
X2.0Y-28.725
T4
X244.8Y-10.95
X244.8Y-33.95
X302.8Y-10.95
X302.8Y-33.95
T5
X30.543Y-99.69
X54.419Y-99.69
X102.019Y-118.74
X202.019Y-118.74
X268.668Y-99.69
X273.431Y-80.64
X275.812Y-42.54
X292.544Y-99.69
X297.307Y-80.64
X299.688Y-42.54
T6
X7.715Y-66.035
X7.715Y-85.085
X7.715Y-104.135
X7.715Y-123.185
X14.065Y-63.495
X14.065Y-82.545
X14.065Y-101.595
X14.065Y-120.645
X26.765Y-46.985
X29.146Y-123.185
X31.527Y-66.035
X33.115Y-44.445
X33.909Y-85.085
X35.496Y-120.645
X37.877Y-63.495
X38.671Y-104.135
X40.259Y-82.545
X45.021Y-101.595
X45.815Y-46.985
X52.165Y-44.445
X52.959Y-123.185
X55.34Y-66.035
X59.309Y-120.645
X60.102Y-85.085
X61.69Y-63.495
X64.865Y-46.985
X66.453Y-82.545
X69.627Y-104.135
X71.215Y-44.445
X74.39Y-66.035
X75.977Y-101.595
X76.771Y-123.185
X79.153Y-85.085
X80.74Y-63.495
X83.121Y-120.645
X83.915Y-46.985
X85.502Y-82.545
X88.677Y-104.135
X90.265Y-44.445
X93.44Y-66.035
X95.027Y-101.595
X98.203Y-85.085
X99.79Y-63.495
X102.965Y-46.985
X104.552Y-82.545
X107.727Y-104.135
X109.315Y-44.445
X112.49Y-66.035
X114.078Y-101.595
X117.252Y-85.085
X118.84Y-63.495
X122.015Y-46.985
X123.602Y-82.545
X126.777Y-104.135
X128.365Y-44.445
X131.54Y-66.035
X133.127Y-101.595
X136.302Y-85.085
X137.89Y-63.495
X141.065Y-46.985
X142.653Y-82.545
X145.827Y-104.135
X147.415Y-44.445
X148.209Y-123.185
X150.59Y-66.035
X152.177Y-101.595
X154.559Y-120.645
X155.352Y-85.085
X156.94Y-63.495
X160.115Y-46.985
X161.702Y-82.545
X164.877Y-104.135
X166.465Y-44.445
X169.64Y-66.035
X171.227Y-101.595
X174.403Y-85.085
X175.99Y-63.495
X179.165Y-46.985
X180.752Y-82.545
X183.927Y-104.135
X185.515Y-44.445
X188.69Y-66.035
X190.278Y-101.595
X193.452Y-85.085
X195.04Y-63.495
X198.215Y-46.985
X199.802Y-82.545
X202.977Y-104.135
X204.565Y-44.445
X207.74Y-66.035
X209.327Y-101.595
X212.502Y-85.085
X214.09Y-63.495
X217.265Y-46.985
X217.265Y-123.185
X218.852Y-82.545
X222.028Y-104.135
X223.615Y-44.445
X223.615Y-120.645
X226.79Y-66.035
X228.377Y-101.595
X231.552Y-85.085
X233.14Y-63.495
X236.315Y-46.985
X236.315Y-123.185
X237.903Y-82.545
X241.077Y-104.135
X242.665Y-44.445
X242.665Y-120.645
X245.84Y-66.035
X247.427Y-101.595
X250.602Y-85.085
X252.19Y-63.495
X255.365Y-46.985
X255.365Y-123.185
X256.952Y-82.545
X261.715Y-44.445
X261.715Y-120.645
X264.89Y-66.035
X271.24Y-63.495
X274.415Y-123.185
X276.796Y-104.135
X280.765Y-120.645
X281.559Y-85.085
X283.146Y-101.595
X283.94Y-46.985
X287.909Y-82.545
X288.702Y-66.035
X290.29Y-44.445
X293.465Y-123.185
X295.053Y-63.495
X299.815Y-120.645
T7
X3.404Y-10.516
X23.089Y-68.072
X23.19Y-106.782
X92.989Y-34.9
X123.969Y-121.725
X163.906Y-77.419
X180.069Y-121.725
X180.924Y-34.9
X260.502Y-106.782
X280.391Y-68.072
T8
X30.543Y-114.9
X54.419Y-114.9
X102.019Y-133.95
X202.019Y-133.95
X268.668Y-114.9
X273.431Y-95.85
X275.812Y-57.75
X292.544Y-114.9
X297.307Y-95.85
X299.688Y-57.75
T9
X11.525Y-68.575
X11.525Y-87.625
X11.525Y-106.675
X11.525Y-125.725
X30.575Y-49.525
X32.956Y-125.725
X35.337Y-68.575
X37.719Y-87.625
X42.481Y-106.675
X49.625Y-49.525
X56.769Y-125.725
X59.15Y-68.575
X63.912Y-87.625
X68.675Y-49.525
X73.438Y-106.675
X78.2Y-68.575
X80.581Y-125.725
X82.962Y-87.625
X87.725Y-49.525
X92.487Y-106.675
X97.25Y-68.575
X102.012Y-87.625
X106.775Y-49.525
X111.537Y-106.675
X116.3Y-68.575
X121.062Y-87.625
X125.825Y-49.525
X130.588Y-106.675
X135.35Y-68.575
X140.112Y-87.625
X144.875Y-49.525
X149.637Y-106.675
X152.019Y-125.725
X154.4Y-68.575
X159.162Y-87.625
X163.925Y-49.525
X168.688Y-106.675
X173.45Y-68.575
X178.213Y-87.625
X182.975Y-49.525
X187.737Y-106.675
X192.5Y-68.575
X197.262Y-87.625
X202.025Y-49.525
X206.787Y-106.675
X211.55Y-68.575
X216.312Y-87.625
X221.075Y-49.525
X221.075Y-125.725
X225.837Y-106.675
X230.6Y-68.575
X235.362Y-87.625
X240.125Y-49.525
X240.125Y-125.725
X244.887Y-106.675
X249.65Y-68.575
X254.412Y-87.625
X259.175Y-49.525
X259.175Y-125.725
X268.7Y-68.575
X278.225Y-125.725
X280.606Y-106.675
X285.369Y-87.625
X287.75Y-49.525
X292.512Y-68.575
X297.275Y-125.725
T0
M30
