M48
; DRILL file {KiCad 7.0.8} date Sat 07 Oct 2023 09:47:04 AM EDT
; FORMAT={-:-/ absolute / metric / decimal}
; #@! TF.CreationDate,2023-10-07T09:47:04-04:00
; #@! TF.GenerationSoftware,Kicad,Pcbnew,7.0.8
; #@! TF.FileFunction,Plated,1,2,PTH
FMAT,2
METRIC
; #@! TA.AperFunction,Plated,PTH,ViaDrill
T1C0.400
; #@! TA.AperFunction,Plated,PTH,ComponentDrill
T2C0.800
; #@! TA.AperFunction,Plated,PTH,ComponentDrill
T3C1.000
; #@! TA.AperFunction,Plated,PTH,ComponentDrill
T4C1.020
; #@! TA.AperFunction,Plated,PTH,ComponentDrill
T5C2.600
%
G90
G05
T1
X1.702Y-20.015
X1.854Y-25.908
X2.057Y-30.912
X2.184Y-21.311
X2.769Y-25.959
X3.073Y-20.066
X3.937Y-21.387
X4.039Y-31.013
X4.14Y-20.193
X4.44Y-66.035
X4.496Y-25.832
X5.029Y-43.155
X5.817Y-44.094
X6.629Y-26.111
X6.629Y-45.136
X6.909Y-28.829
X6.985Y-30.175
X7.341Y-23.571
X7.493Y-46.253
X7.607Y-129.616
X8.179Y-25.781
X8.179Y-30.531
X8.814Y-20.015
X8.915Y-52.07
X9.738Y-129.616
X9.754Y-30.175
X9.957Y-26.416
X10.07Y-60.8
X10.77Y-20.117
X11.11Y-98.86
X11.252Y-30.709
X11.868Y-129.616
X11.925Y-49.375
X13.08Y-76.45
X13.31Y-24.816
X13.625Y-51.075
X13.999Y-129.616
X14.529Y-22.022
X14.529Y-29.972
X14.935Y-43.383
X15.418Y-45.872
X15.51Y-112.11
X15.582Y-48.616
X15.94Y-60.8
X16.13Y-129.616
X16.307Y-23.444
X16.307Y-49.784
X16.434Y-53.746
X16.586Y-79.121
X16.993Y-19.914
X17.378Y-28.147
X17.45Y-24.765
X18.085Y-32.69
X18.261Y-129.616
X18.517Y-23.47
X18.593Y-19.888
X19.228Y-27.178
X19.482Y-32.283
X19.901Y-79.146
X20.117Y-57.455
X20.193Y-58.953
X20.218Y-55.118
X20.32Y-19.888
X20.392Y-129.616
X20.701Y-26.467
X20.828Y-27.61
X20.93Y-43.637
X20.98Y-32.537
X21.465Y-23.19
X22.269Y-43.219
X22.523Y-129.616
X23.317Y-32.537
X23.49Y-46.985
X24.654Y-129.616
X25.197Y-32.461
X25.871Y-123.185
X25.933Y-39.04
X26.785Y-129.616
X28.252Y-66.035
X28.753Y-31.189
X28.916Y-129.616
X29.185Y-20.041
X29.21Y-24.613
X29.21Y-26.111
X29.21Y-27.762
X30.328Y-24.613
X30.328Y-26.111
X30.328Y-27.762
X30.474Y-20.041
X30.634Y-85.085
X31.047Y-129.616
X31.445Y-24.613
X31.445Y-26.111
X31.445Y-27.762
X31.764Y-20.041
X32.563Y-24.613
X32.563Y-26.111
X32.563Y-27.762
X33.054Y-20.041
X33.178Y-129.616
X33.68Y-24.613
X33.68Y-26.111
X33.68Y-27.762
X34.344Y-20.041
X34.595Y-11.405
X35.309Y-129.616
X35.562Y-11.405
X35.633Y-20.041
X36.144Y-27.33
X36.53Y-11.405
X36.923Y-20.041
X37.44Y-129.616
X37.498Y-11.405
X37.973Y-66.802
X38.176Y-31.013
X38.213Y-20.041
X38.329Y-57.556
X38.465Y-11.405
X39.167Y-70.739
X39.167Y-76.429
X39.433Y-11.405
X39.503Y-20.041
X39.571Y-129.616
X39.84Y-23.98
X40.208Y-8.255
X40.401Y-11.405
X40.488Y-66.802
X40.691Y-56.464
X40.792Y-20.041
X41.368Y-11.405
X41.413Y-8.255
X41.653Y-43.913
X41.701Y-129.616
X42.336Y-11.405
X42.431Y-56.794
X42.52Y-31.189
X42.54Y-46.985
X42.618Y-8.255
X42.965Y-27.33
X43.282Y-91.084
X43.303Y-11.405
X43.823Y-8.255
X43.832Y-129.616
X44.271Y-11.405
X44.907Y-27.711
X45.009Y-36.982
X45.028Y-8.255
X45.239Y-11.405
X45.72Y-25.4
X45.963Y-129.616
X45.999Y-23.546
X46.206Y-11.405
X46.233Y-8.255
X47.174Y-11.405
X47.32Y-23.851
X47.438Y-8.255
X47.498Y-25.552
X48.094Y-129.616
X48.108Y-132.207
X48.141Y-11.405
X48.643Y-8.255
X49.109Y-11.405
X49.276Y-67.716
X49.454Y-69.952
X49.555Y-72.034
X49.684Y-123.185
X49.733Y-55.169
X49.784Y-53.848
X49.848Y-8.255
X50.077Y-11.405
X50.239Y-132.207
X51.044Y-11.405
X51.053Y-8.255
X52.012Y-11.405
X52.065Y-66.035
X52.258Y-8.255
X52.369Y-132.207
X52.98Y-11.405
X53.463Y-8.255
X53.947Y-11.405
X54.5Y-132.207
X54.668Y-8.255
X54.915Y-11.455
X55.873Y-8.255
X56.134Y-20.091
X56.631Y-132.207
X56.828Y-85.085
X56.896Y-29.7
X57.078Y-8.255
X57.08Y-20.091
X57.937Y-29.718
X58.026Y-20.091
X58.283Y-8.255
X58.762Y-132.207
X58.97Y-29.7
X58.97Y-34.439
X58.972Y-20.091
X59.488Y-8.255
X59.919Y-20.091
X59.969Y-29.7
X59.969Y-34.442
X60.693Y-8.255
X60.698Y-35.593
X60.893Y-132.207
X61.824Y-26.949
X61.898Y-8.255
X62.633Y-36.503
X63.024Y-132.207
X63.103Y-8.255
X64.308Y-8.255
X65.155Y-132.207
X65.513Y-8.255
X65.716Y-55.804
X65.98Y-53.68
X66.352Y-104.135
X66.718Y-8.255
X66.929Y-29.7
X67.286Y-132.207
X67.669Y-65.148
X67.691Y-53.721
X67.923Y-8.255
X68.0Y-19.1
X69.128Y-8.255
X69.139Y-27.501
X69.417Y-132.207
X70.053Y-53.798
X70.333Y-8.255
X70.8Y-17.6
X71.115Y-66.035
X71.548Y-132.207
X73.496Y-123.185
X73.679Y-132.207
X74.003Y-85.192
X74.722Y-44.65
X75.81Y-132.207
X75.877Y-85.085
X77.941Y-132.207
X79.578Y-82.448
X80.071Y-132.207
X80.206Y-80.756
X80.675Y-70.3
X82.202Y-132.207
X84.333Y-132.207
X85.184Y-103.917
X85.496Y-31.623
X85.623Y-39.07
X86.464Y-132.207
X86.716Y-31.648
X88.011Y-31.674
X88.595Y-132.207
X89.383Y-31.699
X90.165Y-66.035
X90.576Y-31.699
X94.769Y-53.377
X95.58Y-46.787
X95.932Y-44.928
X95.987Y-39.065
X96.621Y-32.074
X97.133Y-39.157
X97.15Y-59.05
X97.314Y-32.795
X98.013Y-33.509
X98.129Y-39.237
X98.222Y-43.561
X98.738Y-34.197
X99.124Y-39.335
X99.69Y-46.985
X100.123Y-39.362
X101.292Y-53.247
X102.248Y-39.52
X103.092Y-63.495
X103.581Y-43.585
X104.1Y-13.0
X104.453Y-104.135
X104.662Y-44.31
X105.893Y-45.034
X107.036Y-45.62
X108.026Y-39.724
X108.697Y-51.688
X108.8Y-133.3
X109.059Y-39.724
X109.215Y-66.035
X109.694Y-51.766
X110.084Y-39.724
X110.693Y-51.766
X111.0Y-133.5
X111.612Y-46.351
X112.617Y-44.445
X112.725Y-39.724
X113.977Y-85.085
X114.986Y-47.904
X115.087Y-49.809
X115.088Y-39.776
X116.484Y-49.835
X116.992Y-43.383
X117.018Y-35.763
X117.043Y-53.061
X117.246Y-38.227
X117.272Y-39.319
X117.38Y-36.695
X117.957Y-90.776
X118.237Y-43.434
X118.356Y-40.42
X119.589Y-40.375
X120.13Y-70.485
X121.396Y-74.489
X122.142Y-63.495
X123.502Y-104.135
X124.104Y-38.024
X125.247Y-43.028
X125.603Y-65.278
X125.806Y-38.838
X125.882Y-80.645
X126.18Y-79.273
X126.904Y-69.367
X126.904Y-73.228
X127.737Y-80.645
X128.676Y-37.312
X129.725Y-117.728
X129.725Y-120.497
X129.738Y-119.1
X129.738Y-121.869
X129.744Y-62.433
X130.06Y-88.494
X130.06Y-90.78
X130.785Y-79.146
X130.906Y-117.728
X130.906Y-120.497
X130.919Y-119.1
X130.919Y-121.869
X131.322Y-44.1
X131.509Y-90.805
X132.087Y-117.728
X132.087Y-120.497
X132.1Y-119.1
X132.1Y-121.869
X132.258Y-38.838
X133.028Y-85.085
X133.147Y-62.89
X133.19Y-12.465
X133.268Y-117.728
X133.268Y-120.497
X133.281Y-119.1
X133.281Y-121.869
X134.2Y-14.5
X134.2Y-18.0
X134.45Y-117.728
X134.45Y-120.497
X134.462Y-119.1
X134.462Y-121.869
X134.659Y-50.648
X135.001Y-74.93
X135.631Y-117.728
X135.631Y-120.497
X135.643Y-119.1
X135.643Y-121.869
X136.195Y-39.04
X136.373Y-36.754
X136.812Y-117.728
X136.812Y-120.497
X136.824Y-119.1
X136.824Y-121.869
X137.287Y-38.405
X137.49Y-35.585
X137.725Y-71.399
X137.89Y-13.19
X137.993Y-117.728
X137.993Y-120.497
X138.005Y-119.1
X138.005Y-121.869
X138.455Y-38.506
X138.532Y-34.061
X139.344Y-39.288
X140.894Y-38.564
X141.122Y-79.426
X141.192Y-63.495
X141.529Y-42.088
X141.63Y-44.628
X142.552Y-104.135
X142.663Y-44.619
X143.219Y-77.318
X143.394Y-39.288
X144.12Y-43.688
X146.7Y-12.8
X147.315Y-66.035
X150.444Y-41.82
X150.717Y-44.445
X151.968Y-41.821
X152.077Y-85.085
X154.0Y-11.0
X154.114Y-61.214
X155.23Y-8.7
X155.929Y-88.773
X155.929Y-91.745
X156.032Y-81.686
X156.134Y-44.755
X157.048Y-106.299
X157.977Y-76.81
X158.048Y-106.299
X158.471Y-9.596
X159.047Y-106.326
X160.274Y-63.627
X161.602Y-104.135
X164.77Y-11.074
X166.724Y-9.334
X169.168Y-9.59
X169.767Y-44.445
X170.307Y-42.113
X171.127Y-85.085
X172.999Y-55.093
X174.164Y-59.288
X174.777Y-57.201
X175.514Y-44.272
X179.883Y-9.59
X180.653Y-104.135
X184.189Y-42.291
X185.415Y-66.035
X185.649Y-86.919
X185.979Y-47.625
X186.646Y-86.854
X189.305Y-53.364
X190.177Y-85.085
X191.501Y-41.808
X192.226Y-42.52
X192.391Y-31.646
X192.951Y-43.219
X193.044Y-32.402
X193.579Y-101.595
X193.65Y-43.967
X193.797Y-33.06
X194.029Y-94.259
X194.081Y-58.649
X194.488Y-33.782
X194.894Y-89.383
X195.654Y-38.127
X196.926Y-38.075
X197.155Y-41.834
X197.231Y-52.629
X198.196Y-94.209
X199.942Y-58.877
X203.098Y-70.637
X203.105Y-82.545
X203.302Y-47.066
X204.465Y-66.035
X204.911Y-37.405
X205.765Y-101.956
X206.019Y-38.506
X207.8Y-28.6
X209.06Y-40.804
X209.227Y-85.085
X210.157Y-117.148
X212.78Y-10.31
X213.99Y-46.985
X213.99Y-123.185
X215.722Y-112.37
X215.951Y-105.943
X218.491Y-36.982
X220.294Y-97.714
X220.32Y-89.154
X223.515Y-66.035
X224.561Y-38.862
X224.714Y-114.783
X225.563Y-40.08
X226.264Y-40.804
X226.917Y-46.78
X227.025Y-37.338
X227.025Y-41.504
X227.914Y-31.166
X228.278Y-85.085
X228.448Y-39.192
X231.064Y-32.309
X231.064Y-35.814
X233.04Y-46.985
X233.096Y-39.23
X234.213Y-40.779
X234.925Y-105.512
X234.95Y-41.504
X235.712Y-39.23
X236.296Y-28.092
X236.296Y-31.039
X236.296Y-34.277
X237.541Y-35.611
X238.784Y-134.4
X239.192Y-88.9
X239.192Y-96.047
X239.446Y-32.309
X239.801Y-39.23
X240.69Y-42.164
X240.914Y-134.4
X241.3Y-24.968
X241.397Y-41.439
X242.087Y-39.98
X242.565Y-66.035
X243.045Y-134.4
X243.32Y-51.269
X244.466Y-61.249
X245.176Y-134.4
X245.212Y-27.203
X245.212Y-28.499
X245.212Y-29.769
X245.466Y-51.587
X245.967Y-44.445
X246.259Y-27.203
X246.259Y-28.499
X246.259Y-29.769
X247.307Y-27.203
X247.307Y-28.499
X247.307Y-29.769
X247.307Y-134.4
X247.327Y-85.085
X248.006Y-39.687
X248.355Y-27.203
X248.355Y-28.499
X248.355Y-29.769
X248.379Y-118.295
X249.403Y-27.203
X249.403Y-28.499
X249.403Y-29.769
X249.438Y-134.4
X249.885Y-41.173
X251.569Y-134.4
X252.095Y-41.605
X252.8Y-25.0
X253.39Y-105.435
X253.48Y-75.489
X253.7Y-134.4
X255.831Y-134.4
X257.962Y-134.4
X258.106Y-17.823
X258.106Y-21.582
X258.106Y-23.97
X258.131Y-19.499
X258.131Y-25.9
X258.242Y-89.23
X258.269Y-8.4
X258.294Y-10.076
X258.547Y-38.075
X259.95Y-17.823
X259.95Y-21.582
X259.95Y-23.97
X259.975Y-19.499
X259.975Y-25.9
X260.093Y-134.4
X260.113Y-8.4
X260.138Y-10.076
X260.174Y-38.075
X260.255Y-70.206
X260.255Y-74.955
X260.883Y-94.59
X261.793Y-17.823
X261.793Y-21.582
X261.793Y-23.97
X261.802Y-38.075
X261.819Y-19.499
X261.819Y-25.9
X261.956Y-8.4
X261.982Y-10.076
X262.224Y-134.4
X262.751Y-89.115
X263.429Y-38.075
X263.637Y-17.823
X263.637Y-21.582
X263.637Y-23.97
X263.663Y-19.499
X263.663Y-25.9
X263.8Y-8.4
X263.825Y-10.076
X264.355Y-134.4
X265.057Y-38.075
X265.481Y-17.823
X265.481Y-21.582
X265.481Y-23.97
X265.506Y-19.499
X265.506Y-25.9
X265.644Y-8.4
X265.669Y-10.076
X266.486Y-134.4
X266.684Y-38.075
X266.688Y-93.052
X267.325Y-17.823
X267.325Y-21.582
X267.325Y-23.97
X267.35Y-19.499
X267.35Y-25.9
X267.487Y-8.4
X267.513Y-10.076
X268.312Y-38.075
X268.616Y-134.4
X269.168Y-17.823
X269.168Y-21.582
X269.168Y-23.97
X269.194Y-19.499
X269.194Y-25.9
X269.331Y-8.4
X269.357Y-10.076
X269.939Y-38.075
X270.747Y-134.4
X271.012Y-17.823
X271.012Y-21.582
X271.012Y-23.97
X271.038Y-19.499
X271.038Y-25.9
X271.14Y-123.185
X271.175Y-8.4
X271.2Y-10.076
X271.567Y-38.075
X272.856Y-17.823
X272.856Y-21.582
X272.856Y-23.97
X272.878Y-134.4
X272.881Y-19.499
X272.881Y-25.9
X273.019Y-8.4
X273.044Y-10.076
X273.195Y-38.075
X274.7Y-17.823
X274.7Y-21.582
X274.7Y-23.97
X274.725Y-19.499
X274.725Y-25.9
X274.822Y-38.075
X274.862Y-8.4
X274.888Y-10.076
X275.009Y-134.4
X276.45Y-38.075
X276.543Y-17.823
X276.543Y-21.582
X276.543Y-23.97
X276.569Y-19.499
X276.569Y-25.9
X276.706Y-8.4
X276.732Y-10.076
X277.14Y-134.4
X278.077Y-38.075
X278.284Y-85.085
X278.387Y-17.823
X278.387Y-21.582
X278.387Y-23.97
X278.413Y-19.499
X278.413Y-25.9
X278.55Y-8.4
X278.575Y-10.076
X279.271Y-134.4
X279.705Y-38.075
X280.231Y-17.823
X280.231Y-21.582
X280.231Y-23.97
X280.256Y-19.499
X280.256Y-25.9
X280.394Y-8.4
X280.419Y-10.076
X282.075Y-17.823
X282.075Y-21.582
X282.075Y-23.97
X282.1Y-19.499
X282.1Y-25.9
X282.237Y-8.4
X282.263Y-10.076
X283.918Y-17.823
X283.918Y-21.582
X283.918Y-23.97
X283.944Y-19.499
X283.944Y-25.9
X284.081Y-8.4
X284.107Y-10.076
X285.428Y-66.035
X285.762Y-17.823
X285.762Y-21.582
X285.762Y-23.97
X285.787Y-19.499
X285.787Y-25.9
X285.925Y-8.4
X285.95Y-10.076
X287.606Y-17.823
X287.606Y-21.582
X287.606Y-23.97
X287.631Y-19.499
X287.631Y-25.9
X287.769Y-8.4
X287.794Y-10.076
X289.45Y-17.823
X289.45Y-21.582
X289.45Y-23.97
X289.475Y-19.499
X289.475Y-25.9
X289.612Y-8.4
X289.638Y-10.076
X301.701Y-72.853
X301.701Y-74.691
X301.701Y-76.529
X301.701Y-78.367
X301.701Y-80.205
X301.701Y-82.043
X301.701Y-83.882
X301.701Y-85.72
X301.701Y-87.558
X301.701Y-89.396
X301.701Y-91.234
X301.701Y-93.072
X301.701Y-94.91
X301.701Y-96.749
X301.701Y-98.587
X301.701Y-100.425
X301.701Y-102.263
X301.701Y-104.101
X301.701Y-105.939
X301.701Y-107.778
X307.924Y-72.919
X307.924Y-74.758
X307.924Y-76.596
X307.924Y-78.434
X307.924Y-80.272
X307.924Y-82.11
X307.924Y-83.948
X307.924Y-85.787
X307.924Y-87.625
X307.924Y-89.463
X307.924Y-91.301
X307.924Y-93.139
X307.924Y-94.977
X307.924Y-96.815
X307.924Y-98.654
X307.924Y-100.492
X307.924Y-102.33
X307.924Y-104.168
X307.924Y-106.006
X307.924Y-107.844
T2
X5.675Y-97.175
X9.182Y-10.2
X15.835Y-97.175
X19.342Y-10.2
X24.0Y-79.865
X24.0Y-90.025
X46.725Y-62.97
X46.725Y-73.13
X49.657Y-77.515
X49.657Y-87.675
X85.86Y-11.0
X85.86Y-14.5
X85.86Y-18.0
X85.86Y-21.5
X85.86Y-25.0
X85.86Y-28.5
X93.48Y-11.0
X93.48Y-14.5
X93.48Y-18.0
X93.48Y-21.5
X93.48Y-25.0
X93.48Y-28.5
X96.58Y-11.0
X96.58Y-14.5
X96.58Y-18.0
X96.58Y-21.5
X96.58Y-25.0
X96.58Y-28.5
X104.2Y-11.0
X104.2Y-14.5
X104.2Y-18.0
X104.2Y-21.5
X104.2Y-25.0
X104.2Y-28.5
X107.3Y-11.0
X107.3Y-14.5
X107.3Y-18.0
X107.3Y-21.5
X107.3Y-25.0
X107.3Y-28.5
X114.92Y-11.0
X114.92Y-14.5
X114.92Y-18.0
X114.92Y-21.5
X114.92Y-25.0
X114.92Y-28.5
X118.02Y-11.0
X118.02Y-14.5
X118.02Y-18.0
X118.02Y-21.5
X118.02Y-25.0
X118.02Y-28.5
X125.64Y-11.0
X125.64Y-14.5
X125.64Y-18.0
X125.64Y-21.5
X125.64Y-25.0
X125.64Y-28.5
X128.74Y-11.0
X128.74Y-14.5
X128.74Y-18.0
X128.74Y-21.5
X128.74Y-25.0
X128.74Y-28.5
X136.36Y-11.0
X136.36Y-14.5
X136.36Y-18.0
X136.36Y-21.5
X136.36Y-25.0
X136.36Y-28.5
X139.46Y-11.0
X139.46Y-14.5
X139.46Y-18.0
X139.46Y-21.5
X139.46Y-25.0
X139.46Y-28.5
X147.08Y-11.0
X147.08Y-14.5
X147.08Y-18.0
X147.08Y-21.5
X147.08Y-25.0
X147.08Y-28.5
X150.18Y-11.0
X150.18Y-14.5
X150.18Y-18.0
X150.18Y-21.5
X150.18Y-25.0
X150.18Y-28.5
X157.8Y-11.0
X157.8Y-14.5
X157.8Y-18.0
X157.8Y-21.5
X157.8Y-25.0
X157.8Y-28.5
X160.9Y-11.0
X160.9Y-14.5
X160.9Y-18.0
X160.9Y-21.5
X160.9Y-25.0
X160.9Y-28.5
X168.52Y-11.0
X168.52Y-14.5
X168.52Y-18.0
X168.52Y-21.5
X168.52Y-25.0
X168.52Y-28.5
X171.62Y-11.0
X171.62Y-14.5
X171.62Y-18.0
X171.62Y-21.5
X171.62Y-25.0
X171.62Y-28.5
X179.24Y-11.0
X179.24Y-14.5
X179.24Y-18.0
X179.24Y-21.5
X179.24Y-25.0
X179.24Y-28.5
X182.34Y-11.0
X182.34Y-14.5
X182.34Y-18.0
X182.34Y-21.5
X182.34Y-25.0
X182.34Y-28.5
X189.96Y-11.0
X189.96Y-14.5
X189.96Y-18.0
X189.96Y-21.5
X189.96Y-25.0
X189.96Y-28.5
X193.06Y-11.0
X193.06Y-14.5
X193.06Y-18.0
X193.06Y-21.5
X193.06Y-25.0
X193.06Y-28.5
X200.68Y-11.0
X200.68Y-14.5
X200.68Y-18.0
X200.68Y-21.5
X200.68Y-25.0
X200.68Y-28.5
X203.78Y-11.0
X203.78Y-14.5
X203.78Y-18.0
X203.78Y-21.5
X203.78Y-25.0
X203.78Y-28.5
X207.645Y-31.293
X207.645Y-38.913
X210.185Y-31.293
X210.185Y-38.913
X211.4Y-11.0
X211.4Y-14.5
X211.4Y-18.0
X211.4Y-21.5
X211.4Y-25.0
X211.4Y-28.5
X212.725Y-31.293
X212.725Y-38.913
X214.5Y-11.0
X214.5Y-14.5
X214.5Y-18.0
X214.5Y-21.5
X214.5Y-25.0
X214.5Y-28.5
X215.265Y-31.293
X215.265Y-38.913
X222.12Y-11.0
X222.12Y-14.5
X222.12Y-18.0
X222.12Y-21.5
X222.12Y-25.0
X222.12Y-28.5
X225.22Y-11.0
X225.22Y-14.5
X225.22Y-18.0
X225.22Y-21.5
X225.22Y-25.0
X225.22Y-28.5
X232.84Y-11.0
X232.84Y-14.5
X232.84Y-18.0
X232.84Y-21.5
X232.84Y-25.0
X232.84Y-28.5
T3
X4.045Y-47.045
X4.045Y-49.545
X4.045Y-52.045
X18.545Y-47.045
X18.545Y-52.045
X23.52Y-9.347
X26.06Y-9.347
X28.6Y-9.347
X64.22Y-11.5
X66.76Y-11.5
X69.3Y-11.5
X71.84Y-11.5
X107.889Y-127.16
X110.429Y-127.16
X112.969Y-127.16
X115.509Y-127.16
X118.049Y-127.16
X185.989Y-127.16
X188.529Y-127.16
X191.069Y-127.16
X193.609Y-127.16
X196.149Y-127.16
X222.072Y-35.027
X224.612Y-35.027
X227.152Y-35.027
X249.67Y-32.68
X249.67Y-35.22
X252.21Y-32.68
X252.21Y-35.22
X254.75Y-32.68
X254.75Y-35.22
X257.29Y-32.68
X257.29Y-35.22
X259.83Y-32.68
X259.83Y-35.22
X262.37Y-32.68
X262.37Y-35.22
X264.91Y-32.68
X264.91Y-35.22
X267.45Y-32.68
X267.45Y-35.22
X269.99Y-32.68
X269.99Y-35.22
X272.53Y-32.68
X272.53Y-35.22
X275.07Y-32.68
X275.07Y-35.22
X277.61Y-32.68
X277.61Y-35.22
X280.15Y-32.68
X280.15Y-35.22
X282.69Y-32.68
X282.69Y-35.22
X285.23Y-32.68
X285.23Y-35.22
X287.77Y-32.68
X287.77Y-35.22
X290.31Y-32.68
X290.31Y-35.22
X292.85Y-32.68
X292.85Y-35.22
X295.39Y-32.68
X295.39Y-35.22
X297.93Y-32.68
X297.93Y-35.22
T4
X1.87Y-17.11
X1.87Y-34.89
X4.41Y-17.11
X4.41Y-34.89
X6.95Y-17.11
X6.95Y-34.89
X9.49Y-17.11
X9.49Y-34.89
X12.03Y-17.11
X12.03Y-34.89
X14.57Y-17.11
X14.57Y-34.89
X17.11Y-17.11
X17.11Y-34.89
X19.65Y-17.11
X19.65Y-34.89
X22.19Y-17.11
X22.19Y-34.89
X24.73Y-17.11
X24.73Y-34.89
X27.27Y-17.11
X27.27Y-34.89
X29.81Y-17.11
X29.81Y-34.89
X32.35Y-17.11
X32.35Y-34.89
X34.89Y-17.11
X34.89Y-34.89
X37.43Y-17.11
X37.43Y-34.89
X39.97Y-17.11
X39.97Y-34.89
X42.51Y-17.11
X42.51Y-34.89
X45.05Y-17.11
X45.05Y-34.89
X47.59Y-17.11
X47.59Y-34.89
X49.9Y-23.46
X49.9Y-26.0
X49.9Y-28.54
X50.13Y-17.11
X50.13Y-34.89
T5
X11.545Y-43.945
X11.545Y-55.145
T0
M30
