%TF.GenerationSoftware,KiCad,Pcbnew,7.0.8*%
%TF.CreationDate,2023-10-07T09:46:25-04:00*%
%TF.ProjectId,MainBoard,4d61696e-426f-4617-9264-2e6b69636164,rev?*%
%TF.SameCoordinates,Original*%
%TF.FileFunction,Paste,Top*%
%TF.FilePolarity,Positive*%
%FSLAX46Y46*%
G04 Gerber Fmt 4.6, Leading zero omitted, Abs format (unit mm)*
G04 Created by KiCad (PCBNEW 7.0.8) date 2023-10-07 09:46:25*
%MOMM*%
%LPD*%
G01*
G04 APERTURE LIST*
G04 Aperture macros list*
%AMRoundRect*
0 Rectangle with rounded corners*
0 $1 Rounding radius*
0 $2 $3 $4 $5 $6 $7 $8 $9 X,Y pos of 4 corners*
0 Add a 4 corners polygon primitive as box body*
4,1,4,$2,$3,$4,$5,$6,$7,$8,$9,$2,$3,0*
0 Add four circle primitives for the rounded corners*
1,1,$1+$1,$2,$3*
1,1,$1+$1,$4,$5*
1,1,$1+$1,$6,$7*
1,1,$1+$1,$8,$9*
0 Add four rect primitives between the rounded corners*
20,1,$1+$1,$2,$3,$4,$5,0*
20,1,$1+$1,$4,$5,$6,$7,0*
20,1,$1+$1,$6,$7,$8,$9,0*
20,1,$1+$1,$8,$9,$2,$3,0*%
G04 Aperture macros list end*
%ADD10RoundRect,0.225000X-0.225000X-0.375000X0.225000X-0.375000X0.225000X0.375000X-0.225000X0.375000X0*%
G04 APERTURE END LIST*
D10*
X88010000Y-18000000D03*
X91310000Y-18000000D03*
X227370000Y-28500000D03*
X230670000Y-28500000D03*
X130890000Y-14500000D03*
X134190000Y-14500000D03*
X120170000Y-28500000D03*
X123470000Y-28500000D03*
X163050000Y-11000000D03*
X166350000Y-11000000D03*
X88010000Y-14500000D03*
X91310000Y-14500000D03*
X184490000Y-18000000D03*
X187790000Y-18000000D03*
X130890000Y-21500000D03*
X134190000Y-21500000D03*
X205930000Y-18000000D03*
X209230000Y-18000000D03*
X109450000Y-28500000D03*
X112750000Y-28500000D03*
X98730000Y-14500000D03*
X102030000Y-14500000D03*
X152330000Y-28500000D03*
X155630000Y-28500000D03*
X195210000Y-11000000D03*
X198510000Y-11000000D03*
X227370000Y-21500000D03*
X230670000Y-21500000D03*
X109450000Y-11000000D03*
X112750000Y-11000000D03*
X130890000Y-11000000D03*
X134190000Y-11000000D03*
X205930000Y-14500000D03*
X209230000Y-14500000D03*
X152330000Y-11000000D03*
X155630000Y-11000000D03*
X163050000Y-21500000D03*
X166350000Y-21500000D03*
X205930000Y-28500000D03*
X209230000Y-28500000D03*
X120170000Y-21500000D03*
X123470000Y-21500000D03*
X173770000Y-28500000D03*
X177070000Y-28500000D03*
X195210000Y-14500000D03*
X198510000Y-14500000D03*
X205930000Y-21500000D03*
X209230000Y-21500000D03*
X152330000Y-21500000D03*
X155630000Y-21500000D03*
X216650000Y-11000000D03*
X219950000Y-11000000D03*
X184490000Y-21500000D03*
X187790000Y-21500000D03*
X216650000Y-18000000D03*
X219950000Y-18000000D03*
X227370000Y-14500000D03*
X230670000Y-14500000D03*
X141610000Y-18000000D03*
X144910000Y-18000000D03*
X195210000Y-28500000D03*
X198510000Y-28500000D03*
X195210000Y-21500000D03*
X198510000Y-21500000D03*
X120170000Y-11000000D03*
X123470000Y-11000000D03*
X227370000Y-25000000D03*
X230670000Y-25000000D03*
X173770000Y-18000000D03*
X177070000Y-18000000D03*
X173770000Y-21500000D03*
X177070000Y-21500000D03*
X109450000Y-25000000D03*
X112750000Y-25000000D03*
X184490000Y-14500000D03*
X187790000Y-14500000D03*
X98730000Y-28500000D03*
X102030000Y-28500000D03*
X109450000Y-21500000D03*
X112750000Y-21500000D03*
X173770000Y-25000000D03*
X177070000Y-25000000D03*
X184490000Y-11000000D03*
X187790000Y-11000000D03*
X88010000Y-21500000D03*
X91310000Y-21500000D03*
X141610000Y-21500000D03*
X144910000Y-21500000D03*
X163050000Y-28500000D03*
X166350000Y-28500000D03*
X216650000Y-25000000D03*
X219950000Y-25000000D03*
X184490000Y-28500000D03*
X187790000Y-28500000D03*
X130890000Y-18000000D03*
X134190000Y-18000000D03*
X216650000Y-21500000D03*
X219950000Y-21500000D03*
X88010000Y-28500000D03*
X91310000Y-28500000D03*
X163050000Y-18000000D03*
X166350000Y-18000000D03*
X173770000Y-11000000D03*
X177070000Y-11000000D03*
X152330000Y-18000000D03*
X155630000Y-18000000D03*
X109450000Y-18000000D03*
X112750000Y-18000000D03*
X195210000Y-25000000D03*
X198510000Y-25000000D03*
X205930000Y-25000000D03*
X209230000Y-25000000D03*
X98730000Y-11000000D03*
X102030000Y-11000000D03*
X141610000Y-28500000D03*
X144910000Y-28500000D03*
X152330000Y-25000000D03*
X155630000Y-25000000D03*
X227370000Y-11000000D03*
X230670000Y-11000000D03*
X120170000Y-25000000D03*
X123470000Y-25000000D03*
X88010000Y-11000000D03*
X91310000Y-11000000D03*
X130890000Y-25000000D03*
X134190000Y-25000000D03*
X205930000Y-11000000D03*
X209230000Y-11000000D03*
X98730000Y-21500000D03*
X102030000Y-21500000D03*
X152330000Y-14500000D03*
X155630000Y-14500000D03*
X120170000Y-18000000D03*
X123470000Y-18000000D03*
X227370000Y-18000000D03*
X230670000Y-18000000D03*
X98730000Y-18000000D03*
X102030000Y-18000000D03*
X195210000Y-18000000D03*
X198510000Y-18000000D03*
X109450000Y-14500000D03*
X112750000Y-14500000D03*
X88010000Y-25000000D03*
X91310000Y-25000000D03*
X141610000Y-11000000D03*
X144910000Y-11000000D03*
X216650000Y-14500000D03*
X219950000Y-14500000D03*
X163050000Y-25000000D03*
X166350000Y-25000000D03*
X141610000Y-25000000D03*
X144910000Y-25000000D03*
X98730000Y-25000000D03*
X102030000Y-25000000D03*
X130890000Y-28500000D03*
X134190000Y-28500000D03*
X216650000Y-28500000D03*
X219950000Y-28500000D03*
X184490000Y-25000000D03*
X187790000Y-25000000D03*
X120170000Y-14500000D03*
X123470000Y-14500000D03*
X173770000Y-14500000D03*
X177070000Y-14500000D03*
X163050000Y-14500000D03*
X166350000Y-14500000D03*
X141610000Y-14500000D03*
X144910000Y-14500000D03*
M02*
