M48
; DRILL file {KiCad 7.0.7} date Mon 04 Sep 2023 02:00:34 PM EDT
; FORMAT={-:-/ absolute / inch / decimal}
; #@! TF.CreationDate,2023-09-04T14:00:34-04:00
; #@! TF.GenerationSoftware,Kicad,Pcbnew,7.0.7
; #@! TF.FileFunction,MixedPlating,1,2
FMAT,2
INCH
; #@! TA.AperFunction,Plated,PTH,ViaDrill
T1C0.0157
; #@! TA.AperFunction,Plated,PTH,ComponentDrill
T2C0.0315
; #@! TA.AperFunction,Plated,PTH,ComponentDrill
T3C0.0394
; #@! TA.AperFunction,Plated,PTH,ComponentDrill
T4C0.0402
; #@! TA.AperFunction,Plated,PTH,ComponentDrill
T5C0.1024
; #@! TA.AperFunction,NonPlated,NPTH,ComponentDrill
T6C0.0591
; #@! TA.AperFunction,NonPlated,NPTH,ComponentDrill
T7C0.0689
; #@! TA.AperFunction,NonPlated,NPTH,ComponentDrill
T8C0.0709
; #@! TA.AperFunction,NonPlated,NPTH,ComponentDrill
T9C0.1083
; #@! TA.AperFunction,NonPlated,NPTH,ComponentDrill
T10C0.1200
; #@! TA.AperFunction,NonPlated,NPTH,ComponentDrill
T11C0.1201
; #@! TA.AperFunction,NonPlated,NPTH,ComponentDrill
T12C0.1260
; #@! TA.AperFunction,NonPlated,NPTH,ComponentDrill
T13C0.1570
; #@! TA.AperFunction,NonPlated,NPTH,ComponentDrill
T14C0.1575
%
G90
G05
T1
X0.067Y-0.788
X0.073Y-1.02
X0.081Y-1.217
X0.086Y-0.839
X0.109Y-1.022
X0.121Y-0.79
X0.155Y-0.842
X0.159Y-1.221
X0.163Y-0.795
X0.1748Y-2.5998
X0.1748Y-3.3498
X0.1748Y-4.0998
X0.1748Y-4.8498
X0.177Y-1.017
X0.198Y-1.699
X0.229Y-1.736
X0.261Y-1.028
X0.261Y-1.777
X0.272Y-1.135
X0.275Y-1.188
X0.289Y-0.928
X0.295Y-1.821
X0.2995Y-5.103
X0.322Y-1.015
X0.322Y-1.202
X0.347Y-0.788
X0.351Y-2.05
X0.3834Y-5.103
X0.384Y-1.188
X0.392Y-1.04
X0.424Y-0.792
X0.443Y-1.209
X0.4673Y-5.103
X0.524Y-0.977
X0.5512Y-5.103
X0.572Y-0.867
X0.572Y-1.18
X0.588Y-1.708
X0.607Y-1.806
X0.6135Y-1.914
X0.6351Y-5.103
X0.642Y-0.923
X0.642Y-1.96
X0.647Y-2.116
X0.653Y-3.115
X0.669Y-0.784
X0.6842Y-1.1082
X0.687Y-0.975
X0.712Y-1.287
X0.7189Y-5.103
X0.729Y-0.924
X0.732Y-0.783
X0.757Y-1.07
X0.767Y-1.271
X0.7835Y-3.116
X0.792Y-2.262
X0.795Y-2.321
X0.796Y-2.17
X0.8Y-0.783
X0.8028Y-5.103
X0.815Y-1.042
X0.82Y-1.087
X0.824Y-1.718
X0.826Y-1.281
X0.8451Y-0.913
X0.8767Y-1.7015
X0.8867Y-5.103
X0.918Y-1.281
X0.9248Y-1.8498
X0.9706Y-5.103
X0.992Y-1.278
X1.0186Y-4.8498
X1.021Y-1.537
X1.0545Y-5.103
X1.1123Y-2.5998
X1.132Y-1.2279
X1.1384Y-5.103
X1.149Y-0.789
X1.15Y-0.969
X1.15Y-1.028
X1.15Y-1.093
X1.188Y-0.858
X1.194Y-0.969
X1.194Y-1.028
X1.194Y-1.093
X1.1998Y-0.789
X1.2061Y-3.3498
X1.2223Y-5.103
X1.238Y-0.969
X1.238Y-1.028
X1.238Y-1.093
X1.2506Y-0.789
X1.282Y-0.969
X1.282Y-1.028
X1.282Y-1.093
X1.3013Y-0.789
X1.3062Y-5.103
X1.326Y-0.969
X1.326Y-1.028
X1.326Y-1.093
X1.3521Y-0.789
X1.362Y-0.449
X1.3901Y-5.103
X1.4001Y-0.449
X1.4029Y-0.789
X1.423Y-1.076
X1.4382Y-0.449
X1.4537Y-0.789
X1.474Y-5.103
X1.4763Y-0.449
X1.495Y-2.63
X1.503Y-1.221
X1.5044Y-0.789
X1.509Y-2.266
X1.5144Y-0.449
X1.542Y-2.785
X1.542Y-3.009
X1.5525Y-0.449
X1.5552Y-0.789
X1.5579Y-5.103
X1.5685Y-0.9441
X1.583Y-0.325
X1.5906Y-0.449
X1.594Y-2.63
X1.602Y-2.223
X1.606Y-0.789
X1.6287Y-0.449
X1.6304Y-0.325
X1.6399Y-1.7289
X1.6418Y-5.103
X1.6668Y-0.449
X1.6705Y-2.236
X1.673Y-0.86
X1.674Y-1.2279
X1.6748Y-1.8498
X1.6779Y-0.325
X1.6915Y-1.076
X1.704Y-3.586
X1.7049Y-0.449
X1.7253Y-0.325
X1.7257Y-5.103
X1.743Y-0.449
X1.768Y-1.091
X1.772Y-1.456
X1.7728Y-0.325
X1.781Y-0.449
X1.8Y-1.0
X1.8096Y-5.103
X1.811Y-0.927
X1.8191Y-0.449
X1.8202Y-0.325
X1.8572Y-0.449
X1.863Y-0.939
X1.8676Y-0.325
X1.87Y-1.006
X1.8935Y-5.103
X1.894Y-5.205
X1.8953Y-0.449
X1.9151Y-0.325
X1.9334Y-0.449
X1.94Y-2.666
X1.947Y-2.754
X1.951Y-2.836
X1.9561Y-4.8498
X1.958Y-2.172
X1.96Y-2.12
X1.9625Y-0.325
X1.9715Y-0.449
X1.9779Y-5.205
X2.0096Y-0.449
X2.01Y-0.325
X2.0477Y-0.449
X2.0498Y-2.5998
X2.0574Y-0.325
X2.0618Y-5.205
X2.0858Y-0.449
X2.1048Y-0.325
X2.1239Y-0.449
X2.1457Y-5.205
X2.1523Y-0.325
X2.162Y-0.451
X2.1997Y-0.325
X2.21Y-0.791
X2.2296Y-5.205
X2.2373Y-3.3498
X2.24Y-1.1693
X2.2472Y-0.325
X2.2472Y-0.791
X2.281Y-1.17
X2.2845Y-0.791
X2.2946Y-0.325
X2.3135Y-5.205
X2.3216Y-1.1693
X2.3216Y-1.3559
X2.3217Y-0.791
X2.342Y-0.325
X2.359Y-0.791
X2.361Y-1.1693
X2.361Y-1.356
X2.3895Y-0.325
X2.3897Y-1.4013
X2.3974Y-5.205
X2.4248Y-1.8498
X2.434Y-1.061
X2.4369Y-0.325
X2.4659Y-1.4371
X2.4813Y-5.205
X2.4844Y-0.325
X2.509Y-0.852
X2.5318Y-0.325
X2.5652Y-5.205
X2.5792Y-0.325
X2.5873Y-2.197
X2.6123Y-4.0998
X2.6267Y-0.325
X2.635Y-1.1693
X2.6491Y-5.205
X2.6641Y-2.5649
X2.665Y-2.115
X2.666Y-0.853
X2.6741Y-0.325
X2.7216Y-0.325
X2.722Y-1.0827
X2.7329Y-5.205
X2.758Y-2.118
X2.769Y-0.325
X2.7998Y-2.5998
X2.8168Y-5.205
X2.8936Y-4.8498
X2.9007Y-5.205
X2.9135Y-3.354
X2.9418Y-1.7579
X2.9846Y-5.205
X2.9873Y-3.3498
X3.0685Y-5.205
X3.133Y-3.246
X3.1524Y-5.205
X3.2363Y-5.205
X3.3202Y-5.205
X3.3537Y-4.0912
X3.366Y-1.245
X3.371Y-1.5382
X3.4041Y-5.205
X3.414Y-1.246
X3.465Y-1.247
X3.488Y-5.205
X3.519Y-1.248
X3.5498Y-2.5998
X3.566Y-1.248
X3.7311Y-2.1015
X3.763Y-1.842
X3.7768Y-1.7688
X3.779Y-1.538
X3.804Y-1.2628
X3.8241Y-1.5416
X3.8248Y-2.3248
X3.8313Y-1.2911
X3.8588Y-1.3193
X3.8634Y-1.5447
X3.867Y-1.715
X3.8873Y-1.3463
X3.9025Y-1.5486
X3.9248Y-1.8498
X3.9419Y-1.5497
X3.9879Y-2.0963
X4.0255Y-1.5559
X4.031Y-0.579
X4.0587Y-2.4998
X4.078Y-1.716
X4.1123Y-4.0998
X4.1206Y-1.7445
X4.169Y-1.773
X4.214Y-1.7961
X4.253Y-1.564
X4.2794Y-2.035
X4.2835Y-5.248
X4.2937Y-1.5639
X4.2998Y-2.5998
X4.3186Y-2.038
X4.334Y-1.564
X4.358Y-2.038
X4.3701Y-5.2559
X4.3942Y-1.8248
X4.4337Y-1.7498
X4.438Y-1.564
X4.4873Y-3.3498
X4.527Y-1.886
X4.531Y-1.961
X4.531Y-1.566
X4.586Y-1.962
X4.606Y-1.708
X4.607Y-1.408
X4.608Y-2.089
X4.616Y-1.505
X4.617Y-1.548
X4.6213Y-1.4447
X4.644Y-3.5739
X4.655Y-1.71
X4.6597Y-1.5913
X4.7082Y-1.5896
X4.7295Y-2.775
X4.7794Y-2.9326
X4.8087Y-2.4998
X4.8623Y-4.0998
X4.886Y-1.497
X4.931Y-1.694
X4.945Y-2.57
X4.953Y-1.5291
X4.956Y-3.175
X4.9677Y-3.121
X4.9962Y-2.731
X4.9962Y-2.883
X5.029Y-3.175
X5.066Y-1.469
X5.1073Y-4.635
X5.1073Y-4.744
X5.1078Y-4.689
X5.1078Y-4.798
X5.1081Y-2.458
X5.1205Y-3.484
X5.1205Y-3.574
X5.149Y-3.116
X5.1538Y-4.635
X5.1538Y-4.744
X5.1543Y-4.689
X5.1543Y-4.798
X5.1701Y-1.7362
X5.1775Y-3.575
X5.2003Y-4.635
X5.2003Y-4.744
X5.2008Y-4.689
X5.2008Y-4.798
X5.207Y-1.5291
X5.2373Y-3.3498
X5.242Y-2.476
X5.2468Y-4.635
X5.2468Y-4.744
X5.2473Y-4.689
X5.2473Y-4.798
X5.268Y-0.507
X5.271Y-0.571
X5.271Y-0.71
X5.2933Y-4.635
X5.2933Y-4.744
X5.2938Y-4.689
X5.2938Y-4.798
X5.3015Y-1.994
X5.315Y-2.95
X5.3398Y-4.635
X5.3398Y-4.744
X5.3403Y-4.689
X5.3403Y-4.798
X5.362Y-1.537
X5.369Y-1.447
X5.3863Y-4.635
X5.3863Y-4.744
X5.3868Y-4.689
X5.3868Y-4.798
X5.405Y-1.512
X5.413Y-1.401
X5.4222Y-2.811
X5.4328Y-4.635
X5.4328Y-4.744
X5.4333Y-4.689
X5.4333Y-4.798
X5.451Y-1.516
X5.454Y-1.341
X5.486Y-1.5468
X5.547Y-1.5183
X5.556Y-3.127
X5.5587Y-2.4998
X5.572Y-1.657
X5.576Y-1.757
X5.6123Y-4.0998
X5.6167Y-1.7567
X5.6385Y-3.044
X5.6454Y-1.5468
X5.674Y-1.72
X5.697Y-0.582
X5.7998Y-2.5998
X5.923Y-1.6465
X5.9337Y-1.7498
X5.983Y-1.6465
X5.9873Y-3.3498
X6.0675Y-2.41
X6.071Y-0.426
X6.139Y-3.495
X6.139Y-3.612
X6.143Y-3.216
X6.147Y-1.762
X6.168Y-0.3205
X6.183Y-4.185
X6.2001Y-0.349
X6.2196Y-3.024
X6.2224Y-4.185
X6.239Y-0.3778
X6.2617Y-4.186
X6.31Y-2.505
X6.3623Y-4.0998
X6.487Y-0.436
X6.632Y-0.349
X6.6602Y-0.3776
X6.6837Y-1.7498
X6.705Y-1.658
X6.7373Y-3.3498
X6.811Y-2.169
X6.8568Y-2.3342
X6.881Y-2.252
X6.91Y-1.743
X7.082Y-0.3776
X7.1123Y-4.0998
X7.2516Y-1.665
X7.2998Y-2.5998
X7.309Y-3.422
X7.322Y-1.875
X7.3483Y-3.4195
X7.453Y-2.101
X7.4873Y-3.3498
X7.5394Y-1.646
X7.568Y-1.674
X7.5744Y-1.2459
X7.5965Y-1.7015
X7.6002Y-1.2757
X7.6212Y-3.9998
X7.624Y-1.731
X7.6298Y-1.3016
X7.639Y-3.711
X7.641Y-2.309
X7.657Y-1.33
X7.673Y-3.519
X7.7029Y-1.5011
X7.753Y-1.499
X7.762Y-1.647
X7.765Y-2.072
X7.803Y-3.709
X7.8717Y-2.318
X7.996Y-2.781
X7.9962Y-3.2498
X8.004Y-1.853
X8.0498Y-2.5998
X8.0674Y-1.4726
X8.101Y-4.014
X8.111Y-1.516
X8.2307Y-1.6065
X8.2373Y-3.3498
X8.2739Y-4.6121
X8.285Y-0.3205
X8.4248Y-1.8498
X8.4248Y-4.8498
X8.493Y-4.424
X8.502Y-4.171
X8.602Y-1.456
X8.673Y-3.847
X8.674Y-3.51
X8.7998Y-2.5998
X8.841Y-1.53
X8.847Y-4.519
X8.8804Y-1.578
X8.908Y-1.6065
X8.9337Y-1.8417
X8.938Y-1.47
X8.938Y-1.634
X8.973Y-1.227
X8.9873Y-3.3498
X8.994Y-1.543
X9.097Y-1.272
X9.097Y-1.41
X9.1748Y-1.8498
X9.177Y-1.5445
X9.221Y-1.6055
X9.249Y-4.154
X9.25Y-1.634
X9.28Y-1.5445
X9.303Y-1.106
X9.303Y-1.222
X9.303Y-1.3495
X9.352Y-1.402
X9.4009Y-5.2913
X9.417Y-3.5
X9.417Y-3.7814
X9.427Y-1.272
X9.441Y-1.5445
X9.476Y-1.66
X9.4848Y-5.2913
X9.5Y-0.983
X9.5038Y-1.6315
X9.531Y-1.574
X9.5498Y-2.5998
X9.5687Y-5.2913
X9.5795Y-2.0185
X9.6246Y-2.4114
X9.6526Y-5.2913
X9.654Y-1.071
X9.654Y-1.122
X9.654Y-1.172
X9.664Y-2.031
X9.6837Y-1.7498
X9.6952Y-1.071
X9.6952Y-1.122
X9.6952Y-1.172
X9.7365Y-1.071
X9.7365Y-1.122
X9.7365Y-1.172
X9.7365Y-5.2913
X9.7373Y-3.3498
X9.764Y-1.5625
X9.7777Y-1.071
X9.7777Y-1.122
X9.7777Y-1.172
X9.7787Y-4.6573
X9.819Y-1.071
X9.819Y-1.122
X9.819Y-1.172
X9.8204Y-5.2913
X9.838Y-1.621
X9.9043Y-5.2913
X9.925Y-1.638
X9.955Y-0.986
X9.976Y-4.151
X9.9795Y-2.972
X9.9882Y-5.2913
X10.0721Y-5.2913
X10.156Y-5.2913
X10.167Y-3.513
X10.168Y-0.621
X10.168Y-0.769
X10.168Y-0.863
X10.1681Y-0.3307
X10.169Y-0.687
X10.169Y-0.939
X10.1691Y-0.3967
X10.179Y-1.499
X10.2399Y-5.2913
X10.2406Y-0.621
X10.2406Y-0.769
X10.2406Y-0.863
X10.2407Y-0.3307
X10.2416Y-0.687
X10.2416Y-0.939
X10.2417Y-0.3967
X10.2431Y-1.499
X10.2462Y-2.764
X10.2462Y-2.951
X10.271Y-3.724
X10.3072Y-1.499
X10.3132Y-0.621
X10.3132Y-0.769
X10.3132Y-0.863
X10.3132Y-0.3307
X10.3142Y-0.687
X10.3142Y-0.939
X10.3142Y-0.3967
X10.3238Y-5.2913
X10.3445Y-3.5085
X10.3712Y-1.499
X10.3858Y-0.621
X10.3858Y-0.769
X10.3858Y-0.863
X10.3858Y-0.3307
X10.3868Y-0.687
X10.3868Y-0.939
X10.3868Y-0.3967
X10.4077Y-5.2913
X10.4353Y-1.499
X10.4584Y-0.621
X10.4584Y-0.769
X10.4584Y-0.863
X10.4584Y-0.3307
X10.4594Y-0.687
X10.4594Y-0.939
X10.4594Y-0.3967
X10.4916Y-5.2913
X10.4994Y-1.499
X10.4995Y-3.6635
X10.5309Y-0.621
X10.5309Y-0.769
X10.5309Y-0.863
X10.531Y-0.3307
X10.5319Y-0.687
X10.5319Y-0.939
X10.532Y-0.3967
X10.5635Y-1.499
X10.5755Y-5.2913
X10.6035Y-0.621
X10.6035Y-0.769
X10.6035Y-0.863
X10.6036Y-0.3307
X10.6045Y-0.687
X10.6045Y-0.939
X10.6046Y-0.3967
X10.6275Y-1.499
X10.6593Y-5.2913
X10.6748Y-4.8498
X10.6761Y-0.621
X10.6761Y-0.769
X10.6761Y-0.863
X10.6762Y-0.3307
X10.6771Y-0.687
X10.6771Y-0.939
X10.6772Y-0.3967
X10.6916Y-1.499
X10.7432Y-5.2913
X10.7487Y-0.621
X10.7487Y-0.769
X10.7487Y-0.863
X10.7488Y-0.3307
X10.7497Y-0.687
X10.7497Y-0.939
X10.7498Y-0.3967
X10.7557Y-1.499
X10.8198Y-1.499
X10.8213Y-0.621
X10.8213Y-0.769
X10.8213Y-0.863
X10.8214Y-0.3307
X10.8223Y-0.687
X10.8223Y-0.939
X10.8224Y-0.3967
X10.8271Y-5.2913
X10.8838Y-1.499
X10.8939Y-0.621
X10.8939Y-0.769
X10.8939Y-0.863
X10.8939Y-0.3307
X10.8949Y-0.687
X10.8949Y-0.939
X10.8949Y-0.3967
X10.911Y-5.2913
X10.9479Y-1.499
X10.9561Y-3.3498
X10.9665Y-0.621
X10.9665Y-0.769
X10.9665Y-0.863
X10.9665Y-0.3307
X10.9675Y-0.687
X10.9675Y-0.939
X10.9675Y-0.3967
X10.9949Y-5.2913
X11.012Y-1.499
X11.0391Y-0.621
X11.0391Y-0.769
X11.0391Y-0.863
X11.0391Y-0.3307
X11.0401Y-0.687
X11.0401Y-0.939
X11.0401Y-0.3967
X11.1116Y-0.621
X11.1116Y-0.769
X11.1116Y-0.863
X11.1117Y-0.3307
X11.1126Y-0.687
X11.1126Y-0.939
X11.1127Y-0.3967
X11.1842Y-0.621
X11.1842Y-0.769
X11.1842Y-0.863
X11.1843Y-0.3307
X11.1852Y-0.687
X11.1852Y-0.939
X11.1853Y-0.3967
X11.2373Y-2.5998
X11.2568Y-0.621
X11.2568Y-0.769
X11.2568Y-0.863
X11.2569Y-0.3307
X11.2578Y-0.687
X11.2578Y-0.939
X11.2579Y-0.3967
X11.3294Y-0.621
X11.3294Y-0.769
X11.3294Y-0.863
X11.3295Y-0.3307
X11.3304Y-0.687
X11.3304Y-0.939
X11.3305Y-0.3967
X11.402Y-0.621
X11.402Y-0.769
X11.402Y-0.863
X11.4021Y-0.3307
X11.403Y-0.687
X11.403Y-0.939
X11.4031Y-0.3967
X12.002Y-2.797
X12.002Y-2.8694
X12.002Y-2.9417
X12.002Y-3.0141
X12.002Y-3.0865
X12.002Y-3.1588
X12.002Y-3.2312
X12.002Y-3.3036
X12.002Y-3.3759
X12.002Y-3.4483
X12.002Y-3.5207
X12.002Y-3.5931
X12.002Y-3.6654
X12.002Y-3.7378
X12.002Y-3.8102
X12.002Y-3.8825
X12.002Y-3.9549
X12.002Y-4.0273
X12.002Y-4.0996
X12.002Y-4.172
T2
X0.113Y-1.565
X0.363Y-0.403
X0.513Y-1.565
X0.763Y-0.403
X0.995Y-3.142
X0.995Y-3.542
X1.842Y-2.485
X1.842Y-2.885
X1.955Y-3.051
X1.955Y-3.451
X3.3803Y-0.4331
X3.3803Y-0.5709
X3.3803Y-0.7087
X3.3803Y-0.8465
X3.3803Y-0.9843
X3.3803Y-1.122
X3.6803Y-0.4331
X3.6803Y-0.5709
X3.6803Y-0.7087
X3.6803Y-0.8465
X3.6803Y-0.9843
X3.6803Y-1.122
X3.8024Y-0.4331
X3.8024Y-0.5709
X3.8024Y-0.7087
X3.8024Y-0.8465
X3.8024Y-0.9843
X3.8024Y-1.122
X4.1024Y-0.4331
X4.1024Y-0.5709
X4.1024Y-0.7087
X4.1024Y-0.8465
X4.1024Y-0.9843
X4.1024Y-1.122
X4.2244Y-0.4331
X4.2244Y-0.5709
X4.2244Y-0.7087
X4.2244Y-0.8465
X4.2244Y-0.9843
X4.2244Y-1.122
X4.5244Y-0.4331
X4.5244Y-0.5709
X4.5244Y-0.7087
X4.5244Y-0.8465
X4.5244Y-0.9843
X4.5244Y-1.122
X4.6465Y-0.4331
X4.6465Y-0.5709
X4.6465Y-0.7087
X4.6465Y-0.8465
X4.6465Y-0.9843
X4.6465Y-1.122
X4.9465Y-0.4331
X4.9465Y-0.5709
X4.9465Y-0.7087
X4.9465Y-0.8465
X4.9465Y-0.9843
X4.9465Y-1.122
X5.0685Y-0.4331
X5.0685Y-0.5709
X5.0685Y-0.7087
X5.0685Y-0.8465
X5.0685Y-0.9843
X5.0685Y-1.122
X5.3685Y-0.4331
X5.3685Y-0.5709
X5.3685Y-0.7087
X5.3685Y-0.8465
X5.3685Y-0.9843
X5.3685Y-1.122
X5.4906Y-0.4331
X5.4906Y-0.5709
X5.4906Y-0.7087
X5.4906Y-0.8465
X5.4906Y-0.9843
X5.4906Y-1.122
X5.7906Y-0.4331
X5.7906Y-0.5709
X5.7906Y-0.7087
X5.7906Y-0.8465
X5.7906Y-0.9843
X5.7906Y-1.122
X5.9126Y-0.4331
X5.9126Y-0.5709
X5.9126Y-0.7087
X5.9126Y-0.8465
X5.9126Y-0.9843
X5.9126Y-1.122
X6.2126Y-0.4331
X6.2126Y-0.5709
X6.2126Y-0.7087
X6.2126Y-0.8465
X6.2126Y-0.9843
X6.2126Y-1.122
X6.3346Y-0.4331
X6.3346Y-0.5709
X6.3346Y-0.7087
X6.3346Y-0.8465
X6.3346Y-0.9843
X6.3346Y-1.122
X6.6346Y-0.4331
X6.6346Y-0.5709
X6.6346Y-0.7087
X6.6346Y-0.8465
X6.6346Y-0.9843
X6.6346Y-1.122
X6.7567Y-0.4331
X6.7567Y-0.5709
X6.7567Y-0.7087
X6.7567Y-0.8465
X6.7567Y-0.9843
X6.7567Y-1.122
X7.0567Y-0.4331
X7.0567Y-0.5709
X7.0567Y-0.7087
X7.0567Y-0.8465
X7.0567Y-0.9843
X7.0567Y-1.122
X7.1787Y-0.4331
X7.1787Y-0.5709
X7.1787Y-0.7087
X7.1787Y-0.8465
X7.1787Y-0.9843
X7.1787Y-1.122
X7.4787Y-0.4331
X7.4787Y-0.5709
X7.4787Y-0.7087
X7.4787Y-0.8465
X7.4787Y-0.9843
X7.4787Y-1.122
X7.6008Y-0.4331
X7.6008Y-0.5709
X7.6008Y-0.7087
X7.6008Y-0.8465
X7.6008Y-0.9843
X7.6008Y-1.122
X7.9008Y-0.4331
X7.9008Y-0.5709
X7.9008Y-0.7087
X7.9008Y-0.8465
X7.9008Y-0.9843
X7.9008Y-1.122
X8.0228Y-0.4331
X8.0228Y-0.5709
X8.0228Y-0.7087
X8.0228Y-0.8465
X8.0228Y-0.9843
X8.0228Y-1.122
X8.175Y-1.232
X8.175Y-1.532
X8.275Y-1.232
X8.275Y-1.532
X8.3228Y-0.4331
X8.3228Y-0.5709
X8.3228Y-0.7087
X8.3228Y-0.8465
X8.3228Y-0.9843
X8.3228Y-1.122
X8.375Y-1.232
X8.375Y-1.532
X8.4449Y-0.4331
X8.4449Y-0.5709
X8.4449Y-0.7087
X8.4449Y-0.8465
X8.4449Y-0.9843
X8.4449Y-1.122
X8.475Y-1.232
X8.475Y-1.532
X8.7449Y-0.4331
X8.7449Y-0.5709
X8.7449Y-0.7087
X8.7449Y-0.8465
X8.7449Y-0.9843
X8.7449Y-1.122
X8.8669Y-0.4331
X8.8669Y-0.5709
X8.8669Y-0.7087
X8.8669Y-0.8465
X8.8669Y-0.9843
X8.8669Y-1.122
X9.1669Y-0.4331
X9.1669Y-0.5709
X9.1669Y-0.7087
X9.1669Y-0.8465
X9.1669Y-0.9843
X9.1669Y-1.122
T3
X0.1593Y-1.8522
X0.1593Y-1.9506
X0.1593Y-2.049
X0.7301Y-1.8522
X0.7301Y-2.049
X0.926Y-0.368
X1.026Y-0.368
X1.126Y-0.368
X2.5276Y-0.7333
X2.5283Y-0.4528
X2.6276Y-0.7333
X2.6283Y-0.4528
X2.7276Y-0.7333
X2.7283Y-0.4528
X2.8276Y-0.7333
X2.8283Y-0.4528
X4.2476Y-5.0063
X4.3476Y-5.0063
X4.4476Y-5.0063
X4.5476Y-5.0063
X4.6476Y-5.0063
X7.3224Y-5.0063
X7.4224Y-5.0063
X7.5224Y-5.0063
X7.6224Y-5.0063
X7.7224Y-5.0063
X8.743Y-1.379
X8.843Y-1.379
X8.943Y-1.379
X9.8295Y-1.2866
X9.8295Y-1.3866
X9.9295Y-1.2866
X9.9295Y-1.3866
X10.0295Y-1.2866
X10.0295Y-1.3866
X10.1295Y-1.2866
X10.1295Y-1.3866
X10.2295Y-1.2866
X10.2295Y-1.3866
X10.3295Y-1.2866
X10.3295Y-1.3866
X10.4295Y-1.2866
X10.4295Y-1.3866
X10.5295Y-1.2866
X10.5295Y-1.3866
X10.6295Y-1.2866
X10.6295Y-1.3866
X10.7295Y-1.2866
X10.7295Y-1.3866
X10.8295Y-1.2866
X10.8295Y-1.3866
X10.9295Y-1.2866
X10.9295Y-1.3866
X11.0295Y-1.2866
X11.0295Y-1.3866
X11.1295Y-1.2866
X11.1295Y-1.3866
X11.2295Y-1.2866
X11.2295Y-1.3866
X11.3295Y-1.2866
X11.3295Y-1.3866
X11.4295Y-1.2866
X11.4295Y-1.3866
X11.5295Y-1.2866
X11.5295Y-1.3866
X11.6295Y-1.2866
X11.6295Y-1.3866
X11.7295Y-1.2866
X11.7295Y-1.3866
T4
X0.0736Y-0.6736
X0.0736Y-1.3736
X0.1736Y-0.6736
X0.1736Y-1.3736
X0.2736Y-0.6736
X0.2736Y-1.3736
X0.3736Y-0.6736
X0.3736Y-1.3736
X0.4736Y-0.6736
X0.4736Y-1.3736
X0.5736Y-0.6736
X0.5736Y-1.3736
X0.6736Y-0.6736
X0.6736Y-1.3736
X0.7736Y-0.6736
X0.7736Y-1.3736
X0.8736Y-0.6736
X0.8736Y-1.3736
X0.9736Y-0.6736
X0.9736Y-1.3736
X1.0736Y-0.6736
X1.0736Y-1.3736
X1.1736Y-0.6736
X1.1736Y-1.3736
X1.2736Y-0.6736
X1.2736Y-1.3736
X1.3736Y-0.6736
X1.3736Y-1.3736
X1.4736Y-0.6736
X1.4736Y-1.3736
X1.5736Y-0.6736
X1.5736Y-1.3736
X1.6736Y-0.6736
X1.6736Y-1.3736
X1.7736Y-0.6736
X1.7736Y-1.3736
X1.8736Y-0.6736
X1.8736Y-1.3736
X1.9646Y-0.9236
X1.9646Y-1.0236
X1.9646Y-1.1236
X1.9736Y-0.6736
X1.9736Y-1.3736
T5
X0.4545Y-1.7301
X0.4545Y-2.1711
T6
X0.198Y-0.9281
X0.198Y-1.1191
T7
X0.2537Y-2.6998
X0.2537Y-3.4498
X0.2537Y-4.1998
X0.2537Y-4.9498
X0.6537Y-2.6998
X0.6537Y-3.4498
X0.6537Y-4.1998
X0.6537Y-4.9498
X1.0037Y-1.9498
X1.0975Y-4.9498
X1.1912Y-2.6998
X1.285Y-3.4498
X1.4037Y-1.9498
X1.4725Y-4.1998
X1.4975Y-4.9498
X1.5912Y-2.6998
X1.685Y-3.4498
X1.7537Y-1.9498
X1.8725Y-4.1998
X2.035Y-4.9498
X2.1287Y-2.6998
X2.1537Y-1.9498
X2.3162Y-3.4498
X2.435Y-4.9498
X2.5037Y-1.9498
X2.5287Y-2.6998
X2.6912Y-4.1998
X2.7162Y-3.4498
X2.8787Y-2.6998
X2.9037Y-1.9498
X2.9725Y-4.9498
X3.0662Y-3.4498
X3.0912Y-4.1998
X3.2537Y-1.9498
X3.2787Y-2.6998
X3.3725Y-4.9498
X3.4412Y-4.1998
X3.4662Y-3.4498
X3.6287Y-2.6998
X3.6537Y-1.9498
X3.8162Y-3.4498
X3.8412Y-4.1998
X4.0037Y-1.9498
X4.0287Y-2.6998
X4.1912Y-4.1998
X4.2162Y-3.4498
X4.3787Y-2.6998
X4.4037Y-1.9498
X4.5662Y-3.4498
X4.5912Y-4.1998
X4.7537Y-1.9498
X4.7787Y-2.6998
X4.9412Y-4.1998
X4.9662Y-3.4498
X5.1287Y-2.6998
X5.1537Y-1.9498
X5.3162Y-3.4498
X5.3412Y-4.1998
X5.5037Y-1.9498
X5.5287Y-2.6998
X5.6912Y-4.1998
X5.7162Y-3.4498
X5.785Y-4.9498
X5.8787Y-2.6998
X5.9037Y-1.9498
X6.0662Y-3.4498
X6.0912Y-4.1998
X6.185Y-4.9498
X6.2537Y-1.9498
X6.2787Y-2.6998
X6.4412Y-4.1998
X6.4662Y-3.4498
X6.6287Y-2.6998
X6.6537Y-1.9498
X6.8162Y-3.4498
X6.8412Y-4.1998
X7.0037Y-1.9498
X7.0287Y-2.6998
X7.1912Y-4.1998
X7.2162Y-3.4498
X7.3787Y-2.6998
X7.4037Y-1.9498
X7.5662Y-3.4498
X7.5912Y-4.1998
X7.7537Y-1.9498
X7.7787Y-2.6998
X7.9412Y-4.1998
X7.9662Y-3.4498
X8.1287Y-2.6998
X8.1537Y-1.9498
X8.3162Y-3.4498
X8.3412Y-4.1998
X8.5037Y-1.9498
X8.5037Y-4.9498
X8.5287Y-2.6998
X8.6912Y-4.1998
X8.7162Y-3.4498
X8.8787Y-2.6998
X8.9037Y-1.9498
X8.9037Y-4.9498
X9.0662Y-3.4498
X9.0912Y-4.1998
X9.2537Y-1.9498
X9.2537Y-4.9498
X9.2787Y-2.6998
X9.4412Y-4.1998
X9.4662Y-3.4498
X9.6287Y-2.6998
X9.6537Y-1.9498
X9.6537Y-4.9498
X9.8162Y-3.4498
X9.8412Y-4.1998
X10.0037Y-1.9498
X10.0037Y-4.9498
X10.0287Y-2.6998
X10.2162Y-3.4498
X10.3787Y-2.6998
X10.4037Y-1.9498
X10.4037Y-4.9498
X10.7537Y-4.9498
X10.7787Y-2.6998
X10.8475Y-4.1998
X11.035Y-3.4498
X11.1287Y-1.9498
X11.1537Y-4.9498
X11.2475Y-4.1998
X11.3162Y-2.6998
X11.435Y-3.4498
X11.5037Y-4.9498
X11.5287Y-1.9498
X11.7162Y-2.6998
X11.9037Y-4.9498
T8
X0.0787Y-0.9163
X0.0787Y-1.1309
T9
X9.6378Y-0.4311
X9.6378Y-1.3366
X11.9213Y-0.4311
X11.9213Y-1.3366
T10
X1.2025Y-3.9248
X2.1425Y-3.9248
X4.0165Y-4.6748
X7.9535Y-4.6748
X10.5775Y-3.9248
X10.765Y-3.1748
X10.8587Y-1.6748
X11.5175Y-3.9248
X11.705Y-3.1748
X11.7987Y-1.6748
T11
X0.3037Y-2.5998
X0.3037Y-3.3498
X0.3037Y-4.0998
X0.3037Y-4.8498
X0.5537Y-2.4998
X0.5537Y-3.2498
X0.5537Y-3.9998
X0.5537Y-4.7498
X1.0537Y-1.8498
X1.1475Y-4.8498
X1.2412Y-2.5998
X1.3037Y-1.7498
X1.335Y-3.3498
X1.3975Y-4.7498
X1.4912Y-2.4998
X1.5225Y-4.0998
X1.585Y-3.2498
X1.7725Y-3.9998
X1.8037Y-1.8498
X2.0537Y-1.7498
X2.085Y-4.8498
X2.1787Y-2.5998
X2.335Y-4.7498
X2.3662Y-3.3498
X2.4287Y-2.4998
X2.5537Y-1.8498
X2.6162Y-3.2498
X2.7412Y-4.0998
X2.8037Y-1.7498
X2.9287Y-2.5998
X2.9912Y-3.9998
X3.0225Y-4.8498
X3.1162Y-3.3498
X3.1787Y-2.4998
X3.2725Y-4.7498
X3.3037Y-1.8498
X3.3662Y-3.2498
X3.4912Y-4.0998
X3.5537Y-1.7498
X3.6787Y-2.5998
X3.7412Y-3.9998
X3.8662Y-3.3498
X3.9287Y-2.4998
X4.0537Y-1.8498
X4.1162Y-3.2498
X4.2412Y-4.0998
X4.3037Y-1.7498
X4.4287Y-2.5998
X4.4912Y-3.9998
X4.6162Y-3.3498
X4.6787Y-2.4998
X4.8037Y-1.8498
X4.8662Y-3.2498
X4.9912Y-4.0998
X5.0537Y-1.7498
X5.1787Y-2.5998
X5.2412Y-3.9998
X5.3662Y-3.3498
X5.4287Y-2.4998
X5.5537Y-1.8498
X5.6162Y-3.2498
X5.7412Y-4.0998
X5.8037Y-1.7498
X5.835Y-4.8498
X5.9287Y-2.5998
X5.9912Y-3.9998
X6.085Y-4.7498
X6.1162Y-3.3498
X6.1787Y-2.4998
X6.3037Y-1.8498
X6.3662Y-3.2498
X6.4912Y-4.0998
X6.5537Y-1.7498
X6.6787Y-2.5998
X6.7412Y-3.9998
X6.8662Y-3.3498
X6.9287Y-2.4998
X7.0537Y-1.8498
X7.1162Y-3.2498
X7.2412Y-4.0998
X7.3037Y-1.7498
X7.4287Y-2.5998
X7.4912Y-3.9998
X7.6162Y-3.3498
X7.6787Y-2.4998
X7.8037Y-1.8498
X7.8662Y-3.2498
X7.9912Y-4.0998
X8.0537Y-1.7498
X8.1787Y-2.5998
X8.2412Y-3.9998
X8.3662Y-3.3498
X8.4287Y-2.4998
X8.5537Y-1.8498
X8.5537Y-4.8498
X8.6162Y-3.2498
X8.7412Y-4.0998
X8.8037Y-1.7498
X8.8037Y-4.7498
X8.9287Y-2.5998
X8.9912Y-3.9998
X9.1162Y-3.3498
X9.1787Y-2.4998
X9.3037Y-1.8498
X9.3037Y-4.8498
X9.3662Y-3.2498
X9.4912Y-4.0998
X9.5537Y-1.7498
X9.5537Y-4.7498
X9.6787Y-2.5998
X9.7412Y-3.9998
X9.8662Y-3.3498
X9.9287Y-2.4998
X10.0537Y-1.8498
X10.0537Y-4.8498
X10.1162Y-3.2498
X10.3037Y-1.7498
X10.3037Y-4.7498
X10.4287Y-2.5998
X10.6787Y-2.4998
X10.8037Y-4.8498
X10.8975Y-4.0998
X11.0537Y-4.7498
X11.085Y-3.3498
X11.1475Y-3.9998
X11.1787Y-1.8498
X11.335Y-3.2498
X11.3662Y-2.5998
X11.4287Y-1.7498
X11.5537Y-4.8498
X11.6162Y-2.4998
X11.8037Y-4.7498
T12
X0.134Y-0.414
X0.909Y-2.68
X0.913Y-4.204
X3.661Y-1.374
X4.8807Y-4.7923
X6.453Y-3.048
X7.0893Y-4.7923
X7.123Y-1.374
X10.256Y-4.204
X11.039Y-2.68
T13
X1.2025Y-4.5236
X2.1425Y-4.5236
X4.0165Y-5.2736
X7.9535Y-5.2736
X10.5775Y-4.5236
X10.765Y-3.7736
X10.8587Y-2.2736
X11.5175Y-4.5236
X11.705Y-3.7736
X11.7987Y-2.2736
T14
X0.4537Y-2.6998
X0.4537Y-3.4498
X0.4537Y-4.1998
X0.4537Y-4.9498
X1.2037Y-1.9498
X1.2975Y-4.9498
X1.3912Y-2.6998
X1.485Y-3.4498
X1.6725Y-4.1998
X1.9537Y-1.9498
X2.235Y-4.9498
X2.3287Y-2.6998
X2.5162Y-3.4498
X2.7037Y-1.9498
X2.8912Y-4.1998
X3.0787Y-2.6998
X3.1725Y-4.9498
X3.2662Y-3.4498
X3.4537Y-1.9498
X3.6412Y-4.1998
X3.8287Y-2.6998
X4.0162Y-3.4498
X4.2037Y-1.9498
X4.3912Y-4.1998
X4.5787Y-2.6998
X4.7662Y-3.4498
X4.9537Y-1.9498
X5.1412Y-4.1998
X5.3287Y-2.6998
X5.5162Y-3.4498
X5.7037Y-1.9498
X5.8912Y-4.1998
X5.985Y-4.9498
X6.0787Y-2.6998
X6.2662Y-3.4498
X6.4537Y-1.9498
X6.6412Y-4.1998
X6.8287Y-2.6998
X7.0162Y-3.4498
X7.2037Y-1.9498
X7.3912Y-4.1998
X7.5787Y-2.6998
X7.7662Y-3.4498
X7.9537Y-1.9498
X8.1412Y-4.1998
X8.3287Y-2.6998
X8.5162Y-3.4498
X8.7037Y-1.9498
X8.7037Y-4.9498
X8.8912Y-4.1998
X9.0787Y-2.6998
X9.2662Y-3.4498
X9.4537Y-1.9498
X9.4537Y-4.9498
X9.6412Y-4.1998
X9.8287Y-2.6998
X10.0162Y-3.4498
X10.2037Y-1.9498
X10.2037Y-4.9498
X10.5787Y-2.6998
X10.9537Y-4.9498
X11.0475Y-4.1998
X11.235Y-3.4498
X11.3287Y-1.9498
X11.5162Y-2.6998
X11.7037Y-4.9498
T0
M30
