0
SECTION
2
HEADER
9
$INSUNITS
70
4
9
$ACADVER
1
AC1014
9
$HANDSEED
5
FFFF
0
ENDSEC
0
SECTION
2
TABLES
0
TABLE
2
VPORT
5
8
100
AcDbSymbolTable
0
ENDTAB
0
TABLE
2
LTYPE
5
5
100
AcDbSymbolTable
0
LTYPE
5
14
100
AcDbSymbolTableRecord
100
AcDbLinetypeTableRecord
2
BYBLOCK
70
0
0
LTYPE
5
15
100
AcDbSymbolTableRecord
100
AcDbLinetypeTableRecord
2
BYLAYER
70
0
0
ENDTAB
0
TABLE
2
LAYER
5
2
100
AcDbSymbolTable
70
2
0
LAYER
5
50
100
AcDbSymbolTableRecord
100
AcDbLayerTableRecord
2
0
70
0
6
CONTINUOUS
0
ENDTAB
0
TABLE
2
STYLE
5
3
100
AcDbSymbolTable
70
1
0
STYLE
5
11
100
AcDbSymbolTableRecord
100
AcDbTextStyleTableRecord
2
STANDARD
70
0
0
ENDTAB
0
TABLE
2
VIEW
5
6
100
AcDbSymbolTable
70
0
0
ENDTAB
0
TABLE
2
UCS
5
7
100
AcDbSymbolTable
70
0
0
ENDTAB
0
TABLE
2
APPID
5
9
100
AcDbSymbolTable
70
2
0
APPID
5
12
100
AcDbSymbolTableRecord
100
AcDbRegAppTableRecord
2
ACAD
70
0
0
ENDTAB
0
TABLE
2
DIMSTYLE
5
A
100
AcDbSymbolTable
70
1
0
ENDTAB
0
TABLE
2
BLOCK_RECORD
5
1
100
AcDbSymbolTable
70
1
0
BLOCK_RECORD
5
1F
100
AcDbSymbolTableRecord
100
AcDbBlockTableRecord
2
*MODEL_SPACE
0
BLOCK_RECORD
5
1B
100
AcDbSymbolTableRecord
100
AcDbBlockTableRecord
2
*PAPER_SPACE
0
ENDTAB
0
ENDSEC
0
SECTION
2
BLOCKS
0
BLOCK
5
20
100
AcDbEntity
100
AcDbBlockBegin
2
*MODEL_SPACE
0
ENDBLK
5
21
100
AcDbEntity
100
AcDbBlockEnd
0
BLOCK
5
1C
100
AcDbEntity
100
AcDbBlockBegin
2
*PAPER_SPACE
0
ENDBLK
5
1D
100
AcDbEntity
100
AcDbBlockEnd
0
ENDSEC
0
SECTION
2
ENTITIES
0
ARC
5
100
100
AcDbEntity
8
0
100
AcDbCircle
10
32.000000461935997
20
7.9999999999999991
30
0
40
1.0000000000000009
210
0
220
0
230
1
100
AcDbArc
50
180
51
270
0
LINE
5
101
100
AcDbEntity
8
0
100
AcDbLine
10
3.0000000000000009
20
7
30
0
11
20.000000312924389
21
7.0000000000000009
31
0
0
ARC
5
102
100
AcDbEntity
8
0
100
AcDbCircle
10
305.80000000000001
20
10.000000000000007
30
0
40
3.0000000000000138
210
0
220
0
230
1
100
AcDbArc
50
270
51
360
0
LINE
5
103
100
AcDbEntity
8
0
100
AcDbLine
10
308.80000000000001
20
10
30
0
11
308.80000000000001
21
134.25
31
0
0
ARC
5
104
100
AcDbEntity
8
0
100
AcDbCircle
10
305.80000000000007
20
134.25000000000003
30
0
40
2.9999999999999716
210
0
220
0
230
1
100
AcDbArc
50
0
51
90
0
ARC
5
105
100
AcDbEntity
8
0
100
AcDbCircle
10
3.0000000000000151
20
134.25
30
0
40
3.0000000000000071
210
0
220
0
230
1
100
AcDbArc
50
90.000000000000142
51
180
0
LINE
5
106
100
AcDbEntity
8
0
100
AcDbLine
10
7.7715611723760958e-15
20
134.25
30
0
11
0
21
10
31
0
0
ARC
5
107
100
AcDbEntity
8
0
100
AcDbCircle
10
3.0000000000000018
20
10
30
0
40
3.0000000000000018
210
0
220
0
230
1
100
AcDbArc
50
180
51
270
0
ARC
5
108
100
AcDbEntity
8
0
100
AcDbCircle
10
20.000000312924389
20
8.0000000000000018
30
0
40
1.0000000000000009
210
0
220
0
230
1
100
AcDbArc
50
270
51
360
0
LINE
5
109
100
AcDbEntity
8
0
100
AcDbLine
10
21.000000312924389
20
7.9999999999999982
30
0
11
21.000000312924385
21
12.000000178813934
31
0
0
LINE
5
110
100
AcDbEntity
8
0
100
AcDbLine
10
31.000000461935997
20
12.000000178813934
30
0
11
31.000000461935993
21
7.9999999999999982
31
0
0
LWPOLYLINE
5
111
100
AcDbEntity
8
0
100
AcDbPolyline
90
4
70
1
43
0.0
10
74.000001102685928
20
13.000000193715096
10
74.000001102685928
20
10.000000149011612
10
62.000000923871994
20
10.000000149011612
10
62.000000923871994
20
13.000000193715096
0
ARC
5
112
100
AcDbEntity
8
0
100
AcDbCircle
10
199.00000295042992
20
136.25
30
0
40
1.0000000000000142
210
0
220
-0
230
1
100
AcDbArc
50
90
51
180
0
LINE
5
113
100
AcDbEntity
8
0
100
AcDbLine
10
198.00000295042992
20
136.25000000000003
30
0
11
198.00000295042992
21
126.00000187754631
31
0
0
LINE
5
114
100
AcDbEntity
8
0
100
AcDbLine
10
198.00000295042992
20
126.00000187754631
30
0
11
184.00000274181366
21
126.00000187754631
31
0
0
LINE
5
115
100
AcDbEntity
8
0
100
AcDbLine
10
184.00000274181366
20
126.00000187754631
30
0
11
184.00000274181366
21
135.17893218813452
31
0
0
LINE
5
116
100
AcDbEntity
8
0
100
AcDbLine
10
182.5355366477464
20
138.71446609406723
30
0
11
175.46446883588092
21
145.78553390593274
31
0
0
LINE
5
117
100
AcDbEntity
8
0
100
AcDbLine
10
128.56253116411915
20
145.78553390593277
30
0
11
121.49146335225365
21
138.71446609406726
31
0
0
LINE
5
118
100
AcDbEntity
8
0
100
AcDbLine
10
120.02699725818637
20
135.17893218813452
30
0
11
120.02699725818637
21
126.00000187754631
31
0
0
LINE
5
119
100
AcDbEntity
8
0
100
AcDbLine
10
120.02699725818637
20
126.00000187754631
30
0
11
106.02699704957011
21
126.00000187754631
31
0
0
LINE
5
120
100
AcDbEntity
8
0
100
AcDbLine
10
106.02699704957011
20
126.00000187754631
30
0
11
106.02699704957011
21
136.25
31
0
0
ARC
5
121
100
AcDbEntity
8
0
100
AcDbCircle
10
105.02699704957011
20
136.25
30
0
40
0.99999999999999645
210
0
220
-0
230
1
100
AcDbArc
50
0
51
90
0
LINE
5
122
100
AcDbEntity
8
0
100
AcDbLine
10
21.000000312924385
20
12.000000178813934
30
0
11
31.000000461935997
21
12.000000178813934
31
0
0
LINE
5
123
100
AcDbEntity
8
0
100
AcDbLine
10
171.92893492994818
20
147.25
30
0
11
132.09806507005189
21
147.25
31
0
0
LINE
5
124
100
AcDbEntity
8
0
100
AcDbLine
10
105.02699704957011
20
137.25
30
0
11
3.0000000000000071
21
137.25
31
0
0
LINE
5
125
100
AcDbEntity
8
0
100
AcDbLine
10
305.80000000000007
20
137.25
30
0
11
199.00000295042992
21
137.25
31
0
0
CIRCLE
5
126
100
AcDbEntity
8
0
100
AcDbCircle
10
302.80000000000001
20
10.949999999999999
30
0
40
1.4249999999999829
210
-0
220
0
230
1
0
CIRCLE
5
127
100
AcDbEntity
8
0
100
AcDbCircle
10
180.06900000000002
20
121.72499999999999
30
0
40
1.6499999999999915
210
-0
220
0
230
1
0
CIRCLE
5
128
100
AcDbEntity
8
0
100
AcDbCircle
10
302.80000000000001
20
33.950000000000003
30
0
40
1.4249999999999829
210
-0
220
0
230
1
0
CIRCLE
5
129
100
AcDbEntity
8
0
100
AcDbCircle
10
244.80000000000004
20
33.950000000000003
30
0
40
1.4249999999999829
210
-0
220
0
230
1
0
CIRCLE
5
130
100
AcDbEntity
8
0
100
AcDbCircle
10
244.80000000000004
20
10.949999999999999
30
0
40
1.4249999999999829
210
-0
220
0
230
1
0
CIRCLE
5
131
100
AcDbEntity
8
0
100
AcDbCircle
10
92.989400000000003
20
34.8996
30
0
40
1.6499999999999915
210
-0
220
0
230
1
0
CIRCLE
5
132
100
AcDbEntity
8
0
100
AcDbCircle
10
180.92400000000001
20
34.8996
30
0
40
1.6499999999999915
210
-0
220
0
230
1
0
CIRCLE
5
133
100
AcDbEntity
8
0
100
AcDbCircle
10
3.4036
20
10.515600000000001
30
0
40
1.6500000000000001
210
-0
220
0
230
1
0
CIRCLE
5
134
100
AcDbEntity
8
0
100
AcDbCircle
10
123.96900000000001
20
121.72499999999999
30
0
40
1.6499999999999915
210
-0
220
0
230
1
0
CIRCLE
5
135
100
AcDbEntity
8
0
100
AcDbCircle
10
260.50200000000007
20
106.78200000000002
30
0
40
1.6499999999999915
210
-0
220
0
230
1
0
CIRCLE
5
136
100
AcDbEntity
8
0
100
AcDbCircle
10
280.39099999999996
20
68.072000000000003
30
0
40
1.6499999999999915
210
-0
220
0
230
1
0
CIRCLE
5
137
100
AcDbEntity
8
0
100
AcDbCircle
10
23.0886
20
68.072000000000003
30
0
40
1.6500000000000004
210
-0
220
0
230
1
0
CIRCLE
5
138
100
AcDbEntity
8
0
100
AcDbCircle
10
23.190200000000001
20
106.78200000000002
30
0
40
1.6500000000000004
210
-0
220
0
230
1
0
CIRCLE
5
139
100
AcDbEntity
8
0
100
AcDbCircle
10
152.01350000000002
20
142.24941349616421
30
0
40
1.6499999999999915
210
-0
220
0
230
1
0
ARC
5
140
100
AcDbEntity
8
0
100
AcDbCircle
10
179.00000274181372
20
135.17893218813452
30
0
40
4.9999999999999289
210
0
220
0
230
1
100
AcDbArc
50
0
51
45.00000000000022
0
ARC
5
141
100
AcDbEntity
8
0
100
AcDbCircle
10
171.92893492994824
20
142.25000000000011
30
0
40
4.9999999999998899
210
0
220
-0
230
1
100
AcDbArc
50
44.999999999999531
51
90.000000000000654
0
ARC
5
142
100
AcDbEntity
8
0
100
AcDbCircle
10
132.09806507005192
20
142.24999999999994
30
0
40
5.0000000000000711
210
0
220
0
230
1
100
AcDbArc
50
90.000000000000327
51
134.99999999999955
0
ARC
5
143
100
AcDbEntity
8
0
100
AcDbCircle
10
125.02699725818637
20
135.17893218813452
30
0
40
5.0000000000000018
210
0
220
0
230
1
100
AcDbArc
50
134.99999999999991
51
180
0
CIRCLE
5
144
100
AcDbEntity
8
0
100
AcDbCircle
10
163.90600000000001
20
77.419200000000004
30
0
40
1.6499999999999915
210
-0
220
0
230
1
0
LINE
5
145
100
AcDbEntity
8
0
100
AcDbLine
10
32.000000461935997
20
6.9999999999999982
30
0
11
305.80000000000001
21
6.9999999999999929
31
0
0
ENDSEC
0
SECTION
2
OBJECTS
0
DICTIONARY
5
C
100
AcDbDictionary
3
ACAD_GROUP
350
D
3
ACAD_MLINESTYLE
350
17
0
DICTIONARY
5
D
100
AcDbDictionary
0
DICTIONARY
5
1A
330
C
100
AcDbDictionary
0
DICTIONARY
5
17
100
AcDbDictionary
0
ENDSEC
0
EOF
