0
SECTION
2
HEADER
9
$INSUNITS
70
4
9
$ACADVER
1
AC1014
9
$HANDSEED
5
FFFF
0
ENDSEC
0
SECTION
2
TABLES
0
TABLE
2
VPORT
5
8
100
AcDbSymbolTable
0
ENDTAB
0
TABLE
2
LTYPE
5
5
100
AcDbSymbolTable
0
LTYPE
5
14
100
AcDbSymbolTableRecord
100
AcDbLinetypeTableRecord
2
BYBLOCK
70
0
0
LTYPE
5
15
100
AcDbSymbolTableRecord
100
AcDbLinetypeTableRecord
2
BYLAYER
70
0
0
ENDTAB
0
TABLE
2
LAYER
5
2
100
AcDbSymbolTable
70
2
0
LAYER
5
50
100
AcDbSymbolTableRecord
100
AcDbLayerTableRecord
2
0
70
0
6
CONTINUOUS
0
ENDTAB
0
TABLE
2
STYLE
5
3
100
AcDbSymbolTable
70
1
0
STYLE
5
11
100
AcDbSymbolTableRecord
100
AcDbTextStyleTableRecord
2
STANDARD
70
0
0
ENDTAB
0
TABLE
2
VIEW
5
6
100
AcDbSymbolTable
70
0
0
ENDTAB
0
TABLE
2
UCS
5
7
100
AcDbSymbolTable
70
0
0
ENDTAB
0
TABLE
2
APPID
5
9
100
AcDbSymbolTable
70
2
0
APPID
5
12
100
AcDbSymbolTableRecord
100
AcDbRegAppTableRecord
2
ACAD
70
0
0
ENDTAB
0
TABLE
2
DIMSTYLE
5
A
100
AcDbSymbolTable
70
1
0
ENDTAB
0
TABLE
2
BLOCK_RECORD
5
1
100
AcDbSymbolTable
70
1
0
BLOCK_RECORD
5
1F
100
AcDbSymbolTableRecord
100
AcDbBlockTableRecord
2
*MODEL_SPACE
0
BLOCK_RECORD
5
1B
100
AcDbSymbolTableRecord
100
AcDbBlockTableRecord
2
*PAPER_SPACE
0
ENDTAB
0
ENDSEC
0
SECTION
2
BLOCKS
0
BLOCK
5
20
100
AcDbEntity
100
AcDbBlockBegin
2
*MODEL_SPACE
0
ENDBLK
5
21
100
AcDbEntity
100
AcDbBlockEnd
0
BLOCK
5
1C
100
AcDbEntity
100
AcDbBlockBegin
2
*PAPER_SPACE
0
ENDBLK
5
1D
100
AcDbEntity
100
AcDbBlockEnd
0
ENDSEC
0
SECTION
2
ENTITIES
0
LWPOLYLINE
5
100
100
AcDbEntity
8
0
100
AcDbPolyline
90
30
70
1
43
0.0
10
31.000000461935993
20
7.9999999999999982
42
0.4142135623730947
10
32.000000461935997
20
6.9999999999999982
10
305.80000000000007
20
6.9999999999999929
42
0.41421356237309093
10
308.80000000000001
20
10
10
308.80000000000001
20
134.25
42
0.41421356237309681
10
305.80000000000007
20
137.25
10
183.00000271201134
20
137.24999999999997
42
0.41421356237308982
10
182.00000271201134
20
136.25000000000003
10
182.00000271201134
20
128.00000190734863
10
170.0000025331974
20
128.00000190734863
10
170.0000025331974
20
135.17893218813452
42
0.19891236737965864
10
168.53553643913014
20
138.71446609406726
10
161.46446862726467
20
145.78553390593274
42
0.19891236737966092
10
157.92893472133193
20
147.25
10
146.0710698086211
20
147.25
42
0.19891236737965134
10
142.53553590268837
20
145.78553390593277
10
135.46446809082286
20
138.71446609406729
42
0.19891236737965737
10
134.0000019967556
20
135.17893218813452
10
134.0000019967556
20
128.00000190734863
10
122.00000181794167
20
128.00000190734863
10
122.00000181794167
20
136.25
42
0.41421356237309503
10
121.00000181794167
20
137.25
10
3.0000000000000071
20
137.25
42
0.41421356237309431
10
7.7715611723760958e-15
20
134.25
10
0
20
10
42
0.41421356237309503
10
3.0000000000000018
20
6.9999999999999982
10
20.000000312924389
20
7.0000000000000009
42
0.41421356237309404
10
21.000000312924389
20
7.9999999999999982
10
21.000000312924385
20
21.000000312924385
10
31.000000461935997
20
21.000000312924385
0
LWPOLYLINE
5
101
100
AcDbEntity
8
0
100
AcDbPolyline
90
4
70
1
43
0.0
10
74.000001102685928
20
30.000000447034836
10
74.000001102685928
20
17.00000025331974
10
62.000000923871994
20
17.00000025331974
10
62.000000923871994
20
30.000000447034836
0
CIRCLE
5
102
100
AcDbEntity
8
0
100
AcDbCircle
10
3.4036
20
10.515600000000001
30
0
40
2.1999999999999997
210
-0
220
0
230
1
0
CIRCLE
5
103
100
AcDbEntity
8
0
100
AcDbCircle
10
23.0886
20
68.072000000000003
30
0
40
2.200000000000002
210
-0
220
0
230
1
0
CIRCLE
5
104
100
AcDbEntity
8
0
100
AcDbCircle
10
92.989400000000003
20
34.8996
30
0
40
2.2000000000000064
210
-0
220
0
230
1
0
CIRCLE
5
105
100
AcDbEntity
8
0
100
AcDbCircle
10
180.92400000000001
20
34.8996
30
0
40
2.1999999999999886
210
-0
220
0
230
1
0
CIRCLE
5
106
100
AcDbEntity
8
0
100
AcDbCircle
10
260.50200000000007
20
106.78200000000002
30
0
40
2.1999999999999886
210
-0
220
0
230
1
0
CIRCLE
5
107
100
AcDbEntity
8
0
100
AcDbCircle
10
280.39099999999996
20
68.072000000000003
30
0
40
2.1999999999999886
210
-0
220
0
230
1
0
CIRCLE
5
108
100
AcDbEntity
8
0
100
AcDbCircle
10
302.80000000000001
20
33.950000000000003
30
0
40
2.1999999999999886
210
-0
220
0
230
1
0
CIRCLE
5
109
100
AcDbEntity
8
0
100
AcDbCircle
10
302.80000000000001
20
10.949999999999999
30
0
40
2.1999999999999886
210
-0
220
0
230
1
0
CIRCLE
5
110
100
AcDbEntity
8
0
100
AcDbCircle
10
244.80000000000004
20
10.949999999999999
30
0
40
2.1999999999999886
210
-0
220
0
230
1
0
CIRCLE
5
111
100
AcDbEntity
8
0
100
AcDbCircle
10
244.80000000000004
20
33.950000000000003
30
0
40
2.1999999999999886
210
-0
220
0
230
1
0
CIRCLE
5
112
100
AcDbEntity
8
0
100
AcDbCircle
10
180.06900000000002
20
121.72499999999999
30
0
40
2.1999999999999886
210
-0
220
0
230
1
0
CIRCLE
5
113
100
AcDbEntity
8
0
100
AcDbCircle
10
163.90600000000001
20
77.419200000000004
30
0
40
2.1999999999999886
210
-0
220
0
230
1
0
CIRCLE
5
114
100
AcDbEntity
8
0
100
AcDbCircle
10
123.96900000000001
20
121.72499999999999
30
0
40
2.1999999999999886
210
-0
220
0
230
1
0
CIRCLE
5
115
100
AcDbEntity
8
0
100
AcDbCircle
10
23.190200000000001
20
106.78200000000002
30
0
40
2.2000000000000064
210
-0
220
0
230
1
0
LWPOLYLINE
5
116
100
AcDbEntity
8
0
100
AcDbPolyline
90
4
70
1
43
0.0
10
74.000001102685928
20
13.000000193715096
10
74.000001102685928
20
10.000000149011612
10
62.000000923871994
20
10.000000149011612
10
62.000000923871994
20
13.000000193715096
0
CIRCLE
5
117
100
AcDbEntity
8
0
100
AcDbCircle
10
152.01350000000002
20
142.24941349616421
30
0
40
1.6499999999999915
210
-0
220
0
230
1
0
ENDSEC
0
SECTION
2
OBJECTS
0
DICTIONARY
5
C
100
AcDbDictionary
3
ACAD_GROUP
350
D
3
ACAD_MLINESTYLE
350
17
0
DICTIONARY
5
D
100
AcDbDictionary
0
DICTIONARY
5
1A
330
C
100
AcDbDictionary
0
DICTIONARY
5
17
100
AcDbDictionary
0
ENDSEC
0
EOF
