0
SECTION
2
HEADER
9
$INSUNITS
70
4
9
$ACADVER
1
AC1014
9
$HANDSEED
5
FFFF
0
ENDSEC
0
SECTION
2
TABLES
0
TABLE
2
VPORT
5
8
100
AcDbSymbolTable
0
ENDTAB
0
TABLE
2
LTYPE
5
5
100
AcDbSymbolTable
0
LTYPE
5
14
100
AcDbSymbolTableRecord
100
AcDbLinetypeTableRecord
2
BYBLOCK
70
0
0
LTYPE
5
15
100
AcDbSymbolTableRecord
100
AcDbLinetypeTableRecord
2
BYLAYER
70
0
0
ENDTAB
0
TABLE
2
LAYER
5
2
100
AcDbSymbolTable
70
2
0
LAYER
5
50
100
AcDbSymbolTableRecord
100
AcDbLayerTableRecord
2
0
70
0
6
CONTINUOUS
0
ENDTAB
0
TABLE
2
STYLE
5
3
100
AcDbSymbolTable
70
1
0
STYLE
5
11
100
AcDbSymbolTableRecord
100
AcDbTextStyleTableRecord
2
STANDARD
70
0
0
ENDTAB
0
TABLE
2
VIEW
5
6
100
AcDbSymbolTable
70
0
0
ENDTAB
0
TABLE
2
UCS
5
7
100
AcDbSymbolTable
70
0
0
ENDTAB
0
TABLE
2
APPID
5
9
100
AcDbSymbolTable
70
2
0
APPID
5
12
100
AcDbSymbolTableRecord
100
AcDbRegAppTableRecord
2
ACAD
70
0
0
ENDTAB
0
TABLE
2
DIMSTYLE
5
A
100
AcDbSymbolTable
70
1
0
ENDTAB
0
TABLE
2
BLOCK_RECORD
5
1
100
AcDbSymbolTable
70
1
0
BLOCK_RECORD
5
1F
100
AcDbSymbolTableRecord
100
AcDbBlockTableRecord
2
*MODEL_SPACE
0
BLOCK_RECORD
5
1B
100
AcDbSymbolTableRecord
100
AcDbBlockTableRecord
2
*PAPER_SPACE
0
ENDTAB
0
ENDSEC
0
SECTION
2
BLOCKS
0
BLOCK
5
20
100
AcDbEntity
100
AcDbBlockBegin
2
*MODEL_SPACE
0
ENDBLK
5
21
100
AcDbEntity
100
AcDbBlockEnd
0
BLOCK
5
1C
100
AcDbEntity
100
AcDbBlockBegin
2
*PAPER_SPACE
0
ENDBLK
5
1D
100
AcDbEntity
100
AcDbBlockEnd
0
ENDSEC
0
SECTION
2
ENTITIES
0
ARC
5
100
100
AcDbEntity
8
0
100
AcDbCircle
10
32.000000461935997
20
7.9999999999999991
30
0
40
1.0000000000000009
210
0
220
0
230
1
100
AcDbArc
50
180
51
270
0
LINE
5
101
100
AcDbEntity
8
0
100
AcDbLine
10
3.0000000000000009
20
7
30
0
11
20.000000312924389
21
7.0000000000000009
31
0
0
ARC
5
102
100
AcDbEntity
8
0
100
AcDbCircle
10
305.80000000000001
20
10.000000000000007
30
0
40
3.0000000000000138
210
0
220
0
230
1
100
AcDbArc
50
270
51
360
0
LINE
5
103
100
AcDbEntity
8
0
100
AcDbLine
10
308.80000000000001
20
10
30
0
11
308.80000000000001
21
134.25
31
0
0
ARC
5
104
100
AcDbEntity
8
0
100
AcDbCircle
10
305.80000000000007
20
134.25000000000003
30
0
40
2.9999999999999716
210
0
220
0
230
1
100
AcDbArc
50
0
51
90
0
ARC
5
105
100
AcDbEntity
8
0
100
AcDbCircle
10
3.0000000000000151
20
134.25
30
0
40
3.0000000000000071
210
0
220
0
230
1
100
AcDbArc
50
90.000000000000142
51
180
0
LINE
5
106
100
AcDbEntity
8
0
100
AcDbLine
10
7.7715611723760958e-15
20
134.25
30
0
11
0
21
10
31
0
0
ARC
5
107
100
AcDbEntity
8
0
100
AcDbCircle
10
3.0000000000000018
20
10
30
0
40
3.0000000000000018
210
0
220
0
230
1
100
AcDbArc
50
180
51
270
0
ARC
5
108
100
AcDbEntity
8
0
100
AcDbCircle
10
20.000000312924389
20
8.0000000000000018
30
0
40
1.0000000000000009
210
0
220
0
230
1
100
AcDbArc
50
270
51
360
0
LINE
5
109
100
AcDbEntity
8
0
100
AcDbLine
10
21.000000312924389
20
7.9999999999999982
30
0
11
21.000000312924385
21
21.000000312924385
31
0
0
LINE
5
110
100
AcDbEntity
8
0
100
AcDbLine
10
21.000000312924385
20
21.000000312924385
30
0
11
31.000000461935997
21
21.000000312924385
31
0
0
LINE
5
111
100
AcDbEntity
8
0
100
AcDbLine
10
31.000000461935997
20
21.000000312924385
30
0
11
31.000000461935993
21
7.9999999999999982
31
0
0
LWPOLYLINE
5
112
100
AcDbEntity
8
0
100
AcDbPolyline
90
4
70
1
43
0.0
10
74.000001102685928
20
30.000000447034836
10
74.000001102685928
20
17.00000025331974
10
62.000000923871994
20
17.00000025331974
10
62.000000923871994
20
30.000000447034836
0
LWPOLYLINE
5
113
100
AcDbEntity
8
0
100
AcDbPolyline
90
4
70
1
43
0.0
10
74.000001102685928
20
13.000000193715096
10
74.000001102685928
20
10.000000149011612
10
62.000000923871994
20
10.000000149011612
10
62.000000923871994
20
13.000000193715096
0
LINE
5
114
100
AcDbEntity
8
0
100
AcDbLine
10
305.80000000000007
20
137.25
30
0
11
183.00000271201134
21
137.24999999999997
31
0
0
LINE
5
115
100
AcDbEntity
8
0
100
AcDbLine
10
157.92893472133193
20
147.25
30
0
11
146.0710698086211
21
147.25
31
0
0
LINE
5
116
100
AcDbEntity
8
0
100
AcDbLine
10
121.00000181794167
20
137.25
30
0
11
3.0000000000000071
21
137.25
31
0
0
LINE
5
117
100
AcDbEntity
8
0
100
AcDbLine
10
182.00000271201134
20
136.25000000000003
30
0
11
182.00000271201134
21
128.00000190734863
31
0
0
LINE
5
118
100
AcDbEntity
8
0
100
AcDbLine
10
182.00000271201134
20
128.00000190734863
30
0
11
170.0000025331974
21
128.00000190734863
31
0
0
LINE
5
119
100
AcDbEntity
8
0
100
AcDbLine
10
170.0000025331974
20
128.00000190734863
30
0
11
170.0000025331974
21
135.17893218813452
31
0
0
LINE
5
120
100
AcDbEntity
8
0
100
AcDbLine
10
168.53553643913014
20
138.71446609406726
30
0
11
161.46446862726467
21
145.78553390593274
31
0
0
LINE
5
121
100
AcDbEntity
8
0
100
AcDbLine
10
142.53553590268837
20
145.78553390593277
30
0
11
135.46446809082286
21
138.71446609406729
31
0
0
LINE
5
122
100
AcDbEntity
8
0
100
AcDbLine
10
134.0000019967556
20
135.17893218813452
30
0
11
134.0000019967556
21
128.00000190734863
31
0
0
LINE
5
123
100
AcDbEntity
8
0
100
AcDbLine
10
134.0000019967556
20
128.00000190734863
30
0
11
122.00000181794167
21
128.00000190734863
31
0
0
LINE
5
124
100
AcDbEntity
8
0
100
AcDbLine
10
122.00000181794167
20
128.00000190734863
30
0
11
122.00000181794167
21
136.25
31
0
0
ARC
5
125
100
AcDbEntity
8
0
100
AcDbCircle
10
165.0000025331974
20
135.17893218813452
30
0
40
5
210
0
220
0
230
1
100
AcDbArc
50
0
51
45
0
ARC
5
126
100
AcDbEntity
8
0
100
AcDbCircle
10
157.92893472133196
20
142.25000000000009
30
0
40
4.9999999999999272
210
0
220
-0
230
1
100
AcDbArc
50
44.999999999999538
51
90.000000000000327
0
ARC
5
127
100
AcDbEntity
8
0
100
AcDbCircle
10
146.07106980862116
20
142.24999999999989
30
0
40
5.0000000000001421
210
0
220
0
230
1
100
AcDbArc
50
90.000000000000654
51
134.99999999999932
0
ARC
5
128
100
AcDbEntity
8
0
100
AcDbCircle
10
139.00000199675563
20
135.17893218813452
30
0
40
5.0000000000000275
210
0
220
0
230
1
100
AcDbArc
50
135
51
180
0
ARC
5
129
100
AcDbEntity
8
0
100
AcDbCircle
10
121.00000181794167
20
136.25
30
0
40
0.99999999999999645
210
0
220
0
230
1
100
AcDbArc
50
0
51
90
0
ARC
5
130
100
AcDbEntity
8
0
100
AcDbCircle
10
183.00000271201134
20
136.25
30
0
40
0.99999999999997868
210
0
220
-0
230
1
100
AcDbArc
50
90
51
180
0
LWPOLYLINE
5
131
100
AcDbEntity
8
0
100
AcDbPolyline
90
4
70
1
43
0.0
10
149.81349999999998
20
139.92562348843978
42
0.39827726921615864
10
154.21350000000001
20
139.92562348843978
10
154.21350000000001
20
142.24941349616421
42
0.99999999999999989
10
149.8135
20
142.24941349616421
0
LWPOLYLINE
5
132
100
AcDbEntity
8
0
100
AcDbPolyline
90
4
70
1
43
0.0
10
177.86900000000009
20
119.40120999227547
42
0.39827726921614925
10
182.26899999999998
20
119.40120999227548
10
182.26900000000001
20
121.72499999999999
42
0.99999999999999989
10
177.86900000000003
20
121.72499999999999
0
LWPOLYLINE
5
133
100
AcDbEntity
8
0
100
AcDbPolyline
90
4
70
1
43
0.0
10
258.30200000000002
20
104.45820999227557
42
0.39827726921615408
10
262.702
20
104.45820999227556
10
262.702
20
106.78200000000002
42
0.99999999999999989
10
258.30200000000002
20
106.78200000000002
0
LWPOLYLINE
5
134
100
AcDbEntity
8
0
100
AcDbPolyline
90
4
70
1
43
0.0
10
278.19099999999997
20
65.748209992275576
42
0.39827726921616929
10
282.59100000000001
20
65.748209992275576
10
282.59099999999995
20
68.072000000000003
42
0.99999999999999989
10
278.19099999999997
20
68.072000000000003
0
LWPOLYLINE
5
135
100
AcDbEntity
8
0
100
AcDbPolyline
90
4
70
1
43
0.0
10
300.59999999999997
20
31.626209992275562
42
0.39827726921616086
10
305
20
31.626209992275534
10
305
20
33.950000000000003
42
0.99999999999999989
10
300.60000000000002
20
33.950000000000003
0
LWPOLYLINE
5
136
100
AcDbEntity
8
0
100
AcDbPolyline
90
4
70
1
43
0.0
10
305
20
13.273790007724468
42
0.39827726921615342
10
300.60000000000002
20
13.273790007724472
10
300.60000000000002
20
10.949999999999999
42
0.99999999999999989
10
305
20
10.949999999999999
0
LWPOLYLINE
5
137
100
AcDbEntity
8
0
100
AcDbPolyline
90
4
70
1
43
0.0
10
247.00000000000003
20
13.273790007724465
42
0.39827726921615603
10
242.60000000000005
20
13.273790007724465
10
242.60000000000005
20
10.949999999999999
42
0.99999999999999989
10
247.00000000000003
20
10.949999999999999
0
LWPOLYLINE
5
138
100
AcDbEntity
8
0
100
AcDbPolyline
90
4
70
1
43
0.0
10
242.60000000000008
20
31.626209992275506
42
0.39827726921614115
10
247
20
31.626209992275506
10
247.00000000000003
20
33.950000000000003
42
0.99999999999999989
10
242.60000000000005
20
33.950000000000003
0
LWPOLYLINE
5
139
100
AcDbEntity
8
0
100
AcDbPolyline
90
4
70
1
43
0.0
10
178.72399999999996
20
32.57580999227558
42
0.39827726921616885
10
183.12400000000002
20
32.575809992275531
10
183.124
20
34.8996
42
0.99999999999999989
10
178.72400000000002
20
34.8996
0
LWPOLYLINE
5
140
100
AcDbEntity
8
0
100
AcDbPolyline
90
4
70
1
43
0.0
10
161.70600000000005
20
75.095409992275506
42
0.39827726921615408
10
166.10600000000002
20
75.095409992275563
10
166.10599999999999
20
77.419200000000004
42
0.99999999999999989
10
161.70600000000002
20
77.419200000000004
0
LWPOLYLINE
5
141
100
AcDbEntity
8
0
100
AcDbPolyline
90
4
70
1
43
0.0
10
121.76900000000001
20
119.40120999227554
42
0.39827726921615753
10
126.16900000000001
20
119.40120999227554
10
126.169
20
121.72499999999999
42
0.99999999999999989
10
121.76900000000002
20
121.72499999999999
0
LWPOLYLINE
5
142
100
AcDbEntity
8
0
100
AcDbPolyline
90
4
70
1
43
0.0
10
90.789399999999972
20
32.575809992275566
42
0.39827726921616374
10
95.18940000000002
20
32.575809992275566
10
95.189400000000006
20
34.8996
42
0.99999999999999989
10
90.789400000000001
20
34.8996
0
LWPOLYLINE
5
143
100
AcDbEntity
8
0
100
AcDbPolyline
90
4
70
1
43
0.0
10
20.99019999999998
20
104.45820999227558
42
0.39827726921616202
10
25.390200000000011
20
104.45820999227557
10
25.390200000000007
20
106.78200000000002
42
0.99999999999999989
10
20.990199999999994
20
106.78200000000002
0
LWPOLYLINE
5
144
100
AcDbEntity
8
0
100
AcDbPolyline
90
4
70
1
43
0.0
10
20.8886
20
65.748209992275562
42
0.39827726921615803
10
25.288599999999995
20
65.748209992275548
10
25.288600000000002
20
68.072000000000003
42
0.99999999999999989
10
20.8886
20
68.072000000000003
0
LWPOLYLINE
5
145
100
AcDbEntity
8
0
100
AcDbPolyline
90
4
70
1
43
0.0
10
5.6036000000000001
20
12.839390007724452
42
0.39827726921615864
10
1.2035999999999991
20
12.839390007724452
10
1.2036000000000002
20
10.515600000000001
42
0.99999999999999989
10
5.6036000000000001
20
10.515600000000001
0
LINE
5
146
100
AcDbEntity
8
0
100
AcDbLine
10
32.000000461935997
20
6.9999999999999982
30
0
11
305.80000000000001
21
6.9999999999999929
31
0
0
ENDSEC
0
SECTION
2
OBJECTS
0
DICTIONARY
5
C
100
AcDbDictionary
3
ACAD_GROUP
350
D
3
ACAD_MLINESTYLE
350
17
0
DICTIONARY
5
D
100
AcDbDictionary
0
DICTIONARY
5
1A
330
C
100
AcDbDictionary
0
DICTIONARY
5
17
100
AcDbDictionary
0
ENDSEC
0
EOF
