0
SECTION
2
HEADER
9
$INSUNITS
70
4
9
$ACADVER
1
AC1014
9
$HANDSEED
5
FFFF
0
ENDSEC
0
SECTION
2
TABLES
0
TABLE
2
VPORT
5
8
100
AcDbSymbolTable
0
ENDTAB
0
TABLE
2
LTYPE
5
5
100
AcDbSymbolTable
0
LTYPE
5
14
100
AcDbSymbolTableRecord
100
AcDbLinetypeTableRecord
2
BYBLOCK
70
0
0
LTYPE
5
15
100
AcDbSymbolTableRecord
100
AcDbLinetypeTableRecord
2
BYLAYER
70
0
0
ENDTAB
0
TABLE
2
LAYER
5
2
100
AcDbSymbolTable
70
2
0
LAYER
5
50
100
AcDbSymbolTableRecord
100
AcDbLayerTableRecord
2
0
70
0
6
CONTINUOUS
0
ENDTAB
0
TABLE
2
STYLE
5
3
100
AcDbSymbolTable
70
1
0
STYLE
5
11
100
AcDbSymbolTableRecord
100
AcDbTextStyleTableRecord
2
STANDARD
70
0
0
ENDTAB
0
TABLE
2
VIEW
5
6
100
AcDbSymbolTable
70
0
0
ENDTAB
0
TABLE
2
UCS
5
7
100
AcDbSymbolTable
70
0
0
ENDTAB
0
TABLE
2
APPID
5
9
100
AcDbSymbolTable
70
2
0
APPID
5
12
100
AcDbSymbolTableRecord
100
AcDbRegAppTableRecord
2
ACAD
70
0
0
ENDTAB
0
TABLE
2
DIMSTYLE
5
A
100
AcDbSymbolTable
70
1
0
ENDTAB
0
TABLE
2
BLOCK_RECORD
5
1
100
AcDbSymbolTable
70
1
0
BLOCK_RECORD
5
1F
100
AcDbSymbolTableRecord
100
AcDbBlockTableRecord
2
*MODEL_SPACE
0
BLOCK_RECORD
5
1B
100
AcDbSymbolTableRecord
100
AcDbBlockTableRecord
2
*PAPER_SPACE
0
ENDTAB
0
ENDSEC
0
SECTION
2
BLOCKS
0
BLOCK
5
20
100
AcDbEntity
100
AcDbBlockBegin
2
*MODEL_SPACE
0
ENDBLK
5
21
100
AcDbEntity
100
AcDbBlockEnd
0
BLOCK
5
1C
100
AcDbEntity
100
AcDbBlockBegin
2
*PAPER_SPACE
0
ENDBLK
5
1D
100
AcDbEntity
100
AcDbBlockEnd
0
ENDSEC
0
SECTION
2
ENTITIES
0
LWPOLYLINE
5
100
100
AcDbEntity
8
0
100
AcDbPolyline
90
8
70
1
43
0.0
10
-308.80000000000001
20
40.995199999999997
42
0.41421356237310542
10
-307.80000000000001
20
39.995200000000025
10
-1.0000000000000142
20
39.995199999999997
42
0.41421356237309914
10
6.9388939039072284e-16
20
40.995199999999997
10
0
20
134.25
42
0.41421356237309503
10
-3.0000000000000004
20
137.25
10
-305.80000000000001
20
137.25
42
0.41421356237309503
10
-308.80000000000001
20
134.25
0
LWPOLYLINE
5
101
100
AcDbEntity
8
0
100
AcDbPolyline
90
4
70
1
43
0.0
10
-145.01300000000001
20
118.72
10
-159.01400000000001
20
118.72
10
-159.01400000000001
20
132.71899999999999
10
-145.01300000000001
20
132.71899999999999
0
LWPOLYLINE
5
102
100
AcDbEntity
8
0
100
AcDbPolyline
90
4
70
1
43
0.0
10
-66.145499999999998
20
61.569600000000008
10
-66.145499999999998
20
75.568899999999999
10
-52.1462
20
75.568899999999999
10
-52.1462
20
61.569600000000008
0
LWPOLYLINE
5
103
100
AcDbEntity
8
0
100
AcDbPolyline
90
44
70
1
43
0.0
10
-51.002499999999998
20
113.43899999999999
10
-51.002499999999998
20
108.97
10
-49.476799999999997
20
108.97
10
-49.476799999999997
20
113.66900000000001
10
-35.477400000000003
20
113.66900000000001
10
-35.477400000000003
20
108.97
10
-33.951900000000002
20
108.97
10
-33.951900000000002
20
113.43899999999999
10
-32.226599999999998
20
113.43899999999999
10
-32.226599999999998
20
114.42
10
-28.927600000000005
20
114.42
10
-28.927600000000005
20
113.43899999999999
10
-27.202300000000005
20
113.43899999999999
10
-27.202300000000005
20
107.16900000000001
10
-26.376799999999999
20
107.16900000000001
10
-26.376799999999999
20
104.37
10
-27.202300000000005
20
104.37
10
-27.202300000000005
20
101.14000000000001
10
-28.927600000000005
20
101.14000000000001
10
-28.927600000000005
20
100.21799999999999
10
-32.226599999999998
20
100.21799999999999
10
-32.226599999999998
20
101.14000000000001
10
-33.951900000000002
20
101.14000000000001
10
-33.951900000000002
20
104.37
10
-35.477400000000003
20
104.37
10
-35.477400000000003
20
99.66970000000002
10
-49.476799999999997
20
99.66970000000002
10
-49.476799999999997
20
104.37
10
-51.002499999999998
20
104.37
10
-51.002499999999998
20
101.14000000000001
10
-52.726199999999999
20
101.14000000000001
10
-52.726199999999999
20
100.21799999999999
10
-56.026800000000001
20
100.21799999999999
10
-56.026800000000001
20
101.14000000000001
10
-57.751900000000006
20
101.14000000000001
10
-57.751900000000006
20
104.37
10
-58.577399999999997
20
104.37
10
-58.577399999999997
20
107.16900000000001
10
-57.751900000000006
20
107.16900000000001
10
-57.751900000000006
20
113.43899999999999
10
-56.026800000000001
20
113.43899999999999
10
-56.026800000000001
20
114.42
10
-52.726199999999999
20
114.42
10
-52.726199999999999
20
113.43899999999999
0
LWPOLYLINE
5
104
100
AcDbEntity
8
0
100
AcDbPolyline
90
16
70
1
43
0.0
10
-198.63800000000001
20
132.489
10
-198.63800000000001
20
120.19
10
-200.363
20
120.19
10
-200.363
20
119.268
10
-203.66500000000002
20
119.268
10
-203.66500000000002
20
120.19
10
-205.38900000000001
20
120.19
10
-205.38900000000001
20
123.42
10
-206.21300000000002
20
123.42
10
-206.21300000000002
20
126.21899999999999
10
-205.38900000000001
20
126.21899999999999
10
-205.38900000000001
20
132.489
10
-203.66500000000002
20
132.489
10
-203.66500000000002
20
133.47000000000003
10
-200.363
20
133.47000000000003
10
-200.363
20
132.489
0
LWPOLYLINE
5
105
100
AcDbEntity
8
0
100
AcDbPolyline
90
4
70
1
43
0.0
10
-28.333700000000004
20
75.568899999999999
10
-28.333700000000004
20
61.569600000000008
10
-42.332999999999998
20
61.569600000000008
10
-42.332999999999998
20
75.568899999999999
0
LWPOLYLINE
5
106
100
AcDbEntity
8
0
100
AcDbPolyline
90
4
70
1
43
0.0
10
-156.92099999999999
20
56.518900000000009
10
-156.92099999999999
20
42.519599999999997
10
-170.92099999999999
20
42.519599999999997
10
-170.92099999999999
20
56.518900000000009
0
LWPOLYLINE
5
107
100
AcDbEntity
8
0
100
AcDbPolyline
90
4
70
1
43
0.0
10
-25.952400000000004
20
132.71899999999999
10
-25.952400000000004
20
118.72
10
-39.951799999999999
20
118.72
10
-39.951799999999999
20
132.71899999999999
0
LWPOLYLINE
5
108
100
AcDbEntity
8
0
100
AcDbPolyline
90
4
70
1
43
0.0
10
-166.446
20
61.569600000000008
10
-180.44499999999999
20
61.569600000000008
10
-180.44499999999999
20
75.568899999999999
10
-166.446
20
75.568899999999999
0
LWPOLYLINE
5
109
100
AcDbEntity
8
0
100
AcDbPolyline
90
44
70
1
43
0.0
10
-272.077
20
101.14000000000001
10
-272.077
20
104.37
10
-273.60200000000009
20
104.37
10
-273.60200000000009
20
99.66970000000002
10
-287.601
20
99.66970000000002
10
-287.601
20
104.37
10
-289.12700000000001
20
104.37
10
-289.12700000000001
20
101.14000000000001
10
-290.851
20
101.14000000000001
10
-290.851
20
100.21799999999999
10
-294.15100000000001
20
100.21799999999999
10
-294.15100000000001
20
101.14000000000001
10
-295.87599999999998
20
101.14000000000001
10
-295.87599999999998
20
104.37
10
-296.702
20
104.37
10
-296.702
20
107.16900000000001
10
-295.87599999999998
20
107.16900000000001
10
-295.87599999999998
20
113.43899999999999
10
-294.15100000000001
20
113.43899999999999
10
-294.15100000000001
20
114.42
10
-290.851
20
114.42
10
-290.851
20
113.43899999999999
10
-289.12700000000001
20
113.43899999999999
10
-289.12700000000001
20
108.97
10
-287.601
20
108.97
10
-287.601
20
113.66900000000001
10
-273.60200000000009
20
113.66900000000001
10
-273.60200000000009
20
108.97
10
-272.077
20
108.97
10
-272.077
20
113.43899999999999
10
-270.351
20
113.43899999999999
10
-270.351
20
114.42
10
-267.053
20
114.42
10
-267.053
20
113.43899999999999
10
-265.327
20
113.43899999999999
10
-265.327
20
107.16900000000001
10
-264.50099999999998
20
107.16900000000001
10
-264.50099999999998
20
104.37
10
-265.327
20
104.37
10
-265.327
20
101.14000000000001
10
-267.053
20
101.14000000000001
10
-267.053
20
100.21799999999999
10
-270.351
20
100.21799999999999
10
-270.351
20
101.14000000000001
0
LWPOLYLINE
5
110
100
AcDbEntity
8
0
100
AcDbPolyline
90
4
70
1
43
0.0
10
-147.39700000000002
20
75.568899999999999
10
-147.39700000000002
20
61.569600000000008
10
-161.39500000000001
20
61.569600000000008
10
-161.39500000000001
20
75.568899999999999
0
LWPOLYLINE
5
111
100
AcDbEntity
8
0
100
AcDbPolyline
90
4
70
1
43
0.0
10
-118.81900000000002
20
42.519599999999997
10
-132.81999999999999
20
42.519599999999997
10
-132.81999999999999
20
56.518900000000009
10
-118.81900000000002
20
56.518900000000009
0
LWPOLYLINE
5
112
100
AcDbEntity
8
0
100
AcDbPolyline
90
4
70
1
43
0.0
10
-199.78400000000005
20
113.66900000000001
10
-199.78400000000005
20
99.66970000000002
10
-213.78400000000002
20
99.66970000000002
10
-213.78400000000002
20
113.66900000000001
0
LWPOLYLINE
5
113
100
AcDbEntity
8
0
100
AcDbPolyline
90
4
70
1
43
0.0
10
-123.58400000000002
20
113.66900000000001
10
-123.58400000000002
20
99.66970000000002
10
-137.583
20
99.66970000000002
10
-137.583
20
113.66900000000001
0
LWPOLYLINE
5
114
100
AcDbEntity
8
0
100
AcDbPolyline
90
4
70
1
43
0.0
10
-152.15899999999999
20
80.619600000000005
10
-166.15900000000005
20
80.619600000000005
10
-166.15900000000005
20
94.618899999999996
10
-152.15899999999999
20
94.618899999999996
0
LWPOLYLINE
5
115
100
AcDbEntity
8
0
100
AcDbPolyline
90
4
70
1
43
0.0
10
-95.008700000000005
20
80.619600000000005
10
-109.00800000000001
20
80.619600000000005
10
-109.00800000000001
20
94.618899999999996
10
-95.008700000000005
20
94.618899999999996
0
LWPOLYLINE
5
116
100
AcDbEntity
8
0
100
AcDbPolyline
90
4
70
1
43
0.0
10
-180.733
20
99.66970000000002
10
-194.733
20
99.66970000000002
10
-194.733
20
113.66900000000001
10
-180.733
20
113.66900000000001
0
LWPOLYLINE
5
117
100
AcDbEntity
8
0
100
AcDbPolyline
90
4
70
1
43
0.0
10
-70.908000000000001
20
94.618899999999996
10
-56.908700000000003
20
94.618899999999996
10
-56.908700000000003
20
80.619600000000005
10
-70.908000000000001
20
80.619600000000005
0
LWPOLYLINE
5
118
100
AcDbEntity
8
0
100
AcDbPolyline
90
4
70
1
43
0.0
10
-204.25799999999998
20
94.618899999999996
10
-190.25800000000001
20
94.618899999999996
10
-190.25800000000001
20
80.619600000000005
10
-204.25799999999998
20
80.619600000000005
0
LWPOLYLINE
5
119
100
AcDbEntity
8
0
100
AcDbPolyline
90
4
70
1
43
0.0
10
-42.621200000000002
20
56.518900000000009
10
-42.621200000000002
20
42.519599999999997
10
-56.620500000000007
20
42.519599999999997
10
-56.620500000000007
20
56.518900000000009
0
LWPOLYLINE
5
120
100
AcDbEntity
8
0
100
AcDbPolyline
90
4
70
1
43
0.0
10
-99.483000000000004
20
113.66900000000001
10
-85.483699999999999
20
113.66900000000001
10
-85.483699999999999
20
99.66970000000002
10
-99.483000000000004
20
99.66970000000002
0
LWPOLYLINE
5
121
100
AcDbEntity
8
0
100
AcDbPolyline
90
4
70
1
43
0.0
10
-18.520700000000005
20
75.568899999999999
10
-4.5211500000000004
20
75.568899999999999
10
-4.5211499999999996
20
61.569600000000008
10
-18.520700000000005
20
61.569600000000008
0
LWPOLYLINE
5
122
100
AcDbEntity
8
0
100
AcDbPolyline
90
4
70
1
43
0.0
10
-247.40800000000002
20
94.618899999999996
10
-247.40800000000002
20
80.619600000000005
10
-261.40899999999999
20
80.619600000000005
10
-261.40899999999999
20
94.618899999999996
0
LWPOLYLINE
5
123
100
AcDbEntity
8
0
100
AcDbPolyline
90
16
70
1
43
0.0
10
-103.664
20
120.19
10
-105.389
20
120.19
10
-105.389
20
132.489
10
-103.664
20
132.489
10
-103.664
20
133.47000000000003
10
-100.364
20
133.47000000000003
10
-100.364
20
132.489
10
-98.638499999999993
20
132.489
10
-98.638499999999993
20
126.21899999999999
10
-97.81440000000002
20
126.21899999999999
10
-97.81440000000002
20
123.42
10
-98.638499999999993
20
123.42
10
-98.638499999999993
20
120.19
10
-100.364
20
120.19
10
-100.364
20
119.268
10
-103.664
20
119.268
0
LWPOLYLINE
5
124
100
AcDbEntity
8
0
100
AcDbPolyline
90
4
70
1
43
0.0
10
-4.5211500000000004
20
56.518900000000009
10
-4.5211499999999996
20
42.519599999999997
10
-18.520700000000005
20
42.519599999999997
10
-18.520700000000005
20
56.518900000000009
0
LWPOLYLINE
5
125
100
AcDbEntity
8
0
100
AcDbPolyline
90
4
70
1
43
0.0
10
-30.713500000000003
20
94.618899999999996
10
-30.713500000000003
20
80.619600000000005
10
-44.714300000000009
20
80.619600000000005
10
-44.714300000000009
20
94.618899999999996
0
LWPOLYLINE
5
126
100
AcDbEntity
8
0
100
AcDbPolyline
90
4
70
1
43
0.0
10
-285.221
20
118.72
10
-285.221
20
132.71899999999999
10
-271.221
20
132.71899999999999
10
-271.221
20
118.72
0
LWPOLYLINE
5
127
100
AcDbEntity
8
0
100
AcDbPolyline
90
44
70
1
43
0.0
10
-277.495
20
43.990000000000002
10
-279.221
20
43.990000000000002
10
-279.221
20
47.220100000000002
10
-280.74599999999998
20
47.220100000000002
10
-280.74599999999998
20
42.519599999999997
10
-294.745
20
42.519599999999997
10
-294.745
20
47.220100000000002
10
-296.27200000000005
20
47.220100000000002
10
-296.27200000000005
20
43.990000000000002
10
-297.99599999999998
20
43.990000000000002
10
-297.99599999999998
20
43.067900000000002
10
-301.29599999999999
20
43.067900000000002
10
-301.29599999999999
20
43.990000000000002
10
-303.01999999999998
20
43.990000000000002
10
-303.01999999999998
20
47.220100000000002
10
-303.846
20
47.220100000000002
10
-303.846
20
50.018999999999998
10
-303.01999999999998
20
50.018999999999998
10
-303.01999999999998
20
56.288899999999998
10
-301.29599999999999
20
56.288899999999998
10
-301.29599999999999
20
57.270000000000003
10
-297.99599999999998
20
57.270000000000003
10
-297.99599999999998
20
56.288899999999998
10
-296.27200000000005
20
56.288899999999998
10
-296.27200000000005
20
51.819899999999997
10
-294.745
20
51.819899999999997
10
-294.745
20
56.518900000000009
10
-280.74599999999998
20
56.518900000000009
10
-280.74599999999998
20
51.819899999999997
10
-279.221
20
51.819899999999997
10
-279.221
20
56.288899999999998
10
-277.495
20
56.288899999999998
10
-277.495
20
57.270000000000003
10
-274.197
20
57.270000000000003
10
-274.197
20
56.288899999999998
10
-272.471
20
56.288899999999998
10
-272.471
20
50.018999999999998
10
-271.64499999999998
20
50.018999999999998
10
-271.64499999999998
20
47.220100000000002
10
-272.471
20
47.220100000000002
10
-272.471
20
43.990000000000002
10
-274.197
20
43.990000000000002
10
-274.197
20
43.067900000000002
10
-277.495
20
43.067900000000002
0
LWPOLYLINE
5
128
100
AcDbEntity
8
0
100
AcDbPolyline
90
44
70
1
43
0.0
10
-300.63900000000001
20
82.090000000000018
10
-300.63900000000001
20
85.320099999999996
10
-301.464
20
85.320099999999996
10
-301.464
20
88.119
10
-300.63900000000001
20
88.119
10
-300.63900000000001
20
94.388900000000007
10
-298.91399999999999
20
94.388900000000007
10
-298.91399999999999
20
95.370000000000005
10
-295.61300000000006
20
95.370000000000005
10
-295.61300000000006
20
94.388900000000007
10
-293.88799999999998
20
94.388900000000007
10
-293.88799999999998
20
89.919899999999998
10
-292.36400000000003
20
89.919899999999998
10
-292.36400000000003
20
94.618899999999996
10
-278.363
20
94.618899999999996
10
-278.363
20
89.919899999999998
10
-276.839
20
89.919899999999998
10
-276.839
20
94.388900000000007
10
-275.11400000000003
20
94.388900000000007
10
-275.11400000000003
20
95.370000000000005
10
-271.81299999999999
20
95.370000000000005
10
-271.81299999999999
20
94.388900000000007
10
-270.089
20
94.388900000000007
10
-270.089
20
88.119
10
-269.26400000000001
20
88.119
10
-269.26400000000001
20
85.320099999999996
10
-270.089
20
85.320099999999996
10
-270.089
20
82.090000000000018
10
-271.81299999999999
20
82.090000000000018
10
-271.81299999999999
20
81.169300000000021
10
-275.11400000000003
20
81.169300000000021
10
-275.11400000000003
20
82.090000000000018
10
-276.839
20
82.090000000000018
10
-276.839
20
85.320099999999996
10
-278.363
20
85.320099999999996
10
-278.363
20
80.619600000000005
10
-292.36400000000003
20
80.619600000000005
10
-292.36400000000003
20
85.320099999999996
10
-293.88799999999998
20
85.320099999999996
10
-293.88799999999998
20
82.090000000000018
10
-295.61300000000006
20
82.090000000000018
10
-295.61300000000006
20
81.169300000000021
10
-298.91399999999999
20
81.169300000000021
10
-298.91399999999999
20
82.090000000000018
0
LWPOLYLINE
5
129
100
AcDbEntity
8
0
100
AcDbPolyline
90
4
70
1
43
0.0
10
-199.495
20
75.568899999999999
10
-185.49599999999998
20
75.568899999999999
10
-185.49599999999998
20
61.569600000000008
10
-199.495
20
61.569600000000008
0
LWPOLYLINE
5
130
100
AcDbEntity
8
0
100
AcDbPolyline
90
4
70
1
43
0.0
10
-147.108
20
94.618899999999996
10
-133.108
20
94.618899999999996
10
-133.108
20
80.619600000000005
10
-147.108
20
80.619600000000005
0
CIRCLE
5
131
100
AcDbEntity
8
0
100
AcDbCircle
10
-280.39099999999996
20
68.072000000000003
30
0
40
1.6499999999999915
210
0
220
-0
230
1
0
CIRCLE
5
132
100
AcDbEntity
8
0
100
AcDbCircle
10
-163.90600000000001
20
77.419200000000004
30
0
40
1.6499999999999915
210
0
220
-0
230
1
0
CIRCLE
5
133
100
AcDbEntity
8
0
100
AcDbCircle
10
-123.96900000000001
20
121.72499999999999
30
0
40
1.6499999999999915
210
0
220
-0
230
1
0
CIRCLE
5
134
100
AcDbEntity
8
0
100
AcDbCircle
10
-180.06900000000002
20
121.72499999999999
30
0
40
1.6499999999999915
210
0
220
-0
230
1
0
CIRCLE
5
135
100
AcDbEntity
8
0
100
AcDbCircle
10
-260.50200000000007
20
106.78200000000002
30
0
40
1.6499999999999915
210
0
220
-0
230
1
0
CIRCLE
5
136
100
AcDbEntity
8
0
100
AcDbCircle
10
-23.0886
20
68.072000000000003
30
0
40
1.6500000000000004
210
0
220
-0
230
1
0
LWPOLYLINE
5
137
100
AcDbEntity
8
0
100
AcDbPolyline
90
4
70
1
43
0.0
10
-4.5211499999999996
20
80.619600000000005
10
-18.520700000000005
20
80.619600000000005
10
-18.520700000000005
20
94.618899999999996
10
-4.5211500000000004
20
94.618899999999996
0
CIRCLE
5
138
100
AcDbEntity
8
0
100
AcDbCircle
10
-23.190200000000001
20
106.78200000000002
30
0
40
1.6500000000000004
210
0
220
-0
230
1
0
LWPOLYLINE
5
139
100
AcDbEntity
8
0
100
AcDbPolyline
90
4
70
1
43
0.0
10
-185.20800000000003
20
80.619600000000005
10
-185.20800000000003
20
94.618899999999996
10
-171.208
20
94.618899999999996
10
-171.208
20
80.619600000000005
0
LWPOLYLINE
5
140
100
AcDbEntity
8
0
100
AcDbPolyline
90
4
70
1
43
0.0
10
-242.64700000000005
20
61.569600000000008
10
-256.64499999999998
20
61.569600000000008
10
-256.64499999999998
20
75.568899999999999
10
-242.64700000000005
20
75.568899999999999
0
LWPOLYLINE
5
141
100
AcDbEntity
8
0
100
AcDbPolyline
90
4
70
1
43
0.0
10
-99.769800000000004
20
56.518900000000009
10
-99.769800000000004
20
42.519599999999997
10
-113.77000000000001
20
42.519599999999997
10
-113.77000000000001
20
56.518900000000009
0
LWPOLYLINE
5
142
100
AcDbEntity
8
0
100
AcDbPolyline
90
4
70
1
43
0.0
10
-137.87100000000004
20
56.518900000000009
10
-137.87100000000004
20
42.519599999999997
10
-151.87
20
42.519599999999997
10
-151.87
20
56.518900000000009
0
LWPOLYLINE
5
143
100
AcDbEntity
8
0
100
AcDbPolyline
90
4
70
1
43
0.0
10
-118.53299999999999
20
99.66970000000002
10
-118.53299999999999
20
113.66900000000001
10
-104.53299999999999
20
113.66900000000001
10
-104.53299999999999
20
99.66970000000002
0
LWPOLYLINE
5
144
100
AcDbEntity
8
0
100
AcDbPolyline
90
4
70
1
43
0.0
10
-49.763599999999997
20
132.71899999999999
10
-49.763599999999997
20
118.72
10
-63.764299999999999
20
118.72
10
-63.764299999999999
20
132.71899999999999
0
LWPOLYLINE
5
145
100
AcDbEntity
8
0
100
AcDbPolyline
90
4
70
1
43
0.0
10
-128.05799999999999
20
80.619600000000005
10
-128.05799999999999
20
94.618899999999996
10
-114.05799999999999
20
94.618899999999996
10
-114.05799999999999
20
80.619600000000005
0
LWPOLYLINE
5
146
100
AcDbEntity
8
0
100
AcDbPolyline
90
4
70
1
43
0.0
10
-75.670500000000004
20
42.519599999999997
10
-75.670500000000004
20
56.518900000000009
10
-61.671200000000006
20
56.518900000000009
10
-61.671200000000006
20
42.519599999999997
0
LWPOLYLINE
5
147
100
AcDbEntity
8
0
100
AcDbPolyline
90
4
70
1
43
0.0
10
-218.83300000000003
20
113.66900000000001
10
-218.83300000000003
20
99.66970000000002
10
-232.833
20
99.66970000000002
10
-232.833
20
113.66900000000001
0
LWPOLYLINE
5
148
100
AcDbEntity
8
0
100
AcDbPolyline
90
4
70
1
43
0.0
10
-66.433700000000016
20
99.66970000000002
10
-80.433000000000007
20
99.66970000000002
10
-80.433000000000007
20
113.66900000000001
10
-66.433700000000016
20
113.66900000000001
0
LWPOLYLINE
5
149
100
AcDbEntity
8
0
100
AcDbPolyline
90
4
70
1
43
0.0
10
-175.68299999999999
20
113.66900000000001
10
-161.68299999999999
20
113.66900000000001
10
-161.68299999999999
20
99.66970000000002
10
-175.68299999999999
20
99.66970000000002
0
LWPOLYLINE
5
150
100
AcDbEntity
8
0
100
AcDbPolyline
90
4
70
1
43
0.0
10
-23.571200000000001
20
56.518900000000009
10
-23.571200000000001
20
42.519599999999997
10
-37.570500000000003
20
42.519599999999997
10
-37.570500000000003
20
56.518900000000009
0
LWPOLYLINE
5
151
100
AcDbEntity
8
0
100
AcDbPolyline
90
4
70
1
43
0.0
10
-90.246200000000002
20
61.569600000000008
10
-104.24500000000002
20
61.569600000000008
10
-104.24500000000002
20
75.568899999999999
10
-90.246200000000002
20
75.568899999999999
0
LWPOLYLINE
5
152
100
AcDbEntity
8
0
100
AcDbPolyline
90
4
70
1
43
0.0
10
-71.196200000000005
20
75.568899999999999
10
-71.196200000000005
20
61.569600000000008
10
-85.19550000000001
20
61.569600000000008
10
-85.19550000000001
20
75.568899999999999
0
LWPOLYLINE
5
153
100
AcDbEntity
8
0
100
AcDbPolyline
90
4
70
1
43
0.0
10
-247.12000000000003
20
56.518900000000009
10
-233.12100000000001
20
56.518900000000009
10
-233.12100000000001
20
42.519599999999997
10
-247.12000000000003
20
42.519599999999997
0
LWPOLYLINE
5
154
100
AcDbEntity
8
0
100
AcDbPolyline
90
4
70
1
43
0.0
10
-18.520700000000005
20
132.71899999999999
10
-4.5211500000000004
20
132.71899999999999
10
-4.5211499999999996
20
118.72
10
-18.520700000000005
20
118.72
0
LWPOLYLINE
5
155
100
AcDbEntity
8
0
100
AcDbPolyline
90
4
70
1
43
0.0
10
-237.59500000000003
20
61.569600000000008
10
-237.59500000000003
20
75.568899999999999
10
-223.596
20
75.568899999999999
10
-223.596
20
61.569600000000008
0
LWPOLYLINE
5
156
100
AcDbEntity
8
0
100
AcDbPolyline
90
4
70
1
43
0.0
10
-89.958000000000013
20
94.618899999999996
10
-75.958699999999993
20
94.618899999999996
10
-75.958699999999993
20
80.619600000000005
10
-89.958000000000013
20
80.619600000000005
0
LWPOLYLINE
5
157
100
AcDbEntity
8
0
100
AcDbPolyline
90
4
70
1
43
0.0
10
-87.576800000000006
20
118.72
10
-87.576800000000006
20
132.71899999999999
10
-73.577500000000001
20
132.71899999999999
10
-73.577500000000001
20
118.72
0
LWPOLYLINE
5
158
100
AcDbEntity
8
0
100
AcDbPolyline
90
4
70
1
43
0.0
10
-261.697
20
61.569600000000008
10
-275.69499999999999
20
61.569600000000008
10
-275.69499999999999
20
75.568899999999999
10
-261.697
20
75.568899999999999
0
LWPOLYLINE
5
159
100
AcDbEntity
8
0
100
AcDbPolyline
90
4
70
1
43
0.0
10
-94.720500000000015
20
56.518900000000009
10
-80.721199999999996
20
56.518900000000009
10
-80.721199999999996
20
42.519599999999997
10
-94.720500000000015
20
42.519599999999997
0
LWPOLYLINE
5
160
100
AcDbEntity
8
0
100
AcDbPolyline
90
4
70
1
43
0.0
10
-233.12100000000001
20
132.71899999999999
10
-233.12100000000001
20
118.72
10
-247.12000000000003
20
118.72
10
-247.12000000000003
20
132.71899999999999
0
LWPOLYLINE
5
161
100
AcDbEntity
8
0
100
AcDbPolyline
90
4
70
1
43
0.0
10
-252.17100000000002
20
132.71899999999999
10
-252.17100000000002
20
118.72
10
-266.17099999999999
20
118.72
10
-266.17099999999999
20
132.71899999999999
0
LWPOLYLINE
5
162
100
AcDbEntity
8
0
100
AcDbPolyline
90
4
70
1
43
0.0
10
-209.30800000000002
20
80.619600000000005
10
-223.30799999999999
20
80.619600000000005
10
-223.30799999999999
20
94.618899999999996
10
-209.30800000000002
20
94.618899999999996
0
LWPOLYLINE
5
163
100
AcDbEntity
8
0
100
AcDbPolyline
90
4
70
1
43
0.0
10
-237.88299999999998
20
99.66970000000002
10
-251.88299999999998
20
99.66970000000002
10
-251.88299999999998
20
113.66900000000001
10
-237.88299999999998
20
113.66900000000001
0
LWPOLYLINE
5
164
100
AcDbEntity
8
0
100
AcDbPolyline
90
4
70
1
43
0.0
10
-142.63299999999998
20
113.66900000000001
10
-142.63299999999998
20
99.66970000000002
10
-156.63299999999998
20
99.66970000000002
10
-156.63299999999998
20
113.66900000000001
0
LWPOLYLINE
5
165
100
AcDbEntity
8
0
100
AcDbPolyline
90
4
70
1
43
0.0
10
-242.358
20
80.619600000000005
10
-242.358
20
94.618899999999996
10
-228.35800000000003
20
94.618899999999996
10
-228.35800000000003
20
80.619600000000005
0
LWPOLYLINE
5
166
100
AcDbEntity
8
0
100
AcDbPolyline
90
4
70
1
43
0.0
10
-175.97099999999998
20
42.519599999999997
10
-189.97
20
42.519599999999997
10
-189.97
20
56.518900000000009
10
-175.97099999999998
20
56.518900000000009
0
LWPOLYLINE
5
167
100
AcDbEntity
8
0
100
AcDbPolyline
90
4
70
1
43
0.0
10
-123.29500000000002
20
61.569600000000008
10
-123.29500000000002
20
75.568899999999999
10
-109.29600000000001
20
75.568899999999999
10
-109.29600000000001
20
61.569600000000008
0
LWPOLYLINE
5
168
100
AcDbEntity
8
0
100
AcDbPolyline
90
4
70
1
43
0.0
10
-195.02200000000002
20
42.519599999999997
10
-209.02000000000001
20
42.519599999999997
10
-209.02000000000001
20
56.518900000000009
10
-195.02200000000002
20
56.518900000000009
0
LWPOLYLINE
5
169
100
AcDbEntity
8
0
100
AcDbPolyline
90
4
70
1
43
0.0
10
-304.26999999999998
20
132.71899999999999
10
-290.27199999999999
20
132.71899999999999
10
-290.27199999999999
20
118.72
10
-304.26999999999998
20
118.72
0
LWPOLYLINE
5
170
100
AcDbEntity
8
0
100
AcDbPolyline
90
4
70
1
43
0.0
10
-218.54600000000002
20
61.569600000000008
10
-218.54600000000002
20
75.568899999999999
10
-204.54599999999999
20
75.568899999999999
10
-204.54599999999999
20
61.569600000000008
0
LWPOLYLINE
5
171
100
AcDbEntity
8
0
100
AcDbPolyline
90
4
70
1
43
0.0
10
-228.07000000000002
20
132.71899999999999
10
-214.071
20
132.71899999999999
10
-214.071
20
118.72
10
-228.07000000000002
20
118.72
0
LWPOLYLINE
5
172
100
AcDbEntity
8
0
100
AcDbPolyline
90
4
70
1
43
0.0
10
-142.345
20
61.569600000000008
10
-142.345
20
75.568899999999999
10
-128.346
20
75.568899999999999
10
-128.346
20
61.569600000000008
0
LWPOLYLINE
5
173
100
AcDbEntity
8
0
100
AcDbPolyline
90
4
70
1
43
0.0
10
-4.5211499999999996
20
99.66970000000002
10
-18.520700000000005
20
99.66970000000002
10
-18.520700000000005
20
113.66900000000001
10
-4.5211500000000004
20
113.66900000000001
0
LWPOLYLINE
5
174
100
AcDbEntity
8
0
100
AcDbPolyline
90
4
70
1
43
0.0
10
-299.50800000000004
20
75.568899999999999
10
-285.50799999999998
20
75.568899999999999
10
-285.50799999999998
20
61.569600000000008
10
-299.50800000000004
20
61.569600000000008
0
LWPOLYLINE
5
175
100
AcDbEntity
8
0
100
AcDbPolyline
90
4
70
1
43
0.0
10
-252.17100000000002
20
56.518900000000009
10
-252.17100000000002
20
42.519599999999997
10
-266.17099999999999
20
42.519599999999997
10
-266.17099999999999
20
56.518900000000009
0
LWPOLYLINE
5
176
100
AcDbEntity
8
0
100
AcDbPolyline
90
4
70
1
43
0.0
10
-214.071
20
42.519599999999997
10
-228.07000000000002
20
42.519599999999997
10
-228.07000000000002
20
56.518900000000009
10
-214.071
20
56.518900000000009
0
ENDSEC
0
SECTION
2
OBJECTS
0
DICTIONARY
5
C
100
AcDbDictionary
3
ACAD_GROUP
350
D
3
ACAD_MLINESTYLE
350
17
0
DICTIONARY
5
D
100
AcDbDictionary
0
DICTIONARY
5
1A
330
C
100
AcDbDictionary
0
DICTIONARY
5
17
100
AcDbDictionary
0
ENDSEC
0
EOF
