M48
; DRILL file {KiCad 7.0.5} date Tue Jun 13 23:41:22 2023
; FORMAT={-:-/ absolute / metric / decimal}
; #@! TF.CreationDate,2023-06-13T23:41:22-04:00
; #@! TF.GenerationSoftware,Kicad,Pcbnew,7.0.5
; #@! TF.FileFunction,Plated,1,2,PTH
FMAT,2
METRIC
; #@! TA.AperFunction,Plated,PTH,ViaDrill
T1C0.400
; #@! TA.AperFunction,Plated,PTH,ComponentDrill
T2C0.750
; #@! TA.AperFunction,Plated,PTH,ComponentDrill
T3C0.800
; #@! TA.AperFunction,Plated,PTH,ComponentDrill
T4C1.000
; #@! TA.AperFunction,Plated,PTH,ComponentDrill
T5C1.020
; #@! TA.AperFunction,Plated,PTH,ComponentDrill
T6C2.600
%
G90
G05
T1
X1.702Y-20.015
X1.854Y-25.908
X2.057Y-30.912
X2.184Y-21.311
X2.769Y-25.959
X3.073Y-20.066
X3.937Y-21.387
X4.039Y-31.013
X4.14Y-20.193
X4.44Y-66.035
X4.44Y-85.085
X4.44Y-104.135
X4.44Y-123.185
X4.496Y-25.832
X5.029Y-43.155
X5.817Y-44.094
X6.629Y-26.111
X6.629Y-45.136
X6.909Y-28.829
X6.985Y-30.175
X7.341Y-23.571
X7.493Y-46.253
X7.607Y-129.616
X8.179Y-25.781
X8.179Y-30.531
X8.814Y-20.015
X8.915Y-52.07
X9.738Y-129.616
X9.754Y-30.175
X9.957Y-26.416
X10.77Y-20.117
X11.252Y-30.709
X11.868Y-129.616
X13.31Y-24.816
X13.999Y-129.616
X14.529Y-22.022
X14.529Y-29.972
X14.935Y-43.383
X15.418Y-45.872
X15.582Y-48.616
X16.13Y-129.616
X16.307Y-23.444
X16.307Y-49.784
X16.434Y-53.746
X16.586Y-79.121
X16.993Y-19.914
X17.378Y-28.147
X17.45Y-24.765
X18.085Y-32.69
X18.261Y-129.616
X18.517Y-23.47
X18.593Y-19.888
X19.228Y-27.178
X19.482Y-32.283
X19.901Y-79.146
X20.117Y-57.455
X20.193Y-58.953
X20.218Y-55.118
X20.32Y-19.888
X20.392Y-129.616
X20.701Y-26.467
X20.828Y-27.61
X20.93Y-43.637
X20.98Y-32.537
X21.465Y-23.19
X22.269Y-43.219
X22.523Y-129.616
X23.317Y-32.537
X23.49Y-46.985
X24.654Y-129.616
X25.197Y-32.461
X25.871Y-123.185
X25.933Y-39.04
X26.785Y-129.616
X28.252Y-66.035
X28.753Y-31.189
X28.916Y-129.616
X29.185Y-20.041
X29.21Y-24.613
X29.21Y-26.111
X29.21Y-27.762
X30.175Y-21.793
X30.328Y-24.613
X30.328Y-26.111
X30.328Y-27.762
X30.474Y-20.041
X30.634Y-85.085
X31.047Y-129.616
X31.445Y-24.613
X31.445Y-26.111
X31.445Y-27.762
X31.764Y-20.041
X32.563Y-24.613
X32.563Y-26.111
X32.563Y-27.762
X33.054Y-20.041
X33.178Y-129.616
X33.68Y-24.613
X33.68Y-26.111
X33.68Y-27.762
X34.344Y-20.041
X34.595Y-11.405
X35.309Y-129.616
X35.562Y-11.405
X35.633Y-20.041
X36.144Y-27.33
X36.53Y-11.405
X36.923Y-20.041
X37.44Y-129.616
X37.498Y-11.405
X37.973Y-66.802
X38.176Y-31.013
X38.213Y-20.041
X38.329Y-57.556
X38.465Y-11.405
X39.167Y-70.739
X39.167Y-76.429
X39.433Y-11.405
X39.503Y-20.041
X39.571Y-129.616
X39.84Y-23.98
X40.208Y-8.255
X40.401Y-11.405
X40.488Y-66.802
X40.691Y-56.464
X40.792Y-20.041
X41.368Y-11.405
X41.413Y-8.255
X41.653Y-43.913
X41.701Y-129.616
X42.336Y-11.405
X42.431Y-56.794
X42.494Y-21.844
X42.52Y-31.189
X42.54Y-46.985
X42.618Y-8.255
X42.965Y-27.33
X43.282Y-91.084
X43.303Y-11.405
X43.823Y-8.255
X43.832Y-129.616
X44.271Y-11.405
X44.907Y-27.711
X45.009Y-36.982
X45.028Y-8.255
X45.239Y-11.405
X45.72Y-25.4
X45.963Y-129.616
X45.999Y-23.546
X46.206Y-11.405
X46.233Y-8.255
X47.174Y-11.405
X47.32Y-23.851
X47.438Y-8.255
X47.498Y-25.552
X48.094Y-129.616
X48.108Y-132.207
X48.141Y-11.405
X48.643Y-8.255
X49.109Y-11.405
X49.276Y-67.716
X49.454Y-69.952
X49.555Y-72.034
X49.684Y-123.185
X49.733Y-55.169
X49.784Y-53.848
X49.848Y-8.255
X50.077Y-11.405
X50.239Y-132.207
X51.044Y-11.405
X51.053Y-8.255
X52.012Y-11.405
X52.065Y-66.035
X52.258Y-8.255
X52.369Y-132.207
X52.98Y-11.405
X53.463Y-8.255
X53.947Y-11.405
X54.5Y-132.207
X54.668Y-8.255
X54.915Y-11.455
X55.873Y-8.255
X56.134Y-20.091
X56.631Y-132.207
X56.828Y-85.085
X56.896Y-29.7
X57.078Y-8.255
X57.08Y-20.091
X57.937Y-29.718
X58.026Y-20.091
X58.283Y-8.255
X58.762Y-132.207
X58.97Y-29.7
X58.97Y-34.439
X58.972Y-20.091
X59.488Y-8.255
X59.919Y-20.091
X59.969Y-29.7
X59.969Y-34.442
X60.693Y-8.255
X60.698Y-35.593
X60.893Y-132.207
X61.59Y-46.985
X61.824Y-22.377
X61.898Y-8.255
X62.633Y-36.503
X63.024Y-132.207
X63.103Y-8.255
X63.729Y-21.641
X64.308Y-8.255
X65.155Y-132.207
X65.513Y-8.255
X65.716Y-55.804
X66.352Y-104.135
X66.718Y-8.255
X66.929Y-29.7
X67.286Y-132.207
X67.669Y-65.148
X67.691Y-53.721
X67.716Y-21.666
X67.923Y-8.255
X69.128Y-8.255
X69.139Y-27.501
X69.417Y-132.207
X70.053Y-53.798
X70.333Y-8.255
X71.115Y-66.035
X71.548Y-132.207
X73.496Y-123.185
X73.679Y-132.207
X74.003Y-85.192
X74.722Y-44.65
X75.81Y-132.207
X75.877Y-85.085
X77.941Y-132.207
X79.578Y-82.448
X80.071Y-132.207
X82.202Y-132.207
X84.333Y-132.207
X85.184Y-103.917
X85.496Y-31.623
X85.623Y-39.07
X86.464Y-132.207
X86.716Y-31.648
X88.011Y-31.674
X88.595Y-132.207
X89.383Y-31.699
X90.576Y-31.699
X94.769Y-53.377
X95.58Y-46.787
X95.932Y-44.928
X95.987Y-39.065
X96.621Y-32.074
X97.133Y-39.157
X97.314Y-32.795
X98.013Y-33.509
X98.129Y-39.237
X98.222Y-43.561
X98.738Y-34.197
X99.124Y-39.335
X99.69Y-46.985
X100.123Y-39.362
X101.292Y-53.247
X102.248Y-39.52
X102.387Y-14.707
X103.092Y-63.495
X103.581Y-43.585
X104.453Y-104.135
X104.662Y-44.31
X105.893Y-45.034
X107.036Y-45.62
X108.026Y-39.724
X108.509Y-119.38
X108.509Y-122.149
X108.521Y-120.752
X108.521Y-123.52
X108.697Y-51.688
X109.059Y-39.724
X109.215Y-66.035
X109.69Y-119.38
X109.69Y-122.149
X109.694Y-51.766
X109.703Y-120.752
X109.703Y-123.52
X110.084Y-39.724
X110.693Y-51.766
X110.871Y-119.38
X110.871Y-122.149
X110.884Y-120.752
X110.884Y-123.52
X111.612Y-46.351
X112.052Y-119.38
X112.052Y-122.149
X112.065Y-120.752
X112.065Y-123.52
X112.617Y-44.445
X112.725Y-39.724
X113.233Y-119.38
X113.233Y-122.149
X113.246Y-120.752
X113.246Y-123.52
X113.977Y-85.085
X114.414Y-119.38
X114.414Y-122.149
X114.427Y-120.752
X114.427Y-123.52
X114.986Y-47.904
X115.087Y-49.809
X115.088Y-39.776
X115.595Y-119.38
X115.595Y-122.149
X115.608Y-120.752
X115.608Y-123.52
X116.484Y-49.835
X116.776Y-119.38
X116.776Y-122.149
X116.789Y-120.752
X116.789Y-123.52
X116.992Y-43.383
X117.018Y-35.763
X117.043Y-53.061
X117.246Y-38.227
X117.272Y-39.319
X117.38Y-36.695
X117.957Y-90.776
X118.237Y-43.434
X118.356Y-40.42
X119.589Y-40.375
X120.13Y-70.485
X121.396Y-74.489
X122.142Y-63.495
X123.502Y-104.135
X124.104Y-38.024
X125.247Y-43.028
X125.603Y-65.278
X125.806Y-38.838
X125.882Y-80.645
X126.18Y-79.273
X126.904Y-69.367
X126.904Y-73.228
X127.737Y-80.645
X128.676Y-37.312
X129.744Y-62.433
X130.06Y-88.494
X130.06Y-90.78
X130.785Y-79.146
X131.322Y-44.1
X131.509Y-90.805
X132.258Y-38.838
X133.028Y-85.085
X133.147Y-62.89
X133.807Y-12.878
X133.883Y-14.503
X133.883Y-18.034
X134.659Y-50.648
X135.001Y-74.93
X136.195Y-39.04
X136.373Y-36.754
X137.287Y-38.405
X137.49Y-35.585
X137.725Y-71.399
X138.455Y-38.506
X138.532Y-34.061
X139.344Y-39.288
X140.894Y-38.564
X141.122Y-79.426
X141.192Y-63.495
X141.529Y-42.088
X141.63Y-44.628
X142.552Y-104.135
X142.663Y-44.619
X143.219Y-77.318
X143.394Y-39.288
X144.12Y-43.688
X144.704Y-14.783
X147.315Y-66.035
X150.444Y-41.82
X150.717Y-44.445
X151.968Y-41.821
X152.077Y-85.085
X154.114Y-61.214
X154.203Y-10.82
X155.929Y-88.773
X155.929Y-91.745
X156.032Y-81.686
X156.134Y-44.755
X156.667Y-8.141
X157.048Y-106.299
X157.482Y-8.866
X157.977Y-76.81
X158.048Y-106.299
X158.471Y-9.596
X159.047Y-106.326
X160.274Y-63.627
X161.602Y-104.135
X164.77Y-11.074
X168.453Y-8.866
X169.168Y-9.59
X169.767Y-44.445
X170.307Y-42.113
X171.127Y-85.085
X172.999Y-55.093
X174.164Y-59.288
X174.777Y-57.201
X175.514Y-44.272
X179.883Y-9.59
X180.653Y-104.135
X184.189Y-42.291
X185.415Y-66.035
X185.649Y-86.919
X185.979Y-47.625
X186.646Y-86.854
X189.305Y-53.364
X190.177Y-85.085
X191.501Y-41.808
X192.226Y-42.52
X192.391Y-31.646
X192.951Y-43.219
X193.044Y-32.402
X193.579Y-101.595
X193.65Y-43.967
X193.797Y-33.06
X194.029Y-94.259
X194.081Y-58.649
X194.488Y-33.782
X194.894Y-89.383
X195.654Y-38.127
X196.926Y-38.075
X197.155Y-41.834
X197.231Y-52.629
X198.196Y-94.209
X199.942Y-58.877
X203.098Y-70.637
X203.105Y-82.545
X203.302Y-47.066
X204.465Y-66.035
X204.911Y-37.405
X205.765Y-101.956
X206.019Y-38.506
X209.06Y-40.804
X209.227Y-85.085
X210.157Y-117.148
X210.439Y-8.141
X213.99Y-46.985
X213.99Y-123.185
X215.722Y-112.37
X215.951Y-105.943
X218.491Y-36.982
X220.294Y-97.714
X220.32Y-89.154
X223.515Y-66.035
X224.561Y-38.862
X224.714Y-114.783
X225.563Y-40.08
X226.264Y-40.804
X226.917Y-46.78
X227.025Y-37.338
X227.025Y-41.504
X227.914Y-31.166
X228.278Y-85.085
X228.448Y-39.192
X231.064Y-32.309
X231.064Y-35.814
X232.498Y-131.597
X233.04Y-46.985
X233.096Y-39.23
X234.213Y-40.779
X234.629Y-131.597
X234.925Y-105.512
X234.95Y-41.504
X235.712Y-39.23
X236.296Y-28.092
X236.296Y-31.039
X236.296Y-34.277
X236.76Y-131.597
X237.541Y-35.611
X238.891Y-131.597
X239.192Y-88.9
X239.192Y-96.047
X239.446Y-32.309
X239.801Y-39.23
X240.69Y-42.164
X241.022Y-131.597
X241.3Y-24.968
X241.397Y-41.439
X242.087Y-39.98
X242.565Y-66.035
X243.153Y-131.597
X243.484Y-57.963
X245.212Y-27.203
X245.212Y-28.499
X245.212Y-29.769
X245.284Y-131.597
X245.967Y-44.445
X246.259Y-27.203
X246.259Y-28.499
X246.259Y-29.769
X247.307Y-27.203
X247.307Y-28.499
X247.307Y-29.769
X247.327Y-85.085
X247.415Y-131.597
X248.006Y-39.687
X248.355Y-27.203
X248.355Y-28.499
X248.355Y-29.769
X248.379Y-118.295
X249.403Y-27.203
X249.403Y-28.499
X249.403Y-29.769
X249.546Y-131.597
X249.885Y-41.173
X251.677Y-131.597
X252.095Y-41.605
X252.857Y-25.044
X253.39Y-105.435
X253.48Y-70.739
X253.48Y-75.489
X253.807Y-131.597
X254.533Y-58.801
X255.938Y-131.597
X258.069Y-131.597
X258.242Y-89.23
X258.267Y-15.773
X258.267Y-19.533
X258.267Y-21.92
X258.293Y-17.45
X258.293Y-23.851
X258.547Y-38.075
X260.111Y-15.773
X260.111Y-19.533
X260.111Y-21.92
X260.136Y-17.45
X260.136Y-23.851
X260.174Y-38.075
X260.2Y-131.597
X260.255Y-70.206
X260.255Y-74.955
X260.883Y-94.59
X261.802Y-38.075
X261.955Y-15.773
X261.955Y-19.533
X261.955Y-21.92
X261.98Y-17.45
X261.98Y-23.851
X262.331Y-131.597
X262.751Y-89.115
X263.429Y-38.075
X263.798Y-15.773
X263.798Y-19.533
X263.798Y-21.92
X263.824Y-17.45
X263.824Y-23.851
X264.462Y-131.597
X265.057Y-38.075
X265.642Y-15.773
X265.642Y-19.533
X265.642Y-21.92
X265.668Y-17.45
X265.668Y-23.851
X266.593Y-131.597
X266.684Y-38.075
X266.688Y-93.052
X267.486Y-15.773
X267.486Y-19.533
X267.486Y-21.92
X267.511Y-17.45
X267.511Y-23.851
X268.312Y-38.075
X268.724Y-131.597
X269.33Y-15.773
X269.33Y-19.533
X269.33Y-21.92
X269.355Y-17.45
X269.355Y-23.851
X269.939Y-38.075
X270.855Y-131.597
X271.14Y-123.185
X271.173Y-15.773
X271.173Y-19.533
X271.173Y-21.92
X271.199Y-17.45
X271.199Y-23.851
X271.567Y-38.075
X272.986Y-131.597
X273.017Y-15.773
X273.017Y-19.533
X273.017Y-21.92
X273.043Y-17.45
X273.043Y-23.851
X273.195Y-38.075
X274.822Y-38.075
X274.861Y-15.773
X274.861Y-19.533
X274.861Y-21.92
X274.886Y-17.45
X274.886Y-23.851
X276.45Y-38.075
X276.705Y-15.773
X276.705Y-19.533
X276.705Y-21.92
X276.73Y-17.45
X276.73Y-23.851
X278.077Y-38.075
X278.284Y-85.085
X278.548Y-15.773
X278.548Y-19.533
X278.548Y-21.92
X278.574Y-17.45
X278.574Y-23.851
X279.705Y-38.075
X280.392Y-15.773
X280.392Y-19.533
X280.392Y-21.92
X280.417Y-17.45
X280.417Y-23.851
X282.236Y-15.773
X282.236Y-19.533
X282.236Y-21.92
X282.261Y-17.45
X282.261Y-23.851
X284.08Y-15.773
X284.08Y-19.533
X284.08Y-21.92
X284.105Y-17.45
X284.105Y-23.851
X285.428Y-66.035
X285.923Y-15.773
X285.923Y-19.533
X285.923Y-21.92
X285.949Y-17.45
X285.949Y-23.851
X287.767Y-15.773
X287.767Y-19.533
X287.767Y-21.92
X287.792Y-17.45
X287.792Y-23.851
X289.611Y-15.773
X289.611Y-19.533
X289.611Y-21.92
X289.636Y-17.45
X289.636Y-23.851
X304.851Y-71.044
X304.851Y-72.882
X304.851Y-74.72
X304.851Y-76.558
X304.851Y-78.396
X304.851Y-80.235
X304.851Y-82.073
X304.851Y-83.911
X304.851Y-85.749
X304.851Y-87.587
X304.851Y-89.425
X304.851Y-91.264
X304.851Y-93.102
X304.851Y-94.94
X304.851Y-96.778
X304.851Y-98.616
X304.851Y-100.454
X304.851Y-102.292
X304.851Y-104.131
X304.851Y-105.969
T2
X124.969Y-130.475
X126.969Y-130.475
X128.969Y-130.475
X130.969Y-130.475
X173.069Y-130.475
X175.069Y-130.475
X177.069Y-130.475
X179.069Y-130.475
T3
X2.87Y-39.751
X9.22Y-10.236
X13.03Y-39.751
X19.38Y-10.236
X25.273Y-79.807
X25.273Y-89.967
X46.787Y-63.119
X46.787Y-73.279
X49.657Y-77.495
X49.657Y-87.655
X85.86Y-11.0
X85.86Y-14.5
X85.86Y-18.0
X85.86Y-21.5
X85.86Y-25.0
X85.86Y-28.5
X93.48Y-11.0
X93.48Y-14.5
X93.48Y-18.0
X93.48Y-21.5
X93.48Y-25.0
X93.48Y-28.5
X96.58Y-11.0
X96.58Y-14.5
X96.58Y-18.0
X96.58Y-21.5
X96.58Y-25.0
X96.58Y-28.5
X104.2Y-11.0
X104.2Y-14.5
X104.2Y-18.0
X104.2Y-21.5
X104.2Y-25.0
X104.2Y-28.5
X107.3Y-11.0
X107.3Y-14.5
X107.3Y-18.0
X107.3Y-21.5
X107.3Y-25.0
X107.3Y-28.5
X114.92Y-11.0
X114.92Y-14.5
X114.92Y-18.0
X114.92Y-21.5
X114.92Y-25.0
X114.92Y-28.5
X118.02Y-11.0
X118.02Y-14.5
X118.02Y-18.0
X118.02Y-21.5
X118.02Y-25.0
X118.02Y-28.5
X125.64Y-11.0
X125.64Y-14.5
X125.64Y-18.0
X125.64Y-21.5
X125.64Y-25.0
X125.64Y-28.5
X128.74Y-11.0
X128.74Y-14.5
X128.74Y-18.0
X128.74Y-21.5
X128.74Y-25.0
X128.74Y-28.5
X136.36Y-11.0
X136.36Y-14.5
X136.36Y-18.0
X136.36Y-21.5
X136.36Y-25.0
X136.36Y-28.5
X139.46Y-11.0
X139.46Y-14.5
X139.46Y-18.0
X139.46Y-21.5
X139.46Y-25.0
X139.46Y-28.5
X147.08Y-11.0
X147.08Y-14.5
X147.08Y-18.0
X147.08Y-21.5
X147.08Y-25.0
X147.08Y-28.5
X150.18Y-11.0
X150.18Y-14.5
X150.18Y-18.0
X150.18Y-21.5
X150.18Y-25.0
X150.18Y-28.5
X157.8Y-11.0
X157.8Y-14.5
X157.8Y-18.0
X157.8Y-21.5
X157.8Y-25.0
X157.8Y-28.5
X160.9Y-11.0
X160.9Y-14.5
X160.9Y-18.0
X160.9Y-21.5
X160.9Y-25.0
X160.9Y-28.5
X168.52Y-11.0
X168.52Y-14.5
X168.52Y-18.0
X168.52Y-21.5
X168.52Y-25.0
X168.52Y-28.5
X171.62Y-11.0
X171.62Y-14.5
X171.62Y-18.0
X171.62Y-21.5
X171.62Y-25.0
X171.62Y-28.5
X179.24Y-11.0
X179.24Y-14.5
X179.24Y-18.0
X179.24Y-21.5
X179.24Y-25.0
X179.24Y-28.5
X182.34Y-11.0
X182.34Y-14.5
X182.34Y-18.0
X182.34Y-21.5
X182.34Y-25.0
X182.34Y-28.5
X189.96Y-11.0
X189.96Y-14.5
X189.96Y-18.0
X189.96Y-21.5
X189.96Y-25.0
X189.96Y-28.5
X193.06Y-11.0
X193.06Y-14.5
X193.06Y-18.0
X193.06Y-21.5
X193.06Y-25.0
X193.06Y-28.5
X200.68Y-11.0
X200.68Y-14.5
X200.68Y-18.0
X200.68Y-21.5
X200.68Y-25.0
X200.68Y-28.5
X203.78Y-11.0
X203.78Y-14.5
X203.78Y-18.0
X203.78Y-21.5
X203.78Y-25.0
X203.78Y-28.5
X207.645Y-31.293
X207.645Y-38.913
X210.185Y-31.293
X210.185Y-38.913
X211.4Y-11.0
X211.4Y-14.5
X211.4Y-18.0
X211.4Y-21.5
X211.4Y-25.0
X211.4Y-28.5
X212.725Y-31.293
X212.725Y-38.913
X214.5Y-11.0
X214.5Y-14.5
X214.5Y-18.0
X214.5Y-21.5
X214.5Y-25.0
X214.5Y-28.5
X215.265Y-31.293
X215.265Y-38.913
X222.12Y-11.0
X222.12Y-14.5
X222.12Y-18.0
X222.12Y-21.5
X222.12Y-25.0
X222.12Y-28.5
X225.22Y-11.0
X225.22Y-14.5
X225.22Y-18.0
X225.22Y-21.5
X225.22Y-25.0
X225.22Y-28.5
X232.84Y-11.0
X232.84Y-14.5
X232.84Y-18.0
X232.84Y-21.5
X232.84Y-25.0
X232.84Y-28.5
T4
X4.045Y-47.045
X4.045Y-49.545
X4.045Y-52.045
X18.545Y-47.045
X18.545Y-52.045
X23.52Y-9.347
X26.06Y-9.347
X28.6Y-9.347
X64.2Y-18.625
X64.22Y-11.5
X66.74Y-18.625
X66.76Y-11.5
X69.28Y-18.625
X69.3Y-11.5
X71.82Y-18.625
X71.84Y-11.5
X222.072Y-35.027
X224.612Y-35.027
X227.152Y-35.027
X249.67Y-32.68
X249.67Y-35.22
X252.21Y-32.68
X252.21Y-35.22
X254.75Y-32.68
X254.75Y-35.22
X257.29Y-32.68
X257.29Y-35.22
X259.83Y-32.68
X259.83Y-35.22
X262.37Y-32.68
X262.37Y-35.22
X264.91Y-32.68
X264.91Y-35.22
X267.45Y-32.68
X267.45Y-35.22
X269.99Y-32.68
X269.99Y-35.22
X272.53Y-32.68
X272.53Y-35.22
X275.07Y-32.68
X275.07Y-35.22
X277.61Y-32.68
X277.61Y-35.22
X280.15Y-32.68
X280.15Y-35.22
X282.69Y-32.68
X282.69Y-35.22
X285.23Y-32.68
X285.23Y-35.22
X287.77Y-32.68
X287.77Y-35.22
X290.31Y-32.68
X290.31Y-35.22
X292.85Y-32.68
X292.85Y-35.22
X295.39Y-32.68
X295.39Y-35.22
X297.93Y-32.68
X297.93Y-35.22
T5
X1.87Y-17.11
X1.87Y-34.89
X4.41Y-17.11
X4.41Y-34.89
X6.95Y-17.11
X6.95Y-34.89
X9.49Y-17.11
X9.49Y-34.89
X12.03Y-17.11
X12.03Y-34.89
X14.57Y-17.11
X14.57Y-34.89
X17.11Y-17.11
X17.11Y-34.89
X19.65Y-17.11
X19.65Y-34.89
X22.19Y-17.11
X22.19Y-34.89
X24.73Y-17.11
X24.73Y-34.89
X27.27Y-17.11
X27.27Y-34.89
X29.81Y-17.11
X29.81Y-34.89
X32.35Y-17.11
X32.35Y-34.89
X34.89Y-17.11
X34.89Y-34.89
X37.43Y-17.11
X37.43Y-34.89
X39.97Y-17.11
X39.97Y-34.89
X42.51Y-17.11
X42.51Y-34.89
X45.05Y-17.11
X45.05Y-34.89
X47.59Y-17.11
X47.59Y-34.89
X49.9Y-23.46
X49.9Y-26.0
X49.9Y-28.54
X50.13Y-17.11
X50.13Y-34.89
T6
X11.545Y-43.945
X11.545Y-55.145
T0
M30
