G04 #@! TF.GenerationSoftware,KiCad,Pcbnew,7.0.8*
G04 #@! TF.CreationDate,2023-10-07T09:47:58-04:00*
G04 #@! TF.ProjectId,MainBoard,4d61696e-426f-4617-9264-2e6b69636164,rev?*
G04 #@! TF.SameCoordinates,Original*
G04 #@! TF.FileFunction,Soldermask,Bot*
G04 #@! TF.FilePolarity,Negative*
%FSLAX46Y46*%
G04 Gerber Fmt 4.6, Leading zero omitted, Abs format (unit mm)*
G04 Created by KiCad (PCBNEW 7.0.8) date 2023-10-07 09:47:58*
%MOMM*%
%LPD*%
G01*
G04 APERTURE LIST*
G04 Aperture macros list*
%AMRoundRect*
0 Rectangle with rounded corners*
0 $1 Rounding radius*
0 $2 $3 $4 $5 $6 $7 $8 $9 X,Y pos of 4 corners*
0 Add a 4 corners polygon primitive as box body*
4,1,4,$2,$3,$4,$5,$6,$7,$8,$9,$2,$3,0*
0 Add four circle primitives for the rounded corners*
1,1,$1+$1,$2,$3*
1,1,$1+$1,$4,$5*
1,1,$1+$1,$6,$7*
1,1,$1+$1,$8,$9*
0 Add four rect primitives between the rounded corners*
20,1,$1+$1,$2,$3,$4,$5,0*
20,1,$1+$1,$4,$5,$6,$7,0*
20,1,$1+$1,$6,$7,$8,$9,0*
20,1,$1+$1,$8,$9,$2,$3,0*%
G04 Aperture macros list end*
%ADD10R,1.600000X1.600000*%
%ADD11O,1.600000X1.600000*%
%ADD12C,3.048000*%
%ADD13C,3.987800*%
%ADD14C,2.700000*%
%ADD15R,1.700000X1.700000*%
%ADD16O,1.700000X1.700000*%
%ADD17C,2.750000*%
%ADD18R,2.000000X2.000000*%
%ADD19C,2.000000*%
%ADD20C,3.200000*%
%ADD21O,1.800000X1.800000*%
%ADD22O,1.500000X1.500000*%
%ADD23C,1.750000*%
%ADD24C,3.050000*%
%ADD25C,4.000000*%
%ADD26RoundRect,0.250000X1.025000X1.000000X-1.025000X1.000000X-1.025000X-1.000000X1.025000X-1.000000X0*%
%ADD27RoundRect,0.250000X0.412500X0.650000X-0.412500X0.650000X-0.412500X-0.650000X0.412500X-0.650000X0*%
%ADD28RoundRect,0.140000X0.140000X0.170000X-0.140000X0.170000X-0.140000X-0.170000X0.140000X-0.170000X0*%
%ADD29C,1.600000*%
%ADD30RoundRect,0.388889X0.486111X-0.498611X0.486111X0.498611X-0.486111X0.498611X-0.486111X-0.498611X0*%
%ADD31RoundRect,0.388889X-0.498611X-0.486111X0.498611X-0.486111X0.498611X0.486111X-0.498611X0.486111X0*%
%ADD32RoundRect,0.388889X-0.486111X0.498611X-0.486111X-0.498611X0.486111X-0.498611X0.486111X0.498611X0*%
G04 APERTURE END LIST*
D10*
X85860000Y-18000000D03*
D11*
X93480000Y-18000000D03*
D10*
X225220000Y-28500000D03*
D11*
X232840000Y-28500000D03*
D12*
X275812000Y-42540000D03*
D13*
X275812000Y-57750000D03*
D12*
X299688000Y-42540000D03*
D13*
X299688000Y-57750000D03*
D10*
X128740000Y-14500000D03*
D11*
X136360000Y-14500000D03*
D10*
X118020000Y-28500000D03*
D11*
X125640000Y-28500000D03*
D10*
X160900000Y-11000000D03*
D11*
X168520000Y-11000000D03*
D10*
X85860000Y-14500000D03*
D11*
X93480000Y-14500000D03*
D10*
X182340000Y-18000000D03*
D11*
X189960000Y-18000000D03*
D10*
X128740000Y-21500000D03*
D11*
X136360000Y-21500000D03*
D10*
X203780000Y-18000000D03*
D11*
X211400000Y-18000000D03*
D10*
X107300000Y-28500000D03*
D11*
X114920000Y-28500000D03*
D10*
X96580000Y-14500000D03*
D11*
X104200000Y-14500000D03*
D10*
X150180000Y-28500000D03*
D11*
X157800000Y-28500000D03*
D10*
X193060000Y-11000000D03*
D11*
X200680000Y-11000000D03*
D10*
X225220000Y-21500000D03*
D11*
X232840000Y-21500000D03*
D10*
X107300000Y-11000000D03*
D11*
X114920000Y-11000000D03*
D10*
X128740000Y-11000000D03*
D11*
X136360000Y-11000000D03*
D10*
X203780000Y-14500000D03*
D11*
X211400000Y-14500000D03*
D10*
X150180000Y-11000000D03*
D11*
X157800000Y-11000000D03*
D14*
X23190200Y-106781600D03*
D10*
X160900000Y-21500000D03*
D11*
X168520000Y-21500000D03*
D10*
X203780000Y-28500000D03*
D11*
X211400000Y-28500000D03*
D10*
X118020000Y-21500000D03*
D11*
X125640000Y-21500000D03*
D10*
X171620000Y-28500000D03*
D11*
X179240000Y-28500000D03*
D10*
X193060000Y-14500000D03*
D11*
X200680000Y-14500000D03*
D10*
X203780000Y-21500000D03*
D11*
X211400000Y-21500000D03*
D15*
X64220000Y-11500000D03*
D16*
X66760000Y-11500000D03*
X69300000Y-11500000D03*
X71840000Y-11500000D03*
D10*
X150180000Y-21500000D03*
D11*
X157800000Y-21500000D03*
D10*
X214500000Y-11000000D03*
D11*
X222120000Y-11000000D03*
D10*
X182340000Y-21500000D03*
D11*
X189960000Y-21500000D03*
D10*
X214500000Y-18000000D03*
D11*
X222120000Y-18000000D03*
D15*
X222072200Y-35026600D03*
D16*
X224612200Y-35026600D03*
X227152200Y-35026600D03*
D10*
X225220000Y-14500000D03*
D11*
X232840000Y-14500000D03*
D10*
X139460000Y-18000000D03*
D11*
X147080000Y-18000000D03*
D10*
X193060000Y-28500000D03*
D11*
X200680000Y-28500000D03*
D10*
X193060000Y-21500000D03*
D11*
X200680000Y-21500000D03*
D10*
X118020000Y-11000000D03*
D11*
X125640000Y-11000000D03*
D12*
X273430750Y-80640000D03*
D13*
X273430750Y-95850000D03*
D12*
X297306750Y-80640000D03*
D13*
X297306750Y-95850000D03*
D10*
X225220000Y-25000000D03*
D11*
X232840000Y-25000000D03*
D10*
X171620000Y-18000000D03*
D11*
X179240000Y-18000000D03*
D12*
X30543250Y-99690000D03*
D13*
X30543250Y-114900000D03*
D12*
X54419250Y-99690000D03*
D13*
X54419250Y-114900000D03*
D10*
X171620000Y-21500000D03*
D11*
X179240000Y-21500000D03*
D14*
X280390600Y-68072000D03*
D10*
X107300000Y-25000000D03*
D11*
X114920000Y-25000000D03*
D10*
X182340000Y-14500000D03*
D11*
X189960000Y-14500000D03*
D14*
X163906200Y-77419200D03*
D10*
X96580000Y-28500000D03*
D11*
X104200000Y-28500000D03*
D10*
X107300000Y-21500000D03*
D11*
X114920000Y-21500000D03*
D10*
X171620000Y-25000000D03*
D11*
X179240000Y-25000000D03*
D10*
X182340000Y-11000000D03*
D11*
X189960000Y-11000000D03*
D10*
X85860000Y-21500000D03*
D11*
X93480000Y-21500000D03*
D10*
X139460000Y-21500000D03*
D11*
X147080000Y-21500000D03*
D14*
X123968750Y-121725000D03*
D12*
X268668250Y-99690000D03*
D13*
X268668250Y-114900000D03*
D12*
X292544250Y-99690000D03*
D13*
X292544250Y-114900000D03*
D17*
X302800000Y-10950000D03*
X244800000Y-10950000D03*
X302800000Y-33950000D03*
X244800000Y-33950000D03*
D15*
X297930000Y-32680000D03*
D16*
X297930000Y-35220000D03*
X295390000Y-32680000D03*
X295390000Y-35220000D03*
X292850000Y-32680000D03*
X292850000Y-35220000D03*
X290310000Y-32680000D03*
X290310000Y-35220000D03*
X287770000Y-32680000D03*
X287770000Y-35220000D03*
X285230000Y-32680000D03*
X285230000Y-35220000D03*
X282690000Y-32680000D03*
X282690000Y-35220000D03*
X280150000Y-32680000D03*
X280150000Y-35220000D03*
X277610000Y-32680000D03*
X277610000Y-35220000D03*
X275070000Y-32680000D03*
X275070000Y-35220000D03*
X272530000Y-32680000D03*
X272530000Y-35220000D03*
X269990000Y-32680000D03*
X269990000Y-35220000D03*
X267450000Y-32680000D03*
X267450000Y-35220000D03*
X264910000Y-32680000D03*
X264910000Y-35220000D03*
X262370000Y-32680000D03*
X262370000Y-35220000D03*
X259830000Y-32680000D03*
X259830000Y-35220000D03*
X257290000Y-32680000D03*
X257290000Y-35220000D03*
X254750000Y-32680000D03*
X254750000Y-35220000D03*
X252210000Y-32680000D03*
X252210000Y-35220000D03*
X249670000Y-32680000D03*
X249670000Y-35220000D03*
D14*
X180068750Y-121725000D03*
D12*
X102018750Y-118740000D03*
D13*
X102018750Y-133950000D03*
D12*
X202018750Y-118740000D03*
D13*
X202018750Y-133950000D03*
D10*
X160900000Y-28500000D03*
D11*
X168520000Y-28500000D03*
D10*
X214500000Y-25000000D03*
D11*
X222120000Y-25000000D03*
D10*
X182340000Y-28500000D03*
D11*
X189960000Y-28500000D03*
D14*
X260502400Y-106781600D03*
D10*
X128740000Y-18000000D03*
D11*
X136360000Y-18000000D03*
D10*
X214500000Y-21500000D03*
D11*
X222120000Y-21500000D03*
D10*
X85860000Y-28500000D03*
D11*
X93480000Y-28500000D03*
D14*
X180924200Y-34899600D03*
D10*
X160900000Y-18000000D03*
D11*
X168520000Y-18000000D03*
D10*
X171620000Y-11000000D03*
D11*
X179240000Y-11000000D03*
D10*
X150180000Y-18000000D03*
D11*
X157800000Y-18000000D03*
D10*
X107300000Y-18000000D03*
D11*
X114920000Y-18000000D03*
D10*
X193060000Y-25000000D03*
D11*
X200680000Y-25000000D03*
D10*
X203780000Y-25000000D03*
D11*
X211400000Y-25000000D03*
D10*
X96580000Y-11000000D03*
D11*
X104200000Y-11000000D03*
D18*
X4045000Y-47045000D03*
D19*
X4045000Y-52045000D03*
X4045000Y-49545000D03*
D20*
X11545000Y-43945000D03*
X11545000Y-55145000D03*
D19*
X18545000Y-52045000D03*
X18545000Y-47045000D03*
D10*
X139460000Y-28500000D03*
D11*
X147080000Y-28500000D03*
D14*
X23088600Y-68072000D03*
D10*
X150180000Y-25000000D03*
D11*
X157800000Y-25000000D03*
D10*
X225220000Y-11000000D03*
D11*
X232840000Y-11000000D03*
D10*
X118020000Y-25000000D03*
D11*
X125640000Y-25000000D03*
D10*
X85860000Y-11000000D03*
D11*
X93480000Y-11000000D03*
D14*
X92989400Y-34899600D03*
D10*
X128740000Y-25000000D03*
D11*
X136360000Y-25000000D03*
D10*
X203780000Y-11000000D03*
D11*
X211400000Y-11000000D03*
D10*
X96580000Y-21500000D03*
D11*
X104200000Y-21500000D03*
D10*
X150180000Y-14500000D03*
D11*
X157800000Y-14500000D03*
D10*
X118020000Y-18000000D03*
D11*
X125640000Y-18000000D03*
D10*
X207645000Y-38912800D03*
D11*
X210185000Y-38912800D03*
X212725000Y-38912800D03*
X215265000Y-38912800D03*
X215265000Y-31292800D03*
X212725000Y-31292800D03*
X210185000Y-31292800D03*
X207645000Y-31292800D03*
D10*
X225220000Y-18000000D03*
D11*
X232840000Y-18000000D03*
D10*
X96580000Y-18000000D03*
D11*
X104200000Y-18000000D03*
D10*
X193060000Y-18000000D03*
D11*
X200680000Y-18000000D03*
D21*
X2000000Y-28725000D03*
D22*
X5030000Y-28425000D03*
X5030000Y-23575000D03*
D21*
X2000000Y-23275000D03*
D16*
X1870000Y-34890000D03*
X4410000Y-34890000D03*
D15*
X6950000Y-34890000D03*
D16*
X9490000Y-34890000D03*
X12030000Y-34890000D03*
X14570000Y-34890000D03*
X17110000Y-34890000D03*
D15*
X19650000Y-34890000D03*
D16*
X22190000Y-34890000D03*
X24730000Y-34890000D03*
X27270000Y-34890000D03*
X29810000Y-34890000D03*
D15*
X32350000Y-34890000D03*
D16*
X34890000Y-34890000D03*
X37430000Y-34890000D03*
X39970000Y-34890000D03*
X42510000Y-34890000D03*
D15*
X45050000Y-34890000D03*
D16*
X47590000Y-34890000D03*
X50130000Y-34890000D03*
X50130000Y-17110000D03*
X47590000Y-17110000D03*
D15*
X45050000Y-17110000D03*
D16*
X42510000Y-17110000D03*
X39970000Y-17110000D03*
X37430000Y-17110000D03*
X34890000Y-17110000D03*
D15*
X32350000Y-17110000D03*
D16*
X29810000Y-17110000D03*
X27270000Y-17110000D03*
X24730000Y-17110000D03*
X22190000Y-17110000D03*
D15*
X19650000Y-17110000D03*
D16*
X17110000Y-17110000D03*
X14570000Y-17110000D03*
X12030000Y-17110000D03*
X9490000Y-17110000D03*
D15*
X6950000Y-17110000D03*
D16*
X4410000Y-17110000D03*
X1870000Y-17110000D03*
X49900000Y-28540000D03*
D15*
X49900000Y-26000000D03*
D16*
X49900000Y-23460000D03*
D10*
X107300000Y-14500000D03*
D11*
X114920000Y-14500000D03*
D10*
X85860000Y-25000000D03*
D11*
X93480000Y-25000000D03*
D10*
X139460000Y-11000000D03*
D11*
X147080000Y-11000000D03*
D10*
X214500000Y-14500000D03*
D11*
X222120000Y-14500000D03*
D14*
X3403600Y-10515600D03*
D10*
X160900000Y-25000000D03*
D11*
X168520000Y-25000000D03*
D10*
X139460000Y-25000000D03*
D11*
X147080000Y-25000000D03*
D10*
X96580000Y-25000000D03*
D11*
X104200000Y-25000000D03*
D10*
X128740000Y-28500000D03*
D11*
X136360000Y-28500000D03*
D10*
X214500000Y-28500000D03*
D11*
X222120000Y-28500000D03*
D10*
X182340000Y-25000000D03*
D11*
X189960000Y-25000000D03*
D10*
X118020000Y-14500000D03*
D11*
X125640000Y-14500000D03*
D10*
X171620000Y-14500000D03*
D11*
X179240000Y-14500000D03*
D10*
X160900000Y-14500000D03*
D11*
X168520000Y-14500000D03*
D10*
X139460000Y-14500000D03*
D11*
X147080000Y-14500000D03*
D23*
X145192500Y-87625000D03*
D24*
X142652500Y-82545000D03*
D25*
X140112500Y-87625000D03*
D24*
X136302500Y-85085000D03*
D23*
X135032500Y-87625000D03*
D26*
X133027500Y-85085000D03*
X145954500Y-82545000D03*
D23*
X102330000Y-68575000D03*
D24*
X99790000Y-63495000D03*
D25*
X97250000Y-68575000D03*
D24*
X93440000Y-66035000D03*
D23*
X92170000Y-68575000D03*
D26*
X90165000Y-66035000D03*
X103092000Y-63495000D03*
D23*
X157098750Y-125724999D03*
D24*
X154558750Y-120644999D03*
D25*
X152018750Y-125724999D03*
D24*
X148208750Y-123184999D03*
D23*
X146938750Y-125724999D03*
D26*
X144933750Y-123184999D03*
X157860750Y-120644999D03*
D23*
X183292500Y-87625000D03*
D24*
X180752500Y-82545000D03*
D25*
X178212500Y-87625000D03*
D24*
X174402500Y-85085000D03*
D23*
X173132500Y-87625000D03*
D26*
X171127500Y-85085000D03*
X184054500Y-82545000D03*
D27*
X42964500Y-27330400D03*
D28*
X41882000Y-27330400D03*
X40922000Y-27330400D03*
D27*
X39839500Y-27330400D03*
D23*
X16605000Y-106674999D03*
D24*
X14065000Y-101594999D03*
D25*
X11525000Y-106674999D03*
D24*
X7715000Y-104134999D03*
D23*
X6445000Y-106674999D03*
D26*
X4440000Y-104134999D03*
X17367000Y-101594999D03*
D23*
X221392500Y-87625000D03*
D24*
X218852500Y-82545000D03*
D25*
X216312500Y-87625000D03*
D24*
X212502500Y-85085000D03*
D23*
X211232500Y-87625000D03*
D26*
X209227500Y-85085000D03*
X222154500Y-82545000D03*
D23*
X226155000Y-49525000D03*
D24*
X223615000Y-44445000D03*
D25*
X221075000Y-49525000D03*
D24*
X217265000Y-46985000D03*
D23*
X215995000Y-49525000D03*
D26*
X213990000Y-46985000D03*
X226917000Y-44445000D03*
D23*
X140430000Y-68575000D03*
D24*
X137890000Y-63495000D03*
D25*
X135350000Y-68575000D03*
D24*
X131540000Y-66035000D03*
D23*
X130270000Y-68575000D03*
D26*
X128265000Y-66035000D03*
X141192000Y-63495000D03*
D23*
X240442500Y-87625000D03*
D24*
X237902500Y-82545000D03*
D25*
X235362500Y-87625000D03*
D24*
X231552500Y-85085000D03*
D23*
X230282500Y-87625000D03*
D26*
X228277500Y-85085000D03*
X241204500Y-82545000D03*
D23*
X197580000Y-68575000D03*
D24*
X195040000Y-63495000D03*
D25*
X192500000Y-68575000D03*
D24*
X188690000Y-66035000D03*
D23*
X187420000Y-68575000D03*
D26*
X185415000Y-66035000D03*
X198342000Y-63495000D03*
D23*
X211867500Y-106674999D03*
D24*
X209327500Y-101594999D03*
D25*
X206787500Y-106674999D03*
D24*
X202977500Y-104134999D03*
D23*
X201707500Y-106674999D03*
D26*
X199702500Y-104134999D03*
X212629500Y-101594999D03*
D23*
X83280000Y-68575000D03*
D24*
X80740000Y-63495000D03*
D25*
X78200000Y-68575000D03*
D24*
X74390000Y-66035000D03*
D23*
X73120000Y-68575000D03*
D26*
X71115000Y-66035000D03*
X84042000Y-63495000D03*
D15*
X118048750Y-127160000D03*
D16*
X115508750Y-127160000D03*
X112968750Y-127160000D03*
X110428750Y-127160000D03*
X107888750Y-127160000D03*
D23*
X121380000Y-68575000D03*
D24*
X118840000Y-63495000D03*
D25*
X116300000Y-68575000D03*
D24*
X112490000Y-66035000D03*
D23*
X111220000Y-68575000D03*
D26*
X109215000Y-66035000D03*
X122142000Y-63495000D03*
D23*
X97567500Y-106674999D03*
D24*
X95027500Y-101594999D03*
D25*
X92487500Y-106674999D03*
D24*
X88677500Y-104134999D03*
D23*
X87407500Y-106674999D03*
D26*
X85402500Y-104134999D03*
X98329500Y-101594999D03*
D23*
X264255000Y-49525000D03*
D24*
X261715000Y-44445000D03*
D25*
X259175000Y-49525000D03*
D24*
X255365000Y-46985000D03*
D23*
X254095000Y-49525000D03*
D26*
X252090000Y-46985000D03*
X265017000Y-44445000D03*
D23*
X273780000Y-68575000D03*
D24*
X271240000Y-63495000D03*
D25*
X268700000Y-68575000D03*
D24*
X264890000Y-66035000D03*
D23*
X263620000Y-68575000D03*
D26*
X261615000Y-66035000D03*
X274542000Y-63495000D03*
D23*
X290448750Y-87625000D03*
D24*
X287908750Y-82545000D03*
D25*
X285368750Y-87625000D03*
D24*
X281558750Y-85085000D03*
D23*
X280288750Y-87625000D03*
D26*
X278283750Y-85085000D03*
X291210750Y-82545000D03*
D23*
X85661250Y-125724999D03*
D24*
X83121250Y-120644999D03*
D25*
X80581250Y-125724999D03*
D24*
X76771250Y-123184999D03*
D23*
X75501250Y-125724999D03*
D26*
X73496250Y-123184999D03*
X86423250Y-120644999D03*
D23*
X226155000Y-125724999D03*
D24*
X223615000Y-120644999D03*
D25*
X221075000Y-125724999D03*
D24*
X217265000Y-123184999D03*
D23*
X215995000Y-125724999D03*
D26*
X213990000Y-123184999D03*
X226917000Y-120644999D03*
D23*
X61848750Y-125724999D03*
D24*
X59308750Y-120644999D03*
D25*
X56768750Y-125724999D03*
D24*
X52958750Y-123184999D03*
D23*
X51688750Y-125724999D03*
D26*
X49683750Y-123184999D03*
X62610750Y-120644999D03*
D23*
X35655000Y-49525000D03*
D24*
X33115000Y-44445000D03*
D25*
X30575000Y-49525000D03*
D24*
X26765000Y-46985000D03*
D23*
X25495000Y-49525000D03*
D26*
X23490000Y-46985000D03*
X36417000Y-44445000D03*
D23*
X264255000Y-125724999D03*
D24*
X261715000Y-120644999D03*
D25*
X259175000Y-125724999D03*
D24*
X255365000Y-123184999D03*
D23*
X254095000Y-125724999D03*
D26*
X252090000Y-123184999D03*
X265017000Y-120644999D03*
D23*
X42798750Y-87625000D03*
D24*
X40258750Y-82545000D03*
D25*
X37718750Y-87625000D03*
D24*
X33908750Y-85085000D03*
D23*
X32638750Y-87625000D03*
D26*
X30633750Y-85085000D03*
X43560750Y-82545000D03*
D23*
X259492500Y-87625000D03*
D24*
X256952500Y-82545000D03*
D25*
X254412500Y-87625000D03*
D24*
X250602500Y-85085000D03*
D23*
X249332500Y-87625000D03*
D26*
X247327500Y-85085000D03*
X260254500Y-82545000D03*
D23*
X283305000Y-125724999D03*
D24*
X280765000Y-120644999D03*
D25*
X278225000Y-125724999D03*
D24*
X274415000Y-123184999D03*
D23*
X273145000Y-125724999D03*
D26*
X271140000Y-123184999D03*
X284067000Y-120644999D03*
D29*
X49657000Y-87675000D03*
D30*
X49657000Y-83732500D03*
X49657000Y-81457500D03*
D11*
X49657000Y-77515000D03*
D23*
X38036249Y-125724999D03*
D24*
X35496249Y-120644999D03*
D25*
X32956249Y-125724999D03*
D24*
X29146249Y-123184999D03*
D23*
X27876249Y-125724999D03*
D26*
X25871249Y-123184999D03*
X38798249Y-120644999D03*
D23*
X173767500Y-106674999D03*
D24*
X171227500Y-101594999D03*
D25*
X168687500Y-106674999D03*
D24*
X164877500Y-104134999D03*
D23*
X163607500Y-106674999D03*
D26*
X161602500Y-104134999D03*
X174529500Y-101594999D03*
D23*
X130904999Y-49525000D03*
D24*
X128364999Y-44445000D03*
D25*
X125824999Y-49525000D03*
D24*
X122014999Y-46985000D03*
D23*
X120744999Y-49525000D03*
D26*
X118739999Y-46985000D03*
X131666999Y-44445000D03*
D23*
X135667500Y-106674999D03*
D24*
X133127500Y-101594999D03*
D25*
X130587500Y-106674999D03*
D24*
X126777500Y-104134999D03*
D23*
X125507500Y-106674999D03*
D26*
X123502500Y-104134999D03*
X136429500Y-101594999D03*
D23*
X245205000Y-49525000D03*
D24*
X242665000Y-44445000D03*
D25*
X240125000Y-49525000D03*
D24*
X236315000Y-46985000D03*
D23*
X235045000Y-49525000D03*
D26*
X233040000Y-46985000D03*
X245967000Y-44445000D03*
D23*
X64230000Y-68575000D03*
D24*
X61690000Y-63495000D03*
D25*
X59150000Y-68575000D03*
D24*
X55340000Y-66035000D03*
D23*
X54070000Y-68575000D03*
D26*
X52065000Y-66035000D03*
X64992000Y-63495000D03*
D23*
X54705000Y-49525000D03*
D24*
X52165000Y-44445000D03*
D25*
X49625000Y-49525000D03*
D24*
X45815000Y-46985000D03*
D23*
X44545000Y-49525000D03*
D26*
X42540000Y-46985000D03*
X55467000Y-44445000D03*
D15*
X196148750Y-127160000D03*
D16*
X193608750Y-127160000D03*
X191068750Y-127160000D03*
X188528750Y-127160000D03*
X185988750Y-127160000D03*
D23*
X188055000Y-49525000D03*
D24*
X185515000Y-44445000D03*
D25*
X182975000Y-49525000D03*
D24*
X179165000Y-46985000D03*
D23*
X177895000Y-49525000D03*
D26*
X175890000Y-46985000D03*
X188817000Y-44445000D03*
D23*
X249967500Y-106674999D03*
D24*
X247427500Y-101594999D03*
D25*
X244887500Y-106674999D03*
D24*
X241077500Y-104134999D03*
D23*
X239807500Y-106674999D03*
D26*
X237802500Y-104134999D03*
X250729500Y-101594999D03*
D23*
X285686250Y-106674999D03*
D24*
X283146250Y-101594999D03*
D25*
X280606250Y-106674999D03*
D24*
X276796250Y-104134999D03*
D23*
X275526250Y-106674999D03*
D26*
X273521250Y-104134999D03*
X286448250Y-101594999D03*
D29*
X5675000Y-97175000D03*
D31*
X9617500Y-97175000D03*
X11892500Y-97175000D03*
D11*
X15835000Y-97175000D03*
D29*
X24000000Y-79865000D03*
D32*
X24000000Y-83807500D03*
X24000000Y-86082500D03*
D11*
X24000000Y-90025000D03*
D23*
X16605000Y-125724999D03*
D24*
X14065000Y-120644999D03*
D25*
X11525000Y-125724999D03*
D24*
X7715000Y-123184999D03*
D23*
X6445000Y-125724999D03*
D26*
X4440000Y-123184999D03*
X17367000Y-120644999D03*
D23*
X16605000Y-87625000D03*
D24*
X14065000Y-82545000D03*
D25*
X11525000Y-87625000D03*
D24*
X7715000Y-85085000D03*
D23*
X6445000Y-87625000D03*
D26*
X4440000Y-85085000D03*
X17367000Y-82545000D03*
D23*
X230917500Y-106674999D03*
D24*
X228377500Y-101594999D03*
D25*
X225837500Y-106674999D03*
D24*
X222027500Y-104134999D03*
D23*
X220757500Y-106674999D03*
D26*
X218752500Y-104134999D03*
X231679500Y-101594999D03*
D29*
X9182500Y-10200000D03*
D31*
X13125000Y-10200000D03*
X15400000Y-10200000D03*
D11*
X19342500Y-10200000D03*
D23*
X169005000Y-49525000D03*
D24*
X166465000Y-44445000D03*
D25*
X163925000Y-49525000D03*
D24*
X160115000Y-46985000D03*
D23*
X158845000Y-49525000D03*
D26*
X156840000Y-46985000D03*
X169767000Y-44445000D03*
D23*
X297592500Y-68575000D03*
D24*
X295052500Y-63495000D03*
D25*
X292512500Y-68575000D03*
D24*
X288702500Y-66035000D03*
D23*
X287432500Y-68575000D03*
D26*
X285427500Y-66035000D03*
X298354500Y-63495000D03*
D23*
X107092500Y-87625000D03*
D24*
X104552500Y-82545000D03*
D25*
X102012500Y-87625000D03*
D24*
X98202500Y-85085000D03*
D23*
X96932500Y-87625000D03*
D26*
X94927500Y-85085000D03*
X107854500Y-82545000D03*
D23*
X202342500Y-87625000D03*
D24*
X199802500Y-82545000D03*
D25*
X197262500Y-87625000D03*
D24*
X193452500Y-85085000D03*
D23*
X192182500Y-87625000D03*
D26*
X190177500Y-85085000D03*
X203104500Y-82545000D03*
D29*
X46725000Y-73130000D03*
D30*
X46725000Y-69187500D03*
X46725000Y-66912500D03*
D11*
X46725000Y-62970000D03*
D23*
X245205000Y-125724999D03*
D24*
X242665000Y-120644999D03*
D25*
X240125000Y-125724999D03*
D24*
X236315000Y-123184999D03*
D23*
X235045000Y-125724999D03*
D26*
X233040000Y-123184999D03*
X245967000Y-120644999D03*
D23*
X16605000Y-68575000D03*
D24*
X14065000Y-63495000D03*
D25*
X11525000Y-68575000D03*
D24*
X7715000Y-66035000D03*
D23*
X6445000Y-68575000D03*
D26*
X4440000Y-66035000D03*
X17367000Y-63495000D03*
D23*
X178530000Y-68575000D03*
D24*
X175990000Y-63495000D03*
D25*
X173450000Y-68575000D03*
D24*
X169640000Y-66035000D03*
D23*
X168370000Y-68575000D03*
D26*
X166365000Y-66035000D03*
X179292000Y-63495000D03*
D23*
X302355000Y-125724999D03*
D24*
X299815000Y-120644999D03*
D25*
X297275000Y-125724999D03*
D24*
X293465000Y-123184999D03*
D23*
X292195000Y-125724999D03*
D26*
X290190000Y-123184999D03*
X303117000Y-120644999D03*
D23*
X292830000Y-49525000D03*
D24*
X290290000Y-44445000D03*
D25*
X287750000Y-49525000D03*
D24*
X283940000Y-46985000D03*
D23*
X282670000Y-49525000D03*
D26*
X280665000Y-46985000D03*
X293592000Y-44445000D03*
D23*
X254730000Y-68575000D03*
D24*
X252190000Y-63495000D03*
D25*
X249650000Y-68575000D03*
D24*
X245840000Y-66035000D03*
D23*
X244570000Y-68575000D03*
D26*
X242565000Y-66035000D03*
X255492000Y-63495000D03*
D15*
X23520400Y-9347200D03*
D16*
X26060400Y-9347200D03*
X28600400Y-9347200D03*
D23*
X68992500Y-87625000D03*
D24*
X66452500Y-82545000D03*
D25*
X63912500Y-87625000D03*
D24*
X60102500Y-85085000D03*
D23*
X58832500Y-87625000D03*
D26*
X56827500Y-85085000D03*
X69754500Y-82545000D03*
D23*
X88042500Y-87625000D03*
D24*
X85502500Y-82545000D03*
D25*
X82962500Y-87625000D03*
D24*
X79152500Y-85085000D03*
D23*
X77882500Y-87625000D03*
D26*
X75877500Y-85085000D03*
X88804500Y-82545000D03*
D23*
X159480000Y-68575000D03*
D24*
X156940000Y-63495000D03*
D25*
X154400000Y-68575000D03*
D24*
X150590000Y-66035000D03*
D23*
X149320000Y-68575000D03*
D26*
X147315000Y-66035000D03*
X160242000Y-63495000D03*
D23*
X73755000Y-49525000D03*
D24*
X71215000Y-44445000D03*
D25*
X68675000Y-49525000D03*
D24*
X64865000Y-46985000D03*
D23*
X63595000Y-49525000D03*
D26*
X61590000Y-46985000D03*
X74517000Y-44445000D03*
D23*
X92805000Y-49525000D03*
D24*
X90265000Y-44445000D03*
D25*
X87725000Y-49525000D03*
D24*
X83915000Y-46985000D03*
D23*
X82645000Y-49525000D03*
D26*
X80640000Y-46985000D03*
X93567000Y-44445000D03*
D23*
X40417500Y-68575000D03*
D24*
X37877500Y-63495000D03*
D25*
X35337500Y-68575000D03*
D24*
X31527500Y-66035000D03*
D23*
X30257500Y-68575000D03*
D26*
X28252500Y-66035000D03*
X41179500Y-63495000D03*
D23*
X111854999Y-49525000D03*
D24*
X109314999Y-44445000D03*
D25*
X106774999Y-49525000D03*
D24*
X102964999Y-46985000D03*
D23*
X101694999Y-49525000D03*
D26*
X99689999Y-46985000D03*
X112616999Y-44445000D03*
D23*
X207105000Y-49525000D03*
D24*
X204565000Y-44445000D03*
D25*
X202025000Y-49525000D03*
D24*
X198215000Y-46985000D03*
D23*
X196945000Y-49525000D03*
D26*
X194940000Y-46985000D03*
X207867000Y-44445000D03*
D23*
X78517500Y-106674999D03*
D24*
X75977500Y-101594999D03*
D25*
X73437500Y-106674999D03*
D24*
X69627500Y-104134999D03*
D23*
X68357500Y-106674999D03*
D26*
X66352500Y-104134999D03*
X79279500Y-101594999D03*
D23*
X47561250Y-106674999D03*
D24*
X45021250Y-101594999D03*
D25*
X42481250Y-106674999D03*
D24*
X38671250Y-104134999D03*
D23*
X37401250Y-106674999D03*
D26*
X35396250Y-104134999D03*
X48323250Y-101594999D03*
D27*
X42964500Y-23980400D03*
D28*
X41882000Y-23980400D03*
X40922000Y-23980400D03*
D27*
X39839500Y-23980400D03*
D23*
X126142500Y-87625000D03*
D24*
X123602500Y-82545000D03*
D25*
X121062500Y-87625000D03*
D24*
X117252500Y-85085000D03*
D23*
X115982500Y-87625000D03*
D26*
X113977500Y-85085000D03*
X126904500Y-82545000D03*
D23*
X235680000Y-68575000D03*
D24*
X233140000Y-63495000D03*
D25*
X230600000Y-68575000D03*
D24*
X226790000Y-66035000D03*
D23*
X225520000Y-68575000D03*
D26*
X223515000Y-66035000D03*
X236442000Y-63495000D03*
D23*
X149955000Y-49525000D03*
D24*
X147415000Y-44445000D03*
D25*
X144875000Y-49525000D03*
D24*
X141065000Y-46985000D03*
D23*
X139795000Y-49525000D03*
D26*
X137790000Y-46985000D03*
X150717000Y-44445000D03*
D23*
X116617500Y-106674999D03*
D24*
X114077500Y-101594999D03*
D25*
X111537500Y-106674999D03*
D24*
X107727500Y-104134999D03*
D23*
X106457500Y-106674999D03*
D26*
X104452500Y-104134999D03*
X117379500Y-101594999D03*
D23*
X216630000Y-68575000D03*
D24*
X214090000Y-63495000D03*
D25*
X211550000Y-68575000D03*
D24*
X207740000Y-66035000D03*
D23*
X206470000Y-68575000D03*
D26*
X204465000Y-66035000D03*
X217392000Y-63495000D03*
D23*
X192817500Y-106674999D03*
D24*
X190277500Y-101594999D03*
D25*
X187737500Y-106674999D03*
D24*
X183927500Y-104134999D03*
D23*
X182657500Y-106674999D03*
D26*
X180652500Y-104134999D03*
X193579500Y-101594999D03*
D23*
X154717500Y-106674999D03*
D24*
X152177500Y-101594999D03*
D25*
X149637500Y-106674999D03*
D24*
X145827500Y-104134999D03*
D23*
X144557500Y-106674999D03*
D26*
X142552500Y-104134999D03*
X155479500Y-101594999D03*
D23*
X164242500Y-87625000D03*
D24*
X161702500Y-82545000D03*
D25*
X159162500Y-87625000D03*
D24*
X155352500Y-85085000D03*
D23*
X154082500Y-87625000D03*
D26*
X152077500Y-85085000D03*
X165004500Y-82545000D03*
M02*
