%TF.GenerationSoftware,KiCad,Pcbnew,7.0.8*%
%TF.CreationDate,2023-10-09T09:13:15-04:00*%
%TF.ProjectId,MainBoard,4d61696e-426f-4617-9264-2e6b69636164,rev?*%
%TF.SameCoordinates,Original*%
%TF.FileFunction,Drillmap*%
%TF.FilePolarity,Positive*%
%FSLAX45Y45*%
G04 Gerber Fmt 4.5, Leading zero omitted, Abs format (unit mm)*
G04 Created by KiCad (PCBNEW 7.0.8) date 2023-10-09 09:13:15*
%MOMM*%
%LPD*%
G01*
G04 APERTURE LIST*
%ADD10C,0.100000*%
%ADD11C,0.200000*%
%ADD12C,0.040000*%
%ADD13C,0.080000*%
%ADD14C,0.102000*%
%ADD15C,0.260000*%
G04 APERTURE END LIST*
D10*
X0Y-1000000D02*
X0Y-13425000D01*
X300000Y-13725000D02*
X30580000Y-13725000D01*
X30580000Y-13725000D02*
G75*
G03*
X30880000Y-13425000I0J300000D01*
G01*
X300000Y-700000D02*
X30580000Y-700000D01*
X30880000Y-1000000D02*
G75*
G03*
X30580000Y-700000I-300000J0D01*
G01*
X30880000Y-1000000D02*
X30880000Y-13425000D01*
X0Y-13425000D02*
G75*
G03*
X300000Y-13725000I300000J0D01*
G01*
X300000Y-700000D02*
G75*
G03*
X0Y-1000000I0J-300000D01*
G01*
D11*
D12*
X150180Y-1981520D02*
X190180Y-2021520D01*
X190180Y-1981520D02*
X150180Y-2021520D01*
X165420Y-2570800D02*
X205420Y-2610800D01*
X205420Y-2570800D02*
X165420Y-2610800D01*
X185740Y-3071180D02*
X225740Y-3111180D01*
X225740Y-3071180D02*
X185740Y-3111180D01*
X198440Y-2111060D02*
X238440Y-2151060D01*
X238440Y-2111060D02*
X198440Y-2151060D01*
X256860Y-2575880D02*
X296860Y-2615880D01*
X296860Y-2575880D02*
X256860Y-2615880D01*
X287340Y-1986600D02*
X327340Y-2026600D01*
X327340Y-1986600D02*
X287340Y-2026600D01*
X298000Y-3328000D02*
X338000Y-3368000D01*
X338000Y-3328000D02*
X298000Y-3368000D01*
X333820Y-3849180D02*
X373820Y-3889180D01*
X373820Y-3849180D02*
X333820Y-3889180D01*
X373700Y-2118680D02*
X413700Y-2158680D01*
X413700Y-2118680D02*
X373700Y-2158680D01*
X383860Y-3081340D02*
X423860Y-3121340D01*
X423860Y-3081340D02*
X383860Y-3121340D01*
X394020Y-1999300D02*
X434020Y-2039300D01*
X434020Y-1999300D02*
X394020Y-2039300D01*
X424000Y-6583500D02*
X464000Y-6623500D01*
X464000Y-6583500D02*
X424000Y-6623500D01*
X429580Y-2563180D02*
X469580Y-2603180D01*
X469580Y-2563180D02*
X429580Y-2603180D01*
X482920Y-4295460D02*
X522920Y-4335460D01*
X522920Y-4295460D02*
X482920Y-4335460D01*
X561660Y-4389440D02*
X601660Y-4429440D01*
X601660Y-4389440D02*
X561660Y-4429440D01*
X642940Y-2591120D02*
X682940Y-2631120D01*
X682940Y-2591120D02*
X642940Y-2631120D01*
X642940Y-4493580D02*
X682940Y-4533580D01*
X682940Y-4493580D02*
X642940Y-4533580D01*
X670880Y-2862900D02*
X710880Y-2902900D01*
X710880Y-2862900D02*
X670880Y-2902900D01*
X678500Y-2997520D02*
X718500Y-3037520D01*
X718500Y-2997520D02*
X678500Y-3037520D01*
X714060Y-2337120D02*
X754060Y-2377120D01*
X754060Y-2337120D02*
X714060Y-2377120D01*
X729300Y-4605340D02*
X769300Y-4645340D01*
X769300Y-4605340D02*
X729300Y-4645340D01*
X740664Y-12941620D02*
X780664Y-12981620D01*
X780664Y-12941620D02*
X740664Y-12981620D01*
X797880Y-2558100D02*
X837880Y-2598100D01*
X837880Y-2558100D02*
X797880Y-2598100D01*
X797880Y-3033080D02*
X837880Y-3073080D01*
X837880Y-3033080D02*
X797880Y-3073080D01*
X861380Y-1981520D02*
X901380Y-2021520D01*
X901380Y-1981520D02*
X861380Y-2021520D01*
X871540Y-5187000D02*
X911540Y-5227000D01*
X911540Y-5187000D02*
X871540Y-5227000D01*
X953756Y-12941620D02*
X993756Y-12981620D01*
X993756Y-12941620D02*
X953756Y-12981620D01*
X955360Y-2997520D02*
X995360Y-3037520D01*
X995360Y-2997520D02*
X955360Y-3037520D01*
X975680Y-2621600D02*
X1015680Y-2661600D01*
X1015680Y-2621600D02*
X975680Y-2661600D01*
X987000Y-6060000D02*
X1027000Y-6100000D01*
X1027000Y-6060000D02*
X987000Y-6100000D01*
X1056960Y-1991680D02*
X1096960Y-2031680D01*
X1096960Y-1991680D02*
X1056960Y-2031680D01*
X1091000Y-9866000D02*
X1131000Y-9906000D01*
X1131000Y-9866000D02*
X1091000Y-9906000D01*
X1105220Y-3050860D02*
X1145220Y-3090860D01*
X1145220Y-3050860D02*
X1105220Y-3090860D01*
X1166849Y-12941620D02*
X1206849Y-12981620D01*
X1206849Y-12941620D02*
X1166849Y-12981620D01*
X1172500Y-4917500D02*
X1212500Y-4957500D01*
X1212500Y-4917500D02*
X1172500Y-4957500D01*
X1288000Y-7625000D02*
X1328000Y-7665000D01*
X1328000Y-7625000D02*
X1288000Y-7665000D01*
X1310960Y-2461580D02*
X1350960Y-2501580D01*
X1350960Y-2461580D02*
X1310960Y-2501580D01*
X1342500Y-5087500D02*
X1382500Y-5127500D01*
X1382500Y-5087500D02*
X1342500Y-5127500D01*
X1379941Y-12941620D02*
X1419941Y-12981620D01*
X1419941Y-12941620D02*
X1379941Y-12981620D01*
X1432880Y-2182180D02*
X1472880Y-2222180D01*
X1472880Y-2182180D02*
X1432880Y-2222180D01*
X1432880Y-2977200D02*
X1472880Y-3017200D01*
X1472880Y-2977200D02*
X1432880Y-3017200D01*
X1473520Y-4318320D02*
X1513520Y-4358320D01*
X1513520Y-4318320D02*
X1473520Y-4358320D01*
X1521780Y-4567240D02*
X1561780Y-4607240D01*
X1561780Y-4567240D02*
X1521780Y-4607240D01*
X1531000Y-11191000D02*
X1571000Y-11231000D01*
X1571000Y-11191000D02*
X1531000Y-11231000D01*
X1538230Y-4841560D02*
X1578230Y-4881560D01*
X1578230Y-4841560D02*
X1538230Y-4881560D01*
X1574000Y-6060000D02*
X1614000Y-6100000D01*
X1614000Y-6060000D02*
X1574000Y-6100000D01*
X1593034Y-12941620D02*
X1633034Y-12981620D01*
X1633034Y-12941620D02*
X1593034Y-12981620D01*
X1610680Y-2324420D02*
X1650680Y-2364420D01*
X1650680Y-2324420D02*
X1610680Y-2364420D01*
X1610680Y-4958400D02*
X1650680Y-4998400D01*
X1650680Y-4958400D02*
X1610680Y-4998400D01*
X1623380Y-5354640D02*
X1663380Y-5394640D01*
X1663380Y-5354640D02*
X1623380Y-5394640D01*
X1638620Y-7892100D02*
X1678620Y-7932100D01*
X1678620Y-7892100D02*
X1638620Y-7932100D01*
X1679260Y-1971360D02*
X1719260Y-2011360D01*
X1719260Y-1971360D02*
X1679260Y-2011360D01*
X1717790Y-2794750D02*
X1757790Y-2834750D01*
X1757790Y-2794750D02*
X1717790Y-2834750D01*
X1724980Y-2456500D02*
X1764980Y-2496500D01*
X1764980Y-2456500D02*
X1724980Y-2496500D01*
X1788480Y-3248980D02*
X1828480Y-3288980D01*
X1828480Y-3248980D02*
X1788480Y-3288980D01*
X1806127Y-12941620D02*
X1846127Y-12981620D01*
X1846127Y-12941620D02*
X1806127Y-12981620D01*
X1831660Y-2326960D02*
X1871660Y-2366960D01*
X1871660Y-2326960D02*
X1831660Y-2366960D01*
X1839280Y-1968820D02*
X1879280Y-2008820D01*
X1879280Y-1968820D02*
X1839280Y-2008820D01*
X1902780Y-2697800D02*
X1942780Y-2737800D01*
X1942780Y-2697800D02*
X1902780Y-2737800D01*
X1928180Y-3208340D02*
X1968180Y-3248340D01*
X1968180Y-3208340D02*
X1928180Y-3248340D01*
X1970150Y-7894640D02*
X2010150Y-7934640D01*
X2010150Y-7894640D02*
X1970150Y-7934640D01*
X1991680Y-5725480D02*
X2031680Y-5765480D01*
X2031680Y-5725480D02*
X1991680Y-5765480D01*
X1999300Y-5875340D02*
X2039300Y-5915340D01*
X2039300Y-5875340D02*
X1999300Y-5915340D01*
X2001840Y-5491800D02*
X2041840Y-5531800D01*
X2041840Y-5491800D02*
X2001840Y-5531800D01*
X2012000Y-1968820D02*
X2052000Y-2008820D01*
X2052000Y-1968820D02*
X2012000Y-2008820D01*
X2019219Y-12941620D02*
X2059219Y-12981620D01*
X2059219Y-12941620D02*
X2019219Y-12981620D01*
X2050100Y-2626680D02*
X2090100Y-2666680D01*
X2090100Y-2626680D02*
X2050100Y-2666680D01*
X2062800Y-2740980D02*
X2102800Y-2780980D01*
X2102800Y-2740980D02*
X2062800Y-2780980D01*
X2072960Y-4343720D02*
X2112960Y-4383720D01*
X2112960Y-4343720D02*
X2072960Y-4383720D01*
X2078040Y-3233740D02*
X2118040Y-3273740D01*
X2118040Y-3233740D02*
X2078040Y-3273740D01*
X2126550Y-2299020D02*
X2166550Y-2339020D01*
X2166550Y-2299020D02*
X2126550Y-2339020D01*
X2206941Y-4301870D02*
X2246941Y-4341870D01*
X2246941Y-4301870D02*
X2206941Y-4341870D01*
X2232312Y-12941620D02*
X2272312Y-12981620D01*
X2272312Y-12941620D02*
X2232312Y-12981620D01*
X2311720Y-3233740D02*
X2351720Y-3273740D01*
X2351720Y-3233740D02*
X2311720Y-3273740D01*
X2329000Y-4678500D02*
X2369000Y-4718500D01*
X2369000Y-4678500D02*
X2329000Y-4718500D01*
X2445404Y-12941620D02*
X2485404Y-12981620D01*
X2485404Y-12941620D02*
X2445404Y-12981620D01*
X2499680Y-3226120D02*
X2539680Y-3266120D01*
X2539680Y-3226120D02*
X2499680Y-3266120D01*
X2567125Y-12298500D02*
X2607125Y-12338500D01*
X2607125Y-12298500D02*
X2567125Y-12338500D01*
X2573340Y-3883980D02*
X2613340Y-3923980D01*
X2613340Y-3883980D02*
X2573340Y-3923980D01*
X2658497Y-12941620D02*
X2698497Y-12981620D01*
X2698497Y-12941620D02*
X2658497Y-12981620D01*
X2805250Y-6583500D02*
X2845250Y-6623500D01*
X2845250Y-6583500D02*
X2805250Y-6623500D01*
X2855280Y-3098950D02*
X2895280Y-3138950D01*
X2895280Y-3098950D02*
X2855280Y-3138950D01*
X2871590Y-12941620D02*
X2911590Y-12981620D01*
X2911590Y-12941620D02*
X2871590Y-12981620D01*
X2898460Y-1984060D02*
X2938460Y-2024060D01*
X2938460Y-1984060D02*
X2898460Y-2024060D01*
X2901000Y-2441260D02*
X2941000Y-2481260D01*
X2941000Y-2441260D02*
X2901000Y-2481260D01*
X2901000Y-2591120D02*
X2941000Y-2631120D01*
X2941000Y-2591120D02*
X2901000Y-2631120D01*
X2901000Y-2756220D02*
X2941000Y-2796220D01*
X2941000Y-2756220D02*
X2901000Y-2796220D01*
X3012760Y-2441260D02*
X3052760Y-2481260D01*
X3052760Y-2441260D02*
X3012760Y-2481260D01*
X3012760Y-2591120D02*
X3052760Y-2631120D01*
X3052760Y-2591120D02*
X3012760Y-2631120D01*
X3012760Y-2756220D02*
X3052760Y-2796220D01*
X3052760Y-2756220D02*
X3012760Y-2796220D01*
X3027435Y-1984060D02*
X3067435Y-2024060D01*
X3067435Y-1984060D02*
X3027435Y-2024060D01*
X3043375Y-8488500D02*
X3083375Y-8528500D01*
X3083375Y-8488500D02*
X3043375Y-8528500D01*
X3084682Y-12941620D02*
X3124682Y-12981620D01*
X3124682Y-12941620D02*
X3084682Y-12981620D01*
X3124520Y-2441260D02*
X3164520Y-2481260D01*
X3164520Y-2441260D02*
X3124520Y-2481260D01*
X3124520Y-2591120D02*
X3164520Y-2631120D01*
X3164520Y-2591120D02*
X3124520Y-2631120D01*
X3124520Y-2756220D02*
X3164520Y-2796220D01*
X3164520Y-2756220D02*
X3124520Y-2796220D01*
X3156411Y-1984060D02*
X3196411Y-2024060D01*
X3196411Y-1984060D02*
X3156411Y-2024060D01*
X3236280Y-2441260D02*
X3276280Y-2481260D01*
X3276280Y-2441260D02*
X3236280Y-2481260D01*
X3236280Y-2591120D02*
X3276280Y-2631120D01*
X3276280Y-2591120D02*
X3236280Y-2631120D01*
X3236280Y-2756220D02*
X3276280Y-2796220D01*
X3276280Y-2756220D02*
X3236280Y-2796220D01*
X3285386Y-1984060D02*
X3325386Y-2024060D01*
X3325386Y-1984060D02*
X3285386Y-2024060D01*
X3297775Y-12941620D02*
X3337775Y-12981620D01*
X3337775Y-12941620D02*
X3297775Y-12981620D01*
X3348040Y-2441260D02*
X3388040Y-2481260D01*
X3388040Y-2441260D02*
X3348040Y-2481260D01*
X3348040Y-2591120D02*
X3388040Y-2631120D01*
X3388040Y-2591120D02*
X3348040Y-2631120D01*
X3348040Y-2756220D02*
X3388040Y-2796220D01*
X3388040Y-2756220D02*
X3348040Y-2796220D01*
X3414362Y-1984060D02*
X3454362Y-2024060D01*
X3454362Y-1984060D02*
X3414362Y-2024060D01*
X3439480Y-1120460D02*
X3479480Y-1160460D01*
X3479480Y-1120460D02*
X3439480Y-1160460D01*
X3510867Y-12941620D02*
X3550867Y-12981620D01*
X3550867Y-12941620D02*
X3510867Y-12981620D01*
X3536242Y-1120460D02*
X3576242Y-1160460D01*
X3576242Y-1120460D02*
X3536242Y-1160460D01*
X3543337Y-1984060D02*
X3583337Y-2024060D01*
X3583337Y-1984060D02*
X3543337Y-2024060D01*
X3594420Y-2713040D02*
X3634420Y-2753040D01*
X3634420Y-2713040D02*
X3594420Y-2753040D01*
X3633004Y-1120460D02*
X3673004Y-1160460D01*
X3673004Y-1120460D02*
X3633004Y-1160460D01*
X3672313Y-1984060D02*
X3712313Y-2024060D01*
X3712313Y-1984060D02*
X3672313Y-2024060D01*
X3723960Y-12941620D02*
X3763960Y-12981620D01*
X3763960Y-12941620D02*
X3723960Y-12981620D01*
X3729766Y-1120460D02*
X3769766Y-1160460D01*
X3769766Y-1120460D02*
X3729766Y-1160460D01*
X3777300Y-6660200D02*
X3817300Y-6700200D01*
X3817300Y-6660200D02*
X3777300Y-6700200D01*
X3797620Y-3081340D02*
X3837620Y-3121340D01*
X3837620Y-3081340D02*
X3797620Y-3121340D01*
X3801288Y-1984060D02*
X3841288Y-2024060D01*
X3841288Y-1984060D02*
X3801288Y-2024060D01*
X3812860Y-5735640D02*
X3852860Y-5775640D01*
X3852860Y-5735640D02*
X3812860Y-5775640D01*
X3826528Y-1120460D02*
X3866528Y-1160460D01*
X3866528Y-1120460D02*
X3826528Y-1160460D01*
X3896750Y-7053900D02*
X3936750Y-7093900D01*
X3936750Y-7053900D02*
X3896750Y-7093900D01*
X3896750Y-7622860D02*
X3936750Y-7662860D01*
X3936750Y-7622860D02*
X3896750Y-7662860D01*
X3923289Y-1120460D02*
X3963289Y-1160460D01*
X3963289Y-1120460D02*
X3923289Y-1160460D01*
X3930264Y-1984060D02*
X3970264Y-2024060D01*
X3970264Y-1984060D02*
X3930264Y-2024060D01*
X3937053Y-12941620D02*
X3977053Y-12981620D01*
X3977053Y-12941620D02*
X3937053Y-12981620D01*
X3963950Y-2378040D02*
X4003950Y-2418040D01*
X4003950Y-2378040D02*
X3963950Y-2418040D01*
X4000820Y-805500D02*
X4040820Y-845500D01*
X4040820Y-805500D02*
X4000820Y-845500D01*
X4020051Y-1120460D02*
X4060051Y-1160460D01*
X4060051Y-1120460D02*
X4020051Y-1160460D01*
X4028760Y-6660200D02*
X4068760Y-6700200D01*
X4068760Y-6660200D02*
X4028760Y-6700200D01*
X4049080Y-5626420D02*
X4089080Y-5666420D01*
X4089080Y-5626420D02*
X4049080Y-5666420D01*
X4059240Y-1984060D02*
X4099240Y-2024060D01*
X4099240Y-1984060D02*
X4059240Y-2024060D01*
X4116813Y-1120460D02*
X4156813Y-1160460D01*
X4156813Y-1120460D02*
X4116813Y-1160460D01*
X4121318Y-805500D02*
X4161318Y-845500D01*
X4161318Y-805500D02*
X4121318Y-845500D01*
X4145265Y-4371325D02*
X4185265Y-4411325D01*
X4185265Y-4371325D02*
X4145265Y-4411325D01*
X4150145Y-12941620D02*
X4190145Y-12981620D01*
X4190145Y-12941620D02*
X4150145Y-12981620D01*
X4213575Y-1120460D02*
X4253575Y-1160460D01*
X4253575Y-1120460D02*
X4213575Y-1160460D01*
X4223130Y-5659440D02*
X4263130Y-5699440D01*
X4263130Y-5659440D02*
X4223130Y-5699440D01*
X4231960Y-3098950D02*
X4271960Y-3138950D01*
X4271960Y-3098950D02*
X4231960Y-3138950D01*
X4234000Y-4678500D02*
X4274000Y-4718500D01*
X4274000Y-4678500D02*
X4234000Y-4718500D01*
X4241815Y-805500D02*
X4281815Y-845500D01*
X4281815Y-805500D02*
X4241815Y-845500D01*
X4276450Y-2713040D02*
X4316450Y-2753040D01*
X4316450Y-2713040D02*
X4276450Y-2753040D01*
X4308160Y-9088440D02*
X4348160Y-9128440D01*
X4348160Y-9088440D02*
X4308160Y-9128440D01*
X4310337Y-1120460D02*
X4350337Y-1160460D01*
X4350337Y-1120460D02*
X4310337Y-1160460D01*
X4362313Y-805500D02*
X4402313Y-845500D01*
X4402313Y-805500D02*
X4362313Y-845500D01*
X4363238Y-12941620D02*
X4403238Y-12981620D01*
X4403238Y-12941620D02*
X4363238Y-12981620D01*
X4407099Y-1120460D02*
X4447099Y-1160460D01*
X4447099Y-1120460D02*
X4407099Y-1160460D01*
X4470720Y-2751140D02*
X4510720Y-2791140D01*
X4510720Y-2751140D02*
X4470720Y-2791140D01*
X4480880Y-3678240D02*
X4520880Y-3718240D01*
X4520880Y-3678240D02*
X4480880Y-3718240D01*
X4482810Y-805500D02*
X4522810Y-845500D01*
X4522810Y-805500D02*
X4482810Y-845500D01*
X4503861Y-1120460D02*
X4543861Y-1160460D01*
X4543861Y-1120460D02*
X4503861Y-1160460D01*
X4552000Y-2520000D02*
X4592000Y-2560000D01*
X4592000Y-2520000D02*
X4552000Y-2560000D01*
X4576330Y-12941620D02*
X4616330Y-12981620D01*
X4616330Y-12941620D02*
X4576330Y-12981620D01*
X4579940Y-2334580D02*
X4619940Y-2374580D01*
X4619940Y-2334580D02*
X4579940Y-2374580D01*
X4600623Y-1120460D02*
X4640623Y-1160460D01*
X4640623Y-1120460D02*
X4600623Y-1160460D01*
X4603308Y-805500D02*
X4643308Y-845500D01*
X4643308Y-805500D02*
X4603308Y-845500D01*
X4697385Y-1120460D02*
X4737385Y-1160460D01*
X4737385Y-1120460D02*
X4697385Y-1160460D01*
X4712020Y-2365060D02*
X4752020Y-2405060D01*
X4752020Y-2365060D02*
X4712020Y-2405060D01*
X4723806Y-805500D02*
X4763806Y-845500D01*
X4763806Y-805500D02*
X4723806Y-845500D01*
X4729800Y-2535240D02*
X4769800Y-2575240D01*
X4769800Y-2535240D02*
X4729800Y-2575240D01*
X4789424Y-12941620D02*
X4829424Y-12981620D01*
X4829424Y-12941620D02*
X4789424Y-12981620D01*
X4790760Y-13200700D02*
X4830760Y-13240700D01*
X4830760Y-13200700D02*
X4790760Y-13240700D01*
X4794147Y-1120460D02*
X4834147Y-1160460D01*
X4834147Y-1120460D02*
X4794147Y-1160460D01*
X4844303Y-805500D02*
X4884303Y-845500D01*
X4884303Y-805500D02*
X4844303Y-845500D01*
X4890909Y-1120460D02*
X4930909Y-1160460D01*
X4930909Y-1120460D02*
X4890909Y-1160460D01*
X4907600Y-6751640D02*
X4947600Y-6791640D01*
X4947600Y-6751640D02*
X4907600Y-6791640D01*
X4925380Y-6975160D02*
X4965380Y-7015160D01*
X4965380Y-6975160D02*
X4925380Y-7015160D01*
X4935540Y-7183440D02*
X4975540Y-7223440D01*
X4975540Y-7183440D02*
X4935540Y-7223440D01*
X4948375Y-12298500D02*
X4988375Y-12338500D01*
X4988375Y-12298500D02*
X4948375Y-12338500D01*
X4953320Y-5496880D02*
X4993320Y-5536880D01*
X4993320Y-5496880D02*
X4953320Y-5536880D01*
X4958400Y-5364800D02*
X4998400Y-5404800D01*
X4998400Y-5364800D02*
X4958400Y-5404800D01*
X4964801Y-805500D02*
X5004801Y-845500D01*
X5004801Y-805500D02*
X4964801Y-845500D01*
X4987670Y-1120460D02*
X5027670Y-1160460D01*
X5027670Y-1120460D02*
X4987670Y-1160460D01*
X5003853Y-13200700D02*
X5043853Y-13240700D01*
X5043853Y-13200700D02*
X5003853Y-13240700D01*
X5084432Y-1120460D02*
X5124432Y-1160460D01*
X5124432Y-1120460D02*
X5084432Y-1160460D01*
X5085298Y-805500D02*
X5125298Y-845500D01*
X5125298Y-805500D02*
X5085298Y-845500D01*
X5181194Y-1120460D02*
X5221194Y-1160460D01*
X5221194Y-1120460D02*
X5181194Y-1160460D01*
X5186500Y-6583500D02*
X5226500Y-6623500D01*
X5226500Y-6583500D02*
X5186500Y-6623500D01*
X5205796Y-805500D02*
X5245796Y-845500D01*
X5245796Y-805500D02*
X5205796Y-845500D01*
X5216945Y-13200700D02*
X5256945Y-13240700D01*
X5256945Y-13200700D02*
X5216945Y-13240700D01*
X5277956Y-1120460D02*
X5317956Y-1160460D01*
X5317956Y-1120460D02*
X5277956Y-1160460D01*
X5326294Y-805500D02*
X5366294Y-845500D01*
X5366294Y-805500D02*
X5326294Y-845500D01*
X5374718Y-1120460D02*
X5414718Y-1160460D01*
X5414718Y-1120460D02*
X5374718Y-1160460D01*
X5430038Y-13200700D02*
X5470038Y-13240700D01*
X5470038Y-13200700D02*
X5430038Y-13240700D01*
X5446791Y-805500D02*
X5486791Y-845500D01*
X5486791Y-805500D02*
X5446791Y-845500D01*
X5471480Y-1125540D02*
X5511480Y-1165540D01*
X5511480Y-1125540D02*
X5471480Y-1165540D01*
X5567289Y-805500D02*
X5607289Y-845500D01*
X5607289Y-805500D02*
X5567289Y-845500D01*
X5593400Y-1989140D02*
X5633400Y-2029140D01*
X5633400Y-1989140D02*
X5593400Y-2029140D01*
X5643130Y-13200700D02*
X5683130Y-13240700D01*
X5683130Y-13200700D02*
X5643130Y-13240700D01*
X5662750Y-8488500D02*
X5702750Y-8528500D01*
X5702750Y-8488500D02*
X5662750Y-8528500D01*
X5669600Y-2949990D02*
X5709600Y-2989990D01*
X5709600Y-2949990D02*
X5669600Y-2989990D01*
X5687786Y-805500D02*
X5727786Y-845500D01*
X5727786Y-805500D02*
X5687786Y-845500D01*
X5688015Y-1989140D02*
X5728015Y-2029140D01*
X5728015Y-1989140D02*
X5688015Y-2029140D01*
X5773740Y-2951800D02*
X5813740Y-2991800D01*
X5813740Y-2951800D02*
X5773740Y-2991800D01*
X5782630Y-1989140D02*
X5822630Y-2029140D01*
X5822630Y-1989140D02*
X5782630Y-2029140D01*
X5808284Y-805500D02*
X5848284Y-845500D01*
X5848284Y-805500D02*
X5808284Y-845500D01*
X5856223Y-13200700D02*
X5896223Y-13240700D01*
X5896223Y-13200700D02*
X5856223Y-13240700D01*
X5876990Y-2949990D02*
X5916990Y-2989990D01*
X5916990Y-2949990D02*
X5876990Y-2989990D01*
X5876990Y-3423946D02*
X5916990Y-3463946D01*
X5916990Y-3423946D02*
X5876990Y-3463946D01*
X5877245Y-1989140D02*
X5917245Y-2029140D01*
X5917245Y-1989140D02*
X5877245Y-2029140D01*
X5928782Y-805500D02*
X5968782Y-845500D01*
X5968782Y-805500D02*
X5928782Y-845500D01*
X5971860Y-1989140D02*
X6011860Y-2029140D01*
X6011860Y-1989140D02*
X5971860Y-2029140D01*
X5976940Y-2949990D02*
X6016940Y-2989990D01*
X6016940Y-2949990D02*
X5976940Y-2989990D01*
X5976940Y-3424240D02*
X6016940Y-3464240D01*
X6016940Y-3424240D02*
X5976940Y-3464240D01*
X6049279Y-805500D02*
X6089279Y-845500D01*
X6089279Y-805500D02*
X6049279Y-845500D01*
X6049814Y-3539325D02*
X6089814Y-3579325D01*
X6089814Y-3539325D02*
X6049814Y-3579325D01*
X6069316Y-13200700D02*
X6109316Y-13240700D01*
X6109316Y-13200700D02*
X6069316Y-13240700D01*
X6162360Y-2674940D02*
X6202360Y-2714940D01*
X6202360Y-2674940D02*
X6162360Y-2714940D01*
X6169777Y-805500D02*
X6209777Y-845500D01*
X6209777Y-805500D02*
X6169777Y-845500D01*
X6243284Y-3630336D02*
X6283284Y-3670336D01*
X6283284Y-3630336D02*
X6243284Y-3670336D01*
X6282408Y-13200700D02*
X6322408Y-13240700D01*
X6322408Y-13200700D02*
X6282408Y-13240700D01*
X6290274Y-805500D02*
X6330274Y-845500D01*
X6330274Y-805500D02*
X6290274Y-845500D01*
X6410772Y-805500D02*
X6450772Y-845500D01*
X6450772Y-805500D02*
X6410772Y-845500D01*
X6495501Y-13200700D02*
X6535501Y-13240700D01*
X6535501Y-13200700D02*
X6495501Y-13240700D01*
X6531270Y-805500D02*
X6571270Y-845500D01*
X6571270Y-805500D02*
X6531270Y-845500D01*
X6551650Y-5560380D02*
X6591650Y-5600380D01*
X6591650Y-5560380D02*
X6551650Y-5600380D01*
X6578000Y-5348000D02*
X6618000Y-5388000D01*
X6618000Y-5348000D02*
X6578000Y-5388000D01*
X6615250Y-10393500D02*
X6655250Y-10433500D01*
X6655250Y-10393500D02*
X6615250Y-10433500D01*
X6651767Y-805500D02*
X6691767Y-845500D01*
X6691767Y-805500D02*
X6651767Y-845500D01*
X6672900Y-2949990D02*
X6712900Y-2989990D01*
X6712900Y-2949990D02*
X6672900Y-2989990D01*
X6708593Y-13200700D02*
X6748593Y-13240700D01*
X6748593Y-13200700D02*
X6708593Y-13240700D01*
X6746910Y-6494750D02*
X6786910Y-6534750D01*
X6786910Y-6494750D02*
X6746910Y-6534750D01*
X6749100Y-5352100D02*
X6789100Y-5392100D01*
X6789100Y-5352100D02*
X6749100Y-5392100D01*
X6772265Y-805500D02*
X6812265Y-845500D01*
X6812265Y-805500D02*
X6772265Y-845500D01*
X6780000Y-1890000D02*
X6820000Y-1930000D01*
X6820000Y-1890000D02*
X6780000Y-1930000D01*
X6892762Y-805500D02*
X6932762Y-845500D01*
X6932762Y-805500D02*
X6892762Y-845500D01*
X6893880Y-2730090D02*
X6933880Y-2770090D01*
X6933880Y-2730090D02*
X6893880Y-2770090D01*
X6921686Y-13200700D02*
X6961686Y-13240700D01*
X6961686Y-13200700D02*
X6921686Y-13240700D01*
X6985320Y-5359825D02*
X7025320Y-5399825D01*
X7025320Y-5359825D02*
X6985320Y-5399825D01*
X7013260Y-805500D02*
X7053260Y-845500D01*
X7053260Y-805500D02*
X7013260Y-845500D01*
X7060000Y-1740000D02*
X7100000Y-1780000D01*
X7100000Y-1740000D02*
X7060000Y-1780000D01*
X7091500Y-6583500D02*
X7131500Y-6623500D01*
X7131500Y-6583500D02*
X7091500Y-6623500D01*
X7134779Y-13200700D02*
X7174779Y-13240700D01*
X7174779Y-13200700D02*
X7134779Y-13240700D01*
X7329625Y-12298500D02*
X7369625Y-12338500D01*
X7369625Y-12298500D02*
X7329625Y-12338500D01*
X7347871Y-13200700D02*
X7387871Y-13240700D01*
X7387871Y-13200700D02*
X7347871Y-13240700D01*
X7380300Y-8499160D02*
X7420300Y-8539160D01*
X7420300Y-8499160D02*
X7380300Y-8539160D01*
X7452180Y-4444980D02*
X7492180Y-4484980D01*
X7492180Y-4444980D02*
X7452180Y-4484980D01*
X7560964Y-13200700D02*
X7600964Y-13240700D01*
X7600964Y-13200700D02*
X7560964Y-13240700D01*
X7567750Y-8488500D02*
X7607750Y-8528500D01*
X7607750Y-8488500D02*
X7567750Y-8528500D01*
X7774056Y-13200700D02*
X7814056Y-13240700D01*
X7814056Y-13200700D02*
X7774056Y-13240700D01*
X7937820Y-8224840D02*
X7977820Y-8264840D01*
X7977820Y-8224840D02*
X7937820Y-8264840D01*
X7987149Y-13200700D02*
X8027149Y-13240700D01*
X8027149Y-13200700D02*
X7987149Y-13240700D01*
X8000625Y-8055625D02*
X8040625Y-8095625D01*
X8040625Y-8055625D02*
X8000625Y-8095625D01*
X8047500Y-7010000D02*
X8087500Y-7050000D01*
X8087500Y-7010000D02*
X8047500Y-7050000D01*
X8200242Y-13200700D02*
X8240242Y-13240700D01*
X8240242Y-13200700D02*
X8200242Y-13240700D01*
X8413334Y-13200700D02*
X8453334Y-13240700D01*
X8453334Y-13200700D02*
X8413334Y-13240700D01*
X8498420Y-10371670D02*
X8538420Y-10411670D01*
X8538420Y-10371670D02*
X8498420Y-10411670D01*
X8529640Y-3142300D02*
X8569640Y-3182300D01*
X8569640Y-3142300D02*
X8529640Y-3182300D01*
X8542340Y-3886970D02*
X8582340Y-3926970D01*
X8582340Y-3886970D02*
X8542340Y-3926970D01*
X8626427Y-13200700D02*
X8666427Y-13240700D01*
X8666427Y-13200700D02*
X8626427Y-13240700D01*
X8651560Y-3144840D02*
X8691560Y-3184840D01*
X8691560Y-3144840D02*
X8651560Y-3184840D01*
X8781100Y-3147380D02*
X8821100Y-3187380D01*
X8821100Y-3147380D02*
X8781100Y-3187380D01*
X8839520Y-13200700D02*
X8879520Y-13240700D01*
X8879520Y-13200700D02*
X8839520Y-13240700D01*
X8918260Y-3149920D02*
X8958260Y-3189920D01*
X8958260Y-3149920D02*
X8918260Y-3189920D01*
X8996500Y-6583500D02*
X9036500Y-6623500D01*
X9036500Y-6583500D02*
X8996500Y-6623500D01*
X9037640Y-3149920D02*
X9077640Y-3189920D01*
X9077640Y-3149920D02*
X9037640Y-3189920D01*
X9456938Y-5317750D02*
X9496938Y-5357750D01*
X9496938Y-5317750D02*
X9456938Y-5357750D01*
X9538020Y-4658680D02*
X9578020Y-4698680D01*
X9578020Y-4658680D02*
X9538020Y-4698680D01*
X9573150Y-4472830D02*
X9613150Y-4512830D01*
X9613150Y-4472830D02*
X9573150Y-4512830D01*
X9578660Y-3886520D02*
X9618660Y-3926520D01*
X9618660Y-3886520D02*
X9578660Y-3926520D01*
X9642087Y-3187445D02*
X9682087Y-3227445D01*
X9682087Y-3187445D02*
X9642087Y-3227445D01*
X9693307Y-3895693D02*
X9733307Y-3935693D01*
X9733307Y-3895693D02*
X9693307Y-3935693D01*
X9695000Y-5885000D02*
X9735000Y-5925000D01*
X9735000Y-5885000D02*
X9695000Y-5925000D01*
X9711388Y-3259468D02*
X9751388Y-3299468D01*
X9751388Y-3259468D02*
X9711388Y-3299468D01*
X9781293Y-3330905D02*
X9821293Y-3370905D01*
X9821293Y-3330905D02*
X9781293Y-3370905D01*
X9792940Y-3903652D02*
X9832940Y-3943652D01*
X9832940Y-3903652D02*
X9792940Y-3943652D01*
X9802180Y-4336100D02*
X9842180Y-4376100D01*
X9842180Y-4336100D02*
X9802180Y-4376100D01*
X9853820Y-3399680D02*
X9893820Y-3439680D01*
X9893820Y-3399680D02*
X9853820Y-3439680D01*
X9892401Y-3913530D02*
X9932401Y-3953530D01*
X9932401Y-3913530D02*
X9892401Y-3953530D01*
X9949000Y-4678500D02*
X9989000Y-4718500D01*
X9989000Y-4678500D02*
X9949000Y-4718500D01*
X9992314Y-3916244D02*
X10032314Y-3956244D01*
X10032314Y-3916244D02*
X9992314Y-3956244D01*
X10109185Y-5304715D02*
X10149185Y-5344715D01*
X10149185Y-5304715D02*
X10109185Y-5344715D01*
X10204806Y-3931970D02*
X10244806Y-3971970D01*
X10244806Y-3931970D02*
X10204806Y-3971970D01*
X10289200Y-6329500D02*
X10329200Y-6369500D01*
X10329200Y-6329500D02*
X10289200Y-6369500D01*
X10338120Y-4338520D02*
X10378120Y-4378520D01*
X10378120Y-4338520D02*
X10338120Y-4378520D01*
X10390000Y-1280000D02*
X10430000Y-1320000D01*
X10430000Y-1280000D02*
X10390000Y-1320000D01*
X10425250Y-10393500D02*
X10465250Y-10433500D01*
X10465250Y-10393500D02*
X10425250Y-10433500D01*
X10446200Y-4410970D02*
X10486200Y-4450970D01*
X10486200Y-4410970D02*
X10446200Y-4450970D01*
X10569260Y-4483420D02*
X10609260Y-4523420D01*
X10609260Y-4483420D02*
X10569260Y-4523420D01*
X10683560Y-4542050D02*
X10723560Y-4582050D01*
X10723560Y-4542050D02*
X10683560Y-4582050D01*
X10782620Y-3952450D02*
X10822620Y-3992450D01*
X10822620Y-3952450D02*
X10782620Y-3992450D01*
X10849728Y-5148784D02*
X10889728Y-5188784D01*
X10889728Y-5148784D02*
X10849728Y-5188784D01*
X10860000Y-13310000D02*
X10900000Y-13350000D01*
X10900000Y-13310000D02*
X10860000Y-13350000D01*
X10885939Y-3952411D02*
X10925939Y-3992411D01*
X10925939Y-3952411D02*
X10885939Y-3992411D01*
X10901500Y-6583500D02*
X10941500Y-6623500D01*
X10941500Y-6583500D02*
X10901500Y-6623500D01*
X10949370Y-5156627D02*
X10989370Y-5196627D01*
X10989370Y-5156627D02*
X10949370Y-5196627D01*
X10988360Y-3952450D02*
X11028360Y-3992450D01*
X11028360Y-3952450D02*
X10988360Y-3992450D01*
X11049320Y-5156627D02*
X11089320Y-5196627D01*
X11089320Y-5156627D02*
X11049320Y-5196627D01*
X11080000Y-13330000D02*
X11120000Y-13370000D01*
X11120000Y-13330000D02*
X11080000Y-13370000D01*
X11141190Y-4615070D02*
X11181190Y-4655070D01*
X11181190Y-4615070D02*
X11141190Y-4655070D01*
X11241700Y-4424500D02*
X11281700Y-4464500D01*
X11281700Y-4424500D02*
X11241700Y-4464500D01*
X11252520Y-3952450D02*
X11292520Y-3992450D01*
X11292520Y-3952450D02*
X11252520Y-3992450D01*
X11377750Y-8488500D02*
X11417750Y-8528500D01*
X11417750Y-8488500D02*
X11377750Y-8528500D01*
X11478580Y-4770440D02*
X11518580Y-4810440D01*
X11518580Y-4770440D02*
X11478580Y-4810440D01*
X11488740Y-4960940D02*
X11528740Y-5000940D01*
X11528740Y-4960940D02*
X11488740Y-5000940D01*
X11488812Y-3957568D02*
X11528812Y-3997568D01*
X11528812Y-3957568D02*
X11488812Y-3997568D01*
X11628440Y-4963480D02*
X11668440Y-5003480D01*
X11668440Y-4963480D02*
X11628440Y-5003480D01*
X11679240Y-4318320D02*
X11719240Y-4358320D01*
X11719240Y-4318320D02*
X11679240Y-4358320D01*
X11681780Y-3556320D02*
X11721780Y-3596320D01*
X11721780Y-3556320D02*
X11681780Y-3596320D01*
X11684320Y-5286060D02*
X11724320Y-5326060D01*
X11724320Y-5286060D02*
X11684320Y-5326060D01*
X11704640Y-3802700D02*
X11744640Y-3842700D01*
X11744640Y-3802700D02*
X11704640Y-3842700D01*
X11707180Y-3911920D02*
X11747180Y-3951920D01*
X11747180Y-3911920D02*
X11707180Y-3951920D01*
X11718007Y-3649474D02*
X11758007Y-3689474D01*
X11758007Y-3649474D02*
X11718007Y-3689474D01*
X11775700Y-9057635D02*
X11815700Y-9097635D01*
X11815700Y-9057635D02*
X11775700Y-9097635D01*
X11803700Y-4323400D02*
X11843700Y-4363400D01*
X11843700Y-4323400D02*
X11803700Y-4363400D01*
X11815566Y-4021970D02*
X11855566Y-4061970D01*
X11855566Y-4021970D02*
X11815566Y-4061970D01*
X11938888Y-4017458D02*
X11978888Y-4057458D01*
X11978888Y-4017458D02*
X11938888Y-4057458D01*
X11993000Y-7028500D02*
X12033000Y-7068500D01*
X12033000Y-7028500D02*
X11993000Y-7068500D01*
X12119570Y-7428910D02*
X12159570Y-7468910D01*
X12159570Y-7428910D02*
X12119570Y-7468910D01*
X12194200Y-6329500D02*
X12234200Y-6369500D01*
X12234200Y-6329500D02*
X12194200Y-6369500D01*
X12330250Y-10393500D02*
X12370250Y-10433500D01*
X12370250Y-10393500D02*
X12330250Y-10433500D01*
X12390440Y-3782380D02*
X12430440Y-3822380D01*
X12430440Y-3782380D02*
X12390440Y-3822380D01*
X12504740Y-4282760D02*
X12544740Y-4322760D01*
X12544740Y-4282760D02*
X12504740Y-4322760D01*
X12540300Y-6507800D02*
X12580300Y-6547800D01*
X12580300Y-6507800D02*
X12540300Y-6547800D01*
X12560620Y-3863830D02*
X12600620Y-3903830D01*
X12600620Y-3863830D02*
X12560620Y-3903830D01*
X12568240Y-8044500D02*
X12608240Y-8084500D01*
X12608240Y-8044500D02*
X12568240Y-8084500D01*
X12598000Y-7907340D02*
X12638000Y-7947340D01*
X12638000Y-7907340D02*
X12598000Y-7947340D01*
X12670450Y-6916740D02*
X12710450Y-6956740D01*
X12710450Y-6916740D02*
X12670450Y-6956740D01*
X12670450Y-7302820D02*
X12710450Y-7342820D01*
X12710450Y-7302820D02*
X12670450Y-7342820D01*
X12753660Y-8044500D02*
X12793660Y-8084500D01*
X12793660Y-8044500D02*
X12753660Y-8084500D01*
X12847640Y-3711225D02*
X12887640Y-3751225D01*
X12887640Y-3711225D02*
X12847640Y-3751225D01*
X12952510Y-11752840D02*
X12992510Y-11792840D01*
X12992510Y-11752840D02*
X12952510Y-11792840D01*
X12952510Y-12029700D02*
X12992510Y-12069700D01*
X12992510Y-12029700D02*
X12952510Y-12069700D01*
X12953780Y-11890000D02*
X12993780Y-11930000D01*
X12993780Y-11890000D02*
X12953780Y-11930000D01*
X12953780Y-12166860D02*
X12993780Y-12206860D01*
X12993780Y-12166860D02*
X12953780Y-12206860D01*
X12954450Y-6223320D02*
X12994450Y-6263320D01*
X12994450Y-6223320D02*
X12954450Y-6263320D01*
X12986010Y-8829360D02*
X13026010Y-8869360D01*
X13026010Y-8829360D02*
X12986010Y-8869360D01*
X12986010Y-9057960D02*
X13026010Y-9097960D01*
X13026010Y-9057960D02*
X12986010Y-9097960D01*
X13058460Y-7894640D02*
X13098460Y-7934640D01*
X13098460Y-7894640D02*
X13058460Y-7934640D01*
X13070620Y-11752840D02*
X13110620Y-11792840D01*
X13110620Y-11752840D02*
X13070620Y-11792840D01*
X13070620Y-12029700D02*
X13110620Y-12069700D01*
X13110620Y-12029700D02*
X13070620Y-12069700D01*
X13071890Y-11890000D02*
X13111890Y-11930000D01*
X13111890Y-11890000D02*
X13071890Y-11930000D01*
X13071890Y-12166860D02*
X13111890Y-12206860D01*
X13111890Y-12166860D02*
X13071890Y-12206860D01*
X13112156Y-4389956D02*
X13152156Y-4429956D01*
X13152156Y-4389956D02*
X13112156Y-4429956D01*
X13130910Y-9060500D02*
X13170910Y-9100500D01*
X13170910Y-9060500D02*
X13130910Y-9100500D01*
X13188730Y-11752840D02*
X13228730Y-11792840D01*
X13228730Y-11752840D02*
X13188730Y-11792840D01*
X13188730Y-12029700D02*
X13228730Y-12069700D01*
X13228730Y-12029700D02*
X13188730Y-12069700D01*
X13190000Y-11890000D02*
X13230000Y-11930000D01*
X13230000Y-11890000D02*
X13190000Y-11930000D01*
X13190000Y-12166860D02*
X13230000Y-12206860D01*
X13230000Y-12166860D02*
X13190000Y-12206860D01*
X13205780Y-3863830D02*
X13245780Y-3903830D01*
X13245780Y-3863830D02*
X13205780Y-3903830D01*
X13282750Y-8488500D02*
X13322750Y-8528500D01*
X13322750Y-8488500D02*
X13282750Y-8528500D01*
X13294680Y-6269040D02*
X13334680Y-6309040D01*
X13334680Y-6269040D02*
X13294680Y-6309040D01*
X13299000Y-1226550D02*
X13339000Y-1266550D01*
X13339000Y-1226550D02*
X13299000Y-1266550D01*
X13306840Y-11752840D02*
X13346840Y-11792840D01*
X13346840Y-11752840D02*
X13306840Y-11792840D01*
X13306840Y-12029700D02*
X13346840Y-12069700D01*
X13346840Y-12029700D02*
X13306840Y-12069700D01*
X13308110Y-11890000D02*
X13348110Y-11930000D01*
X13348110Y-11890000D02*
X13308110Y-11930000D01*
X13308110Y-12166860D02*
X13348110Y-12206860D01*
X13348110Y-12166860D02*
X13308110Y-12206860D01*
X13400000Y-1430000D02*
X13440000Y-1470000D01*
X13440000Y-1430000D02*
X13400000Y-1470000D01*
X13400000Y-1780000D02*
X13440000Y-1820000D01*
X13440000Y-1780000D02*
X13400000Y-1820000D01*
X13424950Y-11752840D02*
X13464950Y-11792840D01*
X13464950Y-11752840D02*
X13424950Y-11792840D01*
X13424950Y-12029700D02*
X13464950Y-12069700D01*
X13464950Y-12029700D02*
X13424950Y-12069700D01*
X13426220Y-11890000D02*
X13466220Y-11930000D01*
X13466220Y-11890000D02*
X13426220Y-11930000D01*
X13426220Y-12166860D02*
X13466220Y-12206860D01*
X13466220Y-12166860D02*
X13426220Y-12206860D01*
X13445870Y-5044760D02*
X13485870Y-5084760D01*
X13485870Y-5044760D02*
X13445870Y-5084760D01*
X13480100Y-7473000D02*
X13520100Y-7513000D01*
X13520100Y-7473000D02*
X13480100Y-7513000D01*
X13543060Y-11752840D02*
X13583060Y-11792840D01*
X13583060Y-11752840D02*
X13543060Y-11792840D01*
X13543060Y-12029700D02*
X13583060Y-12069700D01*
X13583060Y-12029700D02*
X13543060Y-12069700D01*
X13544330Y-11890000D02*
X13584330Y-11930000D01*
X13584330Y-11890000D02*
X13544330Y-11930000D01*
X13544330Y-12166860D02*
X13584330Y-12206860D01*
X13584330Y-12166860D02*
X13544330Y-12206860D01*
X13599480Y-3883980D02*
X13639480Y-3923980D01*
X13639480Y-3883980D02*
X13599480Y-3923980D01*
X13617260Y-3655380D02*
X13657260Y-3695380D01*
X13657260Y-3655380D02*
X13617260Y-3695380D01*
X13661170Y-11752840D02*
X13701170Y-11792840D01*
X13701170Y-11752840D02*
X13661170Y-11792840D01*
X13661170Y-12029700D02*
X13701170Y-12069700D01*
X13701170Y-12029700D02*
X13661170Y-12069700D01*
X13662440Y-11890000D02*
X13702440Y-11930000D01*
X13702440Y-11890000D02*
X13662440Y-11930000D01*
X13662440Y-12166860D02*
X13702440Y-12206860D01*
X13702440Y-12166860D02*
X13662440Y-12206860D01*
X13708700Y-3820480D02*
X13748700Y-3860480D01*
X13748700Y-3820480D02*
X13708700Y-3860480D01*
X13729020Y-3538540D02*
X13769020Y-3578540D01*
X13769020Y-3538540D02*
X13729020Y-3578540D01*
X13752500Y-7119940D02*
X13792500Y-7159940D01*
X13792500Y-7119940D02*
X13752500Y-7159940D01*
X13769000Y-1299000D02*
X13809000Y-1339000D01*
X13809000Y-1299000D02*
X13769000Y-1339000D01*
X13779280Y-11752840D02*
X13819280Y-11792840D01*
X13819280Y-11752840D02*
X13779280Y-11792840D01*
X13779280Y-12029700D02*
X13819280Y-12069700D01*
X13819280Y-12029700D02*
X13779280Y-12069700D01*
X13780550Y-11890000D02*
X13820550Y-11930000D01*
X13820550Y-11890000D02*
X13780550Y-11930000D01*
X13780550Y-12166860D02*
X13820550Y-12206860D01*
X13820550Y-12166860D02*
X13780550Y-12206860D01*
X13825540Y-3830640D02*
X13865540Y-3870640D01*
X13865540Y-3830640D02*
X13825540Y-3870640D01*
X13833160Y-3386140D02*
X13873160Y-3426140D01*
X13873160Y-3386140D02*
X13833160Y-3426140D01*
X13914440Y-3908830D02*
X13954440Y-3948830D01*
X13954440Y-3908830D02*
X13914440Y-3948830D01*
X14069380Y-3836380D02*
X14109380Y-3876380D01*
X14109380Y-3836380D02*
X14069380Y-3876380D01*
X14092240Y-7922580D02*
X14132240Y-7962580D01*
X14132240Y-7922580D02*
X14092240Y-7962580D01*
X14099200Y-6329500D02*
X14139200Y-6369500D01*
X14139200Y-6329500D02*
X14099200Y-6369500D01*
X14132880Y-4188780D02*
X14172880Y-4228780D01*
X14172880Y-4188780D02*
X14132880Y-4228780D01*
X14143040Y-4442780D02*
X14183040Y-4482780D01*
X14183040Y-4442780D02*
X14143040Y-4482780D01*
X14235250Y-10393500D02*
X14275250Y-10433500D01*
X14275250Y-10393500D02*
X14235250Y-10433500D01*
X14246340Y-4441940D02*
X14286340Y-4481940D01*
X14286340Y-4441940D02*
X14246340Y-4481940D01*
X14301850Y-7711760D02*
X14341850Y-7751760D01*
X14341850Y-7711760D02*
X14301850Y-7751760D01*
X14319370Y-3908830D02*
X14359370Y-3948830D01*
X14359370Y-3908830D02*
X14319370Y-3948830D01*
X14391960Y-4348800D02*
X14431960Y-4388800D01*
X14431960Y-4348800D02*
X14391960Y-4388800D01*
X14650000Y-1260000D02*
X14690000Y-1300000D01*
X14690000Y-1260000D02*
X14650000Y-1300000D01*
X14711500Y-6583500D02*
X14751500Y-6623500D01*
X14751500Y-6583500D02*
X14711500Y-6623500D01*
X15024420Y-4162050D02*
X15064420Y-4202050D01*
X15064420Y-4162050D02*
X15024420Y-4202050D01*
X15051700Y-4424500D02*
X15091700Y-4464500D01*
X15091700Y-4424500D02*
X15051700Y-4464500D01*
X15176820Y-4162100D02*
X15216820Y-4202100D01*
X15216820Y-4162100D02*
X15176820Y-4202100D01*
X15187750Y-8488500D02*
X15227750Y-8528500D01*
X15227750Y-8488500D02*
X15187750Y-8528500D01*
X15380000Y-1080000D02*
X15420000Y-1120000D01*
X15420000Y-1080000D02*
X15380000Y-1120000D01*
X15391450Y-6101400D02*
X15431450Y-6141400D01*
X15431450Y-6101400D02*
X15391450Y-6141400D01*
X15503000Y-850050D02*
X15543000Y-890050D01*
X15543000Y-850050D02*
X15503000Y-890050D01*
X15572950Y-8857300D02*
X15612950Y-8897300D01*
X15612950Y-8857300D02*
X15572950Y-8897300D01*
X15572950Y-9154480D02*
X15612950Y-9194480D01*
X15612950Y-9154480D02*
X15572950Y-9194480D01*
X15583220Y-8148640D02*
X15623220Y-8188640D01*
X15623220Y-8148640D02*
X15583220Y-8188640D01*
X15593380Y-4455480D02*
X15633380Y-4495480D01*
X15633380Y-4455480D02*
X15593380Y-4495480D01*
X15684820Y-10609900D02*
X15724820Y-10649900D01*
X15724820Y-10609900D02*
X15684820Y-10649900D01*
X15777700Y-7660960D02*
X15817700Y-7700960D01*
X15817700Y-7660960D02*
X15777700Y-7700960D01*
X15784770Y-10609900D02*
X15824770Y-10649900D01*
X15824770Y-10609900D02*
X15784770Y-10649900D01*
X15827124Y-939584D02*
X15867124Y-979584D01*
X15867124Y-939584D02*
X15827124Y-979584D01*
X15884685Y-10612554D02*
X15924685Y-10652554D01*
X15924685Y-10612554D02*
X15884685Y-10652554D01*
X16007400Y-6342700D02*
X16047400Y-6382700D01*
X16047400Y-6342700D02*
X16007400Y-6382700D01*
X16140250Y-10393500D02*
X16180250Y-10433500D01*
X16180250Y-10393500D02*
X16140250Y-10433500D01*
X16456980Y-1087440D02*
X16496980Y-1127440D01*
X16496980Y-1087440D02*
X16456980Y-1127440D01*
X16652370Y-913370D02*
X16692370Y-953370D01*
X16692370Y-913370D02*
X16652370Y-953370D01*
X16896795Y-939030D02*
X16936795Y-979030D01*
X16936795Y-939030D02*
X16896795Y-979030D01*
X16956700Y-4424500D02*
X16996700Y-4464500D01*
X16996700Y-4424500D02*
X16956700Y-4464500D01*
X17010700Y-4191320D02*
X17050700Y-4231320D01*
X17050700Y-4191320D02*
X17010700Y-4231320D01*
X17092750Y-8488500D02*
X17132750Y-8528500D01*
X17132750Y-8488500D02*
X17092750Y-8528500D01*
X17279940Y-5489260D02*
X17319940Y-5529260D01*
X17319940Y-5489260D02*
X17279940Y-5529260D01*
X17396350Y-5908790D02*
X17436350Y-5948790D01*
X17436350Y-5908790D02*
X17396350Y-5948790D01*
X17457740Y-5700080D02*
X17497740Y-5740080D01*
X17497740Y-5700080D02*
X17457740Y-5740080D01*
X17531400Y-4407220D02*
X17571400Y-4447220D01*
X17571400Y-4407220D02*
X17531400Y-4447220D01*
X17968280Y-939030D02*
X18008280Y-979030D01*
X18008280Y-939030D02*
X17968280Y-979030D01*
X18045250Y-10393500D02*
X18085250Y-10433500D01*
X18085250Y-10393500D02*
X18045250Y-10433500D01*
X18398950Y-4209100D02*
X18438950Y-4249100D01*
X18438950Y-4209100D02*
X18398950Y-4249100D01*
X18521500Y-6583500D02*
X18561500Y-6623500D01*
X18561500Y-6583500D02*
X18521500Y-6623500D01*
X18544860Y-8671880D02*
X18584860Y-8711880D01*
X18584860Y-8671880D02*
X18544860Y-8711880D01*
X18577880Y-4742500D02*
X18617880Y-4782500D01*
X18617880Y-4742500D02*
X18577880Y-4782500D01*
X18644603Y-8665445D02*
X18684603Y-8705445D01*
X18684603Y-8665445D02*
X18644603Y-8705445D01*
X18910500Y-5316420D02*
X18950500Y-5356420D01*
X18950500Y-5316420D02*
X18910500Y-5356420D01*
X18997750Y-8488500D02*
X19037750Y-8528500D01*
X19037750Y-8488500D02*
X18997750Y-8528500D01*
X19130150Y-4160840D02*
X19170150Y-4200840D01*
X19170150Y-4160840D02*
X19130150Y-4200840D01*
X19202600Y-4231960D02*
X19242600Y-4271960D01*
X19242600Y-4231960D02*
X19202600Y-4271960D01*
X19219095Y-3144557D02*
X19259095Y-3184557D01*
X19259095Y-3144557D02*
X19219095Y-3184557D01*
X19275050Y-4301878D02*
X19315050Y-4341878D01*
X19315050Y-4301878D02*
X19275050Y-4341878D01*
X19284448Y-3220181D02*
X19324448Y-3260181D01*
X19324448Y-3220181D02*
X19284448Y-3260181D01*
X19337950Y-10139500D02*
X19377950Y-10179500D01*
X19377950Y-10139500D02*
X19337950Y-10179500D01*
X19344960Y-4376740D02*
X19384960Y-4416740D01*
X19384960Y-4376740D02*
X19344960Y-4416740D01*
X19359692Y-3285972D02*
X19399692Y-3325972D01*
X19399692Y-3285972D02*
X19359692Y-3325972D01*
X19382950Y-9405940D02*
X19422950Y-9445940D01*
X19422950Y-9405940D02*
X19382950Y-9445940D01*
X19388140Y-5844860D02*
X19428140Y-5884860D01*
X19428140Y-5844860D02*
X19388140Y-5884860D01*
X19428780Y-3358200D02*
X19468780Y-3398200D01*
X19468780Y-3358200D02*
X19428780Y-3398200D01*
X19469420Y-8918260D02*
X19509420Y-8958260D01*
X19509420Y-8918260D02*
X19469420Y-8958260D01*
X19545450Y-3792710D02*
X19585450Y-3832710D01*
X19585450Y-3792710D02*
X19545450Y-3832710D01*
X19672620Y-3787460D02*
X19712620Y-3827460D01*
X19712620Y-3787460D02*
X19672620Y-3827460D01*
X19695480Y-4163380D02*
X19735480Y-4203380D01*
X19735480Y-4163380D02*
X19695480Y-4203380D01*
X19703100Y-5242880D02*
X19743100Y-5282880D01*
X19743100Y-5242880D02*
X19703100Y-5282880D01*
X19799620Y-9400860D02*
X19839620Y-9440860D01*
X19839620Y-9400860D02*
X19799620Y-9440860D01*
X19974200Y-5867720D02*
X20014200Y-5907720D01*
X20014200Y-5867720D02*
X19974200Y-5907720D01*
X20289840Y-7043740D02*
X20329840Y-7083740D01*
X20329840Y-7043740D02*
X20289840Y-7083740D01*
X20290450Y-8234500D02*
X20330450Y-8274500D01*
X20330450Y-8234500D02*
X20290450Y-8274500D01*
X20310160Y-4686620D02*
X20350160Y-4726620D01*
X20350160Y-4686620D02*
X20310160Y-4726620D01*
X20426500Y-6583500D02*
X20466500Y-6623500D01*
X20466500Y-6583500D02*
X20426500Y-6623500D01*
X20471140Y-3720460D02*
X20511140Y-3760460D01*
X20511140Y-3720460D02*
X20471140Y-3760460D01*
X20556540Y-10175560D02*
X20596540Y-10215560D01*
X20596540Y-10175560D02*
X20556540Y-10215560D01*
X20581940Y-3830640D02*
X20621940Y-3870640D01*
X20621940Y-3830640D02*
X20581940Y-3870640D01*
X20760000Y-2840000D02*
X20800000Y-2880000D01*
X20800000Y-2840000D02*
X20760000Y-2880000D01*
X20886000Y-4060450D02*
X20926000Y-4100450D01*
X20926000Y-4060450D02*
X20886000Y-4100450D01*
X20902750Y-8488500D02*
X20942750Y-8528500D01*
X20942750Y-8488500D02*
X20902750Y-8528500D01*
X20995675Y-11694765D02*
X21035675Y-11734765D01*
X21035675Y-11694765D02*
X20995675Y-11734765D01*
X21258000Y-1011000D02*
X21298000Y-1051000D01*
X21298000Y-1011000D02*
X21258000Y-1051000D01*
X21379000Y-4678500D02*
X21419000Y-4718500D01*
X21419000Y-4678500D02*
X21379000Y-4718500D01*
X21379000Y-12298500D02*
X21419000Y-12338500D01*
X21419000Y-12298500D02*
X21379000Y-12338500D01*
X21552220Y-11216960D02*
X21592220Y-11256960D01*
X21592220Y-11216960D02*
X21552220Y-11256960D01*
X21575080Y-10574340D02*
X21615080Y-10614340D01*
X21615080Y-10574340D02*
X21575080Y-10614340D01*
X21829080Y-3678240D02*
X21869080Y-3718240D01*
X21869080Y-3678240D02*
X21829080Y-3718240D01*
X22009420Y-9751380D02*
X22049420Y-9791380D01*
X22049420Y-9751380D02*
X22009420Y-9791380D01*
X22011960Y-8895400D02*
X22051960Y-8935400D01*
X22051960Y-8895400D02*
X22011960Y-8935400D01*
X22331500Y-6583500D02*
X22371500Y-6623500D01*
X22371500Y-6583500D02*
X22331500Y-6623500D01*
X22436140Y-3866200D02*
X22476140Y-3906200D01*
X22476140Y-3866200D02*
X22436140Y-3906200D01*
X22451380Y-11458260D02*
X22491380Y-11498260D01*
X22491380Y-11458260D02*
X22451380Y-11498260D01*
X22536320Y-3988000D02*
X22576320Y-4028000D01*
X22576320Y-3988000D02*
X22536320Y-4028000D01*
X22606433Y-4060450D02*
X22646433Y-4100450D01*
X22646433Y-4060450D02*
X22606433Y-4100450D01*
X22671700Y-4658020D02*
X22711700Y-4698020D01*
X22711700Y-4658020D02*
X22671700Y-4698020D01*
X22682520Y-3713800D02*
X22722520Y-3753800D01*
X22722520Y-3713800D02*
X22682520Y-3753800D01*
X22682520Y-4130360D02*
X22722520Y-4170360D01*
X22722520Y-4130360D02*
X22682520Y-4170360D01*
X22771420Y-3096580D02*
X22811420Y-3136580D01*
X22811420Y-3096580D02*
X22771420Y-3136580D01*
X22807750Y-8488500D02*
X22847750Y-8528500D01*
X22847750Y-8488500D02*
X22807750Y-8528500D01*
X22824760Y-3899220D02*
X22864760Y-3939220D01*
X22864760Y-3899220D02*
X22824760Y-3939220D01*
X23086380Y-3210880D02*
X23126380Y-3250880D01*
X23126380Y-3210880D02*
X23086380Y-3250880D01*
X23086380Y-3561400D02*
X23126380Y-3601400D01*
X23126380Y-3561400D02*
X23086380Y-3601400D01*
X23284000Y-4678500D02*
X23324000Y-4718500D01*
X23324000Y-4678500D02*
X23284000Y-4718500D01*
X23289580Y-3902970D02*
X23329580Y-3942970D01*
X23329580Y-3902970D02*
X23289580Y-3942970D01*
X23401340Y-4057910D02*
X23441340Y-4097910D01*
X23441340Y-4057910D02*
X23401340Y-4097910D01*
X23472460Y-10531160D02*
X23512460Y-10571160D01*
X23512460Y-10531160D02*
X23472460Y-10571160D01*
X23475000Y-4130360D02*
X23515000Y-4170360D01*
X23515000Y-4130360D02*
X23475000Y-4170360D01*
X23551200Y-3902970D02*
X23591200Y-3942970D01*
X23591200Y-3902970D02*
X23551200Y-3942970D01*
X23609620Y-2789240D02*
X23649620Y-2829240D01*
X23649620Y-2789240D02*
X23609620Y-2829240D01*
X23609620Y-3083880D02*
X23649620Y-3123880D01*
X23649620Y-3083880D02*
X23609620Y-3123880D01*
X23609620Y-3407670D02*
X23649620Y-3447670D01*
X23649620Y-3407670D02*
X23609620Y-3447670D01*
X23734080Y-3541080D02*
X23774080Y-3581080D01*
X23774080Y-3541080D02*
X23734080Y-3581080D01*
X23858352Y-13420000D02*
X23898352Y-13460000D01*
X23898352Y-13420000D02*
X23858352Y-13460000D01*
X23899180Y-8870000D02*
X23939180Y-8910000D01*
X23939180Y-8870000D02*
X23899180Y-8910000D01*
X23899250Y-9584701D02*
X23939250Y-9624701D01*
X23939250Y-9584701D02*
X23899250Y-9624701D01*
X23924580Y-3210880D02*
X23964580Y-3250880D01*
X23964580Y-3210880D02*
X23924580Y-3250880D01*
X23960140Y-3902970D02*
X24000140Y-3942970D01*
X24000140Y-3902970D02*
X23960140Y-3942970D01*
X24049040Y-4196400D02*
X24089040Y-4236400D01*
X24089040Y-4196400D02*
X24049040Y-4236400D01*
X24071444Y-13420000D02*
X24111444Y-13460000D01*
X24111444Y-13420000D02*
X24071444Y-13460000D01*
X24110000Y-2476820D02*
X24150000Y-2516820D01*
X24150000Y-2476820D02*
X24110000Y-2516820D01*
X24119715Y-4123950D02*
X24159715Y-4163950D01*
X24159715Y-4123950D02*
X24119715Y-4163950D01*
X24188740Y-3977960D02*
X24228740Y-4017960D01*
X24228740Y-3977960D02*
X24188740Y-4017960D01*
X24236500Y-6583500D02*
X24276500Y-6623500D01*
X24276500Y-6583500D02*
X24236500Y-6623500D01*
X24284537Y-13420000D02*
X24324537Y-13460000D01*
X24324537Y-13420000D02*
X24284537Y-13460000D01*
X24312000Y-5106920D02*
X24352000Y-5146920D01*
X24352000Y-5106920D02*
X24312000Y-5146920D01*
X24426561Y-6104879D02*
X24466561Y-6144879D01*
X24466561Y-6104879D02*
X24426561Y-6144879D01*
X24497630Y-13420000D02*
X24537630Y-13460000D01*
X24537630Y-13420000D02*
X24497630Y-13460000D01*
X24501160Y-2700340D02*
X24541160Y-2740340D01*
X24541160Y-2700340D02*
X24501160Y-2740340D01*
X24501160Y-2829880D02*
X24541160Y-2869880D01*
X24541160Y-2829880D02*
X24501160Y-2869880D01*
X24501160Y-2956880D02*
X24541160Y-2996880D01*
X24541160Y-2956880D02*
X24501160Y-2996880D01*
X24526560Y-5138740D02*
X24566560Y-5178740D01*
X24566560Y-5138740D02*
X24526560Y-5178740D01*
X24576700Y-4424500D02*
X24616700Y-4464500D01*
X24616700Y-4424500D02*
X24576700Y-4464500D01*
X24605935Y-2700340D02*
X24645935Y-2740340D01*
X24645935Y-2700340D02*
X24605935Y-2740340D01*
X24605935Y-2829880D02*
X24645935Y-2869880D01*
X24645935Y-2829880D02*
X24605935Y-2869880D01*
X24605935Y-2956880D02*
X24645935Y-2996880D01*
X24645935Y-2956880D02*
X24605935Y-2996880D01*
X24710710Y-2700340D02*
X24750710Y-2740340D01*
X24750710Y-2700340D02*
X24710710Y-2740340D01*
X24710710Y-2829880D02*
X24750710Y-2869880D01*
X24750710Y-2829880D02*
X24710710Y-2869880D01*
X24710710Y-2956880D02*
X24750710Y-2996880D01*
X24750710Y-2956880D02*
X24710710Y-2996880D01*
X24710722Y-13420000D02*
X24750722Y-13460000D01*
X24750722Y-13420000D02*
X24710722Y-13460000D01*
X24712750Y-8488500D02*
X24752750Y-8528500D01*
X24752750Y-8488500D02*
X24712750Y-8528500D01*
X24780560Y-3948690D02*
X24820560Y-3988690D01*
X24820560Y-3948690D02*
X24780560Y-3988690D01*
X24815485Y-2700340D02*
X24855485Y-2740340D01*
X24855485Y-2700340D02*
X24815485Y-2740340D01*
X24815485Y-2829880D02*
X24855485Y-2869880D01*
X24855485Y-2829880D02*
X24815485Y-2869880D01*
X24815485Y-2956880D02*
X24855485Y-2996880D01*
X24855485Y-2956880D02*
X24815485Y-2996880D01*
X24817950Y-11809500D02*
X24857950Y-11849500D01*
X24857950Y-11809500D02*
X24817950Y-11849500D01*
X24920260Y-2700340D02*
X24960260Y-2740340D01*
X24960260Y-2700340D02*
X24920260Y-2740340D01*
X24920260Y-2829880D02*
X24960260Y-2869880D01*
X24960260Y-2829880D02*
X24920260Y-2869880D01*
X24920260Y-2956880D02*
X24960260Y-2996880D01*
X24960260Y-2956880D02*
X24920260Y-2996880D01*
X24923815Y-13420000D02*
X24963815Y-13460000D01*
X24963815Y-13420000D02*
X24923815Y-13460000D01*
X24968520Y-4097340D02*
X25008520Y-4137340D01*
X25008520Y-4097340D02*
X24968520Y-4137340D01*
X25136907Y-13420000D02*
X25176907Y-13460000D01*
X25176907Y-13420000D02*
X25136907Y-13460000D01*
X25189500Y-4140520D02*
X25229500Y-4180520D01*
X25229500Y-4140520D02*
X25189500Y-4180520D01*
X25260000Y-2480000D02*
X25300000Y-2520000D01*
X25300000Y-2480000D02*
X25260000Y-2520000D01*
X25319040Y-10523540D02*
X25359040Y-10563540D01*
X25359040Y-10523540D02*
X25319040Y-10563540D01*
X25328000Y-7528880D02*
X25368000Y-7568880D01*
X25368000Y-7528880D02*
X25328000Y-7568880D01*
X25350000Y-13420000D02*
X25390000Y-13460000D01*
X25390000Y-13420000D02*
X25350000Y-13460000D01*
X25563093Y-13420000D02*
X25603093Y-13460000D01*
X25603093Y-13420000D02*
X25563093Y-13460000D01*
X25776185Y-13420000D02*
X25816185Y-13460000D01*
X25816185Y-13420000D02*
X25776185Y-13460000D01*
X25790597Y-1762280D02*
X25830597Y-1802280D01*
X25830597Y-1762280D02*
X25790597Y-1802280D01*
X25790597Y-2138200D02*
X25830597Y-2178200D01*
X25830597Y-2138200D02*
X25790597Y-2178200D01*
X25790597Y-2376960D02*
X25830597Y-2416960D01*
X25830597Y-2376960D02*
X25790597Y-2416960D01*
X25793137Y-1929920D02*
X25833137Y-1969920D01*
X25833137Y-1929920D02*
X25793137Y-1969920D01*
X25793137Y-2570000D02*
X25833137Y-2610000D01*
X25833137Y-2570000D02*
X25793137Y-2610000D01*
X25804180Y-8903020D02*
X25844180Y-8943020D01*
X25844180Y-8903020D02*
X25804180Y-8943020D01*
X25806878Y-820000D02*
X25846878Y-860000D01*
X25846878Y-820000D02*
X25806878Y-860000D01*
X25809418Y-987640D02*
X25849418Y-1027640D01*
X25849418Y-987640D02*
X25809418Y-1027640D01*
X25834660Y-3787460D02*
X25874660Y-3827460D01*
X25874660Y-3787460D02*
X25834660Y-3827460D01*
X25974971Y-1762280D02*
X26014971Y-1802280D01*
X26014971Y-1762280D02*
X25974971Y-1802280D01*
X25974971Y-2138200D02*
X26014971Y-2178200D01*
X26014971Y-2138200D02*
X25974971Y-2178200D01*
X25974971Y-2376960D02*
X26014971Y-2416960D01*
X26014971Y-2376960D02*
X25974971Y-2416960D01*
X25977511Y-1929920D02*
X26017511Y-1969920D01*
X26017511Y-1929920D02*
X25977511Y-1969920D01*
X25977511Y-2570000D02*
X26017511Y-2610000D01*
X26017511Y-2570000D02*
X25977511Y-2610000D01*
X25989278Y-13420000D02*
X26029278Y-13460000D01*
X26029278Y-13420000D02*
X25989278Y-13460000D01*
X25991252Y-820000D02*
X26031252Y-860000D01*
X26031252Y-820000D02*
X25991252Y-860000D01*
X25993792Y-987640D02*
X26033792Y-1027640D01*
X26033792Y-987640D02*
X25993792Y-1027640D01*
X25997415Y-3787460D02*
X26037415Y-3827460D01*
X26037415Y-3787460D02*
X25997415Y-3827460D01*
X26005450Y-7000560D02*
X26045450Y-7040560D01*
X26045450Y-7000560D02*
X26005450Y-7040560D01*
X26005450Y-7475540D02*
X26045450Y-7515540D01*
X26045450Y-7475540D02*
X26005450Y-7515540D01*
X26068283Y-9439017D02*
X26108283Y-9479017D01*
X26108283Y-9439017D02*
X26068283Y-9479017D01*
X26159345Y-1762280D02*
X26199345Y-1802280D01*
X26199345Y-1762280D02*
X26159345Y-1802280D01*
X26159345Y-2138200D02*
X26199345Y-2178200D01*
X26199345Y-2138200D02*
X26159345Y-2178200D01*
X26159345Y-2376960D02*
X26199345Y-2416960D01*
X26199345Y-2376960D02*
X26159345Y-2416960D01*
X26160171Y-3787460D02*
X26200171Y-3827460D01*
X26200171Y-3787460D02*
X26160171Y-3827460D01*
X26161885Y-1929920D02*
X26201885Y-1969920D01*
X26201885Y-1929920D02*
X26161885Y-1969920D01*
X26161885Y-2570000D02*
X26201885Y-2610000D01*
X26201885Y-2570000D02*
X26161885Y-2610000D01*
X26175626Y-820000D02*
X26215626Y-860000D01*
X26215626Y-820000D02*
X26175626Y-860000D01*
X26178166Y-987640D02*
X26218166Y-1027640D01*
X26218166Y-987640D02*
X26178166Y-1027640D01*
X26202370Y-13420000D02*
X26242370Y-13460000D01*
X26242370Y-13420000D02*
X26202370Y-13460000D01*
X26255073Y-8891547D02*
X26295073Y-8931547D01*
X26295073Y-8891547D02*
X26255073Y-8931547D01*
X26322926Y-3787460D02*
X26362926Y-3827460D01*
X26362926Y-3787460D02*
X26322926Y-3827460D01*
X26343719Y-1762280D02*
X26383719Y-1802280D01*
X26383719Y-1762280D02*
X26343719Y-1802280D01*
X26343719Y-2138200D02*
X26383719Y-2178200D01*
X26383719Y-2138200D02*
X26343719Y-2178200D01*
X26343719Y-2376960D02*
X26383719Y-2416960D01*
X26383719Y-2376960D02*
X26343719Y-2416960D01*
X26346259Y-1929920D02*
X26386259Y-1969920D01*
X26386259Y-1929920D02*
X26346259Y-1969920D01*
X26346259Y-2570000D02*
X26386259Y-2610000D01*
X26386259Y-2570000D02*
X26346259Y-2610000D01*
X26360000Y-820000D02*
X26400000Y-860000D01*
X26400000Y-820000D02*
X26360000Y-860000D01*
X26362540Y-987640D02*
X26402540Y-1027640D01*
X26402540Y-987640D02*
X26362540Y-1027640D01*
X26415463Y-13420000D02*
X26455463Y-13460000D01*
X26455463Y-13420000D02*
X26415463Y-13460000D01*
X26485681Y-3787460D02*
X26525681Y-3827460D01*
X26525681Y-3787460D02*
X26485681Y-3827460D01*
X26528093Y-1762280D02*
X26568093Y-1802280D01*
X26568093Y-1762280D02*
X26528093Y-1802280D01*
X26528093Y-2138200D02*
X26568093Y-2178200D01*
X26568093Y-2138200D02*
X26528093Y-2178200D01*
X26528093Y-2376960D02*
X26568093Y-2416960D01*
X26568093Y-2376960D02*
X26528093Y-2416960D01*
X26530633Y-1929920D02*
X26570633Y-1969920D01*
X26570633Y-1929920D02*
X26530633Y-1969920D01*
X26530633Y-2570000D02*
X26570633Y-2610000D01*
X26570633Y-2570000D02*
X26530633Y-2610000D01*
X26544374Y-820000D02*
X26584374Y-860000D01*
X26584374Y-820000D02*
X26544374Y-860000D01*
X26546914Y-987640D02*
X26586914Y-1027640D01*
X26586914Y-987640D02*
X26546914Y-1027640D01*
X26628556Y-13420000D02*
X26668556Y-13460000D01*
X26668556Y-13420000D02*
X26628556Y-13460000D01*
X26648436Y-3787460D02*
X26688436Y-3827460D01*
X26688436Y-3787460D02*
X26648436Y-3827460D01*
X26648773Y-9285247D02*
X26688773Y-9325247D01*
X26688773Y-9285247D02*
X26648773Y-9325247D01*
X26712467Y-1762280D02*
X26752467Y-1802280D01*
X26752467Y-1762280D02*
X26712467Y-1802280D01*
X26712467Y-2138200D02*
X26752467Y-2178200D01*
X26752467Y-2138200D02*
X26712467Y-2178200D01*
X26712467Y-2376960D02*
X26752467Y-2416960D01*
X26752467Y-2376960D02*
X26712467Y-2416960D01*
X26715007Y-1929920D02*
X26755007Y-1969920D01*
X26755007Y-1929920D02*
X26715007Y-1969920D01*
X26715007Y-2570000D02*
X26755007Y-2610000D01*
X26755007Y-2570000D02*
X26715007Y-2610000D01*
X26728748Y-820000D02*
X26768748Y-860000D01*
X26768748Y-820000D02*
X26728748Y-860000D01*
X26731288Y-987640D02*
X26771288Y-1027640D01*
X26771288Y-987640D02*
X26731288Y-1027640D01*
X26811192Y-3787460D02*
X26851192Y-3827460D01*
X26851192Y-3787460D02*
X26811192Y-3827460D01*
X26841648Y-13420000D02*
X26881648Y-13460000D01*
X26881648Y-13420000D02*
X26841648Y-13460000D01*
X26896841Y-1762280D02*
X26936841Y-1802280D01*
X26936841Y-1762280D02*
X26896841Y-1802280D01*
X26896841Y-2138200D02*
X26936841Y-2178200D01*
X26936841Y-2138200D02*
X26896841Y-2178200D01*
X26896841Y-2376960D02*
X26936841Y-2416960D01*
X26936841Y-2376960D02*
X26896841Y-2416960D01*
X26899381Y-1929920D02*
X26939381Y-1969920D01*
X26939381Y-1929920D02*
X26899381Y-1969920D01*
X26899381Y-2570000D02*
X26939381Y-2610000D01*
X26939381Y-2570000D02*
X26899381Y-2610000D01*
X26913122Y-820000D02*
X26953122Y-860000D01*
X26953122Y-820000D02*
X26913122Y-860000D01*
X26915662Y-987640D02*
X26955662Y-1027640D01*
X26955662Y-987640D02*
X26915662Y-1027640D01*
X26973947Y-3787460D02*
X27013947Y-3827460D01*
X27013947Y-3787460D02*
X26973947Y-3827460D01*
X27054741Y-13420000D02*
X27094741Y-13460000D01*
X27094741Y-13420000D02*
X27054741Y-13460000D01*
X27081215Y-1762280D02*
X27121215Y-1802280D01*
X27121215Y-1762280D02*
X27081215Y-1802280D01*
X27081215Y-2138200D02*
X27121215Y-2178200D01*
X27121215Y-2138200D02*
X27081215Y-2178200D01*
X27081215Y-2376960D02*
X27121215Y-2416960D01*
X27121215Y-2376960D02*
X27081215Y-2416960D01*
X27083755Y-1929920D02*
X27123755Y-1969920D01*
X27123755Y-1929920D02*
X27083755Y-1969920D01*
X27083755Y-2570000D02*
X27123755Y-2610000D01*
X27123755Y-2570000D02*
X27083755Y-2610000D01*
X27094000Y-12298500D02*
X27134000Y-12338500D01*
X27134000Y-12298500D02*
X27094000Y-12338500D01*
X27097496Y-820000D02*
X27137496Y-860000D01*
X27137496Y-820000D02*
X27097496Y-860000D01*
X27100036Y-987640D02*
X27140036Y-1027640D01*
X27140036Y-987640D02*
X27100036Y-1027640D01*
X27136702Y-3787460D02*
X27176702Y-3827460D01*
X27176702Y-3787460D02*
X27136702Y-3827460D01*
X27265589Y-1762280D02*
X27305589Y-1802280D01*
X27305589Y-1762280D02*
X27265589Y-1802280D01*
X27265589Y-2138200D02*
X27305589Y-2178200D01*
X27305589Y-2138200D02*
X27265589Y-2178200D01*
X27265589Y-2376960D02*
X27305589Y-2416960D01*
X27305589Y-2376960D02*
X27265589Y-2416960D01*
X27267833Y-13420000D02*
X27307833Y-13460000D01*
X27307833Y-13420000D02*
X27267833Y-13460000D01*
X27268129Y-1929920D02*
X27308129Y-1969920D01*
X27308129Y-1929920D02*
X27268129Y-1969920D01*
X27268129Y-2570000D02*
X27308129Y-2610000D01*
X27308129Y-2570000D02*
X27268129Y-2610000D01*
X27281870Y-820000D02*
X27321870Y-860000D01*
X27321870Y-820000D02*
X27281870Y-860000D01*
X27284410Y-987640D02*
X27324410Y-1027640D01*
X27324410Y-987640D02*
X27284410Y-1027640D01*
X27299458Y-3787460D02*
X27339458Y-3827460D01*
X27339458Y-3787460D02*
X27299458Y-3827460D01*
X27449964Y-1762280D02*
X27489964Y-1802280D01*
X27489964Y-1762280D02*
X27449964Y-1802280D01*
X27449964Y-2138200D02*
X27489964Y-2178200D01*
X27489964Y-2138200D02*
X27449964Y-2178200D01*
X27449964Y-2376960D02*
X27489964Y-2416960D01*
X27489964Y-2376960D02*
X27449964Y-2416960D01*
X27452504Y-1929920D02*
X27492504Y-1969920D01*
X27492504Y-1929920D02*
X27452504Y-1969920D01*
X27452504Y-2570000D02*
X27492504Y-2610000D01*
X27492504Y-2570000D02*
X27452504Y-2610000D01*
X27462213Y-3787460D02*
X27502213Y-3827460D01*
X27502213Y-3787460D02*
X27462213Y-3827460D01*
X27466245Y-820000D02*
X27506245Y-860000D01*
X27506245Y-820000D02*
X27466245Y-860000D01*
X27468785Y-987640D02*
X27508785Y-1027640D01*
X27508785Y-987640D02*
X27468785Y-1027640D01*
X27480926Y-13420000D02*
X27520926Y-13460000D01*
X27520926Y-13420000D02*
X27480926Y-13460000D01*
X27624968Y-3787460D02*
X27664968Y-3827460D01*
X27664968Y-3787460D02*
X27624968Y-3827460D01*
X27634338Y-1762280D02*
X27674338Y-1802280D01*
X27674338Y-1762280D02*
X27634338Y-1802280D01*
X27634338Y-2138200D02*
X27674338Y-2178200D01*
X27674338Y-2138200D02*
X27634338Y-2178200D01*
X27634338Y-2376960D02*
X27674338Y-2416960D01*
X27674338Y-2376960D02*
X27634338Y-2416960D01*
X27636878Y-1929920D02*
X27676878Y-1969920D01*
X27676878Y-1929920D02*
X27636878Y-1969920D01*
X27636878Y-2570000D02*
X27676878Y-2610000D01*
X27676878Y-2570000D02*
X27636878Y-2610000D01*
X27650619Y-820000D02*
X27690619Y-860000D01*
X27690619Y-820000D02*
X27650619Y-860000D01*
X27653159Y-987640D02*
X27693159Y-1027640D01*
X27693159Y-987640D02*
X27653159Y-1027640D01*
X27694019Y-13420000D02*
X27734019Y-13460000D01*
X27734019Y-13420000D02*
X27694019Y-13460000D01*
X27787724Y-3787460D02*
X27827724Y-3827460D01*
X27827724Y-3787460D02*
X27787724Y-3827460D01*
X27808375Y-8488500D02*
X27848375Y-8528500D01*
X27848375Y-8488500D02*
X27808375Y-8528500D01*
X27818712Y-1762280D02*
X27858712Y-1802280D01*
X27858712Y-1762280D02*
X27818712Y-1802280D01*
X27818712Y-2138200D02*
X27858712Y-2178200D01*
X27858712Y-2138200D02*
X27818712Y-2178200D01*
X27818712Y-2376960D02*
X27858712Y-2416960D01*
X27858712Y-2376960D02*
X27818712Y-2416960D01*
X27821252Y-1929920D02*
X27861252Y-1969920D01*
X27861252Y-1929920D02*
X27821252Y-1969920D01*
X27821252Y-2570000D02*
X27861252Y-2610000D01*
X27861252Y-2570000D02*
X27821252Y-2610000D01*
X27834993Y-820000D02*
X27874993Y-860000D01*
X27874993Y-820000D02*
X27834993Y-860000D01*
X27837533Y-987640D02*
X27877533Y-1027640D01*
X27877533Y-987640D02*
X27837533Y-1027640D01*
X27907112Y-13420000D02*
X27947112Y-13460000D01*
X27947112Y-13420000D02*
X27907112Y-13460000D01*
X27950480Y-3787460D02*
X27990480Y-3827460D01*
X27990480Y-3787460D02*
X27950480Y-3827460D01*
X28003086Y-1762280D02*
X28043086Y-1802280D01*
X28043086Y-1762280D02*
X28003086Y-1802280D01*
X28003086Y-2138200D02*
X28043086Y-2178200D01*
X28043086Y-2138200D02*
X28003086Y-2178200D01*
X28003086Y-2376960D02*
X28043086Y-2416960D01*
X28043086Y-2376960D02*
X28003086Y-2416960D01*
X28005626Y-1929920D02*
X28045626Y-1969920D01*
X28045626Y-1929920D02*
X28005626Y-1969920D01*
X28005626Y-2570000D02*
X28045626Y-2610000D01*
X28045626Y-2570000D02*
X28005626Y-2610000D01*
X28019367Y-820000D02*
X28059367Y-860000D01*
X28059367Y-820000D02*
X28019367Y-860000D01*
X28021907Y-987640D02*
X28061907Y-1027640D01*
X28061907Y-987640D02*
X28021907Y-1027640D01*
X28187460Y-1762280D02*
X28227460Y-1802280D01*
X28227460Y-1762280D02*
X28187460Y-1802280D01*
X28187460Y-2138200D02*
X28227460Y-2178200D01*
X28227460Y-2138200D02*
X28187460Y-2178200D01*
X28187460Y-2376960D02*
X28227460Y-2416960D01*
X28227460Y-2376960D02*
X28187460Y-2416960D01*
X28190000Y-1929920D02*
X28230000Y-1969920D01*
X28230000Y-1929920D02*
X28190000Y-1969920D01*
X28190000Y-2570000D02*
X28230000Y-2610000D01*
X28230000Y-2570000D02*
X28190000Y-2610000D01*
X28203741Y-820000D02*
X28243741Y-860000D01*
X28243741Y-820000D02*
X28203741Y-860000D01*
X28206281Y-987640D02*
X28246281Y-1027640D01*
X28246281Y-987640D02*
X28206281Y-1027640D01*
X28371834Y-1762280D02*
X28411834Y-1802280D01*
X28411834Y-1762280D02*
X28371834Y-1802280D01*
X28371834Y-2138200D02*
X28411834Y-2178200D01*
X28411834Y-2138200D02*
X28371834Y-2178200D01*
X28371834Y-2376960D02*
X28411834Y-2416960D01*
X28411834Y-2376960D02*
X28371834Y-2416960D01*
X28374374Y-1929920D02*
X28414374Y-1969920D01*
X28414374Y-1929920D02*
X28374374Y-1969920D01*
X28374374Y-2570000D02*
X28414374Y-2610000D01*
X28414374Y-2570000D02*
X28374374Y-2610000D01*
X28388115Y-820000D02*
X28428115Y-860000D01*
X28428115Y-820000D02*
X28388115Y-860000D01*
X28390655Y-987640D02*
X28430655Y-1027640D01*
X28430655Y-987640D02*
X28390655Y-1027640D01*
X28522750Y-6583500D02*
X28562750Y-6623500D01*
X28562750Y-6583500D02*
X28522750Y-6623500D01*
X28556208Y-1762280D02*
X28596208Y-1802280D01*
X28596208Y-1762280D02*
X28556208Y-1802280D01*
X28556208Y-2138200D02*
X28596208Y-2178200D01*
X28596208Y-2138200D02*
X28556208Y-2178200D01*
X28556208Y-2376960D02*
X28596208Y-2416960D01*
X28596208Y-2376960D02*
X28556208Y-2416960D01*
X28558748Y-1929920D02*
X28598748Y-1969920D01*
X28598748Y-1929920D02*
X28558748Y-1969920D01*
X28558748Y-2570000D02*
X28598748Y-2610000D01*
X28598748Y-2570000D02*
X28558748Y-2610000D01*
X28572489Y-820000D02*
X28612489Y-860000D01*
X28612489Y-820000D02*
X28572489Y-860000D01*
X28575029Y-987640D02*
X28615029Y-1027640D01*
X28615029Y-987640D02*
X28575029Y-1027640D01*
X28740582Y-1762280D02*
X28780582Y-1802280D01*
X28780582Y-1762280D02*
X28740582Y-1802280D01*
X28740582Y-2138200D02*
X28780582Y-2178200D01*
X28780582Y-2138200D02*
X28740582Y-2178200D01*
X28740582Y-2376960D02*
X28780582Y-2416960D01*
X28780582Y-2376960D02*
X28740582Y-2416960D01*
X28743122Y-1929920D02*
X28783122Y-1969920D01*
X28783122Y-1929920D02*
X28743122Y-1969920D01*
X28743122Y-2570000D02*
X28783122Y-2610000D01*
X28783122Y-2570000D02*
X28743122Y-2610000D01*
X28756863Y-820000D02*
X28796863Y-860000D01*
X28796863Y-820000D02*
X28756863Y-860000D01*
X28759403Y-987640D02*
X28799403Y-1027640D01*
X28799403Y-987640D02*
X28759403Y-1027640D01*
X28924957Y-1762280D02*
X28964957Y-1802280D01*
X28964957Y-1762280D02*
X28924957Y-1802280D01*
X28924957Y-2138200D02*
X28964957Y-2178200D01*
X28964957Y-2138200D02*
X28924957Y-2178200D01*
X28924957Y-2376960D02*
X28964957Y-2416960D01*
X28964957Y-2376960D02*
X28924957Y-2416960D01*
X28927497Y-1929920D02*
X28967497Y-1969920D01*
X28967497Y-1929920D02*
X28927497Y-1969920D01*
X28927497Y-2570000D02*
X28967497Y-2610000D01*
X28967497Y-2570000D02*
X28927497Y-2610000D01*
X28941238Y-820000D02*
X28981238Y-860000D01*
X28981238Y-820000D02*
X28941238Y-860000D01*
X28943778Y-987640D02*
X28983778Y-1027640D01*
X28983778Y-987640D02*
X28943778Y-1027640D01*
X30150120Y-7265256D02*
X30190120Y-7305256D01*
X30190120Y-7265256D02*
X30150120Y-7305256D01*
X30150120Y-7449072D02*
X30190120Y-7489072D01*
X30190120Y-7449072D02*
X30150120Y-7489072D01*
X30150120Y-7632887D02*
X30190120Y-7672887D01*
X30190120Y-7632887D02*
X30150120Y-7672887D01*
X30150120Y-7816703D02*
X30190120Y-7856703D01*
X30190120Y-7816703D02*
X30150120Y-7856703D01*
X30150120Y-8000519D02*
X30190120Y-8040519D01*
X30190120Y-8000519D02*
X30150120Y-8040519D01*
X30150120Y-8184334D02*
X30190120Y-8224334D01*
X30190120Y-8184334D02*
X30150120Y-8224334D01*
X30150120Y-8368150D02*
X30190120Y-8408150D01*
X30190120Y-8368150D02*
X30150120Y-8408150D01*
X30150120Y-8551966D02*
X30190120Y-8591966D01*
X30190120Y-8551966D02*
X30150120Y-8591966D01*
X30150120Y-8735782D02*
X30190120Y-8775782D01*
X30190120Y-8735782D02*
X30150120Y-8775782D01*
X30150120Y-8919597D02*
X30190120Y-8959597D01*
X30190120Y-8919597D02*
X30150120Y-8959597D01*
X30150120Y-9103413D02*
X30190120Y-9143413D01*
X30190120Y-9103413D02*
X30150120Y-9143413D01*
X30150120Y-9287229D02*
X30190120Y-9327229D01*
X30190120Y-9287229D02*
X30150120Y-9327229D01*
X30150120Y-9471044D02*
X30190120Y-9511044D01*
X30190120Y-9471044D02*
X30150120Y-9511044D01*
X30150120Y-9654860D02*
X30190120Y-9694860D01*
X30190120Y-9654860D02*
X30150120Y-9694860D01*
X30150120Y-9838676D02*
X30190120Y-9878676D01*
X30190120Y-9838676D02*
X30150120Y-9878676D01*
X30150120Y-10022491D02*
X30190120Y-10062491D01*
X30190120Y-10022491D02*
X30150120Y-10062491D01*
X30150120Y-10206307D02*
X30190120Y-10246307D01*
X30190120Y-10206307D02*
X30150120Y-10246307D01*
X30150120Y-10390123D02*
X30190120Y-10430123D01*
X30190120Y-10390123D02*
X30150120Y-10430123D01*
X30150120Y-10573939D02*
X30190120Y-10613939D01*
X30190120Y-10573939D02*
X30150120Y-10613939D01*
X30150120Y-10757756D02*
X30190120Y-10797756D01*
X30190120Y-10757756D02*
X30150120Y-10797756D01*
X30772420Y-7271940D02*
X30812420Y-7311940D01*
X30812420Y-7271940D02*
X30772420Y-7311940D01*
X30772420Y-7455756D02*
X30812420Y-7495756D01*
X30812420Y-7455756D02*
X30772420Y-7495756D01*
X30772420Y-7639572D02*
X30812420Y-7679572D01*
X30812420Y-7639572D02*
X30772420Y-7679572D01*
X30772420Y-7823387D02*
X30812420Y-7863387D01*
X30812420Y-7823387D02*
X30772420Y-7863387D01*
X30772420Y-8007203D02*
X30812420Y-8047203D01*
X30812420Y-8007203D02*
X30772420Y-8047203D01*
X30772420Y-8191019D02*
X30812420Y-8231019D01*
X30812420Y-8191019D02*
X30772420Y-8231019D01*
X30772420Y-8374834D02*
X30812420Y-8414834D01*
X30812420Y-8374834D02*
X30772420Y-8414834D01*
X30772420Y-8558650D02*
X30812420Y-8598650D01*
X30812420Y-8558650D02*
X30772420Y-8598650D01*
X30772420Y-8742466D02*
X30812420Y-8782466D01*
X30812420Y-8742466D02*
X30772420Y-8782466D01*
X30772420Y-8926282D02*
X30812420Y-8966282D01*
X30812420Y-8926282D02*
X30772420Y-8966282D01*
X30772420Y-9110097D02*
X30812420Y-9150097D01*
X30812420Y-9110097D02*
X30772420Y-9150097D01*
X30772420Y-9293913D02*
X30812420Y-9333913D01*
X30812420Y-9293913D02*
X30772420Y-9333913D01*
X30772420Y-9477729D02*
X30812420Y-9517729D01*
X30812420Y-9477729D02*
X30772420Y-9517729D01*
X30772420Y-9661544D02*
X30812420Y-9701544D01*
X30812420Y-9661544D02*
X30772420Y-9701544D01*
X30772420Y-9845360D02*
X30812420Y-9885360D01*
X30812420Y-9845360D02*
X30772420Y-9885360D01*
X30772420Y-10029176D02*
X30812420Y-10069176D01*
X30812420Y-10029176D02*
X30772420Y-10069176D01*
X30772420Y-10212991D02*
X30812420Y-10252991D01*
X30812420Y-10212991D02*
X30772420Y-10252991D01*
X30772420Y-10396807D02*
X30812420Y-10436807D01*
X30812420Y-10396807D02*
X30772420Y-10436807D01*
X30772420Y-10580623D02*
X30812420Y-10620623D01*
X30812420Y-10580623D02*
X30772420Y-10620623D01*
X30772420Y-10764440D02*
X30812420Y-10804440D01*
X30812420Y-10764440D02*
X30772420Y-10804440D01*
D13*
X607500Y-9717500D02*
G75*
G03*
X607500Y-9717500I-40000J0D01*
G01*
X958250Y-1020000D02*
G75*
G03*
X958250Y-1020000I-40000J0D01*
G01*
X1623500Y-9717500D02*
G75*
G03*
X1623500Y-9717500I-40000J0D01*
G01*
X1974250Y-1020000D02*
G75*
G03*
X1974250Y-1020000I-40000J0D01*
G01*
X2440000Y-7986500D02*
G75*
G03*
X2440000Y-7986500I-40000J0D01*
G01*
X2440000Y-9002500D02*
G75*
G03*
X2440000Y-9002500I-40000J0D01*
G01*
X4712500Y-6297000D02*
G75*
G03*
X4712500Y-6297000I-40000J0D01*
G01*
X4712500Y-7313000D02*
G75*
G03*
X4712500Y-7313000I-40000J0D01*
G01*
X5005700Y-7751500D02*
G75*
G03*
X5005700Y-7751500I-40000J0D01*
G01*
X5005700Y-8767500D02*
G75*
G03*
X5005700Y-8767500I-40000J0D01*
G01*
X8626000Y-1100000D02*
G75*
G03*
X8626000Y-1100000I-40000J0D01*
G01*
X8626000Y-1450000D02*
G75*
G03*
X8626000Y-1450000I-40000J0D01*
G01*
X8626000Y-1800000D02*
G75*
G03*
X8626000Y-1800000I-40000J0D01*
G01*
X8626000Y-2150000D02*
G75*
G03*
X8626000Y-2150000I-40000J0D01*
G01*
X8626000Y-2500000D02*
G75*
G03*
X8626000Y-2500000I-40000J0D01*
G01*
X8626000Y-2850000D02*
G75*
G03*
X8626000Y-2850000I-40000J0D01*
G01*
X9388000Y-1100000D02*
G75*
G03*
X9388000Y-1100000I-40000J0D01*
G01*
X9388000Y-1450000D02*
G75*
G03*
X9388000Y-1450000I-40000J0D01*
G01*
X9388000Y-1800000D02*
G75*
G03*
X9388000Y-1800000I-40000J0D01*
G01*
X9388000Y-2150000D02*
G75*
G03*
X9388000Y-2150000I-40000J0D01*
G01*
X9388000Y-2500000D02*
G75*
G03*
X9388000Y-2500000I-40000J0D01*
G01*
X9388000Y-2850000D02*
G75*
G03*
X9388000Y-2850000I-40000J0D01*
G01*
X9698000Y-1100000D02*
G75*
G03*
X9698000Y-1100000I-40000J0D01*
G01*
X9698000Y-1450000D02*
G75*
G03*
X9698000Y-1450000I-40000J0D01*
G01*
X9698000Y-1800000D02*
G75*
G03*
X9698000Y-1800000I-40000J0D01*
G01*
X9698000Y-2150000D02*
G75*
G03*
X9698000Y-2150000I-40000J0D01*
G01*
X9698000Y-2500000D02*
G75*
G03*
X9698000Y-2500000I-40000J0D01*
G01*
X9698000Y-2850000D02*
G75*
G03*
X9698000Y-2850000I-40000J0D01*
G01*
X10460000Y-1100000D02*
G75*
G03*
X10460000Y-1100000I-40000J0D01*
G01*
X10460000Y-1450000D02*
G75*
G03*
X10460000Y-1450000I-40000J0D01*
G01*
X10460000Y-1800000D02*
G75*
G03*
X10460000Y-1800000I-40000J0D01*
G01*
X10460000Y-2150000D02*
G75*
G03*
X10460000Y-2150000I-40000J0D01*
G01*
X10460000Y-2500000D02*
G75*
G03*
X10460000Y-2500000I-40000J0D01*
G01*
X10460000Y-2850000D02*
G75*
G03*
X10460000Y-2850000I-40000J0D01*
G01*
X10770000Y-1100000D02*
G75*
G03*
X10770000Y-1100000I-40000J0D01*
G01*
X10770000Y-1450000D02*
G75*
G03*
X10770000Y-1450000I-40000J0D01*
G01*
X10770000Y-1800000D02*
G75*
G03*
X10770000Y-1800000I-40000J0D01*
G01*
X10770000Y-2150000D02*
G75*
G03*
X10770000Y-2150000I-40000J0D01*
G01*
X10770000Y-2500000D02*
G75*
G03*
X10770000Y-2500000I-40000J0D01*
G01*
X10770000Y-2850000D02*
G75*
G03*
X10770000Y-2850000I-40000J0D01*
G01*
X11532000Y-1100000D02*
G75*
G03*
X11532000Y-1100000I-40000J0D01*
G01*
X11532000Y-1450000D02*
G75*
G03*
X11532000Y-1450000I-40000J0D01*
G01*
X11532000Y-1800000D02*
G75*
G03*
X11532000Y-1800000I-40000J0D01*
G01*
X11532000Y-2150000D02*
G75*
G03*
X11532000Y-2150000I-40000J0D01*
G01*
X11532000Y-2500000D02*
G75*
G03*
X11532000Y-2500000I-40000J0D01*
G01*
X11532000Y-2850000D02*
G75*
G03*
X11532000Y-2850000I-40000J0D01*
G01*
X11842000Y-1100000D02*
G75*
G03*
X11842000Y-1100000I-40000J0D01*
G01*
X11842000Y-1450000D02*
G75*
G03*
X11842000Y-1450000I-40000J0D01*
G01*
X11842000Y-1800000D02*
G75*
G03*
X11842000Y-1800000I-40000J0D01*
G01*
X11842000Y-2150000D02*
G75*
G03*
X11842000Y-2150000I-40000J0D01*
G01*
X11842000Y-2500000D02*
G75*
G03*
X11842000Y-2500000I-40000J0D01*
G01*
X11842000Y-2850000D02*
G75*
G03*
X11842000Y-2850000I-40000J0D01*
G01*
X12604000Y-1100000D02*
G75*
G03*
X12604000Y-1100000I-40000J0D01*
G01*
X12604000Y-1450000D02*
G75*
G03*
X12604000Y-1450000I-40000J0D01*
G01*
X12604000Y-1800000D02*
G75*
G03*
X12604000Y-1800000I-40000J0D01*
G01*
X12604000Y-2150000D02*
G75*
G03*
X12604000Y-2150000I-40000J0D01*
G01*
X12604000Y-2500000D02*
G75*
G03*
X12604000Y-2500000I-40000J0D01*
G01*
X12604000Y-2850000D02*
G75*
G03*
X12604000Y-2850000I-40000J0D01*
G01*
X12914000Y-1100000D02*
G75*
G03*
X12914000Y-1100000I-40000J0D01*
G01*
X12914000Y-1450000D02*
G75*
G03*
X12914000Y-1450000I-40000J0D01*
G01*
X12914000Y-1800000D02*
G75*
G03*
X12914000Y-1800000I-40000J0D01*
G01*
X12914000Y-2150000D02*
G75*
G03*
X12914000Y-2150000I-40000J0D01*
G01*
X12914000Y-2500000D02*
G75*
G03*
X12914000Y-2500000I-40000J0D01*
G01*
X12914000Y-2850000D02*
G75*
G03*
X12914000Y-2850000I-40000J0D01*
G01*
X13676000Y-1100000D02*
G75*
G03*
X13676000Y-1100000I-40000J0D01*
G01*
X13676000Y-1450000D02*
G75*
G03*
X13676000Y-1450000I-40000J0D01*
G01*
X13676000Y-1800000D02*
G75*
G03*
X13676000Y-1800000I-40000J0D01*
G01*
X13676000Y-2150000D02*
G75*
G03*
X13676000Y-2150000I-40000J0D01*
G01*
X13676000Y-2500000D02*
G75*
G03*
X13676000Y-2500000I-40000J0D01*
G01*
X13676000Y-2850000D02*
G75*
G03*
X13676000Y-2850000I-40000J0D01*
G01*
X13986000Y-1100000D02*
G75*
G03*
X13986000Y-1100000I-40000J0D01*
G01*
X13986000Y-1450000D02*
G75*
G03*
X13986000Y-1450000I-40000J0D01*
G01*
X13986000Y-1800000D02*
G75*
G03*
X13986000Y-1800000I-40000J0D01*
G01*
X13986000Y-2150000D02*
G75*
G03*
X13986000Y-2150000I-40000J0D01*
G01*
X13986000Y-2500000D02*
G75*
G03*
X13986000Y-2500000I-40000J0D01*
G01*
X13986000Y-2850000D02*
G75*
G03*
X13986000Y-2850000I-40000J0D01*
G01*
X14748000Y-1100000D02*
G75*
G03*
X14748000Y-1100000I-40000J0D01*
G01*
X14748000Y-1450000D02*
G75*
G03*
X14748000Y-1450000I-40000J0D01*
G01*
X14748000Y-1800000D02*
G75*
G03*
X14748000Y-1800000I-40000J0D01*
G01*
X14748000Y-2150000D02*
G75*
G03*
X14748000Y-2150000I-40000J0D01*
G01*
X14748000Y-2500000D02*
G75*
G03*
X14748000Y-2500000I-40000J0D01*
G01*
X14748000Y-2850000D02*
G75*
G03*
X14748000Y-2850000I-40000J0D01*
G01*
X15058000Y-1100000D02*
G75*
G03*
X15058000Y-1100000I-40000J0D01*
G01*
X15058000Y-1450000D02*
G75*
G03*
X15058000Y-1450000I-40000J0D01*
G01*
X15058000Y-1800000D02*
G75*
G03*
X15058000Y-1800000I-40000J0D01*
G01*
X15058000Y-2150000D02*
G75*
G03*
X15058000Y-2150000I-40000J0D01*
G01*
X15058000Y-2500000D02*
G75*
G03*
X15058000Y-2500000I-40000J0D01*
G01*
X15058000Y-2850000D02*
G75*
G03*
X15058000Y-2850000I-40000J0D01*
G01*
X15820000Y-1100000D02*
G75*
G03*
X15820000Y-1100000I-40000J0D01*
G01*
X15820000Y-1450000D02*
G75*
G03*
X15820000Y-1450000I-40000J0D01*
G01*
X15820000Y-1800000D02*
G75*
G03*
X15820000Y-1800000I-40000J0D01*
G01*
X15820000Y-2150000D02*
G75*
G03*
X15820000Y-2150000I-40000J0D01*
G01*
X15820000Y-2500000D02*
G75*
G03*
X15820000Y-2500000I-40000J0D01*
G01*
X15820000Y-2850000D02*
G75*
G03*
X15820000Y-2850000I-40000J0D01*
G01*
X16130000Y-1100000D02*
G75*
G03*
X16130000Y-1100000I-40000J0D01*
G01*
X16130000Y-1450000D02*
G75*
G03*
X16130000Y-1450000I-40000J0D01*
G01*
X16130000Y-1800000D02*
G75*
G03*
X16130000Y-1800000I-40000J0D01*
G01*
X16130000Y-2150000D02*
G75*
G03*
X16130000Y-2150000I-40000J0D01*
G01*
X16130000Y-2500000D02*
G75*
G03*
X16130000Y-2500000I-40000J0D01*
G01*
X16130000Y-2850000D02*
G75*
G03*
X16130000Y-2850000I-40000J0D01*
G01*
X16892000Y-1100000D02*
G75*
G03*
X16892000Y-1100000I-40000J0D01*
G01*
X16892000Y-1450000D02*
G75*
G03*
X16892000Y-1450000I-40000J0D01*
G01*
X16892000Y-1800000D02*
G75*
G03*
X16892000Y-1800000I-40000J0D01*
G01*
X16892000Y-2150000D02*
G75*
G03*
X16892000Y-2150000I-40000J0D01*
G01*
X16892000Y-2500000D02*
G75*
G03*
X16892000Y-2500000I-40000J0D01*
G01*
X16892000Y-2850000D02*
G75*
G03*
X16892000Y-2850000I-40000J0D01*
G01*
X17202000Y-1100000D02*
G75*
G03*
X17202000Y-1100000I-40000J0D01*
G01*
X17202000Y-1450000D02*
G75*
G03*
X17202000Y-1450000I-40000J0D01*
G01*
X17202000Y-1800000D02*
G75*
G03*
X17202000Y-1800000I-40000J0D01*
G01*
X17202000Y-2150000D02*
G75*
G03*
X17202000Y-2150000I-40000J0D01*
G01*
X17202000Y-2500000D02*
G75*
G03*
X17202000Y-2500000I-40000J0D01*
G01*
X17202000Y-2850000D02*
G75*
G03*
X17202000Y-2850000I-40000J0D01*
G01*
X17964000Y-1100000D02*
G75*
G03*
X17964000Y-1100000I-40000J0D01*
G01*
X17964000Y-1450000D02*
G75*
G03*
X17964000Y-1450000I-40000J0D01*
G01*
X17964000Y-1800000D02*
G75*
G03*
X17964000Y-1800000I-40000J0D01*
G01*
X17964000Y-2150000D02*
G75*
G03*
X17964000Y-2150000I-40000J0D01*
G01*
X17964000Y-2500000D02*
G75*
G03*
X17964000Y-2500000I-40000J0D01*
G01*
X17964000Y-2850000D02*
G75*
G03*
X17964000Y-2850000I-40000J0D01*
G01*
X18274000Y-1100000D02*
G75*
G03*
X18274000Y-1100000I-40000J0D01*
G01*
X18274000Y-1450000D02*
G75*
G03*
X18274000Y-1450000I-40000J0D01*
G01*
X18274000Y-1800000D02*
G75*
G03*
X18274000Y-1800000I-40000J0D01*
G01*
X18274000Y-2150000D02*
G75*
G03*
X18274000Y-2150000I-40000J0D01*
G01*
X18274000Y-2500000D02*
G75*
G03*
X18274000Y-2500000I-40000J0D01*
G01*
X18274000Y-2850000D02*
G75*
G03*
X18274000Y-2850000I-40000J0D01*
G01*
X19036000Y-1100000D02*
G75*
G03*
X19036000Y-1100000I-40000J0D01*
G01*
X19036000Y-1450000D02*
G75*
G03*
X19036000Y-1450000I-40000J0D01*
G01*
X19036000Y-1800000D02*
G75*
G03*
X19036000Y-1800000I-40000J0D01*
G01*
X19036000Y-2150000D02*
G75*
G03*
X19036000Y-2150000I-40000J0D01*
G01*
X19036000Y-2500000D02*
G75*
G03*
X19036000Y-2500000I-40000J0D01*
G01*
X19036000Y-2850000D02*
G75*
G03*
X19036000Y-2850000I-40000J0D01*
G01*
X19346000Y-1100000D02*
G75*
G03*
X19346000Y-1100000I-40000J0D01*
G01*
X19346000Y-1450000D02*
G75*
G03*
X19346000Y-1450000I-40000J0D01*
G01*
X19346000Y-1800000D02*
G75*
G03*
X19346000Y-1800000I-40000J0D01*
G01*
X19346000Y-2150000D02*
G75*
G03*
X19346000Y-2150000I-40000J0D01*
G01*
X19346000Y-2500000D02*
G75*
G03*
X19346000Y-2500000I-40000J0D01*
G01*
X19346000Y-2850000D02*
G75*
G03*
X19346000Y-2850000I-40000J0D01*
G01*
X20108000Y-1100000D02*
G75*
G03*
X20108000Y-1100000I-40000J0D01*
G01*
X20108000Y-1450000D02*
G75*
G03*
X20108000Y-1450000I-40000J0D01*
G01*
X20108000Y-1800000D02*
G75*
G03*
X20108000Y-1800000I-40000J0D01*
G01*
X20108000Y-2150000D02*
G75*
G03*
X20108000Y-2150000I-40000J0D01*
G01*
X20108000Y-2500000D02*
G75*
G03*
X20108000Y-2500000I-40000J0D01*
G01*
X20108000Y-2850000D02*
G75*
G03*
X20108000Y-2850000I-40000J0D01*
G01*
X20418000Y-1100000D02*
G75*
G03*
X20418000Y-1100000I-40000J0D01*
G01*
X20418000Y-1450000D02*
G75*
G03*
X20418000Y-1450000I-40000J0D01*
G01*
X20418000Y-1800000D02*
G75*
G03*
X20418000Y-1800000I-40000J0D01*
G01*
X20418000Y-2150000D02*
G75*
G03*
X20418000Y-2150000I-40000J0D01*
G01*
X20418000Y-2500000D02*
G75*
G03*
X20418000Y-2500000I-40000J0D01*
G01*
X20418000Y-2850000D02*
G75*
G03*
X20418000Y-2850000I-40000J0D01*
G01*
X20804500Y-3129280D02*
G75*
G03*
X20804500Y-3129280I-40000J0D01*
G01*
X20804500Y-3891280D02*
G75*
G03*
X20804500Y-3891280I-40000J0D01*
G01*
X21058500Y-3129280D02*
G75*
G03*
X21058500Y-3129280I-40000J0D01*
G01*
X21058500Y-3891280D02*
G75*
G03*
X21058500Y-3891280I-40000J0D01*
G01*
X21180000Y-1100000D02*
G75*
G03*
X21180000Y-1100000I-40000J0D01*
G01*
X21180000Y-1450000D02*
G75*
G03*
X21180000Y-1450000I-40000J0D01*
G01*
X21180000Y-1800000D02*
G75*
G03*
X21180000Y-1800000I-40000J0D01*
G01*
X21180000Y-2150000D02*
G75*
G03*
X21180000Y-2150000I-40000J0D01*
G01*
X21180000Y-2500000D02*
G75*
G03*
X21180000Y-2500000I-40000J0D01*
G01*
X21180000Y-2850000D02*
G75*
G03*
X21180000Y-2850000I-40000J0D01*
G01*
X21312500Y-3129280D02*
G75*
G03*
X21312500Y-3129280I-40000J0D01*
G01*
X21312500Y-3891280D02*
G75*
G03*
X21312500Y-3891280I-40000J0D01*
G01*
X21490000Y-1100000D02*
G75*
G03*
X21490000Y-1100000I-40000J0D01*
G01*
X21490000Y-1450000D02*
G75*
G03*
X21490000Y-1450000I-40000J0D01*
G01*
X21490000Y-1800000D02*
G75*
G03*
X21490000Y-1800000I-40000J0D01*
G01*
X21490000Y-2150000D02*
G75*
G03*
X21490000Y-2150000I-40000J0D01*
G01*
X21490000Y-2500000D02*
G75*
G03*
X21490000Y-2500000I-40000J0D01*
G01*
X21490000Y-2850000D02*
G75*
G03*
X21490000Y-2850000I-40000J0D01*
G01*
X21566500Y-3129280D02*
G75*
G03*
X21566500Y-3129280I-40000J0D01*
G01*
X21566500Y-3891280D02*
G75*
G03*
X21566500Y-3891280I-40000J0D01*
G01*
X22252000Y-1100000D02*
G75*
G03*
X22252000Y-1100000I-40000J0D01*
G01*
X22252000Y-1450000D02*
G75*
G03*
X22252000Y-1450000I-40000J0D01*
G01*
X22252000Y-1800000D02*
G75*
G03*
X22252000Y-1800000I-40000J0D01*
G01*
X22252000Y-2150000D02*
G75*
G03*
X22252000Y-2150000I-40000J0D01*
G01*
X22252000Y-2500000D02*
G75*
G03*
X22252000Y-2500000I-40000J0D01*
G01*
X22252000Y-2850000D02*
G75*
G03*
X22252000Y-2850000I-40000J0D01*
G01*
X22562000Y-1100000D02*
G75*
G03*
X22562000Y-1100000I-40000J0D01*
G01*
X22562000Y-1450000D02*
G75*
G03*
X22562000Y-1450000I-40000J0D01*
G01*
X22562000Y-1800000D02*
G75*
G03*
X22562000Y-1800000I-40000J0D01*
G01*
X22562000Y-2150000D02*
G75*
G03*
X22562000Y-2150000I-40000J0D01*
G01*
X22562000Y-2500000D02*
G75*
G03*
X22562000Y-2500000I-40000J0D01*
G01*
X22562000Y-2850000D02*
G75*
G03*
X22562000Y-2850000I-40000J0D01*
G01*
X23324000Y-1100000D02*
G75*
G03*
X23324000Y-1100000I-40000J0D01*
G01*
X23324000Y-1450000D02*
G75*
G03*
X23324000Y-1450000I-40000J0D01*
G01*
X23324000Y-1800000D02*
G75*
G03*
X23324000Y-1800000I-40000J0D01*
G01*
X23324000Y-2150000D02*
G75*
G03*
X23324000Y-2150000I-40000J0D01*
G01*
X23324000Y-2500000D02*
G75*
G03*
X23324000Y-2500000I-40000J0D01*
G01*
X23324000Y-2850000D02*
G75*
G03*
X23324000Y-2850000I-40000J0D01*
G01*
D10*
X404500Y-4654500D02*
X404500Y-4754500D01*
X354500Y-4704500D02*
X454500Y-4704500D01*
X404500Y-4904500D02*
X404500Y-5004500D01*
X354500Y-4954500D02*
X454500Y-4954500D01*
X404500Y-5154500D02*
X404500Y-5254500D01*
X354500Y-5204500D02*
X454500Y-5204500D01*
X1854500Y-4654500D02*
X1854500Y-4754500D01*
X1804500Y-4704500D02*
X1904500Y-4704500D01*
X1854500Y-5154500D02*
X1854500Y-5254500D01*
X1804500Y-5204500D02*
X1904500Y-5204500D01*
X2352040Y-884720D02*
X2352040Y-984720D01*
X2302040Y-934720D02*
X2402040Y-934720D01*
X2606040Y-884720D02*
X2606040Y-984720D01*
X2556040Y-934720D02*
X2656040Y-934720D01*
X2860040Y-884720D02*
X2860040Y-984720D01*
X2810040Y-934720D02*
X2910040Y-934720D01*
X6422000Y-1100000D02*
X6422000Y-1200000D01*
X6372000Y-1150000D02*
X6472000Y-1150000D01*
X6676000Y-1100000D02*
X6676000Y-1200000D01*
X6626000Y-1150000D02*
X6726000Y-1150000D01*
X6930000Y-1100000D02*
X6930000Y-1200000D01*
X6880000Y-1150000D02*
X6980000Y-1150000D01*
X7184000Y-1100000D02*
X7184000Y-1200000D01*
X7134000Y-1150000D02*
X7234000Y-1150000D01*
X10788875Y-12666000D02*
X10788875Y-12766000D01*
X10738875Y-12716000D02*
X10838875Y-12716000D01*
X11042875Y-12666000D02*
X11042875Y-12766000D01*
X10992875Y-12716000D02*
X11092875Y-12716000D01*
X11296875Y-12666000D02*
X11296875Y-12766000D01*
X11246875Y-12716000D02*
X11346875Y-12716000D01*
X11550875Y-12666000D02*
X11550875Y-12766000D01*
X11500875Y-12716000D02*
X11600875Y-12716000D01*
X11804875Y-12666000D02*
X11804875Y-12766000D01*
X11754875Y-12716000D02*
X11854875Y-12716000D01*
X18598875Y-12666000D02*
X18598875Y-12766000D01*
X18548875Y-12716000D02*
X18648875Y-12716000D01*
X18852875Y-12666000D02*
X18852875Y-12766000D01*
X18802875Y-12716000D02*
X18902875Y-12716000D01*
X19106875Y-12666000D02*
X19106875Y-12766000D01*
X19056875Y-12716000D02*
X19156875Y-12716000D01*
X19360875Y-12666000D02*
X19360875Y-12766000D01*
X19310875Y-12716000D02*
X19410875Y-12716000D01*
X19614875Y-12666000D02*
X19614875Y-12766000D01*
X19564875Y-12716000D02*
X19664875Y-12716000D01*
X22207220Y-3452660D02*
X22207220Y-3552660D01*
X22157220Y-3502660D02*
X22257220Y-3502660D01*
X22461220Y-3452660D02*
X22461220Y-3552660D01*
X22411220Y-3502660D02*
X22511220Y-3502660D01*
X22715220Y-3452660D02*
X22715220Y-3552660D01*
X22665220Y-3502660D02*
X22765220Y-3502660D01*
X24967000Y-3218000D02*
X24967000Y-3318000D01*
X24917000Y-3268000D02*
X25017000Y-3268000D01*
X24967000Y-3472000D02*
X24967000Y-3572000D01*
X24917000Y-3522000D02*
X25017000Y-3522000D01*
X25221000Y-3218000D02*
X25221000Y-3318000D01*
X25171000Y-3268000D02*
X25271000Y-3268000D01*
X25221000Y-3472000D02*
X25221000Y-3572000D01*
X25171000Y-3522000D02*
X25271000Y-3522000D01*
X25475000Y-3218000D02*
X25475000Y-3318000D01*
X25425000Y-3268000D02*
X25525000Y-3268000D01*
X25475000Y-3472000D02*
X25475000Y-3572000D01*
X25425000Y-3522000D02*
X25525000Y-3522000D01*
X25729000Y-3218000D02*
X25729000Y-3318000D01*
X25679000Y-3268000D02*
X25779000Y-3268000D01*
X25729000Y-3472000D02*
X25729000Y-3572000D01*
X25679000Y-3522000D02*
X25779000Y-3522000D01*
X25983000Y-3218000D02*
X25983000Y-3318000D01*
X25933000Y-3268000D02*
X26033000Y-3268000D01*
X25983000Y-3472000D02*
X25983000Y-3572000D01*
X25933000Y-3522000D02*
X26033000Y-3522000D01*
X26237000Y-3218000D02*
X26237000Y-3318000D01*
X26187000Y-3268000D02*
X26287000Y-3268000D01*
X26237000Y-3472000D02*
X26237000Y-3572000D01*
X26187000Y-3522000D02*
X26287000Y-3522000D01*
X26491000Y-3218000D02*
X26491000Y-3318000D01*
X26441000Y-3268000D02*
X26541000Y-3268000D01*
X26491000Y-3472000D02*
X26491000Y-3572000D01*
X26441000Y-3522000D02*
X26541000Y-3522000D01*
X26745000Y-3218000D02*
X26745000Y-3318000D01*
X26695000Y-3268000D02*
X26795000Y-3268000D01*
X26745000Y-3472000D02*
X26745000Y-3572000D01*
X26695000Y-3522000D02*
X26795000Y-3522000D01*
X26999000Y-3218000D02*
X26999000Y-3318000D01*
X26949000Y-3268000D02*
X27049000Y-3268000D01*
X26999000Y-3472000D02*
X26999000Y-3572000D01*
X26949000Y-3522000D02*
X27049000Y-3522000D01*
X27253000Y-3218000D02*
X27253000Y-3318000D01*
X27203000Y-3268000D02*
X27303000Y-3268000D01*
X27253000Y-3472000D02*
X27253000Y-3572000D01*
X27203000Y-3522000D02*
X27303000Y-3522000D01*
X27507000Y-3218000D02*
X27507000Y-3318000D01*
X27457000Y-3268000D02*
X27557000Y-3268000D01*
X27507000Y-3472000D02*
X27507000Y-3572000D01*
X27457000Y-3522000D02*
X27557000Y-3522000D01*
X27761000Y-3218000D02*
X27761000Y-3318000D01*
X27711000Y-3268000D02*
X27811000Y-3268000D01*
X27761000Y-3472000D02*
X27761000Y-3572000D01*
X27711000Y-3522000D02*
X27811000Y-3522000D01*
X28015000Y-3218000D02*
X28015000Y-3318000D01*
X27965000Y-3268000D02*
X28065000Y-3268000D01*
X28015000Y-3472000D02*
X28015000Y-3572000D01*
X27965000Y-3522000D02*
X28065000Y-3522000D01*
X28269000Y-3218000D02*
X28269000Y-3318000D01*
X28219000Y-3268000D02*
X28319000Y-3268000D01*
X28269000Y-3472000D02*
X28269000Y-3572000D01*
X28219000Y-3522000D02*
X28319000Y-3522000D01*
X28523000Y-3218000D02*
X28523000Y-3318000D01*
X28473000Y-3268000D02*
X28573000Y-3268000D01*
X28523000Y-3472000D02*
X28523000Y-3572000D01*
X28473000Y-3522000D02*
X28573000Y-3522000D01*
X28777000Y-3218000D02*
X28777000Y-3318000D01*
X28727000Y-3268000D02*
X28827000Y-3268000D01*
X28777000Y-3472000D02*
X28777000Y-3572000D01*
X28727000Y-3522000D02*
X28827000Y-3522000D01*
X29031000Y-3218000D02*
X29031000Y-3318000D01*
X28981000Y-3268000D02*
X29081000Y-3268000D01*
X29031000Y-3472000D02*
X29031000Y-3572000D01*
X28981000Y-3522000D02*
X29081000Y-3522000D01*
X29285000Y-3218000D02*
X29285000Y-3318000D01*
X29235000Y-3268000D02*
X29335000Y-3268000D01*
X29285000Y-3472000D02*
X29285000Y-3572000D01*
X29235000Y-3522000D02*
X29335000Y-3522000D01*
X29539000Y-3218000D02*
X29539000Y-3318000D01*
X29489000Y-3268000D02*
X29589000Y-3268000D01*
X29539000Y-3472000D02*
X29539000Y-3572000D01*
X29489000Y-3522000D02*
X29589000Y-3522000D01*
X29793000Y-3218000D02*
X29793000Y-3318000D01*
X29743000Y-3268000D02*
X29843000Y-3268000D01*
X29793000Y-3472000D02*
X29793000Y-3572000D01*
X29743000Y-3522000D02*
X29843000Y-3522000D01*
D14*
X223063Y-1747063D02*
X223063Y-1674937D01*
X150937Y-1674937D01*
X150937Y-1747063D01*
X223063Y-1747063D01*
X223063Y-3525063D02*
X223063Y-3452937D01*
X150937Y-3452937D01*
X150937Y-3525063D01*
X223063Y-3525063D01*
X477063Y-1747063D02*
X477063Y-1674937D01*
X404937Y-1674937D01*
X404937Y-1747063D01*
X477063Y-1747063D01*
X477063Y-3525063D02*
X477063Y-3452937D01*
X404937Y-3452937D01*
X404937Y-3525063D01*
X477063Y-3525063D01*
X731063Y-1747063D02*
X731063Y-1674937D01*
X658937Y-1674937D01*
X658937Y-1747063D01*
X731063Y-1747063D01*
X731063Y-3525063D02*
X731063Y-3452937D01*
X658937Y-3452937D01*
X658937Y-3525063D01*
X731063Y-3525063D01*
X985063Y-1747063D02*
X985063Y-1674937D01*
X912937Y-1674937D01*
X912937Y-1747063D01*
X985063Y-1747063D01*
X985063Y-3525063D02*
X985063Y-3452937D01*
X912937Y-3452937D01*
X912937Y-3525063D01*
X985063Y-3525063D01*
X1239063Y-1747063D02*
X1239063Y-1674937D01*
X1166937Y-1674937D01*
X1166937Y-1747063D01*
X1239063Y-1747063D01*
X1239063Y-3525063D02*
X1239063Y-3452937D01*
X1166937Y-3452937D01*
X1166937Y-3525063D01*
X1239063Y-3525063D01*
X1493063Y-1747063D02*
X1493063Y-1674937D01*
X1420937Y-1674937D01*
X1420937Y-1747063D01*
X1493063Y-1747063D01*
X1493063Y-3525063D02*
X1493063Y-3452937D01*
X1420937Y-3452937D01*
X1420937Y-3525063D01*
X1493063Y-3525063D01*
X1747063Y-1747063D02*
X1747063Y-1674937D01*
X1674937Y-1674937D01*
X1674937Y-1747063D01*
X1747063Y-1747063D01*
X1747063Y-3525063D02*
X1747063Y-3452937D01*
X1674937Y-3452937D01*
X1674937Y-3525063D01*
X1747063Y-3525063D01*
X2001063Y-1747063D02*
X2001063Y-1674937D01*
X1928937Y-1674937D01*
X1928937Y-1747063D01*
X2001063Y-1747063D01*
X2001063Y-3525063D02*
X2001063Y-3452937D01*
X1928937Y-3452937D01*
X1928937Y-3525063D01*
X2001063Y-3525063D01*
X2255063Y-1747063D02*
X2255063Y-1674937D01*
X2182937Y-1674937D01*
X2182937Y-1747063D01*
X2255063Y-1747063D01*
X2255063Y-3525063D02*
X2255063Y-3452937D01*
X2182937Y-3452937D01*
X2182937Y-3525063D01*
X2255063Y-3525063D01*
X2509063Y-1747063D02*
X2509063Y-1674937D01*
X2436937Y-1674937D01*
X2436937Y-1747063D01*
X2509063Y-1747063D01*
X2509063Y-3525063D02*
X2509063Y-3452937D01*
X2436937Y-3452937D01*
X2436937Y-3525063D01*
X2509063Y-3525063D01*
X2763063Y-1747063D02*
X2763063Y-1674937D01*
X2690937Y-1674937D01*
X2690937Y-1747063D01*
X2763063Y-1747063D01*
X2763063Y-3525063D02*
X2763063Y-3452937D01*
X2690937Y-3452937D01*
X2690937Y-3525063D01*
X2763063Y-3525063D01*
X3017063Y-1747063D02*
X3017063Y-1674937D01*
X2944937Y-1674937D01*
X2944937Y-1747063D01*
X3017063Y-1747063D01*
X3017063Y-3525063D02*
X3017063Y-3452937D01*
X2944937Y-3452937D01*
X2944937Y-3525063D01*
X3017063Y-3525063D01*
X3271063Y-1747063D02*
X3271063Y-1674937D01*
X3198937Y-1674937D01*
X3198937Y-1747063D01*
X3271063Y-1747063D01*
X3271063Y-3525063D02*
X3271063Y-3452937D01*
X3198937Y-3452937D01*
X3198937Y-3525063D01*
X3271063Y-3525063D01*
X3525063Y-1747063D02*
X3525063Y-1674937D01*
X3452937Y-1674937D01*
X3452937Y-1747063D01*
X3525063Y-1747063D01*
X3525063Y-3525063D02*
X3525063Y-3452937D01*
X3452937Y-3452937D01*
X3452937Y-3525063D01*
X3525063Y-3525063D01*
X3779063Y-1747063D02*
X3779063Y-1674937D01*
X3706937Y-1674937D01*
X3706937Y-1747063D01*
X3779063Y-1747063D01*
X3779063Y-3525063D02*
X3779063Y-3452937D01*
X3706937Y-3452937D01*
X3706937Y-3525063D01*
X3779063Y-3525063D01*
X4033063Y-1747063D02*
X4033063Y-1674937D01*
X3960937Y-1674937D01*
X3960937Y-1747063D01*
X4033063Y-1747063D01*
X4033063Y-3525063D02*
X4033063Y-3452937D01*
X3960937Y-3452937D01*
X3960937Y-3525063D01*
X4033063Y-3525063D01*
X4287063Y-1747063D02*
X4287063Y-1674937D01*
X4214937Y-1674937D01*
X4214937Y-1747063D01*
X4287063Y-1747063D01*
X4287063Y-3525063D02*
X4287063Y-3452937D01*
X4214937Y-3452937D01*
X4214937Y-3525063D01*
X4287063Y-3525063D01*
X4541063Y-1747063D02*
X4541063Y-1674937D01*
X4468937Y-1674937D01*
X4468937Y-1747063D01*
X4541063Y-1747063D01*
X4541063Y-3525063D02*
X4541063Y-3452937D01*
X4468937Y-3452937D01*
X4468937Y-3525063D01*
X4541063Y-3525063D01*
X4795063Y-1747063D02*
X4795063Y-1674937D01*
X4722937Y-1674937D01*
X4722937Y-1747063D01*
X4795063Y-1747063D01*
X4795063Y-3525063D02*
X4795063Y-3452937D01*
X4722937Y-3452937D01*
X4722937Y-3525063D01*
X4795063Y-3525063D01*
X5026063Y-2382063D02*
X5026063Y-2309937D01*
X4953937Y-2309937D01*
X4953937Y-2382063D01*
X5026063Y-2382063D01*
X5026063Y-2636063D02*
X5026063Y-2563937D01*
X4953937Y-2563937D01*
X4953937Y-2636063D01*
X5026063Y-2636063D01*
X5026063Y-2890063D02*
X5026063Y-2817937D01*
X4953937Y-2817937D01*
X4953937Y-2890063D01*
X5026063Y-2890063D01*
X5049063Y-1747063D02*
X5049063Y-1674937D01*
X4976937Y-1674937D01*
X4976937Y-1747063D01*
X5049063Y-1747063D01*
X5049063Y-3525063D02*
X5049063Y-3452937D01*
X4976937Y-3452937D01*
X4976937Y-3525063D01*
X5049063Y-3525063D01*
D15*
X1154500Y-4524500D02*
X1284500Y-4394500D01*
X1154500Y-4264500D01*
X1024500Y-4394500D01*
X1154500Y-4524500D01*
X1154500Y-5644500D02*
X1284500Y-5514500D01*
X1154500Y-5384500D01*
X1024500Y-5514500D01*
X1154500Y-5644500D01*
D11*
X255777Y-14041484D02*
X255777Y-13841484D01*
X255777Y-13841484D02*
X303396Y-13841484D01*
X303396Y-13841484D02*
X331967Y-13851008D01*
X331967Y-13851008D02*
X351015Y-13870055D01*
X351015Y-13870055D02*
X360539Y-13889103D01*
X360539Y-13889103D02*
X370062Y-13927198D01*
X370062Y-13927198D02*
X370062Y-13955769D01*
X370062Y-13955769D02*
X360539Y-13993865D01*
X360539Y-13993865D02*
X351015Y-14012912D01*
X351015Y-14012912D02*
X331967Y-14031960D01*
X331967Y-14031960D02*
X303396Y-14041484D01*
X303396Y-14041484D02*
X255777Y-14041484D01*
X455777Y-14041484D02*
X455777Y-13908150D01*
X455777Y-13946246D02*
X465301Y-13927198D01*
X465301Y-13927198D02*
X474824Y-13917674D01*
X474824Y-13917674D02*
X493872Y-13908150D01*
X493872Y-13908150D02*
X512920Y-13908150D01*
X579586Y-14041484D02*
X579586Y-13908150D01*
X579586Y-13841484D02*
X570063Y-13851008D01*
X570063Y-13851008D02*
X579586Y-13860531D01*
X579586Y-13860531D02*
X589110Y-13851008D01*
X589110Y-13851008D02*
X579586Y-13841484D01*
X579586Y-13841484D02*
X579586Y-13860531D01*
X703396Y-14041484D02*
X684348Y-14031960D01*
X684348Y-14031960D02*
X674824Y-14012912D01*
X674824Y-14012912D02*
X674824Y-13841484D01*
X808158Y-14041484D02*
X789110Y-14031960D01*
X789110Y-14031960D02*
X779586Y-14012912D01*
X779586Y-14012912D02*
X779586Y-13841484D01*
X1036729Y-14041484D02*
X1036729Y-13841484D01*
X1036729Y-13841484D02*
X1103396Y-13984341D01*
X1103396Y-13984341D02*
X1170063Y-13841484D01*
X1170063Y-13841484D02*
X1170063Y-14041484D01*
X1351015Y-14041484D02*
X1351015Y-13936722D01*
X1351015Y-13936722D02*
X1341491Y-13917674D01*
X1341491Y-13917674D02*
X1322444Y-13908150D01*
X1322444Y-13908150D02*
X1284348Y-13908150D01*
X1284348Y-13908150D02*
X1265301Y-13917674D01*
X1351015Y-14031960D02*
X1331967Y-14041484D01*
X1331967Y-14041484D02*
X1284348Y-14041484D01*
X1284348Y-14041484D02*
X1265301Y-14031960D01*
X1265301Y-14031960D02*
X1255777Y-14012912D01*
X1255777Y-14012912D02*
X1255777Y-13993865D01*
X1255777Y-13993865D02*
X1265301Y-13974817D01*
X1265301Y-13974817D02*
X1284348Y-13965293D01*
X1284348Y-13965293D02*
X1331967Y-13965293D01*
X1331967Y-13965293D02*
X1351015Y-13955769D01*
X1446253Y-13908150D02*
X1446253Y-14108150D01*
X1446253Y-13917674D02*
X1465301Y-13908150D01*
X1465301Y-13908150D02*
X1503396Y-13908150D01*
X1503396Y-13908150D02*
X1522443Y-13917674D01*
X1522443Y-13917674D02*
X1531967Y-13927198D01*
X1531967Y-13927198D02*
X1541491Y-13946246D01*
X1541491Y-13946246D02*
X1541491Y-14003388D01*
X1541491Y-14003388D02*
X1531967Y-14022436D01*
X1531967Y-14022436D02*
X1522443Y-14031960D01*
X1522443Y-14031960D02*
X1503396Y-14041484D01*
X1503396Y-14041484D02*
X1465301Y-14041484D01*
X1465301Y-14041484D02*
X1446253Y-14031960D01*
X1627205Y-14022436D02*
X1636729Y-14031960D01*
X1636729Y-14031960D02*
X1627205Y-14041484D01*
X1627205Y-14041484D02*
X1617682Y-14031960D01*
X1617682Y-14031960D02*
X1627205Y-14022436D01*
X1627205Y-14022436D02*
X1627205Y-14041484D01*
X1627205Y-13917674D02*
X1636729Y-13927198D01*
X1636729Y-13927198D02*
X1627205Y-13936722D01*
X1627205Y-13936722D02*
X1617682Y-13927198D01*
X1617682Y-13927198D02*
X1627205Y-13917674D01*
X1627205Y-13917674D02*
X1627205Y-13936722D01*
D12*
X-45000Y-14350000D02*
X-5000Y-14390000D01*
X-5000Y-14350000D02*
X-45000Y-14390000D01*
D11*
X293872Y-14261484D02*
X312920Y-14261484D01*
X312920Y-14261484D02*
X331967Y-14271008D01*
X331967Y-14271008D02*
X341491Y-14280531D01*
X341491Y-14280531D02*
X351015Y-14299579D01*
X351015Y-14299579D02*
X360539Y-14337674D01*
X360539Y-14337674D02*
X360539Y-14385293D01*
X360539Y-14385293D02*
X351015Y-14423388D01*
X351015Y-14423388D02*
X341491Y-14442436D01*
X341491Y-14442436D02*
X331967Y-14451960D01*
X331967Y-14451960D02*
X312920Y-14461484D01*
X312920Y-14461484D02*
X293872Y-14461484D01*
X293872Y-14461484D02*
X274824Y-14451960D01*
X274824Y-14451960D02*
X265301Y-14442436D01*
X265301Y-14442436D02*
X255777Y-14423388D01*
X255777Y-14423388D02*
X246253Y-14385293D01*
X246253Y-14385293D02*
X246253Y-14337674D01*
X246253Y-14337674D02*
X255777Y-14299579D01*
X255777Y-14299579D02*
X265301Y-14280531D01*
X265301Y-14280531D02*
X274824Y-14271008D01*
X274824Y-14271008D02*
X293872Y-14261484D01*
X446253Y-14442436D02*
X455777Y-14451960D01*
X455777Y-14451960D02*
X446253Y-14461484D01*
X446253Y-14461484D02*
X436729Y-14451960D01*
X436729Y-14451960D02*
X446253Y-14442436D01*
X446253Y-14442436D02*
X446253Y-14461484D01*
X627205Y-14328150D02*
X627205Y-14461484D01*
X579586Y-14251960D02*
X531967Y-14394817D01*
X531967Y-14394817D02*
X655777Y-14394817D01*
X770062Y-14261484D02*
X789110Y-14261484D01*
X789110Y-14261484D02*
X808158Y-14271008D01*
X808158Y-14271008D02*
X817682Y-14280531D01*
X817682Y-14280531D02*
X827205Y-14299579D01*
X827205Y-14299579D02*
X836729Y-14337674D01*
X836729Y-14337674D02*
X836729Y-14385293D01*
X836729Y-14385293D02*
X827205Y-14423388D01*
X827205Y-14423388D02*
X817682Y-14442436D01*
X817682Y-14442436D02*
X808158Y-14451960D01*
X808158Y-14451960D02*
X789110Y-14461484D01*
X789110Y-14461484D02*
X770062Y-14461484D01*
X770062Y-14461484D02*
X751015Y-14451960D01*
X751015Y-14451960D02*
X741491Y-14442436D01*
X741491Y-14442436D02*
X731967Y-14423388D01*
X731967Y-14423388D02*
X722443Y-14385293D01*
X722443Y-14385293D02*
X722443Y-14337674D01*
X722443Y-14337674D02*
X731967Y-14299579D01*
X731967Y-14299579D02*
X741491Y-14280531D01*
X741491Y-14280531D02*
X751015Y-14271008D01*
X751015Y-14271008D02*
X770062Y-14261484D01*
X960539Y-14261484D02*
X979586Y-14261484D01*
X979586Y-14261484D02*
X998634Y-14271008D01*
X998634Y-14271008D02*
X1008158Y-14280531D01*
X1008158Y-14280531D02*
X1017682Y-14299579D01*
X1017682Y-14299579D02*
X1027205Y-14337674D01*
X1027205Y-14337674D02*
X1027205Y-14385293D01*
X1027205Y-14385293D02*
X1017682Y-14423388D01*
X1017682Y-14423388D02*
X1008158Y-14442436D01*
X1008158Y-14442436D02*
X998634Y-14451960D01*
X998634Y-14451960D02*
X979586Y-14461484D01*
X979586Y-14461484D02*
X960539Y-14461484D01*
X960539Y-14461484D02*
X941491Y-14451960D01*
X941491Y-14451960D02*
X931967Y-14442436D01*
X931967Y-14442436D02*
X922443Y-14423388D01*
X922443Y-14423388D02*
X912920Y-14385293D01*
X912920Y-14385293D02*
X912920Y-14337674D01*
X912920Y-14337674D02*
X922443Y-14299579D01*
X922443Y-14299579D02*
X931967Y-14280531D01*
X931967Y-14280531D02*
X941491Y-14271008D01*
X941491Y-14271008D02*
X960539Y-14261484D01*
X1112920Y-14461484D02*
X1112920Y-14328150D01*
X1112920Y-14347198D02*
X1122444Y-14337674D01*
X1122444Y-14337674D02*
X1141491Y-14328150D01*
X1141491Y-14328150D02*
X1170063Y-14328150D01*
X1170063Y-14328150D02*
X1189110Y-14337674D01*
X1189110Y-14337674D02*
X1198634Y-14356722D01*
X1198634Y-14356722D02*
X1198634Y-14461484D01*
X1198634Y-14356722D02*
X1208158Y-14337674D01*
X1208158Y-14337674D02*
X1227205Y-14328150D01*
X1227205Y-14328150D02*
X1255777Y-14328150D01*
X1255777Y-14328150D02*
X1274825Y-14337674D01*
X1274825Y-14337674D02*
X1284348Y-14356722D01*
X1284348Y-14356722D02*
X1284348Y-14461484D01*
X1379586Y-14461484D02*
X1379586Y-14328150D01*
X1379586Y-14347198D02*
X1389110Y-14337674D01*
X1389110Y-14337674D02*
X1408158Y-14328150D01*
X1408158Y-14328150D02*
X1436729Y-14328150D01*
X1436729Y-14328150D02*
X1455777Y-14337674D01*
X1455777Y-14337674D02*
X1465301Y-14356722D01*
X1465301Y-14356722D02*
X1465301Y-14461484D01*
X1465301Y-14356722D02*
X1474824Y-14337674D01*
X1474824Y-14337674D02*
X1493872Y-14328150D01*
X1493872Y-14328150D02*
X1522443Y-14328150D01*
X1522443Y-14328150D02*
X1541491Y-14337674D01*
X1541491Y-14337674D02*
X1551015Y-14356722D01*
X1551015Y-14356722D02*
X1551015Y-14461484D01*
X1941491Y-14251960D02*
X1770063Y-14509103D01*
X2198634Y-14261484D02*
X2217682Y-14261484D01*
X2217682Y-14261484D02*
X2236729Y-14271008D01*
X2236729Y-14271008D02*
X2246253Y-14280531D01*
X2246253Y-14280531D02*
X2255777Y-14299579D01*
X2255777Y-14299579D02*
X2265301Y-14337674D01*
X2265301Y-14337674D02*
X2265301Y-14385293D01*
X2265301Y-14385293D02*
X2255777Y-14423388D01*
X2255777Y-14423388D02*
X2246253Y-14442436D01*
X2246253Y-14442436D02*
X2236729Y-14451960D01*
X2236729Y-14451960D02*
X2217682Y-14461484D01*
X2217682Y-14461484D02*
X2198634Y-14461484D01*
X2198634Y-14461484D02*
X2179587Y-14451960D01*
X2179587Y-14451960D02*
X2170063Y-14442436D01*
X2170063Y-14442436D02*
X2160539Y-14423388D01*
X2160539Y-14423388D02*
X2151015Y-14385293D01*
X2151015Y-14385293D02*
X2151015Y-14337674D01*
X2151015Y-14337674D02*
X2160539Y-14299579D01*
X2160539Y-14299579D02*
X2170063Y-14280531D01*
X2170063Y-14280531D02*
X2179587Y-14271008D01*
X2179587Y-14271008D02*
X2198634Y-14261484D01*
X2351015Y-14442436D02*
X2360539Y-14451960D01*
X2360539Y-14451960D02*
X2351015Y-14461484D01*
X2351015Y-14461484D02*
X2341491Y-14451960D01*
X2341491Y-14451960D02*
X2351015Y-14442436D01*
X2351015Y-14442436D02*
X2351015Y-14461484D01*
X2484348Y-14261484D02*
X2503396Y-14261484D01*
X2503396Y-14261484D02*
X2522444Y-14271008D01*
X2522444Y-14271008D02*
X2531968Y-14280531D01*
X2531968Y-14280531D02*
X2541491Y-14299579D01*
X2541491Y-14299579D02*
X2551015Y-14337674D01*
X2551015Y-14337674D02*
X2551015Y-14385293D01*
X2551015Y-14385293D02*
X2541491Y-14423388D01*
X2541491Y-14423388D02*
X2531968Y-14442436D01*
X2531968Y-14442436D02*
X2522444Y-14451960D01*
X2522444Y-14451960D02*
X2503396Y-14461484D01*
X2503396Y-14461484D02*
X2484348Y-14461484D01*
X2484348Y-14461484D02*
X2465301Y-14451960D01*
X2465301Y-14451960D02*
X2455777Y-14442436D01*
X2455777Y-14442436D02*
X2446253Y-14423388D01*
X2446253Y-14423388D02*
X2436729Y-14385293D01*
X2436729Y-14385293D02*
X2436729Y-14337674D01*
X2436729Y-14337674D02*
X2446253Y-14299579D01*
X2446253Y-14299579D02*
X2455777Y-14280531D01*
X2455777Y-14280531D02*
X2465301Y-14271008D01*
X2465301Y-14271008D02*
X2484348Y-14261484D01*
X2741491Y-14461484D02*
X2627206Y-14461484D01*
X2684348Y-14461484D02*
X2684348Y-14261484D01*
X2684348Y-14261484D02*
X2665301Y-14290055D01*
X2665301Y-14290055D02*
X2646253Y-14309103D01*
X2646253Y-14309103D02*
X2627206Y-14318627D01*
X2922444Y-14261484D02*
X2827206Y-14261484D01*
X2827206Y-14261484D02*
X2817682Y-14356722D01*
X2817682Y-14356722D02*
X2827206Y-14347198D01*
X2827206Y-14347198D02*
X2846253Y-14337674D01*
X2846253Y-14337674D02*
X2893872Y-14337674D01*
X2893872Y-14337674D02*
X2912920Y-14347198D01*
X2912920Y-14347198D02*
X2922444Y-14356722D01*
X2922444Y-14356722D02*
X2931967Y-14375769D01*
X2931967Y-14375769D02*
X2931967Y-14423388D01*
X2931967Y-14423388D02*
X2922444Y-14442436D01*
X2922444Y-14442436D02*
X2912920Y-14451960D01*
X2912920Y-14451960D02*
X2893872Y-14461484D01*
X2893872Y-14461484D02*
X2846253Y-14461484D01*
X2846253Y-14461484D02*
X2827206Y-14451960D01*
X2827206Y-14451960D02*
X2817682Y-14442436D01*
X2998634Y-14261484D02*
X3131967Y-14261484D01*
X3131967Y-14261484D02*
X3046253Y-14461484D01*
X3198634Y-14261484D02*
X3198634Y-14299579D01*
X3274825Y-14261484D02*
X3274825Y-14299579D01*
X3570063Y-14537674D02*
X3560539Y-14528150D01*
X3560539Y-14528150D02*
X3541491Y-14499579D01*
X3541491Y-14499579D02*
X3531968Y-14480531D01*
X3531968Y-14480531D02*
X3522444Y-14451960D01*
X3522444Y-14451960D02*
X3512920Y-14404341D01*
X3512920Y-14404341D02*
X3512920Y-14366246D01*
X3512920Y-14366246D02*
X3522444Y-14318627D01*
X3522444Y-14318627D02*
X3531968Y-14290055D01*
X3531968Y-14290055D02*
X3541491Y-14271008D01*
X3541491Y-14271008D02*
X3560539Y-14242436D01*
X3560539Y-14242436D02*
X3570063Y-14232912D01*
X3627206Y-14261484D02*
X3760539Y-14261484D01*
X3760539Y-14261484D02*
X3674825Y-14461484D01*
X3827206Y-14280531D02*
X3836729Y-14271008D01*
X3836729Y-14271008D02*
X3855777Y-14261484D01*
X3855777Y-14261484D02*
X3903396Y-14261484D01*
X3903396Y-14261484D02*
X3922444Y-14271008D01*
X3922444Y-14271008D02*
X3931968Y-14280531D01*
X3931968Y-14280531D02*
X3941491Y-14299579D01*
X3941491Y-14299579D02*
X3941491Y-14318627D01*
X3941491Y-14318627D02*
X3931968Y-14347198D01*
X3931968Y-14347198D02*
X3817682Y-14461484D01*
X3817682Y-14461484D02*
X3941491Y-14461484D01*
X4036729Y-14461484D02*
X4074825Y-14461484D01*
X4074825Y-14461484D02*
X4093872Y-14451960D01*
X4093872Y-14451960D02*
X4103396Y-14442436D01*
X4103396Y-14442436D02*
X4122444Y-14413865D01*
X4122444Y-14413865D02*
X4131968Y-14375769D01*
X4131968Y-14375769D02*
X4131968Y-14299579D01*
X4131968Y-14299579D02*
X4122444Y-14280531D01*
X4122444Y-14280531D02*
X4112920Y-14271008D01*
X4112920Y-14271008D02*
X4093872Y-14261484D01*
X4093872Y-14261484D02*
X4055777Y-14261484D01*
X4055777Y-14261484D02*
X4036729Y-14271008D01*
X4036729Y-14271008D02*
X4027206Y-14280531D01*
X4027206Y-14280531D02*
X4017682Y-14299579D01*
X4017682Y-14299579D02*
X4017682Y-14347198D01*
X4017682Y-14347198D02*
X4027206Y-14366246D01*
X4027206Y-14366246D02*
X4036729Y-14375769D01*
X4036729Y-14375769D02*
X4055777Y-14385293D01*
X4055777Y-14385293D02*
X4093872Y-14385293D01*
X4093872Y-14385293D02*
X4112920Y-14375769D01*
X4112920Y-14375769D02*
X4122444Y-14366246D01*
X4122444Y-14366246D02*
X4131968Y-14347198D01*
X4370063Y-14461484D02*
X4370063Y-14261484D01*
X4455777Y-14461484D02*
X4455777Y-14356722D01*
X4455777Y-14356722D02*
X4446253Y-14337674D01*
X4446253Y-14337674D02*
X4427206Y-14328150D01*
X4427206Y-14328150D02*
X4398634Y-14328150D01*
X4398634Y-14328150D02*
X4379587Y-14337674D01*
X4379587Y-14337674D02*
X4370063Y-14347198D01*
X4579587Y-14461484D02*
X4560539Y-14451960D01*
X4560539Y-14451960D02*
X4551015Y-14442436D01*
X4551015Y-14442436D02*
X4541492Y-14423388D01*
X4541492Y-14423388D02*
X4541492Y-14366246D01*
X4541492Y-14366246D02*
X4551015Y-14347198D01*
X4551015Y-14347198D02*
X4560539Y-14337674D01*
X4560539Y-14337674D02*
X4579587Y-14328150D01*
X4579587Y-14328150D02*
X4608158Y-14328150D01*
X4608158Y-14328150D02*
X4627206Y-14337674D01*
X4627206Y-14337674D02*
X4636730Y-14347198D01*
X4636730Y-14347198D02*
X4646253Y-14366246D01*
X4646253Y-14366246D02*
X4646253Y-14423388D01*
X4646253Y-14423388D02*
X4636730Y-14442436D01*
X4636730Y-14442436D02*
X4627206Y-14451960D01*
X4627206Y-14451960D02*
X4608158Y-14461484D01*
X4608158Y-14461484D02*
X4579587Y-14461484D01*
X4760539Y-14461484D02*
X4741492Y-14451960D01*
X4741492Y-14451960D02*
X4731968Y-14432912D01*
X4731968Y-14432912D02*
X4731968Y-14261484D01*
X4912920Y-14451960D02*
X4893873Y-14461484D01*
X4893873Y-14461484D02*
X4855777Y-14461484D01*
X4855777Y-14461484D02*
X4836730Y-14451960D01*
X4836730Y-14451960D02*
X4827206Y-14432912D01*
X4827206Y-14432912D02*
X4827206Y-14356722D01*
X4827206Y-14356722D02*
X4836730Y-14337674D01*
X4836730Y-14337674D02*
X4855777Y-14328150D01*
X4855777Y-14328150D02*
X4893873Y-14328150D01*
X4893873Y-14328150D02*
X4912920Y-14337674D01*
X4912920Y-14337674D02*
X4922444Y-14356722D01*
X4922444Y-14356722D02*
X4922444Y-14375769D01*
X4922444Y-14375769D02*
X4827206Y-14394817D01*
X4998634Y-14451960D02*
X5017682Y-14461484D01*
X5017682Y-14461484D02*
X5055777Y-14461484D01*
X5055777Y-14461484D02*
X5074825Y-14451960D01*
X5074825Y-14451960D02*
X5084349Y-14432912D01*
X5084349Y-14432912D02*
X5084349Y-14423388D01*
X5084349Y-14423388D02*
X5074825Y-14404341D01*
X5074825Y-14404341D02*
X5055777Y-14394817D01*
X5055777Y-14394817D02*
X5027206Y-14394817D01*
X5027206Y-14394817D02*
X5008158Y-14385293D01*
X5008158Y-14385293D02*
X4998634Y-14366246D01*
X4998634Y-14366246D02*
X4998634Y-14356722D01*
X4998634Y-14356722D02*
X5008158Y-14337674D01*
X5008158Y-14337674D02*
X5027206Y-14328150D01*
X5027206Y-14328150D02*
X5055777Y-14328150D01*
X5055777Y-14328150D02*
X5074825Y-14337674D01*
X5151015Y-14537674D02*
X5160539Y-14528150D01*
X5160539Y-14528150D02*
X5179587Y-14499579D01*
X5179587Y-14499579D02*
X5189111Y-14480531D01*
X5189111Y-14480531D02*
X5198634Y-14451960D01*
X5198634Y-14451960D02*
X5208158Y-14404341D01*
X5208158Y-14404341D02*
X5208158Y-14366246D01*
X5208158Y-14366246D02*
X5198634Y-14318627D01*
X5198634Y-14318627D02*
X5189111Y-14290055D01*
X5189111Y-14290055D02*
X5179587Y-14271008D01*
X5179587Y-14271008D02*
X5160539Y-14242436D01*
X5160539Y-14242436D02*
X5151015Y-14232912D01*
D13*
X-5000Y-14634000D02*
G75*
G03*
X-5000Y-14634000I-40000J0D01*
G01*
D11*
X293872Y-14525484D02*
X312920Y-14525484D01*
X312920Y-14525484D02*
X331967Y-14535008D01*
X331967Y-14535008D02*
X341491Y-14544531D01*
X341491Y-14544531D02*
X351015Y-14563579D01*
X351015Y-14563579D02*
X360539Y-14601674D01*
X360539Y-14601674D02*
X360539Y-14649293D01*
X360539Y-14649293D02*
X351015Y-14687388D01*
X351015Y-14687388D02*
X341491Y-14706436D01*
X341491Y-14706436D02*
X331967Y-14715960D01*
X331967Y-14715960D02*
X312920Y-14725484D01*
X312920Y-14725484D02*
X293872Y-14725484D01*
X293872Y-14725484D02*
X274824Y-14715960D01*
X274824Y-14715960D02*
X265301Y-14706436D01*
X265301Y-14706436D02*
X255777Y-14687388D01*
X255777Y-14687388D02*
X246253Y-14649293D01*
X246253Y-14649293D02*
X246253Y-14601674D01*
X246253Y-14601674D02*
X255777Y-14563579D01*
X255777Y-14563579D02*
X265301Y-14544531D01*
X265301Y-14544531D02*
X274824Y-14535008D01*
X274824Y-14535008D02*
X293872Y-14525484D01*
X446253Y-14706436D02*
X455777Y-14715960D01*
X455777Y-14715960D02*
X446253Y-14725484D01*
X446253Y-14725484D02*
X436729Y-14715960D01*
X436729Y-14715960D02*
X446253Y-14706436D01*
X446253Y-14706436D02*
X446253Y-14725484D01*
X570063Y-14611198D02*
X551015Y-14601674D01*
X551015Y-14601674D02*
X541491Y-14592150D01*
X541491Y-14592150D02*
X531967Y-14573103D01*
X531967Y-14573103D02*
X531967Y-14563579D01*
X531967Y-14563579D02*
X541491Y-14544531D01*
X541491Y-14544531D02*
X551015Y-14535008D01*
X551015Y-14535008D02*
X570063Y-14525484D01*
X570063Y-14525484D02*
X608158Y-14525484D01*
X608158Y-14525484D02*
X627205Y-14535008D01*
X627205Y-14535008D02*
X636729Y-14544531D01*
X636729Y-14544531D02*
X646253Y-14563579D01*
X646253Y-14563579D02*
X646253Y-14573103D01*
X646253Y-14573103D02*
X636729Y-14592150D01*
X636729Y-14592150D02*
X627205Y-14601674D01*
X627205Y-14601674D02*
X608158Y-14611198D01*
X608158Y-14611198D02*
X570063Y-14611198D01*
X570063Y-14611198D02*
X551015Y-14620722D01*
X551015Y-14620722D02*
X541491Y-14630246D01*
X541491Y-14630246D02*
X531967Y-14649293D01*
X531967Y-14649293D02*
X531967Y-14687388D01*
X531967Y-14687388D02*
X541491Y-14706436D01*
X541491Y-14706436D02*
X551015Y-14715960D01*
X551015Y-14715960D02*
X570063Y-14725484D01*
X570063Y-14725484D02*
X608158Y-14725484D01*
X608158Y-14725484D02*
X627205Y-14715960D01*
X627205Y-14715960D02*
X636729Y-14706436D01*
X636729Y-14706436D02*
X646253Y-14687388D01*
X646253Y-14687388D02*
X646253Y-14649293D01*
X646253Y-14649293D02*
X636729Y-14630246D01*
X636729Y-14630246D02*
X627205Y-14620722D01*
X627205Y-14620722D02*
X608158Y-14611198D01*
X770062Y-14525484D02*
X789110Y-14525484D01*
X789110Y-14525484D02*
X808158Y-14535008D01*
X808158Y-14535008D02*
X817682Y-14544531D01*
X817682Y-14544531D02*
X827205Y-14563579D01*
X827205Y-14563579D02*
X836729Y-14601674D01*
X836729Y-14601674D02*
X836729Y-14649293D01*
X836729Y-14649293D02*
X827205Y-14687388D01*
X827205Y-14687388D02*
X817682Y-14706436D01*
X817682Y-14706436D02*
X808158Y-14715960D01*
X808158Y-14715960D02*
X789110Y-14725484D01*
X789110Y-14725484D02*
X770062Y-14725484D01*
X770062Y-14725484D02*
X751015Y-14715960D01*
X751015Y-14715960D02*
X741491Y-14706436D01*
X741491Y-14706436D02*
X731967Y-14687388D01*
X731967Y-14687388D02*
X722443Y-14649293D01*
X722443Y-14649293D02*
X722443Y-14601674D01*
X722443Y-14601674D02*
X731967Y-14563579D01*
X731967Y-14563579D02*
X741491Y-14544531D01*
X741491Y-14544531D02*
X751015Y-14535008D01*
X751015Y-14535008D02*
X770062Y-14525484D01*
X960539Y-14525484D02*
X979586Y-14525484D01*
X979586Y-14525484D02*
X998634Y-14535008D01*
X998634Y-14535008D02*
X1008158Y-14544531D01*
X1008158Y-14544531D02*
X1017682Y-14563579D01*
X1017682Y-14563579D02*
X1027205Y-14601674D01*
X1027205Y-14601674D02*
X1027205Y-14649293D01*
X1027205Y-14649293D02*
X1017682Y-14687388D01*
X1017682Y-14687388D02*
X1008158Y-14706436D01*
X1008158Y-14706436D02*
X998634Y-14715960D01*
X998634Y-14715960D02*
X979586Y-14725484D01*
X979586Y-14725484D02*
X960539Y-14725484D01*
X960539Y-14725484D02*
X941491Y-14715960D01*
X941491Y-14715960D02*
X931967Y-14706436D01*
X931967Y-14706436D02*
X922443Y-14687388D01*
X922443Y-14687388D02*
X912920Y-14649293D01*
X912920Y-14649293D02*
X912920Y-14601674D01*
X912920Y-14601674D02*
X922443Y-14563579D01*
X922443Y-14563579D02*
X931967Y-14544531D01*
X931967Y-14544531D02*
X941491Y-14535008D01*
X941491Y-14535008D02*
X960539Y-14525484D01*
X1112920Y-14725484D02*
X1112920Y-14592150D01*
X1112920Y-14611198D02*
X1122444Y-14601674D01*
X1122444Y-14601674D02*
X1141491Y-14592150D01*
X1141491Y-14592150D02*
X1170063Y-14592150D01*
X1170063Y-14592150D02*
X1189110Y-14601674D01*
X1189110Y-14601674D02*
X1198634Y-14620722D01*
X1198634Y-14620722D02*
X1198634Y-14725484D01*
X1198634Y-14620722D02*
X1208158Y-14601674D01*
X1208158Y-14601674D02*
X1227205Y-14592150D01*
X1227205Y-14592150D02*
X1255777Y-14592150D01*
X1255777Y-14592150D02*
X1274825Y-14601674D01*
X1274825Y-14601674D02*
X1284348Y-14620722D01*
X1284348Y-14620722D02*
X1284348Y-14725484D01*
X1379586Y-14725484D02*
X1379586Y-14592150D01*
X1379586Y-14611198D02*
X1389110Y-14601674D01*
X1389110Y-14601674D02*
X1408158Y-14592150D01*
X1408158Y-14592150D02*
X1436729Y-14592150D01*
X1436729Y-14592150D02*
X1455777Y-14601674D01*
X1455777Y-14601674D02*
X1465301Y-14620722D01*
X1465301Y-14620722D02*
X1465301Y-14725484D01*
X1465301Y-14620722D02*
X1474824Y-14601674D01*
X1474824Y-14601674D02*
X1493872Y-14592150D01*
X1493872Y-14592150D02*
X1522443Y-14592150D01*
X1522443Y-14592150D02*
X1541491Y-14601674D01*
X1541491Y-14601674D02*
X1551015Y-14620722D01*
X1551015Y-14620722D02*
X1551015Y-14725484D01*
X1941491Y-14515960D02*
X1770063Y-14773103D01*
X2198634Y-14525484D02*
X2217682Y-14525484D01*
X2217682Y-14525484D02*
X2236729Y-14535008D01*
X2236729Y-14535008D02*
X2246253Y-14544531D01*
X2246253Y-14544531D02*
X2255777Y-14563579D01*
X2255777Y-14563579D02*
X2265301Y-14601674D01*
X2265301Y-14601674D02*
X2265301Y-14649293D01*
X2265301Y-14649293D02*
X2255777Y-14687388D01*
X2255777Y-14687388D02*
X2246253Y-14706436D01*
X2246253Y-14706436D02*
X2236729Y-14715960D01*
X2236729Y-14715960D02*
X2217682Y-14725484D01*
X2217682Y-14725484D02*
X2198634Y-14725484D01*
X2198634Y-14725484D02*
X2179587Y-14715960D01*
X2179587Y-14715960D02*
X2170063Y-14706436D01*
X2170063Y-14706436D02*
X2160539Y-14687388D01*
X2160539Y-14687388D02*
X2151015Y-14649293D01*
X2151015Y-14649293D02*
X2151015Y-14601674D01*
X2151015Y-14601674D02*
X2160539Y-14563579D01*
X2160539Y-14563579D02*
X2170063Y-14544531D01*
X2170063Y-14544531D02*
X2179587Y-14535008D01*
X2179587Y-14535008D02*
X2198634Y-14525484D01*
X2351015Y-14706436D02*
X2360539Y-14715960D01*
X2360539Y-14715960D02*
X2351015Y-14725484D01*
X2351015Y-14725484D02*
X2341491Y-14715960D01*
X2341491Y-14715960D02*
X2351015Y-14706436D01*
X2351015Y-14706436D02*
X2351015Y-14725484D01*
X2484348Y-14525484D02*
X2503396Y-14525484D01*
X2503396Y-14525484D02*
X2522444Y-14535008D01*
X2522444Y-14535008D02*
X2531968Y-14544531D01*
X2531968Y-14544531D02*
X2541491Y-14563579D01*
X2541491Y-14563579D02*
X2551015Y-14601674D01*
X2551015Y-14601674D02*
X2551015Y-14649293D01*
X2551015Y-14649293D02*
X2541491Y-14687388D01*
X2541491Y-14687388D02*
X2531968Y-14706436D01*
X2531968Y-14706436D02*
X2522444Y-14715960D01*
X2522444Y-14715960D02*
X2503396Y-14725484D01*
X2503396Y-14725484D02*
X2484348Y-14725484D01*
X2484348Y-14725484D02*
X2465301Y-14715960D01*
X2465301Y-14715960D02*
X2455777Y-14706436D01*
X2455777Y-14706436D02*
X2446253Y-14687388D01*
X2446253Y-14687388D02*
X2436729Y-14649293D01*
X2436729Y-14649293D02*
X2436729Y-14601674D01*
X2436729Y-14601674D02*
X2446253Y-14563579D01*
X2446253Y-14563579D02*
X2455777Y-14544531D01*
X2455777Y-14544531D02*
X2465301Y-14535008D01*
X2465301Y-14535008D02*
X2484348Y-14525484D01*
X2617682Y-14525484D02*
X2741491Y-14525484D01*
X2741491Y-14525484D02*
X2674825Y-14601674D01*
X2674825Y-14601674D02*
X2703396Y-14601674D01*
X2703396Y-14601674D02*
X2722444Y-14611198D01*
X2722444Y-14611198D02*
X2731968Y-14620722D01*
X2731968Y-14620722D02*
X2741491Y-14639769D01*
X2741491Y-14639769D02*
X2741491Y-14687388D01*
X2741491Y-14687388D02*
X2731968Y-14706436D01*
X2731968Y-14706436D02*
X2722444Y-14715960D01*
X2722444Y-14715960D02*
X2703396Y-14725484D01*
X2703396Y-14725484D02*
X2646253Y-14725484D01*
X2646253Y-14725484D02*
X2627206Y-14715960D01*
X2627206Y-14715960D02*
X2617682Y-14706436D01*
X2931967Y-14725484D02*
X2817682Y-14725484D01*
X2874825Y-14725484D02*
X2874825Y-14525484D01*
X2874825Y-14525484D02*
X2855777Y-14554055D01*
X2855777Y-14554055D02*
X2836729Y-14573103D01*
X2836729Y-14573103D02*
X2817682Y-14582627D01*
X3112920Y-14525484D02*
X3017682Y-14525484D01*
X3017682Y-14525484D02*
X3008158Y-14620722D01*
X3008158Y-14620722D02*
X3017682Y-14611198D01*
X3017682Y-14611198D02*
X3036729Y-14601674D01*
X3036729Y-14601674D02*
X3084348Y-14601674D01*
X3084348Y-14601674D02*
X3103396Y-14611198D01*
X3103396Y-14611198D02*
X3112920Y-14620722D01*
X3112920Y-14620722D02*
X3122444Y-14639769D01*
X3122444Y-14639769D02*
X3122444Y-14687388D01*
X3122444Y-14687388D02*
X3112920Y-14706436D01*
X3112920Y-14706436D02*
X3103396Y-14715960D01*
X3103396Y-14715960D02*
X3084348Y-14725484D01*
X3084348Y-14725484D02*
X3036729Y-14725484D01*
X3036729Y-14725484D02*
X3017682Y-14715960D01*
X3017682Y-14715960D02*
X3008158Y-14706436D01*
X3198634Y-14525484D02*
X3198634Y-14563579D01*
X3274825Y-14525484D02*
X3274825Y-14563579D01*
X3570063Y-14801674D02*
X3560539Y-14792150D01*
X3560539Y-14792150D02*
X3541491Y-14763579D01*
X3541491Y-14763579D02*
X3531968Y-14744531D01*
X3531968Y-14744531D02*
X3522444Y-14715960D01*
X3522444Y-14715960D02*
X3512920Y-14668341D01*
X3512920Y-14668341D02*
X3512920Y-14630246D01*
X3512920Y-14630246D02*
X3522444Y-14582627D01*
X3522444Y-14582627D02*
X3531968Y-14554055D01*
X3531968Y-14554055D02*
X3541491Y-14535008D01*
X3541491Y-14535008D02*
X3560539Y-14506436D01*
X3560539Y-14506436D02*
X3570063Y-14496912D01*
X3751015Y-14725484D02*
X3636729Y-14725484D01*
X3693872Y-14725484D02*
X3693872Y-14525484D01*
X3693872Y-14525484D02*
X3674825Y-14554055D01*
X3674825Y-14554055D02*
X3655777Y-14573103D01*
X3655777Y-14573103D02*
X3636729Y-14582627D01*
X3865301Y-14611198D02*
X3846253Y-14601674D01*
X3846253Y-14601674D02*
X3836729Y-14592150D01*
X3836729Y-14592150D02*
X3827206Y-14573103D01*
X3827206Y-14573103D02*
X3827206Y-14563579D01*
X3827206Y-14563579D02*
X3836729Y-14544531D01*
X3836729Y-14544531D02*
X3846253Y-14535008D01*
X3846253Y-14535008D02*
X3865301Y-14525484D01*
X3865301Y-14525484D02*
X3903396Y-14525484D01*
X3903396Y-14525484D02*
X3922444Y-14535008D01*
X3922444Y-14535008D02*
X3931968Y-14544531D01*
X3931968Y-14544531D02*
X3941491Y-14563579D01*
X3941491Y-14563579D02*
X3941491Y-14573103D01*
X3941491Y-14573103D02*
X3931968Y-14592150D01*
X3931968Y-14592150D02*
X3922444Y-14601674D01*
X3922444Y-14601674D02*
X3903396Y-14611198D01*
X3903396Y-14611198D02*
X3865301Y-14611198D01*
X3865301Y-14611198D02*
X3846253Y-14620722D01*
X3846253Y-14620722D02*
X3836729Y-14630246D01*
X3836729Y-14630246D02*
X3827206Y-14649293D01*
X3827206Y-14649293D02*
X3827206Y-14687388D01*
X3827206Y-14687388D02*
X3836729Y-14706436D01*
X3836729Y-14706436D02*
X3846253Y-14715960D01*
X3846253Y-14715960D02*
X3865301Y-14725484D01*
X3865301Y-14725484D02*
X3903396Y-14725484D01*
X3903396Y-14725484D02*
X3922444Y-14715960D01*
X3922444Y-14715960D02*
X3931968Y-14706436D01*
X3931968Y-14706436D02*
X3941491Y-14687388D01*
X3941491Y-14687388D02*
X3941491Y-14649293D01*
X3941491Y-14649293D02*
X3931968Y-14630246D01*
X3931968Y-14630246D02*
X3922444Y-14620722D01*
X3922444Y-14620722D02*
X3903396Y-14611198D01*
X4112920Y-14525484D02*
X4074825Y-14525484D01*
X4074825Y-14525484D02*
X4055777Y-14535008D01*
X4055777Y-14535008D02*
X4046253Y-14544531D01*
X4046253Y-14544531D02*
X4027206Y-14573103D01*
X4027206Y-14573103D02*
X4017682Y-14611198D01*
X4017682Y-14611198D02*
X4017682Y-14687388D01*
X4017682Y-14687388D02*
X4027206Y-14706436D01*
X4027206Y-14706436D02*
X4036729Y-14715960D01*
X4036729Y-14715960D02*
X4055777Y-14725484D01*
X4055777Y-14725484D02*
X4093872Y-14725484D01*
X4093872Y-14725484D02*
X4112920Y-14715960D01*
X4112920Y-14715960D02*
X4122444Y-14706436D01*
X4122444Y-14706436D02*
X4131968Y-14687388D01*
X4131968Y-14687388D02*
X4131968Y-14639769D01*
X4131968Y-14639769D02*
X4122444Y-14620722D01*
X4122444Y-14620722D02*
X4112920Y-14611198D01*
X4112920Y-14611198D02*
X4093872Y-14601674D01*
X4093872Y-14601674D02*
X4055777Y-14601674D01*
X4055777Y-14601674D02*
X4036729Y-14611198D01*
X4036729Y-14611198D02*
X4027206Y-14620722D01*
X4027206Y-14620722D02*
X4017682Y-14639769D01*
X4370063Y-14725484D02*
X4370063Y-14525484D01*
X4455777Y-14725484D02*
X4455777Y-14620722D01*
X4455777Y-14620722D02*
X4446253Y-14601674D01*
X4446253Y-14601674D02*
X4427206Y-14592150D01*
X4427206Y-14592150D02*
X4398634Y-14592150D01*
X4398634Y-14592150D02*
X4379587Y-14601674D01*
X4379587Y-14601674D02*
X4370063Y-14611198D01*
X4579587Y-14725484D02*
X4560539Y-14715960D01*
X4560539Y-14715960D02*
X4551015Y-14706436D01*
X4551015Y-14706436D02*
X4541492Y-14687388D01*
X4541492Y-14687388D02*
X4541492Y-14630246D01*
X4541492Y-14630246D02*
X4551015Y-14611198D01*
X4551015Y-14611198D02*
X4560539Y-14601674D01*
X4560539Y-14601674D02*
X4579587Y-14592150D01*
X4579587Y-14592150D02*
X4608158Y-14592150D01*
X4608158Y-14592150D02*
X4627206Y-14601674D01*
X4627206Y-14601674D02*
X4636730Y-14611198D01*
X4636730Y-14611198D02*
X4646253Y-14630246D01*
X4646253Y-14630246D02*
X4646253Y-14687388D01*
X4646253Y-14687388D02*
X4636730Y-14706436D01*
X4636730Y-14706436D02*
X4627206Y-14715960D01*
X4627206Y-14715960D02*
X4608158Y-14725484D01*
X4608158Y-14725484D02*
X4579587Y-14725484D01*
X4760539Y-14725484D02*
X4741492Y-14715960D01*
X4741492Y-14715960D02*
X4731968Y-14696912D01*
X4731968Y-14696912D02*
X4731968Y-14525484D01*
X4912920Y-14715960D02*
X4893873Y-14725484D01*
X4893873Y-14725484D02*
X4855777Y-14725484D01*
X4855777Y-14725484D02*
X4836730Y-14715960D01*
X4836730Y-14715960D02*
X4827206Y-14696912D01*
X4827206Y-14696912D02*
X4827206Y-14620722D01*
X4827206Y-14620722D02*
X4836730Y-14601674D01*
X4836730Y-14601674D02*
X4855777Y-14592150D01*
X4855777Y-14592150D02*
X4893873Y-14592150D01*
X4893873Y-14592150D02*
X4912920Y-14601674D01*
X4912920Y-14601674D02*
X4922444Y-14620722D01*
X4922444Y-14620722D02*
X4922444Y-14639769D01*
X4922444Y-14639769D02*
X4827206Y-14658817D01*
X4998634Y-14715960D02*
X5017682Y-14725484D01*
X5017682Y-14725484D02*
X5055777Y-14725484D01*
X5055777Y-14725484D02*
X5074825Y-14715960D01*
X5074825Y-14715960D02*
X5084349Y-14696912D01*
X5084349Y-14696912D02*
X5084349Y-14687388D01*
X5084349Y-14687388D02*
X5074825Y-14668341D01*
X5074825Y-14668341D02*
X5055777Y-14658817D01*
X5055777Y-14658817D02*
X5027206Y-14658817D01*
X5027206Y-14658817D02*
X5008158Y-14649293D01*
X5008158Y-14649293D02*
X4998634Y-14630246D01*
X4998634Y-14630246D02*
X4998634Y-14620722D01*
X4998634Y-14620722D02*
X5008158Y-14601674D01*
X5008158Y-14601674D02*
X5027206Y-14592150D01*
X5027206Y-14592150D02*
X5055777Y-14592150D01*
X5055777Y-14592150D02*
X5074825Y-14601674D01*
X5151015Y-14801674D02*
X5160539Y-14792150D01*
X5160539Y-14792150D02*
X5179587Y-14763579D01*
X5179587Y-14763579D02*
X5189111Y-14744531D01*
X5189111Y-14744531D02*
X5198634Y-14715960D01*
X5198634Y-14715960D02*
X5208158Y-14668341D01*
X5208158Y-14668341D02*
X5208158Y-14630246D01*
X5208158Y-14630246D02*
X5198634Y-14582627D01*
X5198634Y-14582627D02*
X5189111Y-14554055D01*
X5189111Y-14554055D02*
X5179587Y-14535008D01*
X5179587Y-14535008D02*
X5160539Y-14506436D01*
X5160539Y-14506436D02*
X5151015Y-14496912D01*
D10*
X-55000Y-14848000D02*
X-55000Y-14948000D01*
X-105000Y-14898000D02*
X-5000Y-14898000D01*
D11*
X360539Y-14989484D02*
X246253Y-14989484D01*
X303396Y-14989484D02*
X303396Y-14789484D01*
X303396Y-14789484D02*
X284348Y-14818055D01*
X284348Y-14818055D02*
X265301Y-14837103D01*
X265301Y-14837103D02*
X246253Y-14846627D01*
X446253Y-14970436D02*
X455777Y-14979960D01*
X455777Y-14979960D02*
X446253Y-14989484D01*
X446253Y-14989484D02*
X436729Y-14979960D01*
X436729Y-14979960D02*
X446253Y-14970436D01*
X446253Y-14970436D02*
X446253Y-14989484D01*
X579586Y-14789484D02*
X598634Y-14789484D01*
X598634Y-14789484D02*
X617682Y-14799008D01*
X617682Y-14799008D02*
X627205Y-14808531D01*
X627205Y-14808531D02*
X636729Y-14827579D01*
X636729Y-14827579D02*
X646253Y-14865674D01*
X646253Y-14865674D02*
X646253Y-14913293D01*
X646253Y-14913293D02*
X636729Y-14951388D01*
X636729Y-14951388D02*
X627205Y-14970436D01*
X627205Y-14970436D02*
X617682Y-14979960D01*
X617682Y-14979960D02*
X598634Y-14989484D01*
X598634Y-14989484D02*
X579586Y-14989484D01*
X579586Y-14989484D02*
X560539Y-14979960D01*
X560539Y-14979960D02*
X551015Y-14970436D01*
X551015Y-14970436D02*
X541491Y-14951388D01*
X541491Y-14951388D02*
X531967Y-14913293D01*
X531967Y-14913293D02*
X531967Y-14865674D01*
X531967Y-14865674D02*
X541491Y-14827579D01*
X541491Y-14827579D02*
X551015Y-14808531D01*
X551015Y-14808531D02*
X560539Y-14799008D01*
X560539Y-14799008D02*
X579586Y-14789484D01*
X770062Y-14789484D02*
X789110Y-14789484D01*
X789110Y-14789484D02*
X808158Y-14799008D01*
X808158Y-14799008D02*
X817682Y-14808531D01*
X817682Y-14808531D02*
X827205Y-14827579D01*
X827205Y-14827579D02*
X836729Y-14865674D01*
X836729Y-14865674D02*
X836729Y-14913293D01*
X836729Y-14913293D02*
X827205Y-14951388D01*
X827205Y-14951388D02*
X817682Y-14970436D01*
X817682Y-14970436D02*
X808158Y-14979960D01*
X808158Y-14979960D02*
X789110Y-14989484D01*
X789110Y-14989484D02*
X770062Y-14989484D01*
X770062Y-14989484D02*
X751015Y-14979960D01*
X751015Y-14979960D02*
X741491Y-14970436D01*
X741491Y-14970436D02*
X731967Y-14951388D01*
X731967Y-14951388D02*
X722443Y-14913293D01*
X722443Y-14913293D02*
X722443Y-14865674D01*
X722443Y-14865674D02*
X731967Y-14827579D01*
X731967Y-14827579D02*
X741491Y-14808531D01*
X741491Y-14808531D02*
X751015Y-14799008D01*
X751015Y-14799008D02*
X770062Y-14789484D01*
X960539Y-14789484D02*
X979586Y-14789484D01*
X979586Y-14789484D02*
X998634Y-14799008D01*
X998634Y-14799008D02*
X1008158Y-14808531D01*
X1008158Y-14808531D02*
X1017682Y-14827579D01*
X1017682Y-14827579D02*
X1027205Y-14865674D01*
X1027205Y-14865674D02*
X1027205Y-14913293D01*
X1027205Y-14913293D02*
X1017682Y-14951388D01*
X1017682Y-14951388D02*
X1008158Y-14970436D01*
X1008158Y-14970436D02*
X998634Y-14979960D01*
X998634Y-14979960D02*
X979586Y-14989484D01*
X979586Y-14989484D02*
X960539Y-14989484D01*
X960539Y-14989484D02*
X941491Y-14979960D01*
X941491Y-14979960D02*
X931967Y-14970436D01*
X931967Y-14970436D02*
X922443Y-14951388D01*
X922443Y-14951388D02*
X912920Y-14913293D01*
X912920Y-14913293D02*
X912920Y-14865674D01*
X912920Y-14865674D02*
X922443Y-14827579D01*
X922443Y-14827579D02*
X931967Y-14808531D01*
X931967Y-14808531D02*
X941491Y-14799008D01*
X941491Y-14799008D02*
X960539Y-14789484D01*
X1112920Y-14989484D02*
X1112920Y-14856150D01*
X1112920Y-14875198D02*
X1122444Y-14865674D01*
X1122444Y-14865674D02*
X1141491Y-14856150D01*
X1141491Y-14856150D02*
X1170063Y-14856150D01*
X1170063Y-14856150D02*
X1189110Y-14865674D01*
X1189110Y-14865674D02*
X1198634Y-14884722D01*
X1198634Y-14884722D02*
X1198634Y-14989484D01*
X1198634Y-14884722D02*
X1208158Y-14865674D01*
X1208158Y-14865674D02*
X1227205Y-14856150D01*
X1227205Y-14856150D02*
X1255777Y-14856150D01*
X1255777Y-14856150D02*
X1274825Y-14865674D01*
X1274825Y-14865674D02*
X1284348Y-14884722D01*
X1284348Y-14884722D02*
X1284348Y-14989484D01*
X1379586Y-14989484D02*
X1379586Y-14856150D01*
X1379586Y-14875198D02*
X1389110Y-14865674D01*
X1389110Y-14865674D02*
X1408158Y-14856150D01*
X1408158Y-14856150D02*
X1436729Y-14856150D01*
X1436729Y-14856150D02*
X1455777Y-14865674D01*
X1455777Y-14865674D02*
X1465301Y-14884722D01*
X1465301Y-14884722D02*
X1465301Y-14989484D01*
X1465301Y-14884722D02*
X1474824Y-14865674D01*
X1474824Y-14865674D02*
X1493872Y-14856150D01*
X1493872Y-14856150D02*
X1522443Y-14856150D01*
X1522443Y-14856150D02*
X1541491Y-14865674D01*
X1541491Y-14865674D02*
X1551015Y-14884722D01*
X1551015Y-14884722D02*
X1551015Y-14989484D01*
X1941491Y-14779960D02*
X1770063Y-15037103D01*
X2198634Y-14789484D02*
X2217682Y-14789484D01*
X2217682Y-14789484D02*
X2236729Y-14799008D01*
X2236729Y-14799008D02*
X2246253Y-14808531D01*
X2246253Y-14808531D02*
X2255777Y-14827579D01*
X2255777Y-14827579D02*
X2265301Y-14865674D01*
X2265301Y-14865674D02*
X2265301Y-14913293D01*
X2265301Y-14913293D02*
X2255777Y-14951388D01*
X2255777Y-14951388D02*
X2246253Y-14970436D01*
X2246253Y-14970436D02*
X2236729Y-14979960D01*
X2236729Y-14979960D02*
X2217682Y-14989484D01*
X2217682Y-14989484D02*
X2198634Y-14989484D01*
X2198634Y-14989484D02*
X2179587Y-14979960D01*
X2179587Y-14979960D02*
X2170063Y-14970436D01*
X2170063Y-14970436D02*
X2160539Y-14951388D01*
X2160539Y-14951388D02*
X2151015Y-14913293D01*
X2151015Y-14913293D02*
X2151015Y-14865674D01*
X2151015Y-14865674D02*
X2160539Y-14827579D01*
X2160539Y-14827579D02*
X2170063Y-14808531D01*
X2170063Y-14808531D02*
X2179587Y-14799008D01*
X2179587Y-14799008D02*
X2198634Y-14789484D01*
X2351015Y-14970436D02*
X2360539Y-14979960D01*
X2360539Y-14979960D02*
X2351015Y-14989484D01*
X2351015Y-14989484D02*
X2341491Y-14979960D01*
X2341491Y-14979960D02*
X2351015Y-14970436D01*
X2351015Y-14970436D02*
X2351015Y-14989484D01*
X2484348Y-14789484D02*
X2503396Y-14789484D01*
X2503396Y-14789484D02*
X2522444Y-14799008D01*
X2522444Y-14799008D02*
X2531968Y-14808531D01*
X2531968Y-14808531D02*
X2541491Y-14827579D01*
X2541491Y-14827579D02*
X2551015Y-14865674D01*
X2551015Y-14865674D02*
X2551015Y-14913293D01*
X2551015Y-14913293D02*
X2541491Y-14951388D01*
X2541491Y-14951388D02*
X2531968Y-14970436D01*
X2531968Y-14970436D02*
X2522444Y-14979960D01*
X2522444Y-14979960D02*
X2503396Y-14989484D01*
X2503396Y-14989484D02*
X2484348Y-14989484D01*
X2484348Y-14989484D02*
X2465301Y-14979960D01*
X2465301Y-14979960D02*
X2455777Y-14970436D01*
X2455777Y-14970436D02*
X2446253Y-14951388D01*
X2446253Y-14951388D02*
X2436729Y-14913293D01*
X2436729Y-14913293D02*
X2436729Y-14865674D01*
X2436729Y-14865674D02*
X2446253Y-14827579D01*
X2446253Y-14827579D02*
X2455777Y-14808531D01*
X2455777Y-14808531D02*
X2465301Y-14799008D01*
X2465301Y-14799008D02*
X2484348Y-14789484D01*
X2617682Y-14789484D02*
X2741491Y-14789484D01*
X2741491Y-14789484D02*
X2674825Y-14865674D01*
X2674825Y-14865674D02*
X2703396Y-14865674D01*
X2703396Y-14865674D02*
X2722444Y-14875198D01*
X2722444Y-14875198D02*
X2731968Y-14884722D01*
X2731968Y-14884722D02*
X2741491Y-14903769D01*
X2741491Y-14903769D02*
X2741491Y-14951388D01*
X2741491Y-14951388D02*
X2731968Y-14970436D01*
X2731968Y-14970436D02*
X2722444Y-14979960D01*
X2722444Y-14979960D02*
X2703396Y-14989484D01*
X2703396Y-14989484D02*
X2646253Y-14989484D01*
X2646253Y-14989484D02*
X2627206Y-14979960D01*
X2627206Y-14979960D02*
X2617682Y-14970436D01*
X2836729Y-14989484D02*
X2874825Y-14989484D01*
X2874825Y-14989484D02*
X2893872Y-14979960D01*
X2893872Y-14979960D02*
X2903396Y-14970436D01*
X2903396Y-14970436D02*
X2922444Y-14941865D01*
X2922444Y-14941865D02*
X2931967Y-14903769D01*
X2931967Y-14903769D02*
X2931967Y-14827579D01*
X2931967Y-14827579D02*
X2922444Y-14808531D01*
X2922444Y-14808531D02*
X2912920Y-14799008D01*
X2912920Y-14799008D02*
X2893872Y-14789484D01*
X2893872Y-14789484D02*
X2855777Y-14789484D01*
X2855777Y-14789484D02*
X2836729Y-14799008D01*
X2836729Y-14799008D02*
X2827206Y-14808531D01*
X2827206Y-14808531D02*
X2817682Y-14827579D01*
X2817682Y-14827579D02*
X2817682Y-14875198D01*
X2817682Y-14875198D02*
X2827206Y-14894246D01*
X2827206Y-14894246D02*
X2836729Y-14903769D01*
X2836729Y-14903769D02*
X2855777Y-14913293D01*
X2855777Y-14913293D02*
X2893872Y-14913293D01*
X2893872Y-14913293D02*
X2912920Y-14903769D01*
X2912920Y-14903769D02*
X2922444Y-14894246D01*
X2922444Y-14894246D02*
X2931967Y-14875198D01*
X3103396Y-14856150D02*
X3103396Y-14989484D01*
X3055777Y-14779960D02*
X3008158Y-14922817D01*
X3008158Y-14922817D02*
X3131967Y-14922817D01*
X3198634Y-14789484D02*
X3198634Y-14827579D01*
X3274825Y-14789484D02*
X3274825Y-14827579D01*
X3570063Y-15065674D02*
X3560539Y-15056150D01*
X3560539Y-15056150D02*
X3541491Y-15027579D01*
X3541491Y-15027579D02*
X3531968Y-15008531D01*
X3531968Y-15008531D02*
X3522444Y-14979960D01*
X3522444Y-14979960D02*
X3512920Y-14932341D01*
X3512920Y-14932341D02*
X3512920Y-14894246D01*
X3512920Y-14894246D02*
X3522444Y-14846627D01*
X3522444Y-14846627D02*
X3531968Y-14818055D01*
X3531968Y-14818055D02*
X3541491Y-14799008D01*
X3541491Y-14799008D02*
X3560539Y-14770436D01*
X3560539Y-14770436D02*
X3570063Y-14760912D01*
X3731968Y-14789484D02*
X3693872Y-14789484D01*
X3693872Y-14789484D02*
X3674825Y-14799008D01*
X3674825Y-14799008D02*
X3665301Y-14808531D01*
X3665301Y-14808531D02*
X3646253Y-14837103D01*
X3646253Y-14837103D02*
X3636729Y-14875198D01*
X3636729Y-14875198D02*
X3636729Y-14951388D01*
X3636729Y-14951388D02*
X3646253Y-14970436D01*
X3646253Y-14970436D02*
X3655777Y-14979960D01*
X3655777Y-14979960D02*
X3674825Y-14989484D01*
X3674825Y-14989484D02*
X3712920Y-14989484D01*
X3712920Y-14989484D02*
X3731968Y-14979960D01*
X3731968Y-14979960D02*
X3741491Y-14970436D01*
X3741491Y-14970436D02*
X3751015Y-14951388D01*
X3751015Y-14951388D02*
X3751015Y-14903769D01*
X3751015Y-14903769D02*
X3741491Y-14884722D01*
X3741491Y-14884722D02*
X3731968Y-14875198D01*
X3731968Y-14875198D02*
X3712920Y-14865674D01*
X3712920Y-14865674D02*
X3674825Y-14865674D01*
X3674825Y-14865674D02*
X3655777Y-14875198D01*
X3655777Y-14875198D02*
X3646253Y-14884722D01*
X3646253Y-14884722D02*
X3636729Y-14903769D01*
X3931968Y-14789484D02*
X3836729Y-14789484D01*
X3836729Y-14789484D02*
X3827206Y-14884722D01*
X3827206Y-14884722D02*
X3836729Y-14875198D01*
X3836729Y-14875198D02*
X3855777Y-14865674D01*
X3855777Y-14865674D02*
X3903396Y-14865674D01*
X3903396Y-14865674D02*
X3922444Y-14875198D01*
X3922444Y-14875198D02*
X3931968Y-14884722D01*
X3931968Y-14884722D02*
X3941491Y-14903769D01*
X3941491Y-14903769D02*
X3941491Y-14951388D01*
X3941491Y-14951388D02*
X3931968Y-14970436D01*
X3931968Y-14970436D02*
X3922444Y-14979960D01*
X3922444Y-14979960D02*
X3903396Y-14989484D01*
X3903396Y-14989484D02*
X3855777Y-14989484D01*
X3855777Y-14989484D02*
X3836729Y-14979960D01*
X3836729Y-14979960D02*
X3827206Y-14970436D01*
X4179587Y-14989484D02*
X4179587Y-14789484D01*
X4265301Y-14989484D02*
X4265301Y-14884722D01*
X4265301Y-14884722D02*
X4255777Y-14865674D01*
X4255777Y-14865674D02*
X4236730Y-14856150D01*
X4236730Y-14856150D02*
X4208158Y-14856150D01*
X4208158Y-14856150D02*
X4189110Y-14865674D01*
X4189110Y-14865674D02*
X4179587Y-14875198D01*
X4389111Y-14989484D02*
X4370063Y-14979960D01*
X4370063Y-14979960D02*
X4360539Y-14970436D01*
X4360539Y-14970436D02*
X4351015Y-14951388D01*
X4351015Y-14951388D02*
X4351015Y-14894246D01*
X4351015Y-14894246D02*
X4360539Y-14875198D01*
X4360539Y-14875198D02*
X4370063Y-14865674D01*
X4370063Y-14865674D02*
X4389111Y-14856150D01*
X4389111Y-14856150D02*
X4417682Y-14856150D01*
X4417682Y-14856150D02*
X4436730Y-14865674D01*
X4436730Y-14865674D02*
X4446253Y-14875198D01*
X4446253Y-14875198D02*
X4455777Y-14894246D01*
X4455777Y-14894246D02*
X4455777Y-14951388D01*
X4455777Y-14951388D02*
X4446253Y-14970436D01*
X4446253Y-14970436D02*
X4436730Y-14979960D01*
X4436730Y-14979960D02*
X4417682Y-14989484D01*
X4417682Y-14989484D02*
X4389111Y-14989484D01*
X4570063Y-14989484D02*
X4551015Y-14979960D01*
X4551015Y-14979960D02*
X4541492Y-14960912D01*
X4541492Y-14960912D02*
X4541492Y-14789484D01*
X4722444Y-14979960D02*
X4703396Y-14989484D01*
X4703396Y-14989484D02*
X4665301Y-14989484D01*
X4665301Y-14989484D02*
X4646253Y-14979960D01*
X4646253Y-14979960D02*
X4636730Y-14960912D01*
X4636730Y-14960912D02*
X4636730Y-14884722D01*
X4636730Y-14884722D02*
X4646253Y-14865674D01*
X4646253Y-14865674D02*
X4665301Y-14856150D01*
X4665301Y-14856150D02*
X4703396Y-14856150D01*
X4703396Y-14856150D02*
X4722444Y-14865674D01*
X4722444Y-14865674D02*
X4731968Y-14884722D01*
X4731968Y-14884722D02*
X4731968Y-14903769D01*
X4731968Y-14903769D02*
X4636730Y-14922817D01*
X4808158Y-14979960D02*
X4827206Y-14989484D01*
X4827206Y-14989484D02*
X4865301Y-14989484D01*
X4865301Y-14989484D02*
X4884349Y-14979960D01*
X4884349Y-14979960D02*
X4893873Y-14960912D01*
X4893873Y-14960912D02*
X4893873Y-14951388D01*
X4893873Y-14951388D02*
X4884349Y-14932341D01*
X4884349Y-14932341D02*
X4865301Y-14922817D01*
X4865301Y-14922817D02*
X4836730Y-14922817D01*
X4836730Y-14922817D02*
X4817682Y-14913293D01*
X4817682Y-14913293D02*
X4808158Y-14894246D01*
X4808158Y-14894246D02*
X4808158Y-14884722D01*
X4808158Y-14884722D02*
X4817682Y-14865674D01*
X4817682Y-14865674D02*
X4836730Y-14856150D01*
X4836730Y-14856150D02*
X4865301Y-14856150D01*
X4865301Y-14856150D02*
X4884349Y-14865674D01*
X4960539Y-15065674D02*
X4970063Y-15056150D01*
X4970063Y-15056150D02*
X4989111Y-15027579D01*
X4989111Y-15027579D02*
X4998634Y-15008531D01*
X4998634Y-15008531D02*
X5008158Y-14979960D01*
X5008158Y-14979960D02*
X5017682Y-14932341D01*
X5017682Y-14932341D02*
X5017682Y-14894246D01*
X5017682Y-14894246D02*
X5008158Y-14846627D01*
X5008158Y-14846627D02*
X4998634Y-14818055D01*
X4998634Y-14818055D02*
X4989111Y-14799008D01*
X4989111Y-14799008D02*
X4970063Y-14770436D01*
X4970063Y-14770436D02*
X4960539Y-14760912D01*
D14*
X-19937Y-15198063D02*
X-19937Y-15125937D01*
X-92063Y-15125937D01*
X-92063Y-15198063D01*
X-19937Y-15198063D01*
D11*
X360539Y-15253484D02*
X246253Y-15253484D01*
X303396Y-15253484D02*
X303396Y-15053484D01*
X303396Y-15053484D02*
X284348Y-15082055D01*
X284348Y-15082055D02*
X265301Y-15101103D01*
X265301Y-15101103D02*
X246253Y-15110627D01*
X446253Y-15234436D02*
X455777Y-15243960D01*
X455777Y-15243960D02*
X446253Y-15253484D01*
X446253Y-15253484D02*
X436729Y-15243960D01*
X436729Y-15243960D02*
X446253Y-15234436D01*
X446253Y-15234436D02*
X446253Y-15253484D01*
X579586Y-15053484D02*
X598634Y-15053484D01*
X598634Y-15053484D02*
X617682Y-15063008D01*
X617682Y-15063008D02*
X627205Y-15072531D01*
X627205Y-15072531D02*
X636729Y-15091579D01*
X636729Y-15091579D02*
X646253Y-15129674D01*
X646253Y-15129674D02*
X646253Y-15177293D01*
X646253Y-15177293D02*
X636729Y-15215388D01*
X636729Y-15215388D02*
X627205Y-15234436D01*
X627205Y-15234436D02*
X617682Y-15243960D01*
X617682Y-15243960D02*
X598634Y-15253484D01*
X598634Y-15253484D02*
X579586Y-15253484D01*
X579586Y-15253484D02*
X560539Y-15243960D01*
X560539Y-15243960D02*
X551015Y-15234436D01*
X551015Y-15234436D02*
X541491Y-15215388D01*
X541491Y-15215388D02*
X531967Y-15177293D01*
X531967Y-15177293D02*
X531967Y-15129674D01*
X531967Y-15129674D02*
X541491Y-15091579D01*
X541491Y-15091579D02*
X551015Y-15072531D01*
X551015Y-15072531D02*
X560539Y-15063008D01*
X560539Y-15063008D02*
X579586Y-15053484D01*
X722443Y-15072531D02*
X731967Y-15063008D01*
X731967Y-15063008D02*
X751015Y-15053484D01*
X751015Y-15053484D02*
X798634Y-15053484D01*
X798634Y-15053484D02*
X817682Y-15063008D01*
X817682Y-15063008D02*
X827205Y-15072531D01*
X827205Y-15072531D02*
X836729Y-15091579D01*
X836729Y-15091579D02*
X836729Y-15110627D01*
X836729Y-15110627D02*
X827205Y-15139198D01*
X827205Y-15139198D02*
X712920Y-15253484D01*
X712920Y-15253484D02*
X836729Y-15253484D01*
X960539Y-15053484D02*
X979586Y-15053484D01*
X979586Y-15053484D02*
X998634Y-15063008D01*
X998634Y-15063008D02*
X1008158Y-15072531D01*
X1008158Y-15072531D02*
X1017682Y-15091579D01*
X1017682Y-15091579D02*
X1027205Y-15129674D01*
X1027205Y-15129674D02*
X1027205Y-15177293D01*
X1027205Y-15177293D02*
X1017682Y-15215388D01*
X1017682Y-15215388D02*
X1008158Y-15234436D01*
X1008158Y-15234436D02*
X998634Y-15243960D01*
X998634Y-15243960D02*
X979586Y-15253484D01*
X979586Y-15253484D02*
X960539Y-15253484D01*
X960539Y-15253484D02*
X941491Y-15243960D01*
X941491Y-15243960D02*
X931967Y-15234436D01*
X931967Y-15234436D02*
X922443Y-15215388D01*
X922443Y-15215388D02*
X912920Y-15177293D01*
X912920Y-15177293D02*
X912920Y-15129674D01*
X912920Y-15129674D02*
X922443Y-15091579D01*
X922443Y-15091579D02*
X931967Y-15072531D01*
X931967Y-15072531D02*
X941491Y-15063008D01*
X941491Y-15063008D02*
X960539Y-15053484D01*
X1112920Y-15253484D02*
X1112920Y-15120150D01*
X1112920Y-15139198D02*
X1122444Y-15129674D01*
X1122444Y-15129674D02*
X1141491Y-15120150D01*
X1141491Y-15120150D02*
X1170063Y-15120150D01*
X1170063Y-15120150D02*
X1189110Y-15129674D01*
X1189110Y-15129674D02*
X1198634Y-15148722D01*
X1198634Y-15148722D02*
X1198634Y-15253484D01*
X1198634Y-15148722D02*
X1208158Y-15129674D01*
X1208158Y-15129674D02*
X1227205Y-15120150D01*
X1227205Y-15120150D02*
X1255777Y-15120150D01*
X1255777Y-15120150D02*
X1274825Y-15129674D01*
X1274825Y-15129674D02*
X1284348Y-15148722D01*
X1284348Y-15148722D02*
X1284348Y-15253484D01*
X1379586Y-15253484D02*
X1379586Y-15120150D01*
X1379586Y-15139198D02*
X1389110Y-15129674D01*
X1389110Y-15129674D02*
X1408158Y-15120150D01*
X1408158Y-15120150D02*
X1436729Y-15120150D01*
X1436729Y-15120150D02*
X1455777Y-15129674D01*
X1455777Y-15129674D02*
X1465301Y-15148722D01*
X1465301Y-15148722D02*
X1465301Y-15253484D01*
X1465301Y-15148722D02*
X1474824Y-15129674D01*
X1474824Y-15129674D02*
X1493872Y-15120150D01*
X1493872Y-15120150D02*
X1522443Y-15120150D01*
X1522443Y-15120150D02*
X1541491Y-15129674D01*
X1541491Y-15129674D02*
X1551015Y-15148722D01*
X1551015Y-15148722D02*
X1551015Y-15253484D01*
X1941491Y-15043960D02*
X1770063Y-15301103D01*
X2198634Y-15053484D02*
X2217682Y-15053484D01*
X2217682Y-15053484D02*
X2236729Y-15063008D01*
X2236729Y-15063008D02*
X2246253Y-15072531D01*
X2246253Y-15072531D02*
X2255777Y-15091579D01*
X2255777Y-15091579D02*
X2265301Y-15129674D01*
X2265301Y-15129674D02*
X2265301Y-15177293D01*
X2265301Y-15177293D02*
X2255777Y-15215388D01*
X2255777Y-15215388D02*
X2246253Y-15234436D01*
X2246253Y-15234436D02*
X2236729Y-15243960D01*
X2236729Y-15243960D02*
X2217682Y-15253484D01*
X2217682Y-15253484D02*
X2198634Y-15253484D01*
X2198634Y-15253484D02*
X2179587Y-15243960D01*
X2179587Y-15243960D02*
X2170063Y-15234436D01*
X2170063Y-15234436D02*
X2160539Y-15215388D01*
X2160539Y-15215388D02*
X2151015Y-15177293D01*
X2151015Y-15177293D02*
X2151015Y-15129674D01*
X2151015Y-15129674D02*
X2160539Y-15091579D01*
X2160539Y-15091579D02*
X2170063Y-15072531D01*
X2170063Y-15072531D02*
X2179587Y-15063008D01*
X2179587Y-15063008D02*
X2198634Y-15053484D01*
X2351015Y-15234436D02*
X2360539Y-15243960D01*
X2360539Y-15243960D02*
X2351015Y-15253484D01*
X2351015Y-15253484D02*
X2341491Y-15243960D01*
X2341491Y-15243960D02*
X2351015Y-15234436D01*
X2351015Y-15234436D02*
X2351015Y-15253484D01*
X2484348Y-15053484D02*
X2503396Y-15053484D01*
X2503396Y-15053484D02*
X2522444Y-15063008D01*
X2522444Y-15063008D02*
X2531968Y-15072531D01*
X2531968Y-15072531D02*
X2541491Y-15091579D01*
X2541491Y-15091579D02*
X2551015Y-15129674D01*
X2551015Y-15129674D02*
X2551015Y-15177293D01*
X2551015Y-15177293D02*
X2541491Y-15215388D01*
X2541491Y-15215388D02*
X2531968Y-15234436D01*
X2531968Y-15234436D02*
X2522444Y-15243960D01*
X2522444Y-15243960D02*
X2503396Y-15253484D01*
X2503396Y-15253484D02*
X2484348Y-15253484D01*
X2484348Y-15253484D02*
X2465301Y-15243960D01*
X2465301Y-15243960D02*
X2455777Y-15234436D01*
X2455777Y-15234436D02*
X2446253Y-15215388D01*
X2446253Y-15215388D02*
X2436729Y-15177293D01*
X2436729Y-15177293D02*
X2436729Y-15129674D01*
X2436729Y-15129674D02*
X2446253Y-15091579D01*
X2446253Y-15091579D02*
X2455777Y-15072531D01*
X2455777Y-15072531D02*
X2465301Y-15063008D01*
X2465301Y-15063008D02*
X2484348Y-15053484D01*
X2722444Y-15120150D02*
X2722444Y-15253484D01*
X2674825Y-15043960D02*
X2627206Y-15186817D01*
X2627206Y-15186817D02*
X2751015Y-15186817D01*
X2865301Y-15053484D02*
X2884348Y-15053484D01*
X2884348Y-15053484D02*
X2903396Y-15063008D01*
X2903396Y-15063008D02*
X2912920Y-15072531D01*
X2912920Y-15072531D02*
X2922444Y-15091579D01*
X2922444Y-15091579D02*
X2931967Y-15129674D01*
X2931967Y-15129674D02*
X2931967Y-15177293D01*
X2931967Y-15177293D02*
X2922444Y-15215388D01*
X2922444Y-15215388D02*
X2912920Y-15234436D01*
X2912920Y-15234436D02*
X2903396Y-15243960D01*
X2903396Y-15243960D02*
X2884348Y-15253484D01*
X2884348Y-15253484D02*
X2865301Y-15253484D01*
X2865301Y-15253484D02*
X2846253Y-15243960D01*
X2846253Y-15243960D02*
X2836729Y-15234436D01*
X2836729Y-15234436D02*
X2827206Y-15215388D01*
X2827206Y-15215388D02*
X2817682Y-15177293D01*
X2817682Y-15177293D02*
X2817682Y-15129674D01*
X2817682Y-15129674D02*
X2827206Y-15091579D01*
X2827206Y-15091579D02*
X2836729Y-15072531D01*
X2836729Y-15072531D02*
X2846253Y-15063008D01*
X2846253Y-15063008D02*
X2865301Y-15053484D01*
X3008158Y-15072531D02*
X3017682Y-15063008D01*
X3017682Y-15063008D02*
X3036729Y-15053484D01*
X3036729Y-15053484D02*
X3084348Y-15053484D01*
X3084348Y-15053484D02*
X3103396Y-15063008D01*
X3103396Y-15063008D02*
X3112920Y-15072531D01*
X3112920Y-15072531D02*
X3122444Y-15091579D01*
X3122444Y-15091579D02*
X3122444Y-15110627D01*
X3122444Y-15110627D02*
X3112920Y-15139198D01*
X3112920Y-15139198D02*
X2998634Y-15253484D01*
X2998634Y-15253484D02*
X3122444Y-15253484D01*
X3198634Y-15053484D02*
X3198634Y-15091579D01*
X3274825Y-15053484D02*
X3274825Y-15091579D01*
X3570063Y-15329674D02*
X3560539Y-15320150D01*
X3560539Y-15320150D02*
X3541491Y-15291579D01*
X3541491Y-15291579D02*
X3531968Y-15272531D01*
X3531968Y-15272531D02*
X3522444Y-15243960D01*
X3522444Y-15243960D02*
X3512920Y-15196341D01*
X3512920Y-15196341D02*
X3512920Y-15158246D01*
X3512920Y-15158246D02*
X3522444Y-15110627D01*
X3522444Y-15110627D02*
X3531968Y-15082055D01*
X3531968Y-15082055D02*
X3541491Y-15063008D01*
X3541491Y-15063008D02*
X3560539Y-15034436D01*
X3560539Y-15034436D02*
X3570063Y-15024912D01*
X3731968Y-15120150D02*
X3731968Y-15253484D01*
X3684348Y-15043960D02*
X3636729Y-15186817D01*
X3636729Y-15186817D02*
X3760539Y-15186817D01*
X3817682Y-15053484D02*
X3941491Y-15053484D01*
X3941491Y-15053484D02*
X3874825Y-15129674D01*
X3874825Y-15129674D02*
X3903396Y-15129674D01*
X3903396Y-15129674D02*
X3922444Y-15139198D01*
X3922444Y-15139198D02*
X3931968Y-15148722D01*
X3931968Y-15148722D02*
X3941491Y-15167769D01*
X3941491Y-15167769D02*
X3941491Y-15215388D01*
X3941491Y-15215388D02*
X3931968Y-15234436D01*
X3931968Y-15234436D02*
X3922444Y-15243960D01*
X3922444Y-15243960D02*
X3903396Y-15253484D01*
X3903396Y-15253484D02*
X3846253Y-15253484D01*
X3846253Y-15253484D02*
X3827206Y-15243960D01*
X3827206Y-15243960D02*
X3817682Y-15234436D01*
X4179587Y-15253484D02*
X4179587Y-15053484D01*
X4265301Y-15253484D02*
X4265301Y-15148722D01*
X4265301Y-15148722D02*
X4255777Y-15129674D01*
X4255777Y-15129674D02*
X4236730Y-15120150D01*
X4236730Y-15120150D02*
X4208158Y-15120150D01*
X4208158Y-15120150D02*
X4189110Y-15129674D01*
X4189110Y-15129674D02*
X4179587Y-15139198D01*
X4389111Y-15253484D02*
X4370063Y-15243960D01*
X4370063Y-15243960D02*
X4360539Y-15234436D01*
X4360539Y-15234436D02*
X4351015Y-15215388D01*
X4351015Y-15215388D02*
X4351015Y-15158246D01*
X4351015Y-15158246D02*
X4360539Y-15139198D01*
X4360539Y-15139198D02*
X4370063Y-15129674D01*
X4370063Y-15129674D02*
X4389111Y-15120150D01*
X4389111Y-15120150D02*
X4417682Y-15120150D01*
X4417682Y-15120150D02*
X4436730Y-15129674D01*
X4436730Y-15129674D02*
X4446253Y-15139198D01*
X4446253Y-15139198D02*
X4455777Y-15158246D01*
X4455777Y-15158246D02*
X4455777Y-15215388D01*
X4455777Y-15215388D02*
X4446253Y-15234436D01*
X4446253Y-15234436D02*
X4436730Y-15243960D01*
X4436730Y-15243960D02*
X4417682Y-15253484D01*
X4417682Y-15253484D02*
X4389111Y-15253484D01*
X4570063Y-15253484D02*
X4551015Y-15243960D01*
X4551015Y-15243960D02*
X4541492Y-15224912D01*
X4541492Y-15224912D02*
X4541492Y-15053484D01*
X4722444Y-15243960D02*
X4703396Y-15253484D01*
X4703396Y-15253484D02*
X4665301Y-15253484D01*
X4665301Y-15253484D02*
X4646253Y-15243960D01*
X4646253Y-15243960D02*
X4636730Y-15224912D01*
X4636730Y-15224912D02*
X4636730Y-15148722D01*
X4636730Y-15148722D02*
X4646253Y-15129674D01*
X4646253Y-15129674D02*
X4665301Y-15120150D01*
X4665301Y-15120150D02*
X4703396Y-15120150D01*
X4703396Y-15120150D02*
X4722444Y-15129674D01*
X4722444Y-15129674D02*
X4731968Y-15148722D01*
X4731968Y-15148722D02*
X4731968Y-15167769D01*
X4731968Y-15167769D02*
X4636730Y-15186817D01*
X4808158Y-15243960D02*
X4827206Y-15253484D01*
X4827206Y-15253484D02*
X4865301Y-15253484D01*
X4865301Y-15253484D02*
X4884349Y-15243960D01*
X4884349Y-15243960D02*
X4893873Y-15224912D01*
X4893873Y-15224912D02*
X4893873Y-15215388D01*
X4893873Y-15215388D02*
X4884349Y-15196341D01*
X4884349Y-15196341D02*
X4865301Y-15186817D01*
X4865301Y-15186817D02*
X4836730Y-15186817D01*
X4836730Y-15186817D02*
X4817682Y-15177293D01*
X4817682Y-15177293D02*
X4808158Y-15158246D01*
X4808158Y-15158246D02*
X4808158Y-15148722D01*
X4808158Y-15148722D02*
X4817682Y-15129674D01*
X4817682Y-15129674D02*
X4836730Y-15120150D01*
X4836730Y-15120150D02*
X4865301Y-15120150D01*
X4865301Y-15120150D02*
X4884349Y-15129674D01*
X4960539Y-15329674D02*
X4970063Y-15320150D01*
X4970063Y-15320150D02*
X4989111Y-15291579D01*
X4989111Y-15291579D02*
X4998634Y-15272531D01*
X4998634Y-15272531D02*
X5008158Y-15243960D01*
X5008158Y-15243960D02*
X5017682Y-15196341D01*
X5017682Y-15196341D02*
X5017682Y-15158246D01*
X5017682Y-15158246D02*
X5008158Y-15110627D01*
X5008158Y-15110627D02*
X4998634Y-15082055D01*
X4998634Y-15082055D02*
X4989111Y-15063008D01*
X4989111Y-15063008D02*
X4970063Y-15034436D01*
X4970063Y-15034436D02*
X4960539Y-15024912D01*
X-105000Y-15526000D02*
X-5000Y-15426000D01*
X-105000Y-15326000D01*
X-205000Y-15426000D01*
X-105000Y-15526000D01*
X246253Y-15336531D02*
X255777Y-15327008D01*
X255777Y-15327008D02*
X274824Y-15317484D01*
X274824Y-15317484D02*
X322444Y-15317484D01*
X322444Y-15317484D02*
X341491Y-15327008D01*
X341491Y-15327008D02*
X351015Y-15336531D01*
X351015Y-15336531D02*
X360539Y-15355579D01*
X360539Y-15355579D02*
X360539Y-15374627D01*
X360539Y-15374627D02*
X351015Y-15403198D01*
X351015Y-15403198D02*
X236729Y-15517484D01*
X236729Y-15517484D02*
X360539Y-15517484D01*
X446253Y-15498436D02*
X455777Y-15507960D01*
X455777Y-15507960D02*
X446253Y-15517484D01*
X446253Y-15517484D02*
X436729Y-15507960D01*
X436729Y-15507960D02*
X446253Y-15498436D01*
X446253Y-15498436D02*
X446253Y-15517484D01*
X627205Y-15317484D02*
X589110Y-15317484D01*
X589110Y-15317484D02*
X570063Y-15327008D01*
X570063Y-15327008D02*
X560539Y-15336531D01*
X560539Y-15336531D02*
X541491Y-15365103D01*
X541491Y-15365103D02*
X531967Y-15403198D01*
X531967Y-15403198D02*
X531967Y-15479388D01*
X531967Y-15479388D02*
X541491Y-15498436D01*
X541491Y-15498436D02*
X551015Y-15507960D01*
X551015Y-15507960D02*
X570063Y-15517484D01*
X570063Y-15517484D02*
X608158Y-15517484D01*
X608158Y-15517484D02*
X627205Y-15507960D01*
X627205Y-15507960D02*
X636729Y-15498436D01*
X636729Y-15498436D02*
X646253Y-15479388D01*
X646253Y-15479388D02*
X646253Y-15431769D01*
X646253Y-15431769D02*
X636729Y-15412722D01*
X636729Y-15412722D02*
X627205Y-15403198D01*
X627205Y-15403198D02*
X608158Y-15393674D01*
X608158Y-15393674D02*
X570063Y-15393674D01*
X570063Y-15393674D02*
X551015Y-15403198D01*
X551015Y-15403198D02*
X541491Y-15412722D01*
X541491Y-15412722D02*
X531967Y-15431769D01*
X770062Y-15317484D02*
X789110Y-15317484D01*
X789110Y-15317484D02*
X808158Y-15327008D01*
X808158Y-15327008D02*
X817682Y-15336531D01*
X817682Y-15336531D02*
X827205Y-15355579D01*
X827205Y-15355579D02*
X836729Y-15393674D01*
X836729Y-15393674D02*
X836729Y-15441293D01*
X836729Y-15441293D02*
X827205Y-15479388D01*
X827205Y-15479388D02*
X817682Y-15498436D01*
X817682Y-15498436D02*
X808158Y-15507960D01*
X808158Y-15507960D02*
X789110Y-15517484D01*
X789110Y-15517484D02*
X770062Y-15517484D01*
X770062Y-15517484D02*
X751015Y-15507960D01*
X751015Y-15507960D02*
X741491Y-15498436D01*
X741491Y-15498436D02*
X731967Y-15479388D01*
X731967Y-15479388D02*
X722443Y-15441293D01*
X722443Y-15441293D02*
X722443Y-15393674D01*
X722443Y-15393674D02*
X731967Y-15355579D01*
X731967Y-15355579D02*
X741491Y-15336531D01*
X741491Y-15336531D02*
X751015Y-15327008D01*
X751015Y-15327008D02*
X770062Y-15317484D01*
X960539Y-15317484D02*
X979586Y-15317484D01*
X979586Y-15317484D02*
X998634Y-15327008D01*
X998634Y-15327008D02*
X1008158Y-15336531D01*
X1008158Y-15336531D02*
X1017682Y-15355579D01*
X1017682Y-15355579D02*
X1027205Y-15393674D01*
X1027205Y-15393674D02*
X1027205Y-15441293D01*
X1027205Y-15441293D02*
X1017682Y-15479388D01*
X1017682Y-15479388D02*
X1008158Y-15498436D01*
X1008158Y-15498436D02*
X998634Y-15507960D01*
X998634Y-15507960D02*
X979586Y-15517484D01*
X979586Y-15517484D02*
X960539Y-15517484D01*
X960539Y-15517484D02*
X941491Y-15507960D01*
X941491Y-15507960D02*
X931967Y-15498436D01*
X931967Y-15498436D02*
X922443Y-15479388D01*
X922443Y-15479388D02*
X912920Y-15441293D01*
X912920Y-15441293D02*
X912920Y-15393674D01*
X912920Y-15393674D02*
X922443Y-15355579D01*
X922443Y-15355579D02*
X931967Y-15336531D01*
X931967Y-15336531D02*
X941491Y-15327008D01*
X941491Y-15327008D02*
X960539Y-15317484D01*
X1112920Y-15517484D02*
X1112920Y-15384150D01*
X1112920Y-15403198D02*
X1122444Y-15393674D01*
X1122444Y-15393674D02*
X1141491Y-15384150D01*
X1141491Y-15384150D02*
X1170063Y-15384150D01*
X1170063Y-15384150D02*
X1189110Y-15393674D01*
X1189110Y-15393674D02*
X1198634Y-15412722D01*
X1198634Y-15412722D02*
X1198634Y-15517484D01*
X1198634Y-15412722D02*
X1208158Y-15393674D01*
X1208158Y-15393674D02*
X1227205Y-15384150D01*
X1227205Y-15384150D02*
X1255777Y-15384150D01*
X1255777Y-15384150D02*
X1274825Y-15393674D01*
X1274825Y-15393674D02*
X1284348Y-15412722D01*
X1284348Y-15412722D02*
X1284348Y-15517484D01*
X1379586Y-15517484D02*
X1379586Y-15384150D01*
X1379586Y-15403198D02*
X1389110Y-15393674D01*
X1389110Y-15393674D02*
X1408158Y-15384150D01*
X1408158Y-15384150D02*
X1436729Y-15384150D01*
X1436729Y-15384150D02*
X1455777Y-15393674D01*
X1455777Y-15393674D02*
X1465301Y-15412722D01*
X1465301Y-15412722D02*
X1465301Y-15517484D01*
X1465301Y-15412722D02*
X1474824Y-15393674D01*
X1474824Y-15393674D02*
X1493872Y-15384150D01*
X1493872Y-15384150D02*
X1522443Y-15384150D01*
X1522443Y-15384150D02*
X1541491Y-15393674D01*
X1541491Y-15393674D02*
X1551015Y-15412722D01*
X1551015Y-15412722D02*
X1551015Y-15517484D01*
X1941491Y-15307960D02*
X1770063Y-15565103D01*
X2198634Y-15317484D02*
X2217682Y-15317484D01*
X2217682Y-15317484D02*
X2236729Y-15327008D01*
X2236729Y-15327008D02*
X2246253Y-15336531D01*
X2246253Y-15336531D02*
X2255777Y-15355579D01*
X2255777Y-15355579D02*
X2265301Y-15393674D01*
X2265301Y-15393674D02*
X2265301Y-15441293D01*
X2265301Y-15441293D02*
X2255777Y-15479388D01*
X2255777Y-15479388D02*
X2246253Y-15498436D01*
X2246253Y-15498436D02*
X2236729Y-15507960D01*
X2236729Y-15507960D02*
X2217682Y-15517484D01*
X2217682Y-15517484D02*
X2198634Y-15517484D01*
X2198634Y-15517484D02*
X2179587Y-15507960D01*
X2179587Y-15507960D02*
X2170063Y-15498436D01*
X2170063Y-15498436D02*
X2160539Y-15479388D01*
X2160539Y-15479388D02*
X2151015Y-15441293D01*
X2151015Y-15441293D02*
X2151015Y-15393674D01*
X2151015Y-15393674D02*
X2160539Y-15355579D01*
X2160539Y-15355579D02*
X2170063Y-15336531D01*
X2170063Y-15336531D02*
X2179587Y-15327008D01*
X2179587Y-15327008D02*
X2198634Y-15317484D01*
X2351015Y-15498436D02*
X2360539Y-15507960D01*
X2360539Y-15507960D02*
X2351015Y-15517484D01*
X2351015Y-15517484D02*
X2341491Y-15507960D01*
X2341491Y-15507960D02*
X2351015Y-15498436D01*
X2351015Y-15498436D02*
X2351015Y-15517484D01*
X2551015Y-15517484D02*
X2436729Y-15517484D01*
X2493872Y-15517484D02*
X2493872Y-15317484D01*
X2493872Y-15317484D02*
X2474825Y-15346055D01*
X2474825Y-15346055D02*
X2455777Y-15365103D01*
X2455777Y-15365103D02*
X2436729Y-15374627D01*
X2674825Y-15317484D02*
X2693872Y-15317484D01*
X2693872Y-15317484D02*
X2712920Y-15327008D01*
X2712920Y-15327008D02*
X2722444Y-15336531D01*
X2722444Y-15336531D02*
X2731968Y-15355579D01*
X2731968Y-15355579D02*
X2741491Y-15393674D01*
X2741491Y-15393674D02*
X2741491Y-15441293D01*
X2741491Y-15441293D02*
X2731968Y-15479388D01*
X2731968Y-15479388D02*
X2722444Y-15498436D01*
X2722444Y-15498436D02*
X2712920Y-15507960D01*
X2712920Y-15507960D02*
X2693872Y-15517484D01*
X2693872Y-15517484D02*
X2674825Y-15517484D01*
X2674825Y-15517484D02*
X2655777Y-15507960D01*
X2655777Y-15507960D02*
X2646253Y-15498436D01*
X2646253Y-15498436D02*
X2636729Y-15479388D01*
X2636729Y-15479388D02*
X2627206Y-15441293D01*
X2627206Y-15441293D02*
X2627206Y-15393674D01*
X2627206Y-15393674D02*
X2636729Y-15355579D01*
X2636729Y-15355579D02*
X2646253Y-15336531D01*
X2646253Y-15336531D02*
X2655777Y-15327008D01*
X2655777Y-15327008D02*
X2674825Y-15317484D01*
X2817682Y-15336531D02*
X2827206Y-15327008D01*
X2827206Y-15327008D02*
X2846253Y-15317484D01*
X2846253Y-15317484D02*
X2893872Y-15317484D01*
X2893872Y-15317484D02*
X2912920Y-15327008D01*
X2912920Y-15327008D02*
X2922444Y-15336531D01*
X2922444Y-15336531D02*
X2931967Y-15355579D01*
X2931967Y-15355579D02*
X2931967Y-15374627D01*
X2931967Y-15374627D02*
X2922444Y-15403198D01*
X2922444Y-15403198D02*
X2808158Y-15517484D01*
X2808158Y-15517484D02*
X2931967Y-15517484D01*
X3103396Y-15384150D02*
X3103396Y-15517484D01*
X3055777Y-15307960D02*
X3008158Y-15450817D01*
X3008158Y-15450817D02*
X3131967Y-15450817D01*
X3198634Y-15317484D02*
X3198634Y-15355579D01*
X3274825Y-15317484D02*
X3274825Y-15355579D01*
X3570063Y-15593674D02*
X3560539Y-15584150D01*
X3560539Y-15584150D02*
X3541491Y-15555579D01*
X3541491Y-15555579D02*
X3531968Y-15536531D01*
X3531968Y-15536531D02*
X3522444Y-15507960D01*
X3522444Y-15507960D02*
X3512920Y-15460341D01*
X3512920Y-15460341D02*
X3512920Y-15422246D01*
X3512920Y-15422246D02*
X3522444Y-15374627D01*
X3522444Y-15374627D02*
X3531968Y-15346055D01*
X3531968Y-15346055D02*
X3541491Y-15327008D01*
X3541491Y-15327008D02*
X3560539Y-15298436D01*
X3560539Y-15298436D02*
X3570063Y-15288912D01*
X3636729Y-15336531D02*
X3646253Y-15327008D01*
X3646253Y-15327008D02*
X3665301Y-15317484D01*
X3665301Y-15317484D02*
X3712920Y-15317484D01*
X3712920Y-15317484D02*
X3731968Y-15327008D01*
X3731968Y-15327008D02*
X3741491Y-15336531D01*
X3741491Y-15336531D02*
X3751015Y-15355579D01*
X3751015Y-15355579D02*
X3751015Y-15374627D01*
X3751015Y-15374627D02*
X3741491Y-15403198D01*
X3741491Y-15403198D02*
X3627206Y-15517484D01*
X3627206Y-15517484D02*
X3751015Y-15517484D01*
X3989110Y-15517484D02*
X3989110Y-15317484D01*
X4074825Y-15517484D02*
X4074825Y-15412722D01*
X4074825Y-15412722D02*
X4065301Y-15393674D01*
X4065301Y-15393674D02*
X4046253Y-15384150D01*
X4046253Y-15384150D02*
X4017682Y-15384150D01*
X4017682Y-15384150D02*
X3998634Y-15393674D01*
X3998634Y-15393674D02*
X3989110Y-15403198D01*
X4198634Y-15517484D02*
X4179587Y-15507960D01*
X4179587Y-15507960D02*
X4170063Y-15498436D01*
X4170063Y-15498436D02*
X4160539Y-15479388D01*
X4160539Y-15479388D02*
X4160539Y-15422246D01*
X4160539Y-15422246D02*
X4170063Y-15403198D01*
X4170063Y-15403198D02*
X4179587Y-15393674D01*
X4179587Y-15393674D02*
X4198634Y-15384150D01*
X4198634Y-15384150D02*
X4227206Y-15384150D01*
X4227206Y-15384150D02*
X4246253Y-15393674D01*
X4246253Y-15393674D02*
X4255777Y-15403198D01*
X4255777Y-15403198D02*
X4265301Y-15422246D01*
X4265301Y-15422246D02*
X4265301Y-15479388D01*
X4265301Y-15479388D02*
X4255777Y-15498436D01*
X4255777Y-15498436D02*
X4246253Y-15507960D01*
X4246253Y-15507960D02*
X4227206Y-15517484D01*
X4227206Y-15517484D02*
X4198634Y-15517484D01*
X4379587Y-15517484D02*
X4360539Y-15507960D01*
X4360539Y-15507960D02*
X4351015Y-15488912D01*
X4351015Y-15488912D02*
X4351015Y-15317484D01*
X4531968Y-15507960D02*
X4512920Y-15517484D01*
X4512920Y-15517484D02*
X4474825Y-15517484D01*
X4474825Y-15517484D02*
X4455777Y-15507960D01*
X4455777Y-15507960D02*
X4446253Y-15488912D01*
X4446253Y-15488912D02*
X4446253Y-15412722D01*
X4446253Y-15412722D02*
X4455777Y-15393674D01*
X4455777Y-15393674D02*
X4474825Y-15384150D01*
X4474825Y-15384150D02*
X4512920Y-15384150D01*
X4512920Y-15384150D02*
X4531968Y-15393674D01*
X4531968Y-15393674D02*
X4541492Y-15412722D01*
X4541492Y-15412722D02*
X4541492Y-15431769D01*
X4541492Y-15431769D02*
X4446253Y-15450817D01*
X4617682Y-15507960D02*
X4636730Y-15517484D01*
X4636730Y-15517484D02*
X4674825Y-15517484D01*
X4674825Y-15517484D02*
X4693873Y-15507960D01*
X4693873Y-15507960D02*
X4703396Y-15488912D01*
X4703396Y-15488912D02*
X4703396Y-15479388D01*
X4703396Y-15479388D02*
X4693873Y-15460341D01*
X4693873Y-15460341D02*
X4674825Y-15450817D01*
X4674825Y-15450817D02*
X4646253Y-15450817D01*
X4646253Y-15450817D02*
X4627206Y-15441293D01*
X4627206Y-15441293D02*
X4617682Y-15422246D01*
X4617682Y-15422246D02*
X4617682Y-15412722D01*
X4617682Y-15412722D02*
X4627206Y-15393674D01*
X4627206Y-15393674D02*
X4646253Y-15384150D01*
X4646253Y-15384150D02*
X4674825Y-15384150D01*
X4674825Y-15384150D02*
X4693873Y-15393674D01*
X4770063Y-15593674D02*
X4779587Y-15584150D01*
X4779587Y-15584150D02*
X4798634Y-15555579D01*
X4798634Y-15555579D02*
X4808158Y-15536531D01*
X4808158Y-15536531D02*
X4817682Y-15507960D01*
X4817682Y-15507960D02*
X4827206Y-15460341D01*
X4827206Y-15460341D02*
X4827206Y-15422246D01*
X4827206Y-15422246D02*
X4817682Y-15374627D01*
X4817682Y-15374627D02*
X4808158Y-15346055D01*
X4808158Y-15346055D02*
X4798634Y-15327008D01*
X4798634Y-15327008D02*
X4779587Y-15298436D01*
X4779587Y-15298436D02*
X4770063Y-15288912D01*
M02*
